0
SECTION
2
HEADER
9
$INSUNITS
70
4
9
$ACADVER
1
AC1014
9
$HANDSEED
5
FFFF
0
ENDSEC
0
SECTION
2
TABLES
0
TABLE
2
VPORT
5
8
100
AcDbSymbolTable
0
ENDTAB
0
TABLE
2
LTYPE
5
5
100
AcDbSymbolTable
0
LTYPE
5
14
100
AcDbSymbolTableRecord
100
AcDbLinetypeTableRecord
2
BYBLOCK
70
0
0
LTYPE
5
15
100
AcDbSymbolTableRecord
100
AcDbLinetypeTableRecord
2
BYLAYER
70
0
0
ENDTAB
0
TABLE
2
LAYER
5
2
100
AcDbSymbolTable
70
2
0
LAYER
5
50
100
AcDbSymbolTableRecord
100
AcDbLayerTableRecord
2
0
70
0
6
CONTINUOUS
0
ENDTAB
0
TABLE
2
STYLE
5
3
100
AcDbSymbolTable
70
1
0
STYLE
5
11
100
AcDbSymbolTableRecord
100
AcDbTextStyleTableRecord
2
STANDARD
70
0
0
ENDTAB
0
TABLE
2
VIEW
5
6
100
AcDbSymbolTable
70
0
0
ENDTAB
0
TABLE
2
UCS
5
7
100
AcDbSymbolTable
70
0
0
ENDTAB
0
TABLE
2
APPID
5
9
100
AcDbSymbolTable
70
2
0
APPID
5
12
100
AcDbSymbolTableRecord
100
AcDbRegAppTableRecord
2
ACAD
70
0
0
ENDTAB
0
TABLE
2
DIMSTYLE
5
A
100
AcDbSymbolTable
70
1
0
ENDTAB
0
TABLE
2
BLOCK_RECORD
5
1
100
AcDbSymbolTable
70
1
0
BLOCK_RECORD
5
1F
100
AcDbSymbolTableRecord
100
AcDbBlockTableRecord
2
*MODEL_SPACE
0
BLOCK_RECORD
5
1B
100
AcDbSymbolTableRecord
100
AcDbBlockTableRecord
2
*PAPER_SPACE
0
ENDTAB
0
ENDSEC
0
SECTION
2
BLOCKS
0
BLOCK
5
20
100
AcDbEntity
100
AcDbBlockBegin
2
*MODEL_SPACE
0
ENDBLK
5
21
100
AcDbEntity
100
AcDbBlockEnd
0
BLOCK
5
1C
100
AcDbEntity
100
AcDbBlockBegin
2
*PAPER_SPACE
0
ENDBLK
5
1D
100
AcDbEntity
100
AcDbBlockEnd
0
ENDSEC
0
SECTION
2
ENTITIES
0
LINE
5
100
100
AcDbEntity
8
0
100
AcDbLine
10
0.31895791289265119
20
-230.17028379809051
30
0
11
0.3189579128926523
21
15.629716201909538
31
0
0
LWPOLYLINE
5
101
100
AcDbEntity
8
0
100
AcDbPolyline
90
8
70
1
43
0.0
10
251.11895791289257
20
20.629716201909538
10
5.3189579128926514
20
20.629716201909538
42
0.41421356237309714
10
0.31895791289265452
20
15.629716201909503
10
0.31895791289266395
20
-230.17028379809048
42
0.41421356237309465
10
5.3189579128926567
20
-235.17028379809048
10
251.1189579128926
20
-235.17028379809051
42
0.41421356237309298
10
256.1189579128926
20
-230.17028379809045
10
256.1189579128926
20
15.62971620190954
42
0.41421356237309492
0
CIRCLE
5
102
100
AcDbEntity
8
0
100
AcDbCircle
10
5.3189579128926399
20
15.629716201909547
30
0
40
1.5500000000000003
0
CIRCLE
5
103
100
AcDbEntity
8
0
100
AcDbCircle
10
251.11895791289265
20
15.629716201909538
30
0
40
1.549999999999998
0
CIRCLE
5
104
100
AcDbEntity
8
0
100
AcDbCircle
10
251.11895791289254
20
-230.17028379809037
30
0
40
1.5500000000000114
0
CIRCLE
5
105
100
AcDbEntity
8
0
100
AcDbCircle
10
5.3189579128926443
20
-230.17028379809045
30
0
40
1.5500000000000114
0
CIRCLE
5
106
100
AcDbEntity
8
0
100
AcDbCircle
10
23.218957912892648
20
-2.2702837980904604
30
0
40
1.05
0
CIRCLE
5
107
100
AcDbEntity
8
0
100
AcDbCircle
10
53.218957912892648
20
-2.2702837980904604
30
0
40
1.05
0
CIRCLE
5
108
100
AcDbEntity
8
0
100
AcDbCircle
10
23.218957912892648
20
-32.27028379809046
30
0
40
1.05
0
CIRCLE
5
109
100
AcDbEntity
8
0
100
AcDbCircle
10
53.218957912892648
20
-32.27028379809046
30
0
40
1.05
0
CIRCLE
5
110
100
AcDbEntity
8
0
100
AcDbCircle
10
83.218957912892648
20
-2.2702837980904604
30
0
40
1.05
0
CIRCLE
5
111
100
AcDbEntity
8
0
100
AcDbCircle
10
113.21895791289265
20
-2.2702837980904604
30
0
40
1.05
0
CIRCLE
5
112
100
AcDbEntity
8
0
100
AcDbCircle
10
143.21895791289265
20
-2.2702837980904604
30
0
40
1.05
0
CIRCLE
5
113
100
AcDbEntity
8
0
100
AcDbCircle
10
173.21895791289265
20
-2.2702837980904604
30
0
40
1.05
0
CIRCLE
5
114
100
AcDbEntity
8
0
100
AcDbCircle
10
203.21895791289265
20
-2.2702837980904604
30
0
40
1.05
0
CIRCLE
5
115
100
AcDbEntity
8
0
100
AcDbCircle
10
233.21895791289265
20
-2.2702837980904604
30
0
40
1.05
0
CIRCLE
5
116
100
AcDbEntity
8
0
100
AcDbCircle
10
83.218957912892648
20
-32.27028379809046
30
0
40
1.05
0
CIRCLE
5
117
100
AcDbEntity
8
0
100
AcDbCircle
10
113.21895791289265
20
-32.27028379809046
30
0
40
1.05
0
CIRCLE
5
118
100
AcDbEntity
8
0
100
AcDbCircle
10
143.21895791289265
20
-32.27028379809046
30
0
40
1.05
0
CIRCLE
5
119
100
AcDbEntity
8
0
100
AcDbCircle
10
173.21895791289265
20
-32.27028379809046
30
0
40
1.05
0
CIRCLE
5
120
100
AcDbEntity
8
0
100
AcDbCircle
10
203.21895791289265
20
-32.27028379809046
30
0
40
1.05
0
CIRCLE
5
121
100
AcDbEntity
8
0
100
AcDbCircle
10
233.21895791289265
20
-32.27028379809046
30
0
40
1.05
0
CIRCLE
5
122
100
AcDbEntity
8
0
100
AcDbCircle
10
23.218957912892648
20
-62.27028379809046
30
0
40
1.05
0
CIRCLE
5
123
100
AcDbEntity
8
0
100
AcDbCircle
10
53.218957912892648
20
-62.27028379809046
30
0
40
1.05
0
CIRCLE
5
124
100
AcDbEntity
8
0
100
AcDbCircle
10
83.218957912892648
20
-62.27028379809046
30
0
40
1.05
0
CIRCLE
5
125
100
AcDbEntity
8
0
100
AcDbCircle
10
113.21895791289265
20
-62.27028379809046
30
0
40
1.05
0
CIRCLE
5
126
100
AcDbEntity
8
0
100
AcDbCircle
10
143.21895791289265
20
-62.27028379809046
30
0
40
1.05
0
CIRCLE
5
127
100
AcDbEntity
8
0
100
AcDbCircle
10
173.21895791289265
20
-62.27028379809046
30
0
40
1.05
0
CIRCLE
5
128
100
AcDbEntity
8
0
100
AcDbCircle
10
203.21895791289265
20
-62.27028379809046
30
0
40
1.05
0
CIRCLE
5
129
100
AcDbEntity
8
0
100
AcDbCircle
10
233.21895791289265
20
-62.27028379809046
30
0
40
1.05
0
CIRCLE
5
130
100
AcDbEntity
8
0
100
AcDbCircle
10
23.218957912892648
20
-92.270283798090446
30
0
40
1.05
0
CIRCLE
5
131
100
AcDbEntity
8
0
100
AcDbCircle
10
53.218957912892648
20
-92.270283798090446
30
0
40
1.05
0
CIRCLE
5
132
100
AcDbEntity
8
0
100
AcDbCircle
10
83.218957912892648
20
-92.270283798090446
30
0
40
1.05
0
CIRCLE
5
133
100
AcDbEntity
8
0
100
AcDbCircle
10
113.21895791289265
20
-92.270283798090446
30
0
40
1.05
0
CIRCLE
5
134
100
AcDbEntity
8
0
100
AcDbCircle
10
143.21895791289265
20
-92.270283798090446
30
0
40
1.05
0
CIRCLE
5
135
100
AcDbEntity
8
0
100
AcDbCircle
10
173.21895791289265
20
-92.270283798090446
30
0
40
1.05
0
CIRCLE
5
136
100
AcDbEntity
8
0
100
AcDbCircle
10
203.21895791289265
20
-92.270283798090446
30
0
40
1.05
0
CIRCLE
5
137
100
AcDbEntity
8
0
100
AcDbCircle
10
233.21895791289265
20
-92.270283798090446
30
0
40
1.05
0
CIRCLE
5
138
100
AcDbEntity
8
0
100
AcDbCircle
10
23.218957912892648
20
-122.27028379809045
30
0
40
1.05
0
CIRCLE
5
139
100
AcDbEntity
8
0
100
AcDbCircle
10
53.218957912892648
20
-122.27028379809045
30
0
40
1.05
0
CIRCLE
5
140
100
AcDbEntity
8
0
100
AcDbCircle
10
83.218957912892648
20
-122.27028379809045
30
0
40
1.05
0
CIRCLE
5
141
100
AcDbEntity
8
0
100
AcDbCircle
10
113.21895791289265
20
-122.27028379809045
30
0
40
1.05
0
CIRCLE
5
142
100
AcDbEntity
8
0
100
AcDbCircle
10
143.21895791289265
20
-122.27028379809045
30
0
40
1.05
0
CIRCLE
5
143
100
AcDbEntity
8
0
100
AcDbCircle
10
173.21895791289265
20
-122.27028379809045
30
0
40
1.05
0
CIRCLE
5
144
100
AcDbEntity
8
0
100
AcDbCircle
10
203.21895791289265
20
-122.27028379809045
30
0
40
1.05
0
CIRCLE
5
145
100
AcDbEntity
8
0
100
AcDbCircle
10
233.21895791289265
20
-122.27028379809045
30
0
40
1.05
0
CIRCLE
5
146
100
AcDbEntity
8
0
100
AcDbCircle
10
23.218957912892648
20
-152.27028379809045
30
0
40
1.05
0
CIRCLE
5
147
100
AcDbEntity
8
0
100
AcDbCircle
10
53.218957912892648
20
-152.27028379809045
30
0
40
1.05
0
CIRCLE
5
148
100
AcDbEntity
8
0
100
AcDbCircle
10
83.218957912892648
20
-152.27028379809045
30
0
40
1.05
0
CIRCLE
5
149
100
AcDbEntity
8
0
100
AcDbCircle
10
113.21895791289265
20
-152.27028379809045
30
0
40
1.05
0
CIRCLE
5
150
100
AcDbEntity
8
0
100
AcDbCircle
10
143.21895791289265
20
-152.27028379809045
30
0
40
1.05
0
CIRCLE
5
151
100
AcDbEntity
8
0
100
AcDbCircle
10
173.21895791289265
20
-152.27028379809045
30
0
40
1.05
0
CIRCLE
5
152
100
AcDbEntity
8
0
100
AcDbCircle
10
203.21895791289265
20
-152.27028379809045
30
0
40
1.05
0
CIRCLE
5
153
100
AcDbEntity
8
0
100
AcDbCircle
10
233.21895791289265
20
-152.27028379809045
30
0
40
1.05
0
CIRCLE
5
154
100
AcDbEntity
8
0
100
AcDbCircle
10
23.218957912892648
20
-182.27028379809045
30
0
40
1.05
0
CIRCLE
5
155
100
AcDbEntity
8
0
100
AcDbCircle
10
53.218957912892648
20
-182.27028379809045
30
0
40
1.05
0
CIRCLE
5
156
100
AcDbEntity
8
0
100
AcDbCircle
10
83.218957912892648
20
-182.27028379809045
30
0
40
1.05
0
CIRCLE
5
157
100
AcDbEntity
8
0
100
AcDbCircle
10
113.21895791289265
20
-182.27028379809045
30
0
40
1.05
0
CIRCLE
5
158
100
AcDbEntity
8
0
100
AcDbCircle
10
143.21895791289265
20
-182.27028379809045
30
0
40
1.05
0
CIRCLE
5
159
100
AcDbEntity
8
0
100
AcDbCircle
10
173.21895791289265
20
-182.27028379809045
30
0
40
1.05
0
CIRCLE
5
160
100
AcDbEntity
8
0
100
AcDbCircle
10
203.21895791289265
20
-182.27028379809045
30
0
40
1.05
0
CIRCLE
5
161
100
AcDbEntity
8
0
100
AcDbCircle
10
233.21895791289265
20
-182.27028379809045
30
0
40
1.05
0
CIRCLE
5
162
100
AcDbEntity
8
0
100
AcDbCircle
10
23.218957912892648
20
-212.27028379809045
30
0
40
1.05
0
CIRCLE
5
163
100
AcDbEntity
8
0
100
AcDbCircle
10
53.218957912892648
20
-212.27028379809045
30
0
40
1.05
0
CIRCLE
5
164
100
AcDbEntity
8
0
100
AcDbCircle
10
83.218957912892648
20
-212.27028379809045
30
0
40
1.05
0
CIRCLE
5
165
100
AcDbEntity
8
0
100
AcDbCircle
10
113.21895791289265
20
-212.27028379809045
30
0
40
1.05
0
CIRCLE
5
166
100
AcDbEntity
8
0
100
AcDbCircle
10
143.21895791289265
20
-212.27028379809045
30
0
40
1.05
0
CIRCLE
5
167
100
AcDbEntity
8
0
100
AcDbCircle
10
173.21895791289265
20
-212.27028379809045
30
0
40
1.05
0
CIRCLE
5
168
100
AcDbEntity
8
0
100
AcDbCircle
10
203.21895791289265
20
-212.27028379809045
30
0
40
1.05
0
CIRCLE
5
169
100
AcDbEntity
8
0
100
AcDbCircle
10
233.21895791289265
20
-212.27028379809045
30
0
40
1.05
0
ENDSEC
0
SECTION
2
OBJECTS
0
DICTIONARY
5
C
100
AcDbDictionary
3
ACAD_GROUP
350
D
3
ACAD_MLINESTYLE
350
17
0
DICTIONARY
5
D
100
AcDbDictionary
0
DICTIONARY
5
1A
330
C
100
AcDbDictionary
0
DICTIONARY
5
17
100
AcDbDictionary
0
ENDSEC
0
EOF
