0
SECTION
2
HEADER
9
$INSUNITS
70
4
9
$ACADVER
1
AC1014
9
$HANDSEED
5
FFFF
0
ENDSEC
0
SECTION
2
TABLES
0
TABLE
2
VPORT
5
8
100
AcDbSymbolTable
0
ENDTAB
0
TABLE
2
LTYPE
5
5
100
AcDbSymbolTable
0
LTYPE
5
14
100
AcDbSymbolTableRecord
100
AcDbLinetypeTableRecord
2
BYBLOCK
70
0
0
LTYPE
5
15
100
AcDbSymbolTableRecord
100
AcDbLinetypeTableRecord
2
BYLAYER
70
0
0
ENDTAB
0
TABLE
2
LAYER
5
2
100
AcDbSymbolTable
70
2
0
LAYER
5
50
100
AcDbSymbolTableRecord
100
AcDbLayerTableRecord
2
0
70
0
6
CONTINUOUS
0
ENDTAB
0
TABLE
2
STYLE
5
3
100
AcDbSymbolTable
70
1
0
STYLE
5
11
100
AcDbSymbolTableRecord
100
AcDbTextStyleTableRecord
2
STANDARD
70
0
0
ENDTAB
0
TABLE
2
VIEW
5
6
100
AcDbSymbolTable
70
0
0
ENDTAB
0
TABLE
2
UCS
5
7
100
AcDbSymbolTable
70
0
0
ENDTAB
0
TABLE
2
APPID
5
9
100
AcDbSymbolTable
70
2
0
APPID
5
12
100
AcDbSymbolTableRecord
100
AcDbRegAppTableRecord
2
ACAD
70
0
0
ENDTAB
0
TABLE
2
DIMSTYLE
5
A
100
AcDbSymbolTable
70
1
0
ENDTAB
0
TABLE
2
BLOCK_RECORD
5
1
100
AcDbSymbolTable
70
1
0
BLOCK_RECORD
5
1F
100
AcDbSymbolTableRecord
100
AcDbBlockTableRecord
2
*MODEL_SPACE
0
BLOCK_RECORD
5
1B
100
AcDbSymbolTableRecord
100
AcDbBlockTableRecord
2
*PAPER_SPACE
0
ENDTAB
0
ENDSEC
0
SECTION
2
BLOCKS
0
BLOCK
5
20
100
AcDbEntity
100
AcDbBlockBegin
2
*MODEL_SPACE
0
ENDBLK
5
21
100
AcDbEntity
100
AcDbBlockEnd
0
BLOCK
5
1C
100
AcDbEntity
100
AcDbBlockBegin
2
*PAPER_SPACE
0
ENDBLK
5
1D
100
AcDbEntity
100
AcDbBlockEnd
0
ENDSEC
0
SECTION
2
ENTITIES
0
LWPOLYLINE
5
100
100
AcDbEntity
8
0
100
AcDbPolyline
90
8
70
1
43
0.0
10
19.368957912892654
20
-0.17028379809046312
10
12.068957912892655
20
-0.17028379809046423
42
-0.41421356237309515
10
10.318957912892653
20
1.579716201909539
10
10.31895791289265
20
8.8797162019095381
42
-0.41421356237309431
10
12.068957912892646
20
10.629716201909538
10
19.368957912892654
20
10.629716201909538
42
-0.41421356237309392
10
21.118957912892654
20
8.879716201909547
10
21.118957912892654
20
1.5797162019095357
42
-0.41421356237309465
0
LWPOLYLINE
5
101
100
AcDbEntity
8
0
100
AcDbPolyline
90
8
70
1
43
0.0
10
251.11895791289265
20
20.629716201909538
10
5.3189579128926425
20
20.629716201909545
42
0.41421356237309581
10
0.3189579128926523
20
15.629716201909538
10
0.31895791289265119
20
-230.17028379809051
42
0.41421356237308998
10
5.3189579128926212
20
-235.17028379809045
10
251.1189579128926
20
-235.17028379809048
42
0.41421356237309298
10
256.1189579128926
20
-230.17028379809034
10
256.11895791289265
20
15.62971620190954
42
0.41421356237309492
0
LWPOLYLINE
5
102
100
AcDbEntity
8
0
100
AcDbPolyline
90
8
70
1
43
0.0
10
34.368957912892654
20
-0.17028379809046312
10
27.068957912892657
20
-0.17028379809046423
42
-0.41421356237309515
10
25.31895791289265
20
1.579716201909539
10
25.31895791289265
20
8.8797162019095381
42
-0.41421356237309431
10
27.068957912892643
20
10.629716201909538
10
34.368957912892647
20
10.629716201909538
42
-0.41421356237309392
10
36.118957912892647
20
8.879716201909547
10
36.118957912892654
20
1.5797162019095357
42
-0.41421356237309465
0
LWPOLYLINE
5
103
100
AcDbEntity
8
0
100
AcDbPolyline
90
8
70
1
43
0.0
10
49.36895791289264
20
-0.17028379809046312
10
42.068957912892643
20
-0.17028379809046423
42
-0.41421356237309515
10
40.31895791289265
20
1.579716201909539
10
40.31895791289265
20
8.8797162019095381
42
-0.41421356237309431
10
42.068957912892643
20
10.629716201909538
10
49.368957912892654
20
10.629716201909538
42
-0.41421356237309392
10
51.118957912892647
20
8.879716201909547
10
51.118957912892647
20
1.5797162019095357
42
-0.41421356237309465
0
LWPOLYLINE
5
104
100
AcDbEntity
8
0
100
AcDbPolyline
90
8
70
1
43
0.0
10
64.36895791289264
20
-0.17028379809046312
10
57.068957912892643
20
-0.17028379809046423
42
-0.41421356237309515
10
55.318957912892643
20
1.579716201909539
10
55.31895791289265
20
8.8797162019095381
42
-0.41421356237309431
10
57.068957912892643
20
10.629716201909538
10
64.368957912892654
20
10.629716201909538
42
-0.41421356237309392
10
66.11895791289264
20
8.879716201909547
10
66.11895791289264
20
1.5797162019095357
42
-0.41421356237309465
0
LWPOLYLINE
5
105
100
AcDbEntity
8
0
100
AcDbPolyline
90
8
70
1
43
0.0
10
19.368957912892654
20
-15.170283798090463
10
12.068957912892655
20
-15.170283798090464
42
-0.41421356237309515
10
10.318957912892653
20
-13.420283798090459
10
10.31895791289265
20
-6.1202837980904619
42
-0.41421356237309431
10
12.068957912892646
20
-4.3702837980904619
10
19.368957912892654
20
-4.3702837980904619
42
-0.41421356237309392
10
21.118957912892654
20
-6.120283798090453
10
21.118957912892654
20
-13.420283798090464
42
-0.41421356237309465
0
LWPOLYLINE
5
106
100
AcDbEntity
8
0
100
AcDbPolyline
90
8
70
1
43
0.0
10
34.368957912892654
20
-15.170283798090463
10
27.068957912892657
20
-15.170283798090464
42
-0.41421356237309515
10
25.31895791289265
20
-13.420283798090459
10
25.31895791289265
20
-6.1202837980904619
42
-0.41421356237309431
10
27.068957912892643
20
-4.3702837980904619
10
34.368957912892647
20
-4.3702837980904619
42
-0.41421356237309392
10
36.118957912892647
20
-6.120283798090453
10
36.118957912892654
20
-13.420283798090464
42
-0.41421356237309465
0
LWPOLYLINE
5
107
100
AcDbEntity
8
0
100
AcDbPolyline
90
8
70
1
43
0.0
10
49.36895791289264
20
-15.170283798090463
10
42.068957912892643
20
-15.170283798090464
42
-0.41421356237309515
10
40.31895791289265
20
-13.420283798090459
10
40.31895791289265
20
-6.1202837980904619
42
-0.41421356237309431
10
42.068957912892643
20
-4.3702837980904619
10
49.368957912892654
20
-4.3702837980904619
42
-0.41421356237309392
10
51.118957912892647
20
-6.120283798090453
10
51.118957912892647
20
-13.420283798090464
42
-0.41421356237309465
0
LWPOLYLINE
5
108
100
AcDbEntity
8
0
100
AcDbPolyline
90
8
70
1
43
0.0
10
64.36895791289264
20
-15.170283798090463
10
57.068957912892643
20
-15.170283798090464
42
-0.41421356237309515
10
55.318957912892643
20
-13.420283798090459
10
55.31895791289265
20
-6.1202837980904619
42
-0.41421356237309431
10
57.068957912892643
20
-4.3702837980904619
10
64.368957912892654
20
-4.3702837980904619
42
-0.41421356237309392
10
66.11895791289264
20
-6.120283798090453
10
66.11895791289264
20
-13.420283798090464
42
-0.41421356237309465
0
LWPOLYLINE
5
109
100
AcDbEntity
8
0
100
AcDbPolyline
90
8
70
1
43
0.0
10
19.368957912892654
20
-30.170283798090463
10
12.068957912892655
20
-30.170283798090463
42
-0.41421356237309515
10
10.318957912892653
20
-28.420283798090459
10
10.31895791289265
20
-21.120283798090462
42
-0.41421356237309431
10
12.068957912892646
20
-19.370283798090462
10
19.368957912892654
20
-19.370283798090462
42
-0.41421356237309392
10
21.118957912892654
20
-21.120283798090451
10
21.118957912892654
20
-28.42028379809047
42
-0.41421356237309465
0
LWPOLYLINE
5
110
100
AcDbEntity
8
0
100
AcDbPolyline
90
8
70
1
43
0.0
10
34.368957912892654
20
-30.170283798090463
10
27.068957912892657
20
-30.170283798090463
42
-0.41421356237309515
10
25.31895791289265
20
-28.420283798090459
10
25.31895791289265
20
-21.120283798090462
42
-0.41421356237309431
10
27.068957912892643
20
-19.370283798090462
10
34.368957912892647
20
-19.370283798090462
42
-0.41421356237309392
10
36.118957912892647
20
-21.120283798090451
10
36.118957912892654
20
-28.42028379809047
42
-0.41421356237309465
0
LWPOLYLINE
5
111
100
AcDbEntity
8
0
100
AcDbPolyline
90
8
70
1
43
0.0
10
49.36895791289264
20
-30.170283798090463
10
42.068957912892643
20
-30.170283798090463
42
-0.41421356237309515
10
40.31895791289265
20
-28.420283798090459
10
40.31895791289265
20
-21.120283798090462
42
-0.41421356237309431
10
42.068957912892643
20
-19.370283798090462
10
49.368957912892654
20
-19.370283798090462
42
-0.41421356237309392
10
51.118957912892647
20
-21.120283798090451
10
51.118957912892647
20
-28.42028379809047
42
-0.41421356237309465
0
LWPOLYLINE
5
112
100
AcDbEntity
8
0
100
AcDbPolyline
90
8
70
1
43
0.0
10
64.36895791289264
20
-30.170283798090463
10
57.068957912892643
20
-30.170283798090463
42
-0.41421356237309515
10
55.318957912892643
20
-28.420283798090459
10
55.31895791289265
20
-21.120283798090462
42
-0.41421356237309431
10
57.068957912892643
20
-19.370283798090462
10
64.368957912892654
20
-19.370283798090462
42
-0.41421356237309392
10
66.11895791289264
20
-21.120283798090451
10
66.11895791289264
20
-28.42028379809047
42
-0.41421356237309465
0
LWPOLYLINE
5
113
100
AcDbEntity
8
0
100
AcDbPolyline
90
8
70
1
43
0.0
10
19.368957912892654
20
-45.170283798090466
10
12.068957912892655
20
-45.170283798090466
42
-0.41421356237309515
10
10.318957912892653
20
-43.420283798090452
10
10.31895791289265
20
-36.120283798090462
42
-0.41421356237309431
10
12.068957912892646
20
-34.370283798090462
10
19.368957912892654
20
-34.370283798090462
42
-0.41421356237309392
10
21.118957912892654
20
-36.120283798090455
10
21.118957912892654
20
-43.420283798090466
42
-0.41421356237309465
0
LWPOLYLINE
5
114
100
AcDbEntity
8
0
100
AcDbPolyline
90
8
70
1
43
0.0
10
34.368957912892654
20
-45.170283798090466
10
27.068957912892657
20
-45.170283798090466
42
-0.41421356237309515
10
25.31895791289265
20
-43.420283798090452
10
25.31895791289265
20
-36.120283798090462
42
-0.41421356237309431
10
27.068957912892643
20
-34.370283798090462
10
34.368957912892647
20
-34.370283798090462
42
-0.41421356237309392
10
36.118957912892647
20
-36.120283798090455
10
36.118957912892654
20
-43.420283798090466
42
-0.41421356237309465
0
LWPOLYLINE
5
115
100
AcDbEntity
8
0
100
AcDbPolyline
90
8
70
1
43
0.0
10
49.36895791289264
20
-45.170283798090466
10
42.068957912892643
20
-45.170283798090466
42
-0.41421356237309515
10
40.31895791289265
20
-43.420283798090452
10
40.31895791289265
20
-36.120283798090462
42
-0.41421356237309431
10
42.068957912892643
20
-34.370283798090462
10
49.368957912892654
20
-34.370283798090462
42
-0.41421356237309392
10
51.118957912892647
20
-36.120283798090455
10
51.118957912892647
20
-43.420283798090466
42
-0.41421356237309465
0
LWPOLYLINE
5
116
100
AcDbEntity
8
0
100
AcDbPolyline
90
8
70
1
43
0.0
10
64.36895791289264
20
-45.170283798090466
10
57.068957912892643
20
-45.170283798090466
42
-0.41421356237309515
10
55.318957912892643
20
-43.420283798090452
10
55.31895791289265
20
-36.120283798090462
42
-0.41421356237309431
10
57.068957912892643
20
-34.370283798090462
10
64.368957912892654
20
-34.370283798090462
42
-0.41421356237309392
10
66.11895791289264
20
-36.120283798090455
10
66.11895791289264
20
-43.420283798090466
42
-0.41421356237309465
0
LINE
5
117
100
AcDbEntity
8
0
100
AcDbLine
10
68.218957912892648
20
10.62971620190954
30
0
11
68.218957912892705
21
-225.17028379809048
31
0
0
LWPOLYLINE
5
118
100
AcDbEntity
8
0
100
AcDbPolyline
90
8
70
1
43
0.0
10
79.36895791289264
20
-0.17028379809046312
10
72.068957912892643
20
-0.17028379809046423
42
-0.41421356237309515
10
70.318957912892643
20
1.579716201909539
10
70.318957912892643
20
8.8797162019095381
42
-0.41421356237309431
10
72.068957912892643
20
10.629716201909538
10
79.368957912892654
20
10.629716201909538
42
-0.41421356237309392
10
81.11895791289264
20
8.879716201909547
10
81.11895791289264
20
1.5797162019095357
42
-0.41421356237309465
0
LWPOLYLINE
5
119
100
AcDbEntity
8
0
100
AcDbPolyline
90
8
70
1
43
0.0
10
79.36895791289264
20
-15.170283798090463
10
72.068957912892643
20
-15.170283798090464
42
-0.41421356237309515
10
70.318957912892643
20
-13.420283798090459
10
70.318957912892643
20
-6.1202837980904619
42
-0.41421356237309431
10
72.068957912892643
20
-4.3702837980904619
10
79.368957912892654
20
-4.3702837980904619
42
-0.41421356237309392
10
81.11895791289264
20
-6.120283798090453
10
81.11895791289264
20
-13.420283798090464
42
-0.41421356237309465
0
LWPOLYLINE
5
120
100
AcDbEntity
8
0
100
AcDbPolyline
90
8
70
1
43
0.0
10
79.36895791289264
20
-30.170283798090463
10
72.068957912892643
20
-30.170283798090463
42
-0.41421356237309515
10
70.318957912892643
20
-28.420283798090459
10
70.318957912892643
20
-21.120283798090462
42
-0.41421356237309431
10
72.068957912892643
20
-19.370283798090462
10
79.368957912892654
20
-19.370283798090462
42
-0.41421356237309392
10
81.11895791289264
20
-21.120283798090451
10
81.11895791289264
20
-28.42028379809047
42
-0.41421356237309465
0
LWPOLYLINE
5
121
100
AcDbEntity
8
0
100
AcDbPolyline
90
8
70
1
43
0.0
10
79.36895791289264
20
-45.170283798090466
10
72.068957912892643
20
-45.170283798090466
42
-0.41421356237309515
10
70.318957912892643
20
-43.420283798090452
10
70.318957912892643
20
-36.120283798090462
42
-0.41421356237309431
10
72.068957912892643
20
-34.370283798090462
10
79.368957912892654
20
-34.370283798090462
42
-0.41421356237309392
10
81.11895791289264
20
-36.120283798090455
10
81.11895791289264
20
-43.420283798090466
42
-0.41421356237309465
0
LWPOLYLINE
5
122
100
AcDbEntity
8
0
100
AcDbPolyline
90
8
70
1
43
0.0
10
19.368957912892654
20
-60.170283798090466
10
12.068957912892655
20
-60.170283798090466
42
-0.41421356237309515
10
10.318957912892653
20
-58.420283798090452
10
10.31895791289265
20
-51.120283798090469
42
-0.41421356237309431
10
12.068957912892646
20
-49.370283798090462
10
19.368957912892654
20
-49.370283798090462
42
-0.41421356237309392
10
21.118957912892654
20
-51.120283798090455
10
21.118957912892654
20
-58.420283798090466
42
-0.41421356237309465
0
LWPOLYLINE
5
123
100
AcDbEntity
8
0
100
AcDbPolyline
90
8
70
1
43
0.0
10
34.368957912892654
20
-60.170283798090466
10
27.068957912892657
20
-60.170283798090466
42
-0.41421356237309515
10
25.31895791289265
20
-58.420283798090452
10
25.31895791289265
20
-51.120283798090469
42
-0.41421356237309431
10
27.068957912892643
20
-49.370283798090462
10
34.368957912892647
20
-49.370283798090462
42
-0.41421356237309392
10
36.118957912892647
20
-51.120283798090455
10
36.118957912892654
20
-58.420283798090466
42
-0.41421356237309465
0
LWPOLYLINE
5
124
100
AcDbEntity
8
0
100
AcDbPolyline
90
8
70
1
43
0.0
10
49.36895791289264
20
-60.170283798090466
10
42.068957912892643
20
-60.170283798090466
42
-0.41421356237309515
10
40.31895791289265
20
-58.420283798090452
10
40.31895791289265
20
-51.120283798090469
42
-0.41421356237309431
10
42.068957912892643
20
-49.370283798090462
10
49.368957912892654
20
-49.370283798090462
42
-0.41421356237309392
10
51.118957912892647
20
-51.120283798090455
10
51.118957912892647
20
-58.420283798090466
42
-0.41421356237309465
0
LWPOLYLINE
5
125
100
AcDbEntity
8
0
100
AcDbPolyline
90
8
70
1
43
0.0
10
64.36895791289264
20
-60.170283798090466
10
57.068957912892643
20
-60.170283798090466
42
-0.41421356237309515
10
55.318957912892643
20
-58.420283798090452
10
55.31895791289265
20
-51.120283798090469
42
-0.41421356237309431
10
57.068957912892643
20
-49.370283798090462
10
64.368957912892654
20
-49.370283798090462
42
-0.41421356237309392
10
66.11895791289264
20
-51.120283798090455
10
66.11895791289264
20
-58.420283798090466
42
-0.41421356237309465
0
LWPOLYLINE
5
126
100
AcDbEntity
8
0
100
AcDbPolyline
90
8
70
1
43
0.0
10
79.36895791289264
20
-60.170283798090466
10
72.068957912892643
20
-60.170283798090466
42
-0.41421356237309515
10
70.318957912892643
20
-58.420283798090452
10
70.318957912892643
20
-51.120283798090469
42
-0.41421356237309431
10
72.068957912892643
20
-49.370283798090462
10
79.368957912892654
20
-49.370283798090462
42
-0.41421356237309392
10
81.11895791289264
20
-51.120283798090455
10
81.11895791289264
20
-58.420283798090466
42
-0.41421356237309465
0
LINE
5
127
100
AcDbEntity
8
0
100
AcDbLine
10
10.318957912892653
20
-47.27028379809046
30
0
11
246.11895791289265
21
-47.27028379809046
31
0
0
LINE
5
128
100
AcDbEntity
8
0
100
AcDbLine
10
10.318957912892653
20
-107.27028379809045
30
0
11
246.11895791289265
21
-107.27028379809039
31
0
0
LINE
5
129
100
AcDbEntity
8
0
100
AcDbLine
10
10.318957912892653
20
-167.27028379809045
30
0
11
246.11895791289265
21
-167.27028379809045
31
0
0
LINE
5
130
100
AcDbEntity
8
0
100
AcDbLine
10
128.21895791289265
20
10.62971620190954
30
0
11
128.21895791289265
21
-225.17028379809048
31
0
0
LINE
5
131
100
AcDbEntity
8
0
100
AcDbLine
10
188.21895791289265
20
10.62971620190954
30
0
11
188.21895791289268
21
-225.17028379809048
31
0
0
ARC
5
132
100
AcDbEntity
8
0
100
AcDbCircle
10
-31.01490190108823
20
-84.761472579982524
30
0
40
1.2688040775514446
100
AcDbArc
50
36.880560129985099
51
143.13010235415632
0
ARC
5
133
100
AcDbEntity
8
0
100
AcDbCircle
10
-29.015746871608922
20
-83.261524924121289
30
0
40
1.2304885828258931
100
AcDbArc
50
216.88056012998592
51
323.12473906221993
0
ARC
5
134
100
AcDbEntity
8
0
100
AcDbCircle
10
-27.0301184626619
20
-84.751036671343272
30
0
40
1.2517212031330809
100
AcDbArc
50
36.869905495987943
51
143.12473906485201
0
ARC
5
135
100
AcDbEntity
8
0
100
AcDbCircle
10
-25.030894770963986
20
-83.25161847457619
30
0
40
1.2473086682855277
100
AcDbArc
50
216.86990549601961
51
321.33728562085611
0
ARC
5
136
100
AcDbEntity
8
0
100
AcDbCircle
10
-17.030894770963982
20
-83.25161847457619
30
0
40
1.2473086682855314
100
AcDbArc
50
216.86990549601941
51
321.33728562085599
0
ARC
5
137
100
AcDbEntity
8
0
100
AcDbCircle
10
-21.015746871608926
20
-83.261524924121289
30
0
40
1.2304885828258896
100
AcDbArc
50
216.88056012998607
51
323.12473906222016
0
ARC
5
138
100
AcDbEntity
8
0
100
AcDbCircle
10
-19.030118462661903
20
-84.751036671343272
30
0
40
1.2517212031330809
100
AcDbArc
50
36.869905495987943
51
143.12473906485181
0
ARC
5
139
100
AcDbEntity
8
0
100
AcDbCircle
10
-23.01490190108823
20
-84.761472579982524
30
0
40
1.2688040775514484
100
AcDbArc
50
36.880560129985
51
143.13010235415632
0
ARC
5
140
100
AcDbEntity
8
0
100
AcDbCircle
10
-9.0308947709639824
20
-83.25161847457619
30
0
40
1.2473086682855297
100
AcDbArc
50
216.8699054960195
51
321.33728562085599
0
ARC
5
141
100
AcDbEntity
8
0
100
AcDbCircle
10
-13.015746871608924
20
-83.261524924121289
30
0
40
1.2304885828258914
100
AcDbArc
50
216.88056012998601
51
323.1247390622201
0
ARC
5
142
100
AcDbEntity
8
0
100
AcDbCircle
10
-11.030118462661902
20
-84.751036671343272
30
0
40
1.2517212031330827
100
AcDbArc
50
36.869905495987894
51
143.12473906485187
0
ARC
5
143
100
AcDbEntity
8
0
100
AcDbCircle
10
-15.01490190108823
20
-84.761472579982524
30
0
40
1.2688040775514446
100
AcDbArc
50
36.880560129985049
51
143.13010235415621
0
CIRCLE
5
144
100
AcDbEntity
8
0
100
AcDbCircle
10
5.3189579128926399
20
15.629716201909547
30
0
40
1.5500000000000003
0
CIRCLE
5
145
100
AcDbEntity
8
0
100
AcDbCircle
10
251.11895791289265
20
15.629716201909538
30
0
40
1.549999999999998
0
CIRCLE
5
146
100
AcDbEntity
8
0
100
AcDbCircle
10
5.3189579128926443
20
-230.17028379809045
30
0
40
1.5500000000000025
0
CIRCLE
5
147
100
AcDbEntity
8
0
100
AcDbCircle
10
251.11895791289254
20
-230.17028379809037
30
0
40
1.5500000000000114
0
LWPOLYLINE
5
148
100
AcDbEntity
8
0
100
AcDbPolyline
90
8
70
1
43
0.0
10
94.368957912892654
20
-0.17028379809046312
10
87.068957912892643
20
-0.17028379809046867
42
-0.41421356237309515
10
85.318957912892643
20
1.579716201909539
10
85.318957912892643
20
8.8797162019095381
42
-0.41421356237309204
10
87.068957912892628
20
10.629716201909538
10
94.368957912892654
20
10.629716201909529
42
-0.41421356237309392
10
96.11895791289264
20
8.879716201909547
10
96.118957912892654
20
1.5797162019095357
42
-0.41421356237309465
0
LWPOLYLINE
5
149
100
AcDbEntity
8
0
100
AcDbPolyline
90
8
70
1
43
0.0
10
109.36895791289263
20
-0.17028379809046312
10
102.06895791289263
20
-0.17028379809045091
42
-0.41421356237309515
10
100.31895791289264
20
1.579716201909539
10
100.31895791289261
20
8.8797162019095381
42
-0.41421356237309509
10
102.06895791289263
20
10.629716201909538
10
109.36895791289263
20
10.629716201909547
42
-0.41421356237309392
10
111.11895791289264
20
8.879716201909547
10
111.11895791289264
20
1.5797162019095357
42
-0.41421356237309465
0
LWPOLYLINE
5
150
100
AcDbEntity
8
0
100
AcDbPolyline
90
8
70
1
43
0.0
10
124.36895791289263
20
-0.17028379809046312
10
117.06895791289263
20
-0.17028379809045091
42
-0.41421356237309515
10
115.31895791289264
20
1.579716201909539
10
115.31895791289261
20
8.8797162019095381
42
-0.41421356237309509
10
117.06895791289263
20
10.629716201909538
10
124.36895791289263
20
10.629716201909547
42
-0.41421356237309392
10
126.11895791289264
20
8.879716201909547
10
126.11895791289264
20
1.5797162019095357
42
-0.41421356237309465
0
LWPOLYLINE
5
151
100
AcDbEntity
8
0
100
AcDbPolyline
90
8
70
1
43
0.0
10
139.36895791289263
20
-0.17028379809046312
10
132.06895791289264
20
-0.17028379809045091
42
-0.41421356237309515
10
130.31895791289264
20
1.579716201909539
10
130.31895791289261
20
8.8797162019095381
42
-0.41421356237309509
10
132.06895791289264
20
10.629716201909538
10
139.36895791289263
20
10.629716201909547
42
-0.41421356237309392
10
141.11895791289265
20
8.879716201909547
10
141.11895791289265
20
1.5797162019095357
42
-0.41421356237309465
0
LWPOLYLINE
5
152
100
AcDbEntity
8
0
100
AcDbPolyline
90
8
70
1
43
0.0
10
154.36895791289263
20
-0.17028379809046312
10
147.06895791289264
20
-0.17028379809045091
42
-0.41421356237309515
10
145.31895791289264
20
1.579716201909539
10
145.31895791289261
20
8.8797162019095381
42
-0.41421356237309509
10
147.06895791289264
20
10.629716201909538
10
154.36895791289263
20
10.629716201909547
42
-0.41421356237309392
10
156.11895791289265
20
8.879716201909547
10
156.11895791289265
20
1.5797162019095357
42
-0.41421356237309465
0
LWPOLYLINE
5
153
100
AcDbEntity
8
0
100
AcDbPolyline
90
8
70
1
43
0.0
10
169.36895791289263
20
-0.17028379809046312
10
162.06895791289264
20
-0.17028379809046867
42
-0.41421356237309515
10
160.31895791289261
20
1.579716201909539
10
160.31895791289261
20
8.8797162019095381
42
-0.41421356237309509
10
162.06895791289264
20
10.629716201909538
10
169.36895791289263
20
10.629716201909547
42
-0.41421356237309392
10
171.11895791289265
20
8.879716201909547
10
171.11895791289265
20
1.5797162019095357
42
-0.41421356237309465
0
LWPOLYLINE
5
154
100
AcDbEntity
8
0
100
AcDbPolyline
90
8
70
1
43
0.0
10
184.36895791289263
20
-0.17028379809046312
10
177.06895791289264
20
-0.17028379809046867
42
-0.41421356237309515
10
175.31895791289261
20
1.579716201909539
10
175.31895791289261
20
8.8797162019095381
42
-0.41421356237309509
10
177.06895791289264
20
10.629716201909538
10
184.36895791289263
20
10.629716201909511
42
-0.41421356237309392
10
186.1189579128926
20
8.879716201909547
10
186.11895791289265
20
1.5797162019095357
42
-0.41421356237309465
0
LWPOLYLINE
5
155
100
AcDbEntity
8
0
100
AcDbPolyline
90
8
70
1
43
0.0
10
199.36895791289263
20
-0.17028379809046312
10
192.06895791289264
20
-0.17028379809046867
42
-0.41421356237309515
10
190.31895791289261
20
1.579716201909539
10
190.31895791289261
20
8.8797162019095381
42
-0.41421356237309509
10
192.06895791289264
20
10.629716201909538
10
199.36895791289263
20
10.629716201909511
42
-0.41421356237309392
10
201.1189579128926
20
8.879716201909547
10
201.11895791289265
20
1.5797162019095357
42
-0.41421356237309465
0
LWPOLYLINE
5
156
100
AcDbEntity
8
0
100
AcDbPolyline
90
8
70
1
43
0.0
10
214.36895791289263
20
-0.17028379809046312
10
207.06895791289264
20
-0.17028379809046867
42
-0.41421356237309515
10
205.31895791289261
20
1.579716201909539
10
205.31895791289261
20
8.8797162019095381
42
-0.41421356237309509
10
207.06895791289264
20
10.629716201909538
10
214.36895791289263
20
10.629716201909511
42
-0.41421356237309392
10
216.1189579128926
20
8.879716201909547
10
216.11895791289265
20
1.5797162019095357
42
-0.41421356237309465
0
LWPOLYLINE
5
157
100
AcDbEntity
8
0
100
AcDbPolyline
90
8
70
1
43
0.0
10
229.36895791289263
20
-0.17028379809046312
10
222.06895791289264
20
-0.17028379809046867
42
-0.41421356237309515
10
220.31895791289261
20
1.579716201909539
10
220.31895791289261
20
8.8797162019095381
42
-0.41421356237309509
10
222.06895791289264
20
10.629716201909538
10
229.36895791289263
20
10.629716201909511
42
-0.41421356237309392
10
231.1189579128926
20
8.879716201909547
10
231.11895791289265
20
1.5797162019095357
42
-0.41421356237309465
0
LWPOLYLINE
5
158
100
AcDbEntity
8
0
100
AcDbPolyline
90
8
70
1
43
0.0
10
244.36895791289263
20
-0.17028379809046312
10
237.06895791289264
20
-0.17028379809046867
42
-0.41421356237309515
10
235.31895791289261
20
1.579716201909539
10
235.31895791289261
20
8.8797162019095381
42
-0.41421356237309509
10
237.06895791289264
20
10.629716201909538
10
244.36895791289263
20
10.629716201909511
42
-0.41421356237309392
10
246.1189579128926
20
8.879716201909547
10
246.11895791289265
20
1.5797162019095357
42
-0.41421356237309465
0
LWPOLYLINE
5
159
100
AcDbEntity
8
0
100
AcDbPolyline
90
8
70
1
43
0.0
10
94.368957912892654
20
-15.170283798090463
10
87.068957912892643
20
-15.17028379809047
42
-0.41421356237309542
10
85.318957912892643
20
-13.420283798090459
10
85.318957912892643
20
-6.1202837980904619
42
-0.41421356237309204
10
87.068957912892628
20
-4.3702837980904619
10
94.368957912892654
20
-4.3702837980904707
42
-0.41421356237309392
10
96.11895791289264
20
-6.120283798090453
10
96.118957912892654
20
-13.420283798090464
42
-0.41421356237309465
0
LWPOLYLINE
5
160
100
AcDbEntity
8
0
100
AcDbPolyline
90
8
70
1
43
0.0
10
109.36895791289263
20
-15.170283798090463
10
102.06895791289263
20
-15.170283798090452
42
-0.41421356237309542
10
100.31895791289264
20
-13.420283798090459
10
100.31895791289261
20
-6.1202837980904619
42
-0.41421356237309509
10
102.06895791289263
20
-4.3702837980904619
10
109.36895791289263
20
-4.370283798090453
42
-0.41421356237309392
10
111.11895791289264
20
-6.120283798090453
10
111.11895791289264
20
-13.420283798090464
42
-0.41421356237309465
0
LWPOLYLINE
5
161
100
AcDbEntity
8
0
100
AcDbPolyline
90
8
70
1
43
0.0
10
124.36895791289263
20
-15.170283798090463
10
117.06895791289263
20
-15.170283798090452
42
-0.41421356237309542
10
115.31895791289264
20
-13.420283798090459
10
115.31895791289261
20
-6.1202837980904619
42
-0.41421356237309509
10
117.06895791289263
20
-4.3702837980904619
10
124.36895791289263
20
-4.370283798090453
42
-0.41421356237309392
10
126.11895791289264
20
-6.120283798090453
10
126.11895791289264
20
-13.420283798090464
42
-0.41421356237309465
0
LWPOLYLINE
5
162
100
AcDbEntity
8
0
100
AcDbPolyline
90
8
70
1
43
0.0
10
139.36895791289263
20
-15.170283798090463
10
132.06895791289264
20
-15.170283798090452
42
-0.41421356237309542
10
130.31895791289264
20
-13.420283798090459
10
130.31895791289261
20
-6.1202837980904619
42
-0.41421356237309509
10
132.06895791289264
20
-4.3702837980904619
10
139.36895791289263
20
-4.370283798090453
42
-0.41421356237309392
10
141.11895791289265
20
-6.120283798090453
10
141.11895791289265
20
-13.420283798090464
42
-0.41421356237309465
0
LWPOLYLINE
5
163
100
AcDbEntity
8
0
100
AcDbPolyline
90
8
70
1
43
0.0
10
154.36895791289263
20
-15.170283798090463
10
147.06895791289264
20
-15.170283798090452
42
-0.41421356237309542
10
145.31895791289264
20
-13.420283798090459
10
145.31895791289261
20
-6.1202837980904619
42
-0.41421356237309509
10
147.06895791289264
20
-4.3702837980904619
10
154.36895791289263
20
-4.370283798090453
42
-0.41421356237309392
10
156.11895791289265
20
-6.120283798090453
10
156.11895791289265
20
-13.420283798090464
42
-0.41421356237309465
0
LWPOLYLINE
5
164
100
AcDbEntity
8
0
100
AcDbPolyline
90
8
70
1
43
0.0
10
169.36895791289263
20
-15.170283798090463
10
162.06895791289264
20
-15.17028379809047
42
-0.41421356237309542
10
160.31895791289261
20
-13.420283798090459
10
160.31895791289261
20
-6.1202837980904619
42
-0.41421356237309509
10
162.06895791289264
20
-4.3702837980904619
10
169.36895791289263
20
-4.370283798090453
42
-0.41421356237309392
10
171.11895791289265
20
-6.120283798090453
10
171.11895791289265
20
-13.420283798090464
42
-0.41421356237309465
0
LWPOLYLINE
5
165
100
AcDbEntity
8
0
100
AcDbPolyline
90
8
70
1
43
0.0
10
184.36895791289263
20
-15.170283798090463
10
177.06895791289264
20
-15.17028379809047
42
-0.41421356237309542
10
175.31895791289261
20
-13.420283798090459
10
175.31895791289261
20
-6.1202837980904619
42
-0.41421356237309509
10
177.06895791289264
20
-4.3702837980904619
10
184.36895791289263
20
-4.3702837980904885
42
-0.41421356237309392
10
186.1189579128926
20
-6.120283798090453
10
186.11895791289265
20
-13.420283798090464
42
-0.41421356237309465
0
LWPOLYLINE
5
166
100
AcDbEntity
8
0
100
AcDbPolyline
90
8
70
1
43
0.0
10
199.36895791289263
20
-15.170283798090463
10
192.06895791289264
20
-15.17028379809047
42
-0.41421356237309542
10
190.31895791289261
20
-13.420283798090459
10
190.31895791289261
20
-6.1202837980904619
42
-0.41421356237309509
10
192.06895791289264
20
-4.3702837980904619
10
199.36895791289263
20
-4.3702837980904885
42
-0.41421356237309392
10
201.1189579128926
20
-6.120283798090453
10
201.11895791289265
20
-13.420283798090464
42
-0.41421356237309465
0
LWPOLYLINE
5
167
100
AcDbEntity
8
0
100
AcDbPolyline
90
8
70
1
43
0.0
10
214.36895791289263
20
-15.170283798090463
10
207.06895791289264
20
-15.17028379809047
42
-0.41421356237309542
10
205.31895791289261
20
-13.420283798090459
10
205.31895791289261
20
-6.1202837980904619
42
-0.41421356237309509
10
207.06895791289264
20
-4.3702837980904619
10
214.36895791289263
20
-4.3702837980904885
42
-0.41421356237309392
10
216.1189579128926
20
-6.120283798090453
10
216.11895791289265
20
-13.420283798090464
42
-0.41421356237309465
0
LWPOLYLINE
5
168
100
AcDbEntity
8
0
100
AcDbPolyline
90
8
70
1
43
0.0
10
229.36895791289263
20
-15.170283798090463
10
222.06895791289264
20
-15.17028379809047
42
-0.41421356237309542
10
220.31895791289261
20
-13.420283798090459
10
220.31895791289261
20
-6.1202837980904619
42
-0.41421356237309509
10
222.06895791289264
20
-4.3702837980904619
10
229.36895791289263
20
-4.3702837980904885
42
-0.41421356237309392
10
231.1189579128926
20
-6.120283798090453
10
231.11895791289265
20
-13.420283798090464
42
-0.41421356237309465
0
LWPOLYLINE
5
169
100
AcDbEntity
8
0
100
AcDbPolyline
90
8
70
1
43
0.0
10
244.36895791289263
20
-15.170283798090463
10
237.06895791289264
20
-15.17028379809047
42
-0.41421356237309542
10
235.31895791289261
20
-13.420283798090459
10
235.31895791289261
20
-6.1202837980904619
42
-0.41421356237309509
10
237.06895791289264
20
-4.3702837980904619
10
244.36895791289263
20
-4.3702837980904885
42
-0.41421356237309392
10
246.1189579128926
20
-6.120283798090453
10
246.11895791289265
20
-13.420283798090464
42
-0.41421356237309465
0
LWPOLYLINE
5
170
100
AcDbEntity
8
0
100
AcDbPolyline
90
8
70
1
43
0.0
10
94.368957912892654
20
-30.170283798090463
10
87.068957912892643
20
-30.170283798090466
42
-0.41421356237309509
10
85.318957912892643
20
-28.420283798090459
10
85.318957912892657
20
-21.120283798090462
42
-0.41421356237309204
10
87.068957912892628
20
-19.370283798090462
10
94.368957912892625
20
-19.370283798090469
42
-0.41421356237309348
10
96.11895791289264
20
-21.120283798090451
10
96.11895791289264
20
-28.420283798090466
42
-0.41421356237309509
0
LWPOLYLINE
5
171
100
AcDbEntity
8
0
100
AcDbPolyline
90
8
70
1
43
0.0
10
109.36895791289263
20
-30.170283798090463
10
102.06895791289263
20
-30.170283798090448
42
-0.41421356237309509
10
100.31895791289264
20
-28.420283798090459
10
100.31895791289261
20
-21.120283798090462
42
-0.41421356237309509
10
102.06895791289263
20
-19.370283798090462
10
109.36895791289263
20
-19.370283798090455
42
-0.41421356237309348
10
111.11895791289264
20
-21.120283798090451
10
111.11895791289264
20
-28.420283798090466
42
-0.41421356237309509
0
LWPOLYLINE
5
172
100
AcDbEntity
8
0
100
AcDbPolyline
90
8
70
1
43
0.0
10
124.36895791289263
20
-30.170283798090463
10
117.06895791289263
20
-30.170283798090448
42
-0.41421356237309509
10
115.31895791289264
20
-28.420283798090459
10
115.31895791289261
20
-21.120283798090462
42
-0.41421356237309509
10
117.06895791289263
20
-19.370283798090462
10
124.36895791289263
20
-19.370283798090455
42
-0.41421356237309348
10
126.11895791289264
20
-21.120283798090451
10
126.11895791289264
20
-28.420283798090466
42
-0.41421356237309509
0
LWPOLYLINE
5
173
100
AcDbEntity
8
0
100
AcDbPolyline
90
8
70
1
43
0.0
10
139.36895791289263
20
-30.170283798090463
10
132.06895791289264
20
-30.170283798090448
42
-0.41421356237309509
10
130.31895791289264
20
-28.420283798090459
10
130.31895791289261
20
-21.120283798090462
42
-0.41421356237309509
10
132.06895791289264
20
-19.370283798090462
10
139.36895791289263
20
-19.370283798090455
42
-0.41421356237309348
10
141.11895791289265
20
-21.120283798090451
10
141.11895791289265
20
-28.420283798090466
42
-0.41421356237309509
0
LWPOLYLINE
5
174
100
AcDbEntity
8
0
100
AcDbPolyline
90
8
70
1
43
0.0
10
154.36895791289263
20
-30.170283798090463
10
147.06895791289264
20
-30.170283798090448
42
-0.41421356237309509
10
145.31895791289264
20
-28.420283798090459
10
145.31895791289261
20
-21.120283798090462
42
-0.41421356237309509
10
147.06895791289264
20
-19.370283798090462
10
154.36895791289263
20
-19.370283798090455
42
-0.41421356237309348
10
156.11895791289265
20
-21.120283798090451
10
156.11895791289265
20
-28.420283798090466
42
-0.41421356237309509
0
LWPOLYLINE
5
175
100
AcDbEntity
8
0
100
AcDbPolyline
90
8
70
1
43
0.0
10
169.36895791289263
20
-30.170283798090463
10
162.06895791289264
20
-30.170283798090466
42
-0.41421356237309509
10
160.31895791289261
20
-28.420283798090459
10
160.31895791289261
20
-21.120283798090462
42
-0.41421356237309509
10
162.06895791289264
20
-19.370283798090462
10
169.36895791289263
20
-19.370283798090455
42
-0.41421356237309348
10
171.11895791289265
20
-21.120283798090451
10
171.11895791289265
20
-28.420283798090466
42
-0.41421356237309509
0
LWPOLYLINE
5
176
100
AcDbEntity
8
0
100
AcDbPolyline
90
8
70
1
43
0.0
10
184.36895791289263
20
-30.170283798090463
10
177.06895791289264
20
-30.170283798090466
42
-0.41421356237309509
10
175.31895791289261
20
-28.420283798090459
10
175.31895791289261
20
-21.120283798090462
42
-0.41421356237309509
10
177.06895791289264
20
-19.370283798090462
10
184.36895791289263
20
-19.37028379809049
42
-0.41421356237309348
10
186.1189579128926
20
-21.120283798090451
10
186.11895791289265
20
-28.420283798090466
42
-0.41421356237309509
0
LWPOLYLINE
5
177
100
AcDbEntity
8
0
100
AcDbPolyline
90
8
70
1
43
0.0
10
199.36895791289263
20
-30.170283798090463
10
192.06895791289264
20
-30.170283798090466
42
-0.41421356237309509
10
190.31895791289261
20
-28.420283798090459
10
190.31895791289261
20
-21.120283798090462
42
-0.41421356237309509
10
192.06895791289264
20
-19.370283798090462
10
199.36895791289263
20
-19.37028379809049
42
-0.41421356237309348
10
201.1189579128926
20
-21.120283798090451
10
201.11895791289265
20
-28.420283798090466
42
-0.41421356237309509
0
LWPOLYLINE
5
178
100
AcDbEntity
8
0
100
AcDbPolyline
90
8
70
1
43
0.0
10
214.36895791289263
20
-30.170283798090463
10
207.06895791289264
20
-30.170283798090466
42
-0.41421356237309509
10
205.31895791289261
20
-28.420283798090459
10
205.31895791289261
20
-21.120283798090462
42
-0.41421356237309509
10
207.06895791289264
20
-19.370283798090462
10
214.36895791289263
20
-19.37028379809049
42
-0.41421356237309348
10
216.1189579128926
20
-21.120283798090451
10
216.11895791289265
20
-28.420283798090466
42
-0.41421356237309509
0
LWPOLYLINE
5
179
100
AcDbEntity
8
0
100
AcDbPolyline
90
8
70
1
43
0.0
10
229.36895791289263
20
-30.170283798090463
10
222.06895791289264
20
-30.170283798090466
42
-0.41421356237309509
10
220.31895791289261
20
-28.420283798090459
10
220.31895791289261
20
-21.120283798090462
42
-0.41421356237309509
10
222.06895791289264
20
-19.370283798090462
10
229.36895791289263
20
-19.37028379809049
42
-0.41421356237309348
10
231.1189579128926
20
-21.120283798090451
10
231.11895791289265
20
-28.420283798090466
42
-0.41421356237309509
0
LWPOLYLINE
5
180
100
AcDbEntity
8
0
100
AcDbPolyline
90
8
70
1
43
0.0
10
244.36895791289263
20
-30.170283798090463
10
237.06895791289264
20
-30.170283798090466
42
-0.41421356237309509
10
235.31895791289261
20
-28.420283798090459
10
235.31895791289261
20
-21.120283798090462
42
-0.41421356237309509
10
237.06895791289264
20
-19.370283798090462
10
244.36895791289263
20
-19.37028379809049
42
-0.41421356237309348
10
246.1189579128926
20
-21.120283798090451
10
246.11895791289265
20
-28.420283798090466
42
-0.41421356237309509
0
LWPOLYLINE
5
181
100
AcDbEntity
8
0
100
AcDbPolyline
90
8
70
1
43
0.0
10
94.368957912892654
20
-45.170283798090466
10
87.068957912892643
20
-45.170283798090473
42
-0.41421356237309509
10
85.318957912892643
20
-43.420283798090466
10
85.318957912892657
20
-36.120283798090462
42
-0.41421356237309204
10
87.068957912892628
20
-34.370283798090462
10
94.368957912892625
20
-34.370283798090469
42
-0.41421356237309348
10
96.11895791289264
20
-36.120283798090455
10
96.11895791289264
20
-43.420283798090466
42
-0.41421356237309509
0
LWPOLYLINE
5
182
100
AcDbEntity
8
0
100
AcDbPolyline
90
8
70
1
43
0.0
10
109.36895791289263
20
-45.170283798090466
10
102.06895791289263
20
-45.170283798090452
42
-0.41421356237309509
10
100.31895791289264
20
-43.420283798090466
10
100.31895791289261
20
-36.120283798090462
42
-0.41421356237309509
10
102.06895791289263
20
-34.370283798090462
10
109.36895791289263
20
-34.370283798090455
42
-0.41421356237309348
10
111.11895791289264
20
-36.120283798090455
10
111.11895791289264
20
-43.420283798090466
42
-0.41421356237309509
0
LWPOLYLINE
5
183
100
AcDbEntity
8
0
100
AcDbPolyline
90
8
70
1
43
0.0
10
124.36895791289263
20
-45.170283798090466
10
117.06895791289263
20
-45.170283798090452
42
-0.41421356237309509
10
115.31895791289264
20
-43.420283798090466
10
115.31895791289261
20
-36.120283798090462
42
-0.41421356237309509
10
117.06895791289263
20
-34.370283798090462
10
124.36895791289263
20
-34.370283798090455
42
-0.41421356237309348
10
126.11895791289264
20
-36.120283798090455
10
126.11895791289264
20
-43.420283798090466
42
-0.41421356237309509
0
LWPOLYLINE
5
184
100
AcDbEntity
8
0
100
AcDbPolyline
90
8
70
1
43
0.0
10
139.36895791289263
20
-45.170283798090466
10
132.06895791289264
20
-45.170283798090452
42
-0.41421356237309509
10
130.31895791289264
20
-43.420283798090466
10
130.31895791289261
20
-36.120283798090462
42
-0.41421356237309509
10
132.06895791289264
20
-34.370283798090462
10
139.36895791289263
20
-34.370283798090455
42
-0.41421356237309348
10
141.11895791289265
20
-36.120283798090455
10
141.11895791289265
20
-43.420283798090466
42
-0.41421356237309509
0
LWPOLYLINE
5
185
100
AcDbEntity
8
0
100
AcDbPolyline
90
8
70
1
43
0.0
10
154.36895791289263
20
-45.170283798090466
10
147.06895791289264
20
-45.170283798090452
42
-0.41421356237309509
10
145.31895791289264
20
-43.420283798090466
10
145.31895791289261
20
-36.120283798090462
42
-0.41421356237309509
10
147.06895791289264
20
-34.370283798090462
10
154.36895791289263
20
-34.370283798090455
42
-0.41421356237309348
10
156.11895791289265
20
-36.120283798090455
10
156.11895791289265
20
-43.420283798090466
42
-0.41421356237309509
0
LWPOLYLINE
5
186
100
AcDbEntity
8
0
100
AcDbPolyline
90
8
70
1
43
0.0
10
169.36895791289263
20
-45.170283798090466
10
162.06895791289264
20
-45.170283798090473
42
-0.41421356237309509
10
160.31895791289261
20
-43.420283798090466
10
160.31895791289261
20
-36.120283798090462
42
-0.41421356237309509
10
162.06895791289264
20
-34.370283798090462
10
169.36895791289263
20
-34.370283798090455
42
-0.41421356237309348
10
171.11895791289265
20
-36.120283798090455
10
171.11895791289265
20
-43.420283798090466
42
-0.41421356237309509
0
LWPOLYLINE
5
187
100
AcDbEntity
8
0
100
AcDbPolyline
90
8
70
1
43
0.0
10
184.36895791289263
20
-45.170283798090466
10
177.06895791289264
20
-45.170283798090473
42
-0.41421356237309509
10
175.31895791289261
20
-43.420283798090466
10
175.31895791289261
20
-36.120283798090462
42
-0.41421356237309509
10
177.06895791289264
20
-34.370283798090462
10
184.36895791289263
20
-34.37028379809049
42
-0.41421356237309348
10
186.1189579128926
20
-36.120283798090455
10
186.11895791289265
20
-43.420283798090466
42
-0.41421356237309509
0
LWPOLYLINE
5
188
100
AcDbEntity
8
0
100
AcDbPolyline
90
8
70
1
43
0.0
10
199.36895791289263
20
-45.170283798090466
10
192.06895791289264
20
-45.170283798090473
42
-0.41421356237309509
10
190.31895791289261
20
-43.420283798090466
10
190.31895791289261
20
-36.120283798090462
42
-0.41421356237309509
10
192.06895791289264
20
-34.370283798090462
10
199.36895791289263
20
-34.37028379809049
42
-0.41421356237309348
10
201.1189579128926
20
-36.120283798090455
10
201.11895791289265
20
-43.420283798090466
42
-0.41421356237309509
0
LWPOLYLINE
5
189
100
AcDbEntity
8
0
100
AcDbPolyline
90
8
70
1
43
0.0
10
214.36895791289263
20
-45.170283798090466
10
207.06895791289264
20
-45.170283798090473
42
-0.41421356237309509
10
205.31895791289261
20
-43.420283798090466
10
205.31895791289261
20
-36.120283798090462
42
-0.41421356237309509
10
207.06895791289264
20
-34.370283798090462
10
214.36895791289263
20
-34.37028379809049
42
-0.41421356237309348
10
216.1189579128926
20
-36.120283798090455
10
216.11895791289265
20
-43.420283798090466
42
-0.41421356237309509
0
LWPOLYLINE
5
190
100
AcDbEntity
8
0
100
AcDbPolyline
90
8
70
1
43
0.0
10
229.36895791289263
20
-45.170283798090466
10
222.06895791289264
20
-45.170283798090473
42
-0.41421356237309509
10
220.31895791289261
20
-43.420283798090466
10
220.31895791289261
20
-36.120283798090462
42
-0.41421356237309509
10
222.06895791289264
20
-34.370283798090462
10
229.36895791289263
20
-34.37028379809049
42
-0.41421356237309348
10
231.1189579128926
20
-36.120283798090455
10
231.11895791289265
20
-43.420283798090466
42
-0.41421356237309509
0
LWPOLYLINE
5
191
100
AcDbEntity
8
0
100
AcDbPolyline
90
8
70
1
43
0.0
10
244.36895791289263
20
-45.170283798090466
10
237.06895791289264
20
-45.170283798090473
42
-0.41421356237309509
10
235.31895791289261
20
-43.420283798090466
10
235.31895791289261
20
-36.120283798090462
42
-0.41421356237309509
10
237.06895791289264
20
-34.370283798090462
10
244.36895791289263
20
-34.37028379809049
42
-0.41421356237309348
10
246.1189579128926
20
-36.120283798090455
10
246.11895791289265
20
-43.420283798090466
42
-0.41421356237309509
0
LWPOLYLINE
5
192
100
AcDbEntity
8
0
100
AcDbPolyline
90
8
70
1
43
0.0
10
94.368957912892654
20
-60.170283798090466
10
87.068957912892643
20
-60.170283798090473
42
-0.41421356237309509
10
85.318957912892643
20
-58.420283798090466
10
85.318957912892657
20
-51.120283798090462
42
-0.41421356237309204
10
87.068957912892628
20
-49.370283798090462
10
94.368957912892625
20
-49.370283798090469
42
-0.41421356237309348
10
96.11895791289264
20
-51.120283798090455
10
96.11895791289264
20
-58.420283798090466
42
-0.41421356237309509
0
LWPOLYLINE
5
193
100
AcDbEntity
8
0
100
AcDbPolyline
90
8
70
1
43
0.0
10
109.36895791289263
20
-60.170283798090466
10
102.06895791289263
20
-60.170283798090452
42
-0.41421356237309509
10
100.31895791289264
20
-58.420283798090466
10
100.31895791289261
20
-51.120283798090462
42
-0.41421356237309509
10
102.06895791289263
20
-49.370283798090462
10
109.36895791289263
20
-49.370283798090455
42
-0.41421356237309348
10
111.11895791289264
20
-51.120283798090455
10
111.11895791289264
20
-58.420283798090466
42
-0.41421356237309509
0
LWPOLYLINE
5
194
100
AcDbEntity
8
0
100
AcDbPolyline
90
8
70
1
43
0.0
10
124.36895791289263
20
-60.170283798090466
10
117.06895791289263
20
-60.170283798090452
42
-0.41421356237309509
10
115.31895791289264
20
-58.420283798090466
10
115.31895791289261
20
-51.120283798090462
42
-0.41421356237309509
10
117.06895791289263
20
-49.370283798090462
10
124.36895791289263
20
-49.370283798090455
42
-0.41421356237309348
10
126.11895791289264
20
-51.120283798090455
10
126.11895791289264
20
-58.420283798090466
42
-0.41421356237309509
0
LWPOLYLINE
5
195
100
AcDbEntity
8
0
100
AcDbPolyline
90
8
70
1
43
0.0
10
139.36895791289263
20
-60.170283798090466
10
132.06895791289264
20
-60.170283798090452
42
-0.41421356237309509
10
130.31895791289264
20
-58.420283798090466
10
130.31895791289261
20
-51.120283798090462
42
-0.41421356237309509
10
132.06895791289264
20
-49.370283798090462
10
139.36895791289263
20
-49.370283798090455
42
-0.41421356237309348
10
141.11895791289265
20
-51.120283798090455
10
141.11895791289265
20
-58.420283798090466
42
-0.41421356237309509
0
LWPOLYLINE
5
196
100
AcDbEntity
8
0
100
AcDbPolyline
90
8
70
1
43
0.0
10
154.36895791289263
20
-60.170283798090466
10
147.06895791289264
20
-60.170283798090452
42
-0.41421356237309509
10
145.31895791289264
20
-58.420283798090466
10
145.31895791289261
20
-51.120283798090462
42
-0.41421356237309509
10
147.06895791289264
20
-49.370283798090462
10
154.36895791289263
20
-49.370283798090455
42
-0.41421356237309348
10
156.11895791289265
20
-51.120283798090455
10
156.11895791289265
20
-58.420283798090466
42
-0.41421356237309509
0
LWPOLYLINE
5
197
100
AcDbEntity
8
0
100
AcDbPolyline
90
8
70
1
43
0.0
10
169.36895791289263
20
-60.170283798090466
10
162.06895791289264
20
-60.170283798090473
42
-0.41421356237309509
10
160.31895791289261
20
-58.420283798090466
10
160.31895791289261
20
-51.120283798090462
42
-0.41421356237309509
10
162.06895791289264
20
-49.370283798090462
10
169.36895791289263
20
-49.370283798090455
42
-0.41421356237309348
10
171.11895791289265
20
-51.120283798090455
10
171.11895791289265
20
-58.420283798090466
42
-0.41421356237309509
0
LWPOLYLINE
5
198
100
AcDbEntity
8
0
100
AcDbPolyline
90
8
70
1
43
0.0
10
184.36895791289263
20
-60.170283798090466
10
177.06895791289264
20
-60.170283798090473
42
-0.41421356237309509
10
175.31895791289261
20
-58.420283798090466
10
175.31895791289261
20
-51.120283798090462
42
-0.41421356237309509
10
177.06895791289264
20
-49.370283798090462
10
184.36895791289263
20
-49.37028379809049
42
-0.41421356237309348
10
186.1189579128926
20
-51.120283798090455
10
186.11895791289265
20
-58.420283798090466
42
-0.41421356237309509
0
LWPOLYLINE
5
199
100
AcDbEntity
8
0
100
AcDbPolyline
90
8
70
1
43
0.0
10
199.36895791289263
20
-60.170283798090466
10
192.06895791289264
20
-60.170283798090473
42
-0.41421356237309509
10
190.31895791289261
20
-58.420283798090466
10
190.31895791289261
20
-51.120283798090462
42
-0.41421356237309509
10
192.06895791289264
20
-49.370283798090462
10
199.36895791289263
20
-49.37028379809049
42
-0.41421356237309348
10
201.1189579128926
20
-51.120283798090455
10
201.11895791289265
20
-58.420283798090466
42
-0.41421356237309509
0
LWPOLYLINE
5
200
100
AcDbEntity
8
0
100
AcDbPolyline
90
8
70
1
43
0.0
10
214.36895791289263
20
-60.170283798090466
10
207.06895791289264
20
-60.170283798090473
42
-0.41421356237309509
10
205.31895791289261
20
-58.420283798090466
10
205.31895791289261
20
-51.120283798090462
42
-0.41421356237309509
10
207.06895791289264
20
-49.370283798090462
10
214.36895791289263
20
-49.37028379809049
42
-0.41421356237309348
10
216.1189579128926
20
-51.120283798090455
10
216.11895791289265
20
-58.420283798090466
42
-0.41421356237309509
0
LWPOLYLINE
5
201
100
AcDbEntity
8
0
100
AcDbPolyline
90
8
70
1
43
0.0
10
229.36895791289263
20
-60.170283798090466
10
222.06895791289264
20
-60.170283798090473
42
-0.41421356237309509
10
220.31895791289261
20
-58.420283798090466
10
220.31895791289261
20
-51.120283798090462
42
-0.41421356237309509
10
222.06895791289264
20
-49.370283798090462
10
229.36895791289263
20
-49.37028379809049
42
-0.41421356237309348
10
231.1189579128926
20
-51.120283798090455
10
231.11895791289265
20
-58.420283798090466
42
-0.41421356237309509
0
LWPOLYLINE
5
202
100
AcDbEntity
8
0
100
AcDbPolyline
90
8
70
1
43
0.0
10
244.36895791289263
20
-60.170283798090466
10
237.06895791289264
20
-60.170283798090473
42
-0.41421356237309509
10
235.31895791289261
20
-58.420283798090466
10
235.31895791289261
20
-51.120283798090462
42
-0.41421356237309509
10
237.06895791289264
20
-49.370283798090462
10
244.36895791289263
20
-49.37028379809049
42
-0.41421356237309348
10
246.1189579128926
20
-51.120283798090455
10
246.11895791289265
20
-58.420283798090466
42
-0.41421356237309509
0
LWPOLYLINE
5
203
100
AcDbEntity
8
0
100
AcDbPolyline
90
8
70
1
43
0.0
10
19.368957912892654
20
-75.170283798090466
10
12.068957912892655
20
-75.170283798090466
42
-0.41421356237309509
10
10.318957912892653
20
-73.420283798090466
10
10.318957912892653
20
-66.120283798090469
42
-0.41421356237309431
10
12.068957912892646
20
-64.370283798090469
10
19.368957912892654
20
-64.370283798090469
42
-0.41421356237309348
10
21.118957912892654
20
-66.120283798090455
10
21.118957912892647
20
-73.420283798090466
42
-0.41421356237309509
0
LWPOLYLINE
5
204
100
AcDbEntity
8
0
100
AcDbPolyline
90
8
70
1
43
0.0
10
34.368957912892654
20
-75.170283798090466
10
27.068957912892657
20
-75.170283798090466
42
-0.41421356237309509
10
25.31895791289265
20
-73.420283798090466
10
25.31895791289265
20
-66.120283798090455
42
-0.41421356237309509
10
27.068957912892646
20
-64.370283798090469
10
34.368957912892654
20
-64.370283798090469
42
-0.41421356237309348
10
36.118957912892647
20
-66.120283798090455
10
36.118957912892647
20
-73.420283798090466
42
-0.41421356237309509
0
LWPOLYLINE
5
205
100
AcDbEntity
8
0
100
AcDbPolyline
90
8
70
1
43
0.0
10
49.368957912892654
20
-75.170283798090466
10
42.068957912892643
20
-75.170283798090466
42
-0.41421356237309509
10
40.31895791289265
20
-73.420283798090466
10
40.31895791289265
20
-66.120283798090455
42
-0.41421356237309509
10
42.068957912892643
20
-64.370283798090469
10
49.368957912892654
20
-64.370283798090469
42
-0.41421356237309348
10
51.118957912892647
20
-66.120283798090455
10
51.118957912892647
20
-73.420283798090466
42
-0.41421356237309509
0
LWPOLYLINE
5
206
100
AcDbEntity
8
0
100
AcDbPolyline
90
8
70
1
43
0.0
10
64.36895791289264
20
-75.170283798090466
10
57.068957912892643
20
-75.170283798090466
42
-0.41421356237309509
10
55.318957912892643
20
-73.420283798090466
10
55.31895791289265
20
-66.120283798090455
42
-0.41421356237309348
10
57.068957912892635
20
-64.370283798090469
10
64.368957912892654
20
-64.370283798090469
42
-0.41421356237309348
10
66.11895791289264
20
-66.120283798090455
10
66.11895791289264
20
-73.420283798090466
42
-0.41421356237309509
0
LWPOLYLINE
5
207
100
AcDbEntity
8
0
100
AcDbPolyline
90
8
70
1
43
0.0
10
79.36895791289264
20
-75.170283798090466
10
72.068957912892643
20
-75.170283798090466
42
-0.41421356237309509
10
70.318957912892643
20
-73.420283798090466
10
70.318957912892643
20
-66.120283798090455
42
-0.41421356237309348
10
72.068957912892643
20
-64.370283798090469
10
79.368957912892654
20
-64.370283798090469
42
-0.41421356237309348
10
81.11895791289264
20
-66.120283798090455
10
81.11895791289264
20
-73.420283798090466
42
-0.41421356237309509
0
LWPOLYLINE
5
208
100
AcDbEntity
8
0
100
AcDbPolyline
90
8
70
1
43
0.0
10
94.368957912892654
20
-75.170283798090466
10
87.068957912892643
20
-75.170283798090466
42
-0.41421356237309509
10
85.318957912892643
20
-73.420283798090466
10
85.318957912892657
20
-66.120283798090455
42
-0.41421356237309204
10
87.068957912892628
20
-64.370283798090469
10
94.368957912892625
20
-64.370283798090469
42
-0.41421356237309348
10
96.11895791289264
20
-66.120283798090455
10
96.11895791289264
20
-73.420283798090466
42
-0.41421356237309509
0
LWPOLYLINE
5
209
100
AcDbEntity
8
0
100
AcDbPolyline
90
8
70
1
43
0.0
10
109.36895791289263
20
-75.170283798090466
10
102.06895791289263
20
-75.170283798090452
42
-0.41421356237309509
10
100.31895791289264
20
-73.420283798090466
10
100.31895791289261
20
-66.120283798090455
42
-0.41421356237309509
10
102.06895791289263
20
-64.370283798090469
10
109.36895791289263
20
-64.370283798090455
42
-0.41421356237309348
10
111.11895791289264
20
-66.120283798090455
10
111.11895791289264
20
-73.420283798090466
42
-0.41421356237309509
0
LWPOLYLINE
5
210
100
AcDbEntity
8
0
100
AcDbPolyline
90
8
70
1
43
0.0
10
124.36895791289263
20
-75.170283798090466
10
117.06895791289263
20
-75.170283798090452
42
-0.41421356237309509
10
115.31895791289264
20
-73.420283798090466
10
115.31895791289261
20
-66.120283798090455
42
-0.41421356237309509
10
117.06895791289263
20
-64.370283798090469
10
124.36895791289263
20
-64.370283798090455
42
-0.41421356237309348
10
126.11895791289264
20
-66.120283798090455
10
126.11895791289264
20
-73.420283798090466
42
-0.41421356237309509
0
LWPOLYLINE
5
211
100
AcDbEntity
8
0
100
AcDbPolyline
90
8
70
1
43
0.0
10
139.36895791289263
20
-75.170283798090466
10
132.06895791289264
20
-75.170283798090452
42
-0.41421356237309509
10
130.31895791289264
20
-73.420283798090466
10
130.31895791289261
20
-66.120283798090455
42
-0.41421356237309509
10
132.06895791289264
20
-64.370283798090469
10
139.36895791289263
20
-64.370283798090455
42
-0.41421356237309348
10
141.11895791289265
20
-66.120283798090455
10
141.11895791289265
20
-73.420283798090466
42
-0.41421356237309509
0
LWPOLYLINE
5
212
100
AcDbEntity
8
0
100
AcDbPolyline
90
8
70
1
43
0.0
10
154.36895791289263
20
-75.170283798090466
10
147.06895791289264
20
-75.170283798090452
42
-0.41421356237309509
10
145.31895791289264
20
-73.420283798090466
10
145.31895791289261
20
-66.120283798090455
42
-0.41421356237309509
10
147.06895791289264
20
-64.370283798090469
10
154.36895791289263
20
-64.370283798090455
42
-0.41421356237309348
10
156.11895791289265
20
-66.120283798090455
10
156.11895791289265
20
-73.420283798090466
42
-0.41421356237309509
0
LWPOLYLINE
5
213
100
AcDbEntity
8
0
100
AcDbPolyline
90
8
70
1
43
0.0
10
169.36895791289263
20
-75.170283798090466
10
162.06895791289264
20
-75.170283798090466
42
-0.41421356237309509
10
160.31895791289261
20
-73.420283798090466
10
160.31895791289261
20
-66.120283798090455
42
-0.41421356237309509
10
162.06895791289264
20
-64.370283798090469
10
169.36895791289263
20
-64.370283798090455
42
-0.41421356237309348
10
171.11895791289265
20
-66.120283798090455
10
171.11895791289265
20
-73.420283798090466
42
-0.41421356237309509
0
LWPOLYLINE
5
214
100
AcDbEntity
8
0
100
AcDbPolyline
90
8
70
1
43
0.0
10
184.36895791289263
20
-75.170283798090466
10
177.06895791289264
20
-75.170283798090466
42
-0.41421356237309509
10
175.31895791289261
20
-73.420283798090466
10
175.31895791289261
20
-66.120283798090455
42
-0.41421356237309509
10
177.06895791289264
20
-64.370283798090469
10
184.36895791289263
20
-64.370283798090483
42
-0.41421356237309348
10
186.1189579128926
20
-66.120283798090455
10
186.11895791289265
20
-73.420283798090466
42
-0.41421356237309509
0
LWPOLYLINE
5
215
100
AcDbEntity
8
0
100
AcDbPolyline
90
8
70
1
43
0.0
10
199.36895791289263
20
-75.170283798090466
10
192.06895791289264
20
-75.170283798090466
42
-0.41421356237309509
10
190.31895791289261
20
-73.420283798090466
10
190.31895791289261
20
-66.120283798090455
42
-0.41421356237309509
10
192.06895791289264
20
-64.370283798090469
10
199.36895791289263
20
-64.370283798090483
42
-0.41421356237309348
10
201.1189579128926
20
-66.120283798090455
10
201.11895791289265
20
-73.420283798090466
42
-0.41421356237309509
0
LWPOLYLINE
5
216
100
AcDbEntity
8
0
100
AcDbPolyline
90
8
70
1
43
0.0
10
214.36895791289263
20
-75.170283798090466
10
207.06895791289264
20
-75.170283798090466
42
-0.41421356237309509
10
205.31895791289261
20
-73.420283798090466
10
205.31895791289261
20
-66.120283798090455
42
-0.41421356237309509
10
207.06895791289264
20
-64.370283798090469
10
214.36895791289263
20
-64.370283798090483
42
-0.41421356237309348
10
216.1189579128926
20
-66.120283798090455
10
216.11895791289265
20
-73.420283798090466
42
-0.41421356237309509
0
LWPOLYLINE
5
217
100
AcDbEntity
8
0
100
AcDbPolyline
90
8
70
1
43
0.0
10
229.36895791289263
20
-75.170283798090466
10
222.06895791289264
20
-75.170283798090466
42
-0.41421356237309509
10
220.31895791289261
20
-73.420283798090466
10
220.31895791289261
20
-66.120283798090455
42
-0.41421356237309509
10
222.06895791289264
20
-64.370283798090469
10
229.36895791289263
20
-64.370283798090483
42
-0.41421356237309348
10
231.1189579128926
20
-66.120283798090455
10
231.11895791289265
20
-73.420283798090466
42
-0.41421356237309509
0
LWPOLYLINE
5
218
100
AcDbEntity
8
0
100
AcDbPolyline
90
8
70
1
43
0.0
10
244.36895791289263
20
-75.170283798090466
10
237.06895791289264
20
-75.170283798090466
42
-0.41421356237309509
10
235.31895791289261
20
-73.420283798090466
10
235.31895791289261
20
-66.120283798090455
42
-0.41421356237309509
10
237.06895791289264
20
-64.370283798090469
10
244.36895791289263
20
-64.370283798090483
42
-0.41421356237309348
10
246.1189579128926
20
-66.120283798090455
10
246.11895791289265
20
-73.420283798090466
42
-0.41421356237309509
0
LWPOLYLINE
5
219
100
AcDbEntity
8
0
100
AcDbPolyline
90
8
70
1
43
0.0
10
19.368957912892654
20
-90.170283798090466
10
12.068957912892655
20
-90.170283798090466
42
-0.41421356237309509
10
10.318957912892653
20
-88.420283798090452
10
10.318957912892643
20
-81.120283798090469
42
-0.41421356237309431
10
12.068957912892646
20
-79.370283798090469
10
19.368957912892654
20
-79.370283798090469
42
-0.41421356237309204
10
21.118957912892654
20
-81.120283798090455
10
21.118957912892657
20
-88.42028379809048
42
-0.41421356237309204
0
LWPOLYLINE
5
220
100
AcDbEntity
8
0
100
AcDbPolyline
90
8
70
1
43
0.0
10
34.368957912892654
20
-90.170283798090466
10
27.068957912892657
20
-90.170283798090466
42
-0.41421356237309509
10
25.31895791289265
20
-88.420283798090452
10
25.318957912892639
20
-81.120283798090469
42
-0.41421356237309509
10
27.068957912892646
20
-79.370283798090469
10
34.368957912892654
20
-79.370283798090469
42
-0.41421356237309204
10
36.118957912892647
20
-81.120283798090455
10
36.118957912892654
20
-88.42028379809048
42
-0.41421356237309204
0
LWPOLYLINE
5
221
100
AcDbEntity
8
0
100
AcDbPolyline
90
8
70
1
43
0.0
10
49.368957912892654
20
-90.170283798090466
10
42.068957912892643
20
-90.170283798090452
42
-0.41421356237309509
10
40.31895791289265
20
-88.420283798090452
10
40.318957912892643
20
-81.120283798090469
42
-0.41421356237309509
10
42.068957912892643
20
-79.370283798090469
10
49.368957912892654
20
-79.370283798090469
42
-0.41421356237309204
10
51.118957912892647
20
-81.120283798090455
10
51.118957912892654
20
-88.42028379809048
42
-0.41421356237309204
0
LWPOLYLINE
5
222
100
AcDbEntity
8
0
100
AcDbPolyline
90
8
70
1
43
0.0
10
64.36895791289264
20
-90.170283798090466
10
57.068957912892643
20
-90.170283798090466
42
-0.41421356237309509
10
55.318957912892643
20
-88.420283798090452
10
55.318957912892643
20
-81.120283798090469
42
-0.41421356237309348
10
57.068957912892635
20
-79.370283798090469
10
64.368957912892654
20
-79.370283798090483
42
-0.41421356237309204
10
66.11895791289264
20
-81.120283798090455
10
66.118957912892654
20
-88.42028379809048
42
-0.41421356237309204
0
LWPOLYLINE
5
223
100
AcDbEntity
8
0
100
AcDbPolyline
90
8
70
1
43
0.0
10
79.36895791289264
20
-90.170283798090466
10
72.068957912892643
20
-90.170283798090466
42
-0.41421356237309509
10
70.318957912892643
20
-88.420283798090452
10
70.318957912892643
20
-81.120283798090469
42
-0.41421356237309348
10
72.068957912892643
20
-79.370283798090469
10
79.368957912892654
20
-79.370283798090483
42
-0.41421356237309204
10
81.11895791289264
20
-81.120283798090455
10
81.11895791289264
20
-88.42028379809048
42
-0.41421356237309204
0
LWPOLYLINE
5
224
100
AcDbEntity
8
0
100
AcDbPolyline
90
8
70
1
43
0.0
10
94.368957912892654
20
-90.170283798090466
10
87.068957912892643
20
-90.170283798090466
42
-0.41421356237309509
10
85.318957912892643
20
-88.420283798090452
10
85.318957912892643
20
-81.120283798090469
42
-0.41421356237309204
10
87.068957912892628
20
-79.370283798090469
10
94.368957912892654
20
-79.370283798090483
42
-0.41421356237309204
10
96.11895791289264
20
-81.120283798090455
10
96.118957912892654
20
-88.42028379809048
42
-0.41421356237309204
0
LWPOLYLINE
5
225
100
AcDbEntity
8
0
100
AcDbPolyline
90
8
70
1
43
0.0
10
109.36895791289263
20
-90.170283798090466
10
102.06895791289263
20
-90.170283798090452
42
-0.41421356237309509
10
100.31895791289264
20
-88.420283798090452
10
100.31895791289261
20
-81.120283798090469
42
-0.41421356237309509
10
102.06895791289263
20
-79.370283798090469
10
109.36895791289263
20
-79.370283798090469
42
-0.41421356237309204
10
111.11895791289264
20
-81.120283798090455
10
111.11895791289264
20
-88.42028379809048
42
-0.41421356237309204
0
LWPOLYLINE
5
226
100
AcDbEntity
8
0
100
AcDbPolyline
90
8
70
1
43
0.0
10
124.36895791289263
20
-90.170283798090466
10
117.06895791289263
20
-90.170283798090452
42
-0.41421356237309509
10
115.31895791289264
20
-88.420283798090452
10
115.31895791289261
20
-81.120283798090469
42
-0.41421356237309509
10
117.06895791289263
20
-79.370283798090469
10
124.36895791289263
20
-79.370283798090469
42
-0.41421356237309204
10
126.11895791289264
20
-81.120283798090455
10
126.11895791289264
20
-88.42028379809048
42
-0.41421356237309204
0
LWPOLYLINE
5
227
100
AcDbEntity
8
0
100
AcDbPolyline
90
8
70
1
43
0.0
10
139.36895791289263
20
-90.170283798090466
10
132.06895791289264
20
-90.170283798090452
42
-0.41421356237309509
10
130.31895791289264
20
-88.420283798090452
10
130.31895791289261
20
-81.120283798090469
42
-0.41421356237309509
10
132.06895791289264
20
-79.370283798090469
10
139.36895791289263
20
-79.370283798090469
42
-0.41421356237309204
10
141.11895791289265
20
-81.120283798090455
10
141.11895791289265
20
-88.42028379809048
42
-0.41421356237309204
0
LWPOLYLINE
5
228
100
AcDbEntity
8
0
100
AcDbPolyline
90
8
70
1
43
0.0
10
154.36895791289263
20
-90.170283798090466
10
147.06895791289264
20
-90.170283798090452
42
-0.41421356237309509
10
145.31895791289264
20
-88.420283798090452
10
145.31895791289261
20
-81.120283798090469
42
-0.41421356237309509
10
147.06895791289264
20
-79.370283798090469
10
154.36895791289263
20
-79.370283798090469
42
-0.41421356237309204
10
156.11895791289265
20
-81.120283798090455
10
156.11895791289265
20
-88.42028379809048
42
-0.41421356237309204
0
LWPOLYLINE
5
229
100
AcDbEntity
8
0
100
AcDbPolyline
90
8
70
1
43
0.0
10
169.36895791289263
20
-90.170283798090466
10
162.06895791289264
20
-90.170283798090466
42
-0.41421356237309509
10
160.31895791289261
20
-88.420283798090452
10
160.31895791289261
20
-81.120283798090469
42
-0.41421356237309509
10
162.06895791289264
20
-79.370283798090469
10
169.36895791289265
20
-79.370283798090469
42
-0.41421356237309204
10
171.11895791289265
20
-81.120283798090455
10
171.11895791289265
20
-88.42028379809048
42
-0.41421356237309204
0
LWPOLYLINE
5
230
100
AcDbEntity
8
0
100
AcDbPolyline
90
8
70
1
43
0.0
10
184.36895791289263
20
-90.170283798090466
10
177.06895791289264
20
-90.170283798090466
42
-0.41421356237309509
10
175.31895791289261
20
-88.420283798090452
10
175.31895791289261
20
-81.120283798090469
42
-0.41421356237309509
10
177.06895791289264
20
-79.370283798090469
10
184.36895791289265
20
-79.370283798090497
42
-0.41421356237309204
10
186.1189579128926
20
-81.120283798090455
10
186.11895791289265
20
-88.42028379809048
42
-0.41421356237309204
0
LWPOLYLINE
5
231
100
AcDbEntity
8
0
100
AcDbPolyline
90
8
70
1
43
0.0
10
199.36895791289263
20
-90.170283798090466
10
192.06895791289264
20
-90.170283798090466
42
-0.41421356237309509
10
190.31895791289261
20
-88.420283798090452
10
190.31895791289261
20
-81.120283798090469
42
-0.41421356237309509
10
192.06895791289264
20
-79.370283798090469
10
199.36895791289265
20
-79.370283798090497
42
-0.41421356237309204
10
201.1189579128926
20
-81.120283798090455
10
201.11895791289265
20
-88.42028379809048
42
-0.41421356237309204
0
LWPOLYLINE
5
232
100
AcDbEntity
8
0
100
AcDbPolyline
90
8
70
1
43
0.0
10
214.36895791289263
20
-90.170283798090466
10
207.06895791289264
20
-90.170283798090466
42
-0.41421356237309509
10
205.31895791289261
20
-88.420283798090452
10
205.31895791289261
20
-81.120283798090469
42
-0.41421356237309509
10
207.06895791289264
20
-79.370283798090469
10
214.36895791289265
20
-79.370283798090497
42
-0.41421356237309204
10
216.1189579128926
20
-81.120283798090455
10
216.11895791289265
20
-88.42028379809048
42
-0.41421356237309204
0
LWPOLYLINE
5
233
100
AcDbEntity
8
0
100
AcDbPolyline
90
8
70
1
43
0.0
10
229.36895791289263
20
-90.170283798090466
10
222.06895791289264
20
-90.170283798090466
42
-0.41421356237309509
10
220.31895791289261
20
-88.420283798090452
10
220.31895791289261
20
-81.120283798090469
42
-0.41421356237309509
10
222.06895791289264
20
-79.370283798090469
10
229.36895791289265
20
-79.370283798090497
42
-0.41421356237309204
10
231.1189579128926
20
-81.120283798090455
10
231.11895791289265
20
-88.42028379809048
42
-0.41421356237309204
0
LWPOLYLINE
5
234
100
AcDbEntity
8
0
100
AcDbPolyline
90
8
70
1
43
0.0
10
244.36895791289263
20
-90.170283798090466
10
237.06895791289264
20
-90.170283798090466
42
-0.41421356237309509
10
235.31895791289261
20
-88.420283798090452
10
235.31895791289261
20
-81.120283798090469
42
-0.41421356237309509
10
237.06895791289264
20
-79.370283798090469
10
244.36895791289265
20
-79.370283798090497
42
-0.41421356237309204
10
246.1189579128926
20
-81.120283798090455
10
246.11895791289265
20
-88.42028379809048
42
-0.41421356237309204
0
LWPOLYLINE
5
235
100
AcDbEntity
8
0
100
AcDbPolyline
90
8
70
1
43
0.0
10
19.368957912892654
20
-105.17028379809047
10
12.068957912892655
20
-105.17028379809047
42
-0.41421356237309509
10
10.318957912892653
20
-103.42028379809045
10
10.318957912892643
20
-96.120283798090469
42
-0.41421356237309431
10
12.068957912892646
20
-94.370283798090469
10
19.368957912892654
20
-94.370283798090469
42
-0.41421356237309204
10
21.118957912892654
20
-96.120283798090455
10
21.118957912892657
20
-103.42028379809048
42
-0.41421356237309204
0
LWPOLYLINE
5
236
100
AcDbEntity
8
0
100
AcDbPolyline
90
8
70
1
43
0.0
10
34.368957912892654
20
-105.17028379809047
10
27.068957912892657
20
-105.17028379809047
42
-0.41421356237309509
10
25.31895791289265
20
-103.42028379809045
10
25.318957912892639
20
-96.120283798090469
42
-0.41421356237309509
10
27.068957912892646
20
-94.370283798090469
10
34.368957912892654
20
-94.370283798090469
42
-0.41421356237309204
10
36.118957912892647
20
-96.120283798090455
10
36.118957912892654
20
-103.42028379809048
42
-0.41421356237309204
0
LWPOLYLINE
5
237
100
AcDbEntity
8
0
100
AcDbPolyline
90
8
70
1
43
0.0
10
49.368957912892654
20
-105.17028379809047
10
42.068957912892643
20
-105.17028379809045
42
-0.41421356237309509
10
40.31895791289265
20
-103.42028379809045
10
40.318957912892643
20
-96.120283798090469
42
-0.41421356237309509
10
42.068957912892643
20
-94.370283798090469
10
49.368957912892654
20
-94.370283798090469
42
-0.41421356237309204
10
51.118957912892647
20
-96.120283798090455
10
51.118957912892654
20
-103.42028379809048
42
-0.41421356237309204
0
LWPOLYLINE
5
238
100
AcDbEntity
8
0
100
AcDbPolyline
90
8
70
1
43
0.0
10
64.36895791289264
20
-105.17028379809047
10
57.068957912892643
20
-105.17028379809047
42
-0.41421356237309509
10
55.318957912892643
20
-103.42028379809045
10
55.318957912892643
20
-96.120283798090469
42
-0.41421356237309348
10
57.068957912892635
20
-94.370283798090469
10
64.368957912892654
20
-94.370283798090483
42
-0.41421356237309204
10
66.11895791289264
20
-96.120283798090455
10
66.118957912892654
20
-103.42028379809048
42
-0.41421356237309204
0
LWPOLYLINE
5
239
100
AcDbEntity
8
0
100
AcDbPolyline
90
8
70
1
43
0.0
10
79.36895791289264
20
-105.17028379809047
10
72.068957912892643
20
-105.17028379809047
42
-0.41421356237309509
10
70.318957912892643
20
-103.42028379809045
10
70.318957912892643
20
-96.120283798090469
42
-0.41421356237309348
10
72.068957912892643
20
-94.370283798090469
10
79.368957912892654
20
-94.370283798090483
42
-0.41421356237309204
10
81.11895791289264
20
-96.120283798090455
10
81.11895791289264
20
-103.42028379809048
42
-0.41421356237309204
0
LWPOLYLINE
5
240
100
AcDbEntity
8
0
100
AcDbPolyline
90
8
70
1
43
0.0
10
94.368957912892654
20
-105.17028379809047
10
87.068957912892643
20
-105.17028379809047
42
-0.41421356237309509
10
85.318957912892643
20
-103.42028379809045
10
85.318957912892643
20
-96.120283798090469
42
-0.41421356237309204
10
87.068957912892628
20
-94.370283798090469
10
94.368957912892654
20
-94.370283798090483
42
-0.41421356237309204
10
96.11895791289264
20
-96.120283798090455
10
96.118957912892654
20
-103.42028379809048
42
-0.41421356237309204
0
LWPOLYLINE
5
241
100
AcDbEntity
8
0
100
AcDbPolyline
90
8
70
1
43
0.0
10
109.36895791289263
20
-105.17028379809047
10
102.06895791289263
20
-105.17028379809045
42
-0.41421356237309509
10
100.31895791289264
20
-103.42028379809045
10
100.31895791289261
20
-96.120283798090469
42
-0.41421356237309509
10
102.06895791289263
20
-94.370283798090469
10
109.36895791289263
20
-94.370283798090469
42
-0.41421356237309204
10
111.11895791289264
20
-96.120283798090455
10
111.11895791289264
20
-103.42028379809048
42
-0.41421356237309204
0
LWPOLYLINE
5
242
100
AcDbEntity
8
0
100
AcDbPolyline
90
8
70
1
43
0.0
10
124.36895791289263
20
-105.17028379809047
10
117.06895791289263
20
-105.17028379809045
42
-0.41421356237309509
10
115.31895791289264
20
-103.42028379809045
10
115.31895791289261
20
-96.120283798090469
42
-0.41421356237309509
10
117.06895791289263
20
-94.370283798090469
10
124.36895791289263
20
-94.370283798090469
42
-0.41421356237309204
10
126.11895791289264
20
-96.120283798090455
10
126.11895791289264
20
-103.42028379809048
42
-0.41421356237309204
0
LWPOLYLINE
5
243
100
AcDbEntity
8
0
100
AcDbPolyline
90
8
70
1
43
0.0
10
139.36895791289263
20
-105.17028379809047
10
132.06895791289264
20
-105.17028379809045
42
-0.41421356237309509
10
130.31895791289264
20
-103.42028379809045
10
130.31895791289261
20
-96.120283798090469
42
-0.41421356237309509
10
132.06895791289264
20
-94.370283798090469
10
139.36895791289263
20
-94.370283798090469
42
-0.41421356237309204
10
141.11895791289265
20
-96.120283798090455
10
141.11895791289265
20
-103.42028379809048
42
-0.41421356237309204
0
LWPOLYLINE
5
244
100
AcDbEntity
8
0
100
AcDbPolyline
90
8
70
1
43
0.0
10
154.36895791289263
20
-105.17028379809047
10
147.06895791289264
20
-105.17028379809045
42
-0.41421356237309509
10
145.31895791289264
20
-103.42028379809045
10
145.31895791289261
20
-96.120283798090469
42
-0.41421356237309509
10
147.06895791289264
20
-94.370283798090469
10
154.36895791289263
20
-94.370283798090469
42
-0.41421356237309204
10
156.11895791289265
20
-96.120283798090455
10
156.11895791289265
20
-103.42028379809048
42
-0.41421356237309204
0
LWPOLYLINE
5
245
100
AcDbEntity
8
0
100
AcDbPolyline
90
8
70
1
43
0.0
10
169.36895791289263
20
-105.17028379809047
10
162.06895791289264
20
-105.17028379809047
42
-0.41421356237309509
10
160.31895791289261
20
-103.42028379809045
10
160.31895791289261
20
-96.120283798090469
42
-0.41421356237309509
10
162.06895791289264
20
-94.370283798090469
10
169.36895791289265
20
-94.370283798090469
42
-0.41421356237309204
10
171.11895791289265
20
-96.120283798090455
10
171.11895791289265
20
-103.42028379809048
42
-0.41421356237309204
0
LWPOLYLINE
5
246
100
AcDbEntity
8
0
100
AcDbPolyline
90
8
70
1
43
0.0
10
184.36895791289263
20
-105.17028379809047
10
177.06895791289264
20
-105.17028379809047
42
-0.41421356237309509
10
175.31895791289261
20
-103.42028379809045
10
175.31895791289261
20
-96.120283798090469
42
-0.41421356237309509
10
177.06895791289264
20
-94.370283798090469
10
184.36895791289265
20
-94.370283798090497
42
-0.41421356237309204
10
186.1189579128926
20
-96.120283798090455
10
186.11895791289265
20
-103.42028379809048
42
-0.41421356237309204
0
LWPOLYLINE
5
247
100
AcDbEntity
8
0
100
AcDbPolyline
90
8
70
1
43
0.0
10
199.36895791289263
20
-105.17028379809047
10
192.06895791289264
20
-105.17028379809047
42
-0.41421356237309509
10
190.31895791289261
20
-103.42028379809045
10
190.31895791289261
20
-96.120283798090469
42
-0.41421356237309509
10
192.06895791289264
20
-94.370283798090469
10
199.36895791289265
20
-94.370283798090497
42
-0.41421356237309204
10
201.1189579128926
20
-96.120283798090455
10
201.11895791289265
20
-103.42028379809048
42
-0.41421356237309204
0
LWPOLYLINE
5
248
100
AcDbEntity
8
0
100
AcDbPolyline
90
8
70
1
43
0.0
10
214.36895791289263
20
-105.17028379809047
10
207.06895791289264
20
-105.17028379809047
42
-0.41421356237309509
10
205.31895791289261
20
-103.42028379809045
10
205.31895791289261
20
-96.120283798090469
42
-0.41421356237309509
10
207.06895791289264
20
-94.370283798090469
10
214.36895791289265
20
-94.370283798090497
42
-0.41421356237309204
10
216.1189579128926
20
-96.120283798090455
10
216.11895791289265
20
-103.42028379809048
42
-0.41421356237309204
0
LWPOLYLINE
5
249
100
AcDbEntity
8
0
100
AcDbPolyline
90
8
70
1
43
0.0
10
229.36895791289263
20
-105.17028379809047
10
222.06895791289264
20
-105.17028379809047
42
-0.41421356237309509
10
220.31895791289261
20
-103.42028379809045
10
220.31895791289261
20
-96.120283798090469
42
-0.41421356237309509
10
222.06895791289264
20
-94.370283798090469
10
229.36895791289265
20
-94.370283798090497
42
-0.41421356237309204
10
231.1189579128926
20
-96.120283798090455
10
231.11895791289265
20
-103.42028379809048
42
-0.41421356237309204
0
LWPOLYLINE
5
250
100
AcDbEntity
8
0
100
AcDbPolyline
90
8
70
1
43
0.0
10
244.36895791289263
20
-105.17028379809047
10
237.06895791289264
20
-105.17028379809047
42
-0.41421356237309509
10
235.31895791289261
20
-103.42028379809045
10
235.31895791289261
20
-96.120283798090469
42
-0.41421356237309509
10
237.06895791289264
20
-94.370283798090469
10
244.36895791289265
20
-94.370283798090497
42
-0.41421356237309204
10
246.1189579128926
20
-96.120283798090455
10
246.11895791289265
20
-103.42028379809048
42
-0.41421356237309204
0
LWPOLYLINE
5
251
100
AcDbEntity
8
0
100
AcDbPolyline
90
8
70
1
43
0.0
10
19.368957912892654
20
-120.17028379809047
10
12.068957912892655
20
-120.17028379809047
42
-0.41421356237309509
10
10.318957912892653
20
-118.42028379809045
10
10.318957912892643
20
-111.12028379809047
42
-0.41421356237309431
10
12.068957912892646
20
-109.37028379809047
10
19.368957912892654
20
-109.37028379809047
42
-0.41421356237309204
10
21.118957912892654
20
-111.12028379809045
10
21.118957912892657
20
-118.42028379809048
42
-0.41421356237309204
0
LWPOLYLINE
5
252
100
AcDbEntity
8
0
100
AcDbPolyline
90
8
70
1
43
0.0
10
34.368957912892654
20
-120.17028379809047
10
27.068957912892657
20
-120.17028379809047
42
-0.41421356237309509
10
25.31895791289265
20
-118.42028379809045
10
25.318957912892639
20
-111.12028379809047
42
-0.41421356237309509
10
27.068957912892646
20
-109.37028379809047
10
34.368957912892654
20
-109.37028379809047
42
-0.41421356237309204
10
36.118957912892647
20
-111.12028379809045
10
36.118957912892654
20
-118.42028379809048
42
-0.41421356237309204
0
LWPOLYLINE
5
253
100
AcDbEntity
8
0
100
AcDbPolyline
90
8
70
1
43
0.0
10
49.368957912892654
20
-120.17028379809047
10
42.068957912892643
20
-120.17028379809045
42
-0.41421356237309509
10
40.31895791289265
20
-118.42028379809045
10
40.318957912892643
20
-111.12028379809047
42
-0.41421356237309509
10
42.068957912892643
20
-109.37028379809047
10
49.368957912892654
20
-109.37028379809047
42
-0.41421356237309204
10
51.118957912892647
20
-111.12028379809045
10
51.118957912892654
20
-118.42028379809048
42
-0.41421356237309204
0
LWPOLYLINE
5
254
100
AcDbEntity
8
0
100
AcDbPolyline
90
8
70
1
43
0.0
10
64.36895791289264
20
-120.17028379809047
10
57.068957912892643
20
-120.17028379809047
42
-0.41421356237309509
10
55.318957912892643
20
-118.42028379809045
10
55.318957912892643
20
-111.12028379809047
42
-0.41421356237309348
10
57.068957912892635
20
-109.37028379809047
10
64.368957912892654
20
-109.37028379809048
42
-0.41421356237309204
10
66.11895791289264
20
-111.12028379809045
10
66.118957912892654
20
-118.42028379809048
42
-0.41421356237309204
0
LWPOLYLINE
5
255
100
AcDbEntity
8
0
100
AcDbPolyline
90
8
70
1
43
0.0
10
79.36895791289264
20
-120.17028379809047
10
72.068957912892643
20
-120.17028379809047
42
-0.41421356237309509
10
70.318957912892643
20
-118.42028379809045
10
70.318957912892643
20
-111.12028379809047
42
-0.41421356237309348
10
72.068957912892643
20
-109.37028379809047
10
79.368957912892654
20
-109.37028379809048
42
-0.41421356237309204
10
81.11895791289264
20
-111.12028379809045
10
81.11895791289264
20
-118.42028379809048
42
-0.41421356237309204
0
LWPOLYLINE
5
256
100
AcDbEntity
8
0
100
AcDbPolyline
90
8
70
1
43
0.0
10
94.368957912892654
20
-120.17028379809047
10
87.068957912892643
20
-120.17028379809047
42
-0.41421356237309509
10
85.318957912892643
20
-118.42028379809045
10
85.318957912892643
20
-111.12028379809047
42
-0.41421356237309204
10
87.068957912892628
20
-109.37028379809047
10
94.368957912892654
20
-109.37028379809048
42
-0.41421356237309204
10
96.11895791289264
20
-111.12028379809045
10
96.118957912892654
20
-118.42028379809048
42
-0.41421356237309204
0
LWPOLYLINE
5
257
100
AcDbEntity
8
0
100
AcDbPolyline
90
8
70
1
43
0.0
10
109.36895791289263
20
-120.17028379809047
10
102.06895791289263
20
-120.17028379809045
42
-0.41421356237309509
10
100.31895791289264
20
-118.42028379809045
10
100.31895791289261
20
-111.12028379809047
42
-0.41421356237309509
10
102.06895791289263
20
-109.37028379809047
10
109.36895791289263
20
-109.37028379809047
42
-0.41421356237309204
10
111.11895791289264
20
-111.12028379809045
10
111.11895791289264
20
-118.42028379809048
42
-0.41421356237309204
0
LWPOLYLINE
5
258
100
AcDbEntity
8
0
100
AcDbPolyline
90
8
70
1
43
0.0
10
124.36895791289263
20
-120.17028379809047
10
117.06895791289263
20
-120.17028379809045
42
-0.41421356237309509
10
115.31895791289264
20
-118.42028379809045
10
115.31895791289261
20
-111.12028379809047
42
-0.41421356237309509
10
117.06895791289263
20
-109.37028379809047
10
124.36895791289263
20
-109.37028379809047
42
-0.41421356237309204
10
126.11895791289264
20
-111.12028379809045
10
126.11895791289264
20
-118.42028379809048
42
-0.41421356237309204
0
LWPOLYLINE
5
259
100
AcDbEntity
8
0
100
AcDbPolyline
90
8
70
1
43
0.0
10
139.36895791289263
20
-120.17028379809047
10
132.06895791289264
20
-120.17028379809045
42
-0.41421356237309509
10
130.31895791289264
20
-118.42028379809045
10
130.31895791289261
20
-111.12028379809047
42
-0.41421356237309509
10
132.06895791289264
20
-109.37028379809047
10
139.36895791289263
20
-109.37028379809047
42
-0.41421356237309204
10
141.11895791289265
20
-111.12028379809045
10
141.11895791289265
20
-118.42028379809048
42
-0.41421356237309204
0
LWPOLYLINE
5
260
100
AcDbEntity
8
0
100
AcDbPolyline
90
8
70
1
43
0.0
10
154.36895791289263
20
-120.17028379809047
10
147.06895791289264
20
-120.17028379809045
42
-0.41421356237309509
10
145.31895791289264
20
-118.42028379809045
10
145.31895791289261
20
-111.12028379809047
42
-0.41421356237309509
10
147.06895791289264
20
-109.37028379809047
10
154.36895791289263
20
-109.37028379809047
42
-0.41421356237309204
10
156.11895791289265
20
-111.12028379809045
10
156.11895791289265
20
-118.42028379809048
42
-0.41421356237309204
0
LWPOLYLINE
5
261
100
AcDbEntity
8
0
100
AcDbPolyline
90
8
70
1
43
0.0
10
169.36895791289263
20
-120.17028379809047
10
162.06895791289264
20
-120.17028379809047
42
-0.41421356237309509
10
160.31895791289261
20
-118.42028379809045
10
160.31895791289261
20
-111.12028379809047
42
-0.41421356237309509
10
162.06895791289264
20
-109.37028379809047
10
169.36895791289265
20
-109.37028379809047
42
-0.41421356237309204
10
171.11895791289265
20
-111.12028379809045
10
171.11895791289265
20
-118.42028379809048
42
-0.41421356237309204
0
LWPOLYLINE
5
262
100
AcDbEntity
8
0
100
AcDbPolyline
90
8
70
1
43
0.0
10
184.36895791289263
20
-120.17028379809047
10
177.06895791289264
20
-120.17028379809047
42
-0.41421356237309509
10
175.31895791289261
20
-118.42028379809045
10
175.31895791289261
20
-111.12028379809047
42
-0.41421356237309509
10
177.06895791289264
20
-109.37028379809047
10
184.36895791289265
20
-109.3702837980905
42
-0.41421356237309204
10
186.1189579128926
20
-111.12028379809045
10
186.11895791289265
20
-118.42028379809048
42
-0.41421356237309204
0
LWPOLYLINE
5
263
100
AcDbEntity
8
0
100
AcDbPolyline
90
8
70
1
43
0.0
10
199.36895791289263
20
-120.17028379809047
10
192.06895791289264
20
-120.17028379809047
42
-0.41421356237309509
10
190.31895791289261
20
-118.42028379809045
10
190.31895791289261
20
-111.12028379809047
42
-0.41421356237309509
10
192.06895791289264
20
-109.37028379809047
10
199.36895791289265
20
-109.3702837980905
42
-0.41421356237309204
10
201.1189579128926
20
-111.12028379809045
10
201.11895791289265
20
-118.42028379809048
42
-0.41421356237309204
0
LWPOLYLINE
5
264
100
AcDbEntity
8
0
100
AcDbPolyline
90
8
70
1
43
0.0
10
214.36895791289263
20
-120.17028379809047
10
207.06895791289264
20
-120.17028379809047
42
-0.41421356237309509
10
205.31895791289261
20
-118.42028379809045
10
205.31895791289261
20
-111.12028379809047
42
-0.41421356237309509
10
207.06895791289264
20
-109.37028379809047
10
214.36895791289265
20
-109.3702837980905
42
-0.41421356237309204
10
216.1189579128926
20
-111.12028379809045
10
216.11895791289265
20
-118.42028379809048
42
-0.41421356237309204
0
LWPOLYLINE
5
265
100
AcDbEntity
8
0
100
AcDbPolyline
90
8
70
1
43
0.0
10
229.36895791289263
20
-120.17028379809047
10
222.06895791289264
20
-120.17028379809047
42
-0.41421356237309509
10
220.31895791289261
20
-118.42028379809045
10
220.31895791289261
20
-111.12028379809047
42
-0.41421356237309509
10
222.06895791289264
20
-109.37028379809047
10
229.36895791289265
20
-109.3702837980905
42
-0.41421356237309204
10
231.1189579128926
20
-111.12028379809045
10
231.11895791289265
20
-118.42028379809048
42
-0.41421356237309204
0
LWPOLYLINE
5
266
100
AcDbEntity
8
0
100
AcDbPolyline
90
8
70
1
43
0.0
10
244.36895791289263
20
-120.17028379809047
10
237.06895791289264
20
-120.17028379809047
42
-0.41421356237309509
10
235.31895791289261
20
-118.42028379809045
10
235.31895791289261
20
-111.12028379809047
42
-0.41421356237309509
10
237.06895791289264
20
-109.37028379809047
10
244.36895791289265
20
-109.3702837980905
42
-0.41421356237309204
10
246.1189579128926
20
-111.12028379809045
10
246.11895791289265
20
-118.42028379809048
42
-0.41421356237309204
0
LWPOLYLINE
5
267
100
AcDbEntity
8
0
100
AcDbPolyline
90
8
70
1
43
0.0
10
19.368957912892654
20
-135.17028379809045
10
12.068957912892655
20
-135.17028379809045
42
-0.41421356237309509
10
10.318957912892653
20
-133.42028379809045
10
10.318957912892643
20
-126.12028379809047
42
-0.41421356237309431
10
12.068957912892646
20
-124.37028379809047
10
19.368957912892654
20
-124.37028379809047
42
-0.41421356237309204
10
21.118957912892654
20
-126.12028379809045
10
21.118957912892657
20
-133.42028379809048
42
-0.41421356237309204
0
LWPOLYLINE
5
268
100
AcDbEntity
8
0
100
AcDbPolyline
90
8
70
1
43
0.0
10
34.368957912892654
20
-135.17028379809045
10
27.068957912892657
20
-135.17028379809045
42
-0.41421356237309509
10
25.31895791289265
20
-133.42028379809045
10
25.318957912892639
20
-126.12028379809047
42
-0.41421356237309509
10
27.068957912892646
20
-124.37028379809047
10
34.368957912892654
20
-124.37028379809047
42
-0.41421356237309204
10
36.118957912892647
20
-126.12028379809045
10
36.118957912892654
20
-133.42028379809048
42
-0.41421356237309204
0
LWPOLYLINE
5
269
100
AcDbEntity
8
0
100
AcDbPolyline
90
8
70
1
43
0.0
10
49.368957912892654
20
-135.17028379809045
10
42.068957912892643
20
-135.17028379809045
42
-0.41421356237309509
10
40.31895791289265
20
-133.42028379809045
10
40.318957912892643
20
-126.12028379809047
42
-0.41421356237309509
10
42.068957912892643
20
-124.37028379809047
10
49.368957912892654
20
-124.37028379809047
42
-0.41421356237309204
10
51.118957912892647
20
-126.12028379809045
10
51.118957912892654
20
-133.42028379809048
42
-0.41421356237309204
0
LWPOLYLINE
5
270
100
AcDbEntity
8
0
100
AcDbPolyline
90
8
70
1
43
0.0
10
64.36895791289264
20
-135.17028379809045
10
57.068957912892643
20
-135.17028379809045
42
-0.41421356237309509
10
55.318957912892643
20
-133.42028379809045
10
55.318957912892643
20
-126.12028379809047
42
-0.41421356237309348
10
57.068957912892635
20
-124.37028379809047
10
64.368957912892654
20
-124.37028379809048
42
-0.41421356237309204
10
66.11895791289264
20
-126.12028379809045
10
66.118957912892654
20
-133.42028379809048
42
-0.41421356237309204
0
LWPOLYLINE
5
271
100
AcDbEntity
8
0
100
AcDbPolyline
90
8
70
1
43
0.0
10
79.36895791289264
20
-135.17028379809045
10
72.068957912892643
20
-135.17028379809045
42
-0.41421356237309509
10
70.318957912892643
20
-133.42028379809045
10
70.318957912892643
20
-126.12028379809047
42
-0.41421356237309348
10
72.068957912892643
20
-124.37028379809047
10
79.368957912892654
20
-124.37028379809048
42
-0.41421356237309204
10
81.11895791289264
20
-126.12028379809045
10
81.11895791289264
20
-133.42028379809048
42
-0.41421356237309204
0
LWPOLYLINE
5
272
100
AcDbEntity
8
0
100
AcDbPolyline
90
8
70
1
43
0.0
10
94.368957912892654
20
-135.17028379809045
10
87.068957912892643
20
-135.17028379809045
42
-0.41421356237309509
10
85.318957912892643
20
-133.42028379809045
10
85.318957912892643
20
-126.12028379809047
42
-0.41421356237309204
10
87.068957912892628
20
-124.37028379809047
10
94.368957912892654
20
-124.37028379809048
42
-0.41421356237309204
10
96.11895791289264
20
-126.12028379809045
10
96.118957912892654
20
-133.42028379809048
42
-0.41421356237309204
0
LWPOLYLINE
5
273
100
AcDbEntity
8
0
100
AcDbPolyline
90
8
70
1
43
0.0
10
109.36895791289263
20
-135.17028379809045
10
102.06895791289263
20
-135.17028379809045
42
-0.41421356237309509
10
100.31895791289264
20
-133.42028379809045
10
100.31895791289261
20
-126.12028379809047
42
-0.41421356237309509
10
102.06895791289263
20
-124.37028379809047
10
109.36895791289263
20
-124.37028379809047
42
-0.41421356237309204
10
111.11895791289264
20
-126.12028379809045
10
111.11895791289264
20
-133.42028379809048
42
-0.41421356237309204
0
LWPOLYLINE
5
274
100
AcDbEntity
8
0
100
AcDbPolyline
90
8
70
1
43
0.0
10
124.36895791289263
20
-135.17028379809045
10
117.06895791289263
20
-135.17028379809045
42
-0.41421356237309509
10
115.31895791289264
20
-133.42028379809045
10
115.31895791289261
20
-126.12028379809047
42
-0.41421356237309509
10
117.06895791289263
20
-124.37028379809047
10
124.36895791289263
20
-124.37028379809047
42
-0.41421356237309204
10
126.11895791289264
20
-126.12028379809045
10
126.11895791289264
20
-133.42028379809048
42
-0.41421356237309204
0
LWPOLYLINE
5
275
100
AcDbEntity
8
0
100
AcDbPolyline
90
8
70
1
43
0.0
10
139.36895791289263
20
-135.17028379809045
10
132.06895791289264
20
-135.17028379809045
42
-0.41421356237309509
10
130.31895791289264
20
-133.42028379809045
10
130.31895791289261
20
-126.12028379809047
42
-0.41421356237309509
10
132.06895791289264
20
-124.37028379809047
10
139.36895791289263
20
-124.37028379809047
42
-0.41421356237309204
10
141.11895791289265
20
-126.12028379809045
10
141.11895791289265
20
-133.42028379809048
42
-0.41421356237309204
0
LWPOLYLINE
5
276
100
AcDbEntity
8
0
100
AcDbPolyline
90
8
70
1
43
0.0
10
154.36895791289263
20
-135.17028379809045
10
147.06895791289264
20
-135.17028379809045
42
-0.41421356237309509
10
145.31895791289264
20
-133.42028379809045
10
145.31895791289261
20
-126.12028379809047
42
-0.41421356237309509
10
147.06895791289264
20
-124.37028379809047
10
154.36895791289263
20
-124.37028379809047
42
-0.41421356237309204
10
156.11895791289265
20
-126.12028379809045
10
156.11895791289265
20
-133.42028379809048
42
-0.41421356237309204
0
LWPOLYLINE
5
277
100
AcDbEntity
8
0
100
AcDbPolyline
90
8
70
1
43
0.0
10
169.36895791289263
20
-135.17028379809045
10
162.06895791289264
20
-135.17028379809045
42
-0.41421356237309509
10
160.31895791289261
20
-133.42028379809045
10
160.31895791289261
20
-126.12028379809047
42
-0.41421356237309509
10
162.06895791289264
20
-124.37028379809047
10
169.36895791289265
20
-124.37028379809047
42
-0.41421356237309204
10
171.11895791289265
20
-126.12028379809045
10
171.11895791289265
20
-133.42028379809048
42
-0.41421356237309204
0
LWPOLYLINE
5
278
100
AcDbEntity
8
0
100
AcDbPolyline
90
8
70
1
43
0.0
10
184.36895791289263
20
-135.17028379809045
10
177.06895791289264
20
-135.17028379809045
42
-0.41421356237309509
10
175.31895791289261
20
-133.42028379809045
10
175.31895791289261
20
-126.12028379809047
42
-0.41421356237309509
10
177.06895791289264
20
-124.37028379809047
10
184.36895791289265
20
-124.3702837980905
42
-0.41421356237309204
10
186.1189579128926
20
-126.12028379809045
10
186.11895791289265
20
-133.42028379809048
42
-0.41421356237309204
0
LWPOLYLINE
5
279
100
AcDbEntity
8
0
100
AcDbPolyline
90
8
70
1
43
0.0
10
199.36895791289263
20
-135.17028379809045
10
192.06895791289264
20
-135.17028379809045
42
-0.41421356237309509
10
190.31895791289261
20
-133.42028379809045
10
190.31895791289261
20
-126.12028379809047
42
-0.41421356237309509
10
192.06895791289264
20
-124.37028379809047
10
199.36895791289265
20
-124.3702837980905
42
-0.41421356237309204
10
201.1189579128926
20
-126.12028379809045
10
201.11895791289265
20
-133.42028379809048
42
-0.41421356237309204
0
LWPOLYLINE
5
280
100
AcDbEntity
8
0
100
AcDbPolyline
90
8
70
1
43
0.0
10
214.36895791289263
20
-135.17028379809045
10
207.06895791289264
20
-135.17028379809045
42
-0.41421356237309509
10
205.31895791289261
20
-133.42028379809045
10
205.31895791289261
20
-126.12028379809047
42
-0.41421356237309509
10
207.06895791289264
20
-124.37028379809047
10
214.36895791289265
20
-124.3702837980905
42
-0.41421356237309204
10
216.1189579128926
20
-126.12028379809045
10
216.11895791289265
20
-133.42028379809048
42
-0.41421356237309204
0
LWPOLYLINE
5
281
100
AcDbEntity
8
0
100
AcDbPolyline
90
8
70
1
43
0.0
10
229.36895791289263
20
-135.17028379809045
10
222.06895791289264
20
-135.17028379809045
42
-0.41421356237309509
10
220.31895791289261
20
-133.42028379809045
10
220.31895791289261
20
-126.12028379809047
42
-0.41421356237309509
10
222.06895791289264
20
-124.37028379809047
10
229.36895791289265
20
-124.3702837980905
42
-0.41421356237309204
10
231.1189579128926
20
-126.12028379809045
10
231.11895791289265
20
-133.42028379809048
42
-0.41421356237309204
0
LWPOLYLINE
5
282
100
AcDbEntity
8
0
100
AcDbPolyline
90
8
70
1
43
0.0
10
244.36895791289263
20
-135.17028379809045
10
237.06895791289264
20
-135.17028379809045
42
-0.41421356237309509
10
235.31895791289261
20
-133.42028379809045
10
235.31895791289261
20
-126.12028379809047
42
-0.41421356237309509
10
237.06895791289264
20
-124.37028379809047
10
244.36895791289265
20
-124.3702837980905
42
-0.41421356237309204
10
246.1189579128926
20
-126.12028379809045
10
246.11895791289265
20
-133.42028379809048
42
-0.41421356237309204
0
LWPOLYLINE
5
283
100
AcDbEntity
8
0
100
AcDbPolyline
90
8
70
1
43
0.0
10
19.368957912892654
20
-150.17028379809045
10
12.068957912892655
20
-150.17028379809045
42
-0.41421356237309509
10
10.318957912892653
20
-148.42028379809045
10
10.318957912892643
20
-141.12028379809047
42
-0.41421356237309431
10
12.068957912892646
20
-139.37028379809047
10
19.368957912892654
20
-139.37028379809047
42
-0.41421356237309204
10
21.118957912892654
20
-141.12028379809044
10
21.118957912892657
20
-148.42028379809048
42
-0.41421356237309204
0
LWPOLYLINE
5
284
100
AcDbEntity
8
0
100
AcDbPolyline
90
8
70
1
43
0.0
10
34.368957912892654
20
-150.17028379809045
10
27.068957912892657
20
-150.17028379809045
42
-0.41421356237309509
10
25.31895791289265
20
-148.42028379809045
10
25.318957912892639
20
-141.12028379809047
42
-0.41421356237309509
10
27.068957912892646
20
-139.37028379809047
10
34.368957912892654
20
-139.37028379809047
42
-0.41421356237309204
10
36.118957912892647
20
-141.12028379809044
10
36.118957912892654
20
-148.42028379809048
42
-0.41421356237309204
0
LWPOLYLINE
5
285
100
AcDbEntity
8
0
100
AcDbPolyline
90
8
70
1
43
0.0
10
49.368957912892654
20
-150.17028379809045
10
42.068957912892643
20
-150.17028379809045
42
-0.41421356237309509
10
40.31895791289265
20
-148.42028379809045
10
40.318957912892643
20
-141.12028379809047
42
-0.41421356237309509
10
42.068957912892643
20
-139.37028379809047
10
49.368957912892654
20
-139.37028379809047
42
-0.41421356237309204
10
51.118957912892647
20
-141.12028379809044
10
51.118957912892654
20
-148.42028379809048
42
-0.41421356237309204
0
LWPOLYLINE
5
286
100
AcDbEntity
8
0
100
AcDbPolyline
90
8
70
1
43
0.0
10
64.36895791289264
20
-150.17028379809045
10
57.068957912892643
20
-150.17028379809045
42
-0.41421356237309509
10
55.318957912892643
20
-148.42028379809045
10
55.318957912892643
20
-141.12028379809047
42
-0.41421356237309348
10
57.068957912892635
20
-139.37028379809047
10
64.368957912892654
20
-139.37028379809047
42
-0.41421356237309204
10
66.11895791289264
20
-141.12028379809044
10
66.118957912892654
20
-148.42028379809048
42
-0.41421356237309204
0
LWPOLYLINE
5
287
100
AcDbEntity
8
0
100
AcDbPolyline
90
8
70
1
43
0.0
10
79.36895791289264
20
-150.17028379809045
10
72.068957912892643
20
-150.17028379809045
42
-0.41421356237309509
10
70.318957912892643
20
-148.42028379809045
10
70.318957912892643
20
-141.12028379809047
42
-0.41421356237309348
10
72.068957912892643
20
-139.37028379809047
10
79.368957912892654
20
-139.37028379809047
42
-0.41421356237309204
10
81.11895791289264
20
-141.12028379809044
10
81.11895791289264
20
-148.42028379809048
42
-0.41421356237309204
0
LWPOLYLINE
5
288
100
AcDbEntity
8
0
100
AcDbPolyline
90
8
70
1
43
0.0
10
94.368957912892654
20
-150.17028379809045
10
87.068957912892643
20
-150.17028379809045
42
-0.41421356237309509
10
85.318957912892643
20
-148.42028379809045
10
85.318957912892643
20
-141.12028379809047
42
-0.41421356237309204
10
87.068957912892628
20
-139.37028379809047
10
94.368957912892654
20
-139.37028379809047
42
-0.41421356237309204
10
96.11895791289264
20
-141.12028379809044
10
96.118957912892654
20
-148.42028379809048
42
-0.41421356237309204
0
LWPOLYLINE
5
289
100
AcDbEntity
8
0
100
AcDbPolyline
90
8
70
1
43
0.0
10
109.36895791289263
20
-150.17028379809045
10
102.06895791289263
20
-150.17028379809045
42
-0.41421356237309509
10
100.31895791289264
20
-148.42028379809045
10
100.31895791289261
20
-141.12028379809047
42
-0.41421356237309509
10
102.06895791289263
20
-139.37028379809047
10
109.36895791289263
20
-139.37028379809047
42
-0.41421356237309204
10
111.11895791289264
20
-141.12028379809044
10
111.11895791289264
20
-148.42028379809048
42
-0.41421356237309204
0
LWPOLYLINE
5
290
100
AcDbEntity
8
0
100
AcDbPolyline
90
8
70
1
43
0.0
10
124.36895791289263
20
-150.17028379809045
10
117.06895791289263
20
-150.17028379809045
42
-0.41421356237309509
10
115.31895791289264
20
-148.42028379809045
10
115.31895791289261
20
-141.12028379809047
42
-0.41421356237309509
10
117.06895791289263
20
-139.37028379809047
10
124.36895791289263
20
-139.37028379809047
42
-0.41421356237309204
10
126.11895791289264
20
-141.12028379809044
10
126.11895791289264
20
-148.42028379809048
42
-0.41421356237309204
0
LWPOLYLINE
5
291
100
AcDbEntity
8
0
100
AcDbPolyline
90
8
70
1
43
0.0
10
139.36895791289263
20
-150.17028379809045
10
132.06895791289264
20
-150.17028379809045
42
-0.41421356237309509
10
130.31895791289264
20
-148.42028379809045
10
130.31895791289261
20
-141.12028379809047
42
-0.41421356237309509
10
132.06895791289264
20
-139.37028379809047
10
139.36895791289263
20
-139.37028379809047
42
-0.41421356237309204
10
141.11895791289265
20
-141.12028379809044
10
141.11895791289265
20
-148.42028379809048
42
-0.41421356237309204
0
LWPOLYLINE
5
292
100
AcDbEntity
8
0
100
AcDbPolyline
90
8
70
1
43
0.0
10
154.36895791289263
20
-150.17028379809045
10
147.06895791289264
20
-150.17028379809045
42
-0.41421356237309509
10
145.31895791289264
20
-148.42028379809045
10
145.31895791289261
20
-141.12028379809047
42
-0.41421356237309509
10
147.06895791289264
20
-139.37028379809047
10
154.36895791289263
20
-139.37028379809047
42
-0.41421356237309204
10
156.11895791289265
20
-141.12028379809044
10
156.11895791289265
20
-148.42028379809048
42
-0.41421356237309204
0
LWPOLYLINE
5
293
100
AcDbEntity
8
0
100
AcDbPolyline
90
8
70
1
43
0.0
10
169.36895791289263
20
-150.17028379809045
10
162.06895791289264
20
-150.17028379809045
42
-0.41421356237309509
10
160.31895791289261
20
-148.42028379809045
10
160.31895791289261
20
-141.12028379809047
42
-0.41421356237309509
10
162.06895791289264
20
-139.37028379809047
10
169.36895791289265
20
-139.37028379809047
42
-0.41421356237309204
10
171.11895791289265
20
-141.12028379809044
10
171.11895791289265
20
-148.42028379809048
42
-0.41421356237309204
0
LWPOLYLINE
5
294
100
AcDbEntity
8
0
100
AcDbPolyline
90
8
70
1
43
0.0
10
184.36895791289263
20
-150.17028379809045
10
177.06895791289264
20
-150.17028379809045
42
-0.41421356237309509
10
175.31895791289261
20
-148.42028379809045
10
175.31895791289261
20
-141.12028379809047
42
-0.41421356237309509
10
177.06895791289264
20
-139.37028379809047
10
184.36895791289265
20
-139.3702837980905
42
-0.41421356237309204
10
186.1189579128926
20
-141.12028379809044
10
186.11895791289265
20
-148.42028379809048
42
-0.41421356237309204
0
LWPOLYLINE
5
295
100
AcDbEntity
8
0
100
AcDbPolyline
90
8
70
1
43
0.0
10
199.36895791289263
20
-150.17028379809045
10
192.06895791289264
20
-150.17028379809045
42
-0.41421356237309509
10
190.31895791289261
20
-148.42028379809045
10
190.31895791289261
20
-141.12028379809047
42
-0.41421356237309509
10
192.06895791289264
20
-139.37028379809047
10
199.36895791289265
20
-139.3702837980905
42
-0.41421356237309204
10
201.1189579128926
20
-141.12028379809044
10
201.11895791289265
20
-148.42028379809048
42
-0.41421356237309204
0
LWPOLYLINE
5
296
100
AcDbEntity
8
0
100
AcDbPolyline
90
8
70
1
43
0.0
10
214.36895791289263
20
-150.17028379809045
10
207.06895791289264
20
-150.17028379809045
42
-0.41421356237309509
10
205.31895791289261
20
-148.42028379809045
10
205.31895791289261
20
-141.12028379809047
42
-0.41421356237309509
10
207.06895791289264
20
-139.37028379809047
10
214.36895791289265
20
-139.3702837980905
42
-0.41421356237309204
10
216.1189579128926
20
-141.12028379809044
10
216.11895791289265
20
-148.42028379809048
42
-0.41421356237309204
0
LWPOLYLINE
5
297
100
AcDbEntity
8
0
100
AcDbPolyline
90
8
70
1
43
0.0
10
229.36895791289263
20
-150.17028379809045
10
222.06895791289264
20
-150.17028379809045
42
-0.41421356237309509
10
220.31895791289261
20
-148.42028379809045
10
220.31895791289261
20
-141.12028379809047
42
-0.41421356237309509
10
222.06895791289264
20
-139.37028379809047
10
229.36895791289265
20
-139.3702837980905
42
-0.41421356237309204
10
231.1189579128926
20
-141.12028379809044
10
231.11895791289265
20
-148.42028379809048
42
-0.41421356237309204
0
LWPOLYLINE
5
298
100
AcDbEntity
8
0
100
AcDbPolyline
90
8
70
1
43
0.0
10
244.36895791289263
20
-150.17028379809045
10
237.06895791289264
20
-150.17028379809045
42
-0.41421356237309509
10
235.31895791289261
20
-148.42028379809045
10
235.31895791289261
20
-141.12028379809047
42
-0.41421356237309509
10
237.06895791289264
20
-139.37028379809047
10
244.36895791289265
20
-139.3702837980905
42
-0.41421356237309204
10
246.1189579128926
20
-141.12028379809044
10
246.11895791289265
20
-148.42028379809048
42
-0.41421356237309204
0
LWPOLYLINE
5
299
100
AcDbEntity
8
0
100
AcDbPolyline
90
8
70
1
43
0.0
10
19.368957912892654
20
-165.17028379809048
10
12.068957912892655
20
-165.17028379809048
42
-0.41421356237309509
10
10.318957912892653
20
-163.42028379809048
10
10.318957912892643
20
-156.12028379809047
42
-0.41421356237309431
10
12.068957912892646
20
-154.37028379809047
10
19.368957912892654
20
-154.37028379809047
42
-0.41421356237309204
10
21.118957912892654
20
-156.12028379809044
10
21.118957912892657
20
-163.42028379809048
42
-0.41421356237309509
0
LWPOLYLINE
5
300
100
AcDbEntity
8
0
100
AcDbPolyline
90
8
70
1
43
0.0
10
34.368957912892654
20
-165.17028379809048
10
27.068957912892657
20
-165.17028379809048
42
-0.41421356237309509
10
25.31895791289265
20
-163.42028379809048
10
25.318957912892639
20
-156.12028379809047
42
-0.41421356237309509
10
27.068957912892646
20
-154.37028379809047
10
34.368957912892654
20
-154.37028379809047
42
-0.41421356237309204
10
36.118957912892647
20
-156.12028379809044
10
36.118957912892654
20
-163.42028379809048
42
-0.41421356237309509
0
LWPOLYLINE
5
301
100
AcDbEntity
8
0
100
AcDbPolyline
90
8
70
1
43
0.0
10
49.368957912892654
20
-165.17028379809048
10
42.068957912892643
20
-165.17028379809048
42
-0.41421356237309509
10
40.31895791289265
20
-163.42028379809048
10
40.318957912892643
20
-156.12028379809047
42
-0.41421356237309509
10
42.068957912892643
20
-154.37028379809047
10
49.368957912892654
20
-154.37028379809047
42
-0.41421356237309204
10
51.118957912892647
20
-156.12028379809044
10
51.118957912892654
20
-163.42028379809048
42
-0.41421356237309509
0
LWPOLYLINE
5
302
100
AcDbEntity
8
0
100
AcDbPolyline
90
8
70
1
43
0.0
10
64.36895791289264
20
-165.17028379809048
10
57.068957912892643
20
-165.17028379809048
42
-0.41421356237309509
10
55.318957912892643
20
-163.42028379809048
10
55.318957912892643
20
-156.12028379809047
42
-0.41421356237309348
10
57.068957912892635
20
-154.37028379809047
10
64.368957912892654
20
-154.37028379809047
42
-0.41421356237309204
10
66.11895791289264
20
-156.12028379809044
10
66.118957912892654
20
-163.42028379809048
42
-0.41421356237309509
0
LWPOLYLINE
5
303
100
AcDbEntity
8
0
100
AcDbPolyline
90
8
70
1
43
0.0
10
79.36895791289264
20
-165.17028379809048
10
72.068957912892643
20
-165.17028379809048
42
-0.41421356237309509
10
70.318957912892643
20
-163.42028379809048
10
70.318957912892643
20
-156.12028379809047
42
-0.41421356237309348
10
72.068957912892643
20
-154.37028379809047
10
79.368957912892654
20
-154.37028379809047
42
-0.41421356237309204
10
81.11895791289264
20
-156.12028379809044
10
81.11895791289264
20
-163.42028379809048
42
-0.41421356237309509
0
LWPOLYLINE
5
304
100
AcDbEntity
8
0
100
AcDbPolyline
90
8
70
1
43
0.0
10
94.368957912892654
20
-165.17028379809048
10
87.068957912892643
20
-165.17028379809048
42
-0.41421356237309509
10
85.318957912892643
20
-163.42028379809048
10
85.318957912892643
20
-156.12028379809047
42
-0.41421356237309204
10
87.068957912892628
20
-154.37028379809047
10
94.368957912892654
20
-154.37028379809047
42
-0.41421356237309204
10
96.11895791289264
20
-156.12028379809044
10
96.118957912892654
20
-163.42028379809048
42
-0.41421356237309509
0
LWPOLYLINE
5
305
100
AcDbEntity
8
0
100
AcDbPolyline
90
8
70
1
43
0.0
10
109.36895791289263
20
-165.17028379809048
10
102.06895791289263
20
-165.17028379809048
42
-0.41421356237309509
10
100.31895791289264
20
-163.42028379809048
10
100.31895791289261
20
-156.12028379809047
42
-0.41421356237309509
10
102.06895791289263
20
-154.37028379809047
10
109.36895791289263
20
-154.37028379809047
42
-0.41421356237309204
10
111.11895791289264
20
-156.12028379809044
10
111.11895791289264
20
-163.42028379809048
42
-0.41421356237309509
0
LWPOLYLINE
5
306
100
AcDbEntity
8
0
100
AcDbPolyline
90
8
70
1
43
0.0
10
124.36895791289263
20
-165.17028379809048
10
117.06895791289263
20
-165.17028379809048
42
-0.41421356237309509
10
115.31895791289264
20
-163.42028379809048
10
115.31895791289261
20
-156.12028379809047
42
-0.41421356237309509
10
117.06895791289263
20
-154.37028379809047
10
124.36895791289263
20
-154.37028379809047
42
-0.41421356237309204
10
126.11895791289264
20
-156.12028379809044
10
126.11895791289264
20
-163.42028379809048
42
-0.41421356237309509
0
LWPOLYLINE
5
307
100
AcDbEntity
8
0
100
AcDbPolyline
90
8
70
1
43
0.0
10
139.36895791289263
20
-165.17028379809048
10
132.06895791289264
20
-165.17028379809048
42
-0.41421356237309509
10
130.31895791289264
20
-163.42028379809048
10
130.31895791289261
20
-156.12028379809047
42
-0.41421356237309509
10
132.06895791289264
20
-154.37028379809047
10
139.36895791289263
20
-154.37028379809047
42
-0.41421356237309204
10
141.11895791289265
20
-156.12028379809044
10
141.11895791289265
20
-163.42028379809048
42
-0.41421356237309509
0
LWPOLYLINE
5
308
100
AcDbEntity
8
0
100
AcDbPolyline
90
8
70
1
43
0.0
10
154.36895791289263
20
-165.17028379809048
10
147.06895791289264
20
-165.17028379809048
42
-0.41421356237309509
10
145.31895791289264
20
-163.42028379809048
10
145.31895791289261
20
-156.12028379809047
42
-0.41421356237309509
10
147.06895791289264
20
-154.37028379809047
10
154.36895791289263
20
-154.37028379809047
42
-0.41421356237309204
10
156.11895791289265
20
-156.12028379809044
10
156.11895791289265
20
-163.42028379809048
42
-0.41421356237309509
0
LWPOLYLINE
5
309
100
AcDbEntity
8
0
100
AcDbPolyline
90
8
70
1
43
0.0
10
169.36895791289263
20
-165.17028379809048
10
162.06895791289264
20
-165.17028379809048
42
-0.41421356237309509
10
160.31895791289261
20
-163.42028379809048
10
160.31895791289261
20
-156.12028379809047
42
-0.41421356237309509
10
162.06895791289264
20
-154.37028379809047
10
169.36895791289265
20
-154.37028379809047
42
-0.41421356237309204
10
171.11895791289265
20
-156.12028379809044
10
171.11895791289265
20
-163.42028379809048
42
-0.41421356237309509
0
LWPOLYLINE
5
310
100
AcDbEntity
8
0
100
AcDbPolyline
90
8
70
1
43
0.0
10
184.36895791289263
20
-165.17028379809048
10
177.06895791289264
20
-165.17028379809048
42
-0.41421356237309509
10
175.31895791289261
20
-163.42028379809048
10
175.31895791289261
20
-156.12028379809047
42
-0.41421356237309509
10
177.06895791289264
20
-154.37028379809047
10
184.36895791289265
20
-154.3702837980905
42
-0.41421356237309204
10
186.1189579128926
20
-156.12028379809044
10
186.11895791289265
20
-163.42028379809048
42
-0.41421356237309509
0
LWPOLYLINE
5
311
100
AcDbEntity
8
0
100
AcDbPolyline
90
8
70
1
43
0.0
10
199.36895791289263
20
-165.17028379809048
10
192.06895791289264
20
-165.17028379809048
42
-0.41421356237309509
10
190.31895791289261
20
-163.42028379809048
10
190.31895791289261
20
-156.12028379809047
42
-0.41421356237309509
10
192.06895791289264
20
-154.37028379809047
10
199.36895791289265
20
-154.3702837980905
42
-0.41421356237309204
10
201.1189579128926
20
-156.12028379809044
10
201.11895791289265
20
-163.42028379809048
42
-0.41421356237309509
0
LWPOLYLINE
5
312
100
AcDbEntity
8
0
100
AcDbPolyline
90
8
70
1
43
0.0
10
214.36895791289263
20
-165.17028379809048
10
207.06895791289264
20
-165.17028379809048
42
-0.41421356237309509
10
205.31895791289261
20
-163.42028379809048
10
205.31895791289261
20
-156.12028379809047
42
-0.41421356237309509
10
207.06895791289264
20
-154.37028379809047
10
214.36895791289265
20
-154.3702837980905
42
-0.41421356237309204
10
216.1189579128926
20
-156.12028379809044
10
216.11895791289265
20
-163.42028379809048
42
-0.41421356237309509
0
LWPOLYLINE
5
313
100
AcDbEntity
8
0
100
AcDbPolyline
90
8
70
1
43
0.0
10
229.36895791289263
20
-165.17028379809048
10
222.06895791289264
20
-165.17028379809048
42
-0.41421356237309509
10
220.31895791289261
20
-163.42028379809048
10
220.31895791289261
20
-156.12028379809047
42
-0.41421356237309509
10
222.06895791289264
20
-154.37028379809047
10
229.36895791289265
20
-154.3702837980905
42
-0.41421356237309204
10
231.1189579128926
20
-156.12028379809044
10
231.11895791289265
20
-163.42028379809048
42
-0.41421356237309509
0
LWPOLYLINE
5
314
100
AcDbEntity
8
0
100
AcDbPolyline
90
8
70
1
43
0.0
10
244.36895791289263
20
-165.17028379809048
10
237.06895791289264
20
-165.17028379809048
42
-0.41421356237309509
10
235.31895791289261
20
-163.42028379809048
10
235.31895791289261
20
-156.12028379809047
42
-0.41421356237309509
10
237.06895791289264
20
-154.37028379809047
10
244.36895791289265
20
-154.3702837980905
42
-0.41421356237309204
10
246.1189579128926
20
-156.12028379809044
10
246.11895791289265
20
-163.42028379809048
42
-0.41421356237309509
0
LWPOLYLINE
5
315
100
AcDbEntity
8
0
100
AcDbPolyline
90
8
70
1
43
0.0
10
19.368957912892654
20
-180.17028379809048
10
12.068957912892655
20
-180.17028379809048
42
-0.41421356237309509
10
10.318957912892653
20
-178.42028379809048
10
10.318957912892643
20
-171.12028379809047
42
-0.41421356237309431
10
12.068957912892646
20
-169.37028379809047
10
19.368957912892654
20
-169.37028379809047
42
-0.41421356237309509
10
21.118957912892654
20
-171.12028379809047
10
21.118957912892657
20
-178.42028379809048
42
-0.41421356237309509
0
LWPOLYLINE
5
316
100
AcDbEntity
8
0
100
AcDbPolyline
90
8
70
1
43
0.0
10
34.368957912892654
20
-180.17028379809048
10
27.068957912892657
20
-180.17028379809048
42
-0.41421356237309509
10
25.31895791289265
20
-178.42028379809048
10
25.318957912892639
20
-171.12028379809047
42
-0.41421356237309509
10
27.068957912892646
20
-169.37028379809047
10
34.368957912892654
20
-169.37028379809047
42
-0.41421356237309509
10
36.118957912892647
20
-171.12028379809047
10
36.118957912892654
20
-178.42028379809048
42
-0.41421356237309509
0
LWPOLYLINE
5
317
100
AcDbEntity
8
0
100
AcDbPolyline
90
8
70
1
43
0.0
10
49.368957912892654
20
-180.17028379809048
10
42.068957912892643
20
-180.17028379809048
42
-0.41421356237309509
10
40.31895791289265
20
-178.42028379809048
10
40.318957912892643
20
-171.12028379809047
42
-0.41421356237309509
10
42.068957912892643
20
-169.37028379809047
10
49.368957912892654
20
-169.37028379809047
42
-0.41421356237309509
10
51.118957912892647
20
-171.12028379809047
10
51.118957912892654
20
-178.42028379809048
42
-0.41421356237309509
0
LWPOLYLINE
5
318
100
AcDbEntity
8
0
100
AcDbPolyline
90
8
70
1
43
0.0
10
64.36895791289264
20
-180.17028379809048
10
57.068957912892643
20
-180.17028379809048
42
-0.41421356237309509
10
55.318957912892643
20
-178.42028379809048
10
55.318957912892643
20
-171.12028379809047
42
-0.41421356237309348
10
57.068957912892635
20
-169.37028379809047
10
64.368957912892654
20
-169.3702837980905
42
-0.41421356237309509
10
66.11895791289264
20
-171.12028379809047
10
66.118957912892654
20
-178.42028379809048
42
-0.41421356237309509
0
LWPOLYLINE
5
319
100
AcDbEntity
8
0
100
AcDbPolyline
90
8
70
1
43
0.0
10
79.36895791289264
20
-180.17028379809048
10
72.068957912892643
20
-180.17028379809048
42
-0.41421356237309509
10
70.318957912892643
20
-178.42028379809048
10
70.318957912892643
20
-171.12028379809047
42
-0.41421356237309348
10
72.068957912892643
20
-169.37028379809047
10
79.368957912892654
20
-169.3702837980905
42
-0.41421356237309509
10
81.11895791289264
20
-171.12028379809047
10
81.11895791289264
20
-178.42028379809048
42
-0.41421356237309509
0
LWPOLYLINE
5
320
100
AcDbEntity
8
0
100
AcDbPolyline
90
8
70
1
43
0.0
10
94.368957912892654
20
-180.17028379809048
10
87.068957912892643
20
-180.17028379809048
42
-0.41421356237309509
10
85.318957912892643
20
-178.42028379809048
10
85.318957912892643
20
-171.12028379809047
42
-0.41421356237309204
10
87.068957912892628
20
-169.37028379809047
10
94.368957912892654
20
-169.3702837980905
42
-0.41421356237309509
10
96.11895791289264
20
-171.12028379809047
10
96.118957912892654
20
-178.42028379809048
42
-0.41421356237309509
0
LWPOLYLINE
5
321
100
AcDbEntity
8
0
100
AcDbPolyline
90
8
70
1
43
0.0
10
109.36895791289263
20
-180.17028379809048
10
102.06895791289263
20
-180.17028379809048
42
-0.41421356237309509
10
100.31895791289264
20
-178.42028379809048
10
100.31895791289261
20
-171.12028379809047
42
-0.41421356237309509
10
102.06895791289263
20
-169.37028379809047
10
109.36895791289263
20
-169.37028379809047
42
-0.41421356237309509
10
111.11895791289264
20
-171.12028379809047
10
111.11895791289264
20
-178.42028379809048
42
-0.41421356237309509
0
LWPOLYLINE
5
322
100
AcDbEntity
8
0
100
AcDbPolyline
90
8
70
1
43
0.0
10
124.36895791289263
20
-180.17028379809048
10
117.06895791289263
20
-180.17028379809048
42
-0.41421356237309509
10
115.31895791289264
20
-178.42028379809048
10
115.31895791289261
20
-171.12028379809047
42
-0.41421356237309509
10
117.06895791289263
20
-169.37028379809047
10
124.36895791289263
20
-169.37028379809047
42
-0.41421356237309509
10
126.11895791289264
20
-171.12028379809047
10
126.11895791289264
20
-178.42028379809048
42
-0.41421356237309509
0
LWPOLYLINE
5
323
100
AcDbEntity
8
0
100
AcDbPolyline
90
8
70
1
43
0.0
10
139.36895791289263
20
-180.17028379809048
10
132.06895791289264
20
-180.17028379809048
42
-0.41421356237309509
10
130.31895791289264
20
-178.42028379809048
10
130.31895791289261
20
-171.12028379809047
42
-0.41421356237309509
10
132.06895791289264
20
-169.37028379809047
10
139.36895791289263
20
-169.37028379809047
42
-0.41421356237309509
10
141.11895791289265
20
-171.12028379809047
10
141.11895791289265
20
-178.42028379809048
42
-0.41421356237309509
0
LWPOLYLINE
5
324
100
AcDbEntity
8
0
100
AcDbPolyline
90
8
70
1
43
0.0
10
154.36895791289263
20
-180.17028379809048
10
147.06895791289264
20
-180.17028379809048
42
-0.41421356237309509
10
145.31895791289264
20
-178.42028379809048
10
145.31895791289261
20
-171.12028379809047
42
-0.41421356237309509
10
147.06895791289264
20
-169.37028379809047
10
154.36895791289263
20
-169.37028379809047
42
-0.41421356237309509
10
156.11895791289265
20
-171.12028379809047
10
156.11895791289265
20
-178.42028379809048
42
-0.41421356237309509
0
LWPOLYLINE
5
325
100
AcDbEntity
8
0
100
AcDbPolyline
90
8
70
1
43
0.0
10
169.36895791289263
20
-180.17028379809048
10
162.06895791289264
20
-180.17028379809048
42
-0.41421356237309509
10
160.31895791289261
20
-178.42028379809048
10
160.31895791289261
20
-171.12028379809047
42
-0.41421356237309509
10
162.06895791289264
20
-169.37028379809047
10
169.36895791289263
20
-169.37028379809047
42
-0.41421356237309509
10
171.11895791289265
20
-171.12028379809047
10
171.11895791289265
20
-178.42028379809048
42
-0.41421356237309509
0
LWPOLYLINE
5
326
100
AcDbEntity
8
0
100
AcDbPolyline
90
8
70
1
43
0.0
10
184.36895791289263
20
-180.17028379809048
10
177.06895791289264
20
-180.17028379809048
42
-0.41421356237309509
10
175.31895791289261
20
-178.42028379809048
10
175.31895791289261
20
-171.12028379809047
42
-0.41421356237309509
10
177.06895791289264
20
-169.37028379809047
10
184.36895791289263
20
-169.3702837980905
42
-0.41421356237309509
10
186.1189579128926
20
-171.12028379809047
10
186.11895791289265
20
-178.42028379809048
42
-0.41421356237309509
0
LWPOLYLINE
5
327
100
AcDbEntity
8
0
100
AcDbPolyline
90
8
70
1
43
0.0
10
199.36895791289263
20
-180.17028379809048
10
192.06895791289264
20
-180.17028379809048
42
-0.41421356237309509
10
190.31895791289261
20
-178.42028379809048
10
190.31895791289261
20
-171.12028379809047
42
-0.41421356237309509
10
192.06895791289264
20
-169.37028379809047
10
199.36895791289263
20
-169.3702837980905
42
-0.41421356237309509
10
201.1189579128926
20
-171.12028379809047
10
201.11895791289265
20
-178.42028379809048
42
-0.41421356237309509
0
LWPOLYLINE
5
328
100
AcDbEntity
8
0
100
AcDbPolyline
90
8
70
1
43
0.0
10
214.36895791289263
20
-180.17028379809048
10
207.06895791289264
20
-180.17028379809048
42
-0.41421356237309509
10
205.31895791289261
20
-178.42028379809048
10
205.31895791289261
20
-171.12028379809047
42
-0.41421356237309509
10
207.06895791289264
20
-169.37028379809047
10
214.36895791289263
20
-169.3702837980905
42
-0.41421356237309509
10
216.1189579128926
20
-171.12028379809047
10
216.11895791289265
20
-178.42028379809048
42
-0.41421356237309509
0
LWPOLYLINE
5
329
100
AcDbEntity
8
0
100
AcDbPolyline
90
8
70
1
43
0.0
10
229.36895791289263
20
-180.17028379809048
10
222.06895791289264
20
-180.17028379809048
42
-0.41421356237309509
10
220.31895791289261
20
-178.42028379809048
10
220.31895791289261
20
-171.12028379809047
42
-0.41421356237309509
10
222.06895791289264
20
-169.37028379809047
10
229.36895791289263
20
-169.3702837980905
42
-0.41421356237309509
10
231.1189579128926
20
-171.12028379809047
10
231.11895791289265
20
-178.42028379809048
42
-0.41421356237309509
0
LWPOLYLINE
5
330
100
AcDbEntity
8
0
100
AcDbPolyline
90
8
70
1
43
0.0
10
244.36895791289263
20
-180.17028379809048
10
237.06895791289264
20
-180.17028379809048
42
-0.41421356237309509
10
235.31895791289261
20
-178.42028379809048
10
235.31895791289261
20
-171.12028379809047
42
-0.41421356237309509
10
237.06895791289264
20
-169.37028379809047
10
244.36895791289263
20
-169.3702837980905
42
-0.41421356237309509
10
246.1189579128926
20
-171.12028379809047
10
246.11895791289265
20
-178.42028379809048
42
-0.41421356237309509
0
LWPOLYLINE
5
331
100
AcDbEntity
8
0
100
AcDbPolyline
90
8
70
1
43
0.0
10
19.368957912892654
20
-195.17028379809048
10
12.068957912892655
20
-195.17028379809048
42
-0.41421356237309509
10
10.318957912892653
20
-193.42028379809048
10
10.318957912892643
20
-186.12028379809047
42
-0.41421356237309431
10
12.068957912892646
20
-184.37028379809047
10
19.368957912892654
20
-184.37028379809047
42
-0.41421356237309509
10
21.118957912892654
20
-186.12028379809047
10
21.118957912892657
20
-193.42028379809048
42
-0.41421356237309509
0
LWPOLYLINE
5
332
100
AcDbEntity
8
0
100
AcDbPolyline
90
8
70
1
43
0.0
10
34.368957912892654
20
-195.17028379809048
10
27.068957912892657
20
-195.17028379809048
42
-0.41421356237309509
10
25.31895791289265
20
-193.42028379809048
10
25.318957912892639
20
-186.12028379809047
42
-0.41421356237309509
10
27.068957912892646
20
-184.37028379809047
10
34.368957912892654
20
-184.37028379809047
42
-0.41421356237309509
10
36.118957912892647
20
-186.12028379809047
10
36.118957912892654
20
-193.42028379809048
42
-0.41421356237309509
0
LWPOLYLINE
5
333
100
AcDbEntity
8
0
100
AcDbPolyline
90
8
70
1
43
0.0
10
49.368957912892654
20
-195.17028379809048
10
42.068957912892643
20
-195.17028379809048
42
-0.41421356237309509
10
40.31895791289265
20
-193.42028379809048
10
40.318957912892643
20
-186.12028379809047
42
-0.41421356237309509
10
42.068957912892643
20
-184.37028379809047
10
49.368957912892654
20
-184.37028379809047
42
-0.41421356237309509
10
51.118957912892647
20
-186.12028379809047
10
51.118957912892654
20
-193.42028379809048
42
-0.41421356237309509
0
LWPOLYLINE
5
334
100
AcDbEntity
8
0
100
AcDbPolyline
90
8
70
1
43
0.0
10
64.36895791289264
20
-195.17028379809048
10
57.068957912892643
20
-195.17028379809048
42
-0.41421356237309509
10
55.318957912892643
20
-193.42028379809048
10
55.318957912892643
20
-186.12028379809047
42
-0.41421356237309348
10
57.068957912892635
20
-184.37028379809047
10
64.368957912892654
20
-184.3702837980905
42
-0.41421356237309509
10
66.11895791289264
20
-186.12028379809047
10
66.118957912892654
20
-193.42028379809048
42
-0.41421356237309509
0
LWPOLYLINE
5
335
100
AcDbEntity
8
0
100
AcDbPolyline
90
8
70
1
43
0.0
10
79.36895791289264
20
-195.17028379809048
10
72.068957912892643
20
-195.17028379809048
42
-0.41421356237309509
10
70.318957912892643
20
-193.42028379809048
10
70.318957912892643
20
-186.12028379809047
42
-0.41421356237309348
10
72.068957912892643
20
-184.37028379809047
10
79.368957912892654
20
-184.3702837980905
42
-0.41421356237309509
10
81.11895791289264
20
-186.12028379809047
10
81.11895791289264
20
-193.42028379809048
42
-0.41421356237309509
0
LWPOLYLINE
5
336
100
AcDbEntity
8
0
100
AcDbPolyline
90
8
70
1
43
0.0
10
94.368957912892654
20
-195.17028379809048
10
87.068957912892643
20
-195.17028379809048
42
-0.41421356237309509
10
85.318957912892643
20
-193.42028379809048
10
85.318957912892643
20
-186.12028379809047
42
-0.41421356237309204
10
87.068957912892628
20
-184.37028379809047
10
94.368957912892654
20
-184.3702837980905
42
-0.41421356237309509
10
96.11895791289264
20
-186.12028379809047
10
96.118957912892654
20
-193.42028379809048
42
-0.41421356237309509
0
LWPOLYLINE
5
337
100
AcDbEntity
8
0
100
AcDbPolyline
90
8
70
1
43
0.0
10
109.36895791289263
20
-195.17028379809048
10
102.06895791289263
20
-195.17028379809048
42
-0.41421356237309509
10
100.31895791289264
20
-193.42028379809048
10
100.31895791289261
20
-186.12028379809047
42
-0.41421356237309509
10
102.06895791289263
20
-184.37028379809047
10
109.36895791289263
20
-184.37028379809047
42
-0.41421356237309509
10
111.11895791289264
20
-186.12028379809047
10
111.11895791289264
20
-193.42028379809048
42
-0.41421356237309509
0
LWPOLYLINE
5
338
100
AcDbEntity
8
0
100
AcDbPolyline
90
8
70
1
43
0.0
10
124.36895791289263
20
-195.17028379809048
10
117.06895791289263
20
-195.17028379809048
42
-0.41421356237309509
10
115.31895791289264
20
-193.42028379809048
10
115.31895791289261
20
-186.12028379809047
42
-0.41421356237309509
10
117.06895791289263
20
-184.37028379809047
10
124.36895791289263
20
-184.37028379809047
42
-0.41421356237309509
10
126.11895791289264
20
-186.12028379809047
10
126.11895791289264
20
-193.42028379809048
42
-0.41421356237309509
0
LWPOLYLINE
5
339
100
AcDbEntity
8
0
100
AcDbPolyline
90
8
70
1
43
0.0
10
139.36895791289263
20
-195.17028379809048
10
132.06895791289264
20
-195.17028379809048
42
-0.41421356237309509
10
130.31895791289264
20
-193.42028379809048
10
130.31895791289261
20
-186.12028379809047
42
-0.41421356237309509
10
132.06895791289264
20
-184.37028379809047
10
139.36895791289263
20
-184.37028379809047
42
-0.41421356237309509
10
141.11895791289265
20
-186.12028379809047
10
141.11895791289265
20
-193.42028379809048
42
-0.41421356237309509
0
LWPOLYLINE
5
340
100
AcDbEntity
8
0
100
AcDbPolyline
90
8
70
1
43
0.0
10
154.36895791289263
20
-195.17028379809048
10
147.06895791289264
20
-195.17028379809048
42
-0.41421356237309509
10
145.31895791289264
20
-193.42028379809048
10
145.31895791289261
20
-186.12028379809047
42
-0.41421356237309509
10
147.06895791289264
20
-184.37028379809047
10
154.36895791289263
20
-184.37028379809047
42
-0.41421356237309509
10
156.11895791289265
20
-186.12028379809047
10
156.11895791289265
20
-193.42028379809048
42
-0.41421356237309509
0
LWPOLYLINE
5
341
100
AcDbEntity
8
0
100
AcDbPolyline
90
8
70
1
43
0.0
10
169.36895791289263
20
-195.17028379809048
10
162.06895791289264
20
-195.17028379809048
42
-0.41421356237309509
10
160.31895791289261
20
-193.42028379809048
10
160.31895791289261
20
-186.12028379809047
42
-0.41421356237309509
10
162.06895791289264
20
-184.37028379809047
10
169.36895791289263
20
-184.37028379809047
42
-0.41421356237309509
10
171.11895791289265
20
-186.12028379809047
10
171.11895791289265
20
-193.42028379809048
42
-0.41421356237309509
0
LWPOLYLINE
5
342
100
AcDbEntity
8
0
100
AcDbPolyline
90
8
70
1
43
0.0
10
184.36895791289263
20
-195.17028379809048
10
177.06895791289264
20
-195.17028379809048
42
-0.41421356237309509
10
175.31895791289261
20
-193.42028379809048
10
175.31895791289261
20
-186.12028379809047
42
-0.41421356237309509
10
177.06895791289264
20
-184.37028379809047
10
184.36895791289263
20
-184.3702837980905
42
-0.41421356237309509
10
186.1189579128926
20
-186.12028379809047
10
186.11895791289265
20
-193.42028379809048
42
-0.41421356237309509
0
LWPOLYLINE
5
343
100
AcDbEntity
8
0
100
AcDbPolyline
90
8
70
1
43
0.0
10
199.36895791289263
20
-195.17028379809048
10
192.06895791289264
20
-195.17028379809048
42
-0.41421356237309509
10
190.31895791289261
20
-193.42028379809048
10
190.31895791289261
20
-186.12028379809047
42
-0.41421356237309509
10
192.06895791289264
20
-184.37028379809047
10
199.36895791289263
20
-184.3702837980905
42
-0.41421356237309509
10
201.1189579128926
20
-186.12028379809047
10
201.11895791289265
20
-193.42028379809048
42
-0.41421356237309509
0
LWPOLYLINE
5
344
100
AcDbEntity
8
0
100
AcDbPolyline
90
8
70
1
43
0.0
10
214.36895791289263
20
-195.17028379809048
10
207.06895791289264
20
-195.17028379809048
42
-0.41421356237309509
10
205.31895791289261
20
-193.42028379809048
10
205.31895791289261
20
-186.12028379809047
42
-0.41421356237309509
10
207.06895791289264
20
-184.37028379809047
10
214.36895791289263
20
-184.3702837980905
42
-0.41421356237309509
10
216.1189579128926
20
-186.12028379809047
10
216.11895791289265
20
-193.42028379809048
42
-0.41421356237309509
0
LWPOLYLINE
5
345
100
AcDbEntity
8
0
100
AcDbPolyline
90
8
70
1
43
0.0
10
229.36895791289263
20
-195.17028379809048
10
222.06895791289264
20
-195.17028379809048
42
-0.41421356237309509
10
220.31895791289261
20
-193.42028379809048
10
220.31895791289261
20
-186.12028379809047
42
-0.41421356237309509
10
222.06895791289264
20
-184.37028379809047
10
229.36895791289263
20
-184.3702837980905
42
-0.41421356237309509
10
231.1189579128926
20
-186.12028379809047
10
231.11895791289265
20
-193.42028379809048
42
-0.41421356237309509
0
LWPOLYLINE
5
346
100
AcDbEntity
8
0
100
AcDbPolyline
90
8
70
1
43
0.0
10
244.36895791289263
20
-195.17028379809048
10
237.06895791289264
20
-195.17028379809048
42
-0.41421356237309509
10
235.31895791289261
20
-193.42028379809048
10
235.31895791289261
20
-186.12028379809047
42
-0.41421356237309509
10
237.06895791289264
20
-184.37028379809047
10
244.36895791289263
20
-184.3702837980905
42
-0.41421356237309509
10
246.1189579128926
20
-186.12028379809047
10
246.11895791289265
20
-193.42028379809048
42
-0.41421356237309509
0
LWPOLYLINE
5
347
100
AcDbEntity
8
0
100
AcDbPolyline
90
8
70
1
43
0.0
10
19.368957912892654
20
-210.17028379809048
10
12.068957912892655
20
-210.17028379809048
42
-0.41421356237309509
10
10.318957912892653
20
-208.42028379809048
10
10.318957912892643
20
-201.12028379809047
42
-0.41421356237309431
10
12.068957912892646
20
-199.37028379809047
10
19.368957912892654
20
-199.37028379809047
42
-0.41421356237309509
10
21.118957912892654
20
-201.12028379809047
10
21.118957912892657
20
-208.42028379809048
42
-0.41421356237309509
0
LWPOLYLINE
5
348
100
AcDbEntity
8
0
100
AcDbPolyline
90
8
70
1
43
0.0
10
34.368957912892654
20
-210.17028379809048
10
27.068957912892657
20
-210.17028379809048
42
-0.41421356237309509
10
25.31895791289265
20
-208.42028379809048
10
25.318957912892639
20
-201.12028379809047
42
-0.41421356237309509
10
27.068957912892646
20
-199.37028379809047
10
34.368957912892654
20
-199.37028379809047
42
-0.41421356237309509
10
36.118957912892647
20
-201.12028379809047
10
36.118957912892654
20
-208.42028379809048
42
-0.41421356237309509
0
LWPOLYLINE
5
349
100
AcDbEntity
8
0
100
AcDbPolyline
90
8
70
1
43
0.0
10
49.368957912892654
20
-210.17028379809048
10
42.068957912892643
20
-210.17028379809048
42
-0.41421356237309509
10
40.31895791289265
20
-208.42028379809048
10
40.318957912892643
20
-201.12028379809047
42
-0.41421356237309509
10
42.068957912892643
20
-199.37028379809047
10
49.368957912892654
20
-199.37028379809047
42
-0.41421356237309509
10
51.118957912892647
20
-201.12028379809047
10
51.118957912892654
20
-208.42028379809048
42
-0.41421356237309509
0
LWPOLYLINE
5
350
100
AcDbEntity
8
0
100
AcDbPolyline
90
8
70
1
43
0.0
10
64.36895791289264
20
-210.17028379809048
10
57.068957912892643
20
-210.17028379809048
42
-0.41421356237309509
10
55.318957912892643
20
-208.42028379809048
10
55.318957912892643
20
-201.12028379809047
42
-0.41421356237309348
10
57.068957912892635
20
-199.37028379809047
10
64.368957912892654
20
-199.3702837980905
42
-0.41421356237309509
10
66.11895791289264
20
-201.12028379809047
10
66.118957912892654
20
-208.42028379809048
42
-0.41421356237309509
0
LWPOLYLINE
5
351
100
AcDbEntity
8
0
100
AcDbPolyline
90
8
70
1
43
0.0
10
79.36895791289264
20
-210.17028379809048
10
72.068957912892643
20
-210.17028379809048
42
-0.41421356237309509
10
70.318957912892643
20
-208.42028379809048
10
70.318957912892643
20
-201.12028379809047
42
-0.41421356237309348
10
72.068957912892643
20
-199.37028379809047
10
79.368957912892654
20
-199.3702837980905
42
-0.41421356237309509
10
81.11895791289264
20
-201.12028379809047
10
81.11895791289264
20
-208.42028379809048
42
-0.41421356237309509
0
LWPOLYLINE
5
352
100
AcDbEntity
8
0
100
AcDbPolyline
90
8
70
1
43
0.0
10
94.368957912892654
20
-210.17028379809048
10
87.068957912892643
20
-210.17028379809048
42
-0.41421356237309509
10
85.318957912892643
20
-208.42028379809048
10
85.318957912892643
20
-201.12028379809047
42
-0.41421356237309204
10
87.068957912892628
20
-199.37028379809047
10
94.368957912892654
20
-199.3702837980905
42
-0.41421356237309509
10
96.11895791289264
20
-201.12028379809047
10
96.118957912892654
20
-208.42028379809048
42
-0.41421356237309509
0
LWPOLYLINE
5
353
100
AcDbEntity
8
0
100
AcDbPolyline
90
8
70
1
43
0.0
10
109.36895791289263
20
-210.17028379809048
10
102.06895791289263
20
-210.17028379809048
42
-0.41421356237309509
10
100.31895791289264
20
-208.42028379809048
10
100.31895791289261
20
-201.12028379809047
42
-0.41421356237309509
10
102.06895791289263
20
-199.37028379809047
10
109.36895791289263
20
-199.37028379809047
42
-0.41421356237309509
10
111.11895791289264
20
-201.12028379809047
10
111.11895791289264
20
-208.42028379809048
42
-0.41421356237309509
0
LWPOLYLINE
5
354
100
AcDbEntity
8
0
100
AcDbPolyline
90
8
70
1
43
0.0
10
124.36895791289263
20
-210.17028379809048
10
117.06895791289263
20
-210.17028379809048
42
-0.41421356237309509
10
115.31895791289264
20
-208.42028379809048
10
115.31895791289261
20
-201.12028379809047
42
-0.41421356237309509
10
117.06895791289263
20
-199.37028379809047
10
124.36895791289263
20
-199.37028379809047
42
-0.41421356237309509
10
126.11895791289264
20
-201.12028379809047
10
126.11895791289264
20
-208.42028379809048
42
-0.41421356237309509
0
LWPOLYLINE
5
355
100
AcDbEntity
8
0
100
AcDbPolyline
90
8
70
1
43
0.0
10
139.36895791289263
20
-210.17028379809048
10
132.06895791289264
20
-210.17028379809048
42
-0.41421356237309509
10
130.31895791289264
20
-208.42028379809048
10
130.31895791289261
20
-201.12028379809047
42
-0.41421356237309509
10
132.06895791289264
20
-199.37028379809047
10
139.36895791289263
20
-199.37028379809047
42
-0.41421356237309509
10
141.11895791289265
20
-201.12028379809047
10
141.11895791289265
20
-208.42028379809048
42
-0.41421356237309509
0
LWPOLYLINE
5
356
100
AcDbEntity
8
0
100
AcDbPolyline
90
8
70
1
43
0.0
10
154.36895791289263
20
-210.17028379809048
10
147.06895791289264
20
-210.17028379809048
42
-0.41421356237309509
10
145.31895791289264
20
-208.42028379809048
10
145.31895791289261
20
-201.12028379809047
42
-0.41421356237309509
10
147.06895791289264
20
-199.37028379809047
10
154.36895791289263
20
-199.37028379809047
42
-0.41421356237309509
10
156.11895791289265
20
-201.12028379809047
10
156.11895791289265
20
-208.42028379809048
42
-0.41421356237309509
0
LWPOLYLINE
5
357
100
AcDbEntity
8
0
100
AcDbPolyline
90
8
70
1
43
0.0
10
169.36895791289263
20
-210.17028379809048
10
162.06895791289264
20
-210.17028379809048
42
-0.41421356237309509
10
160.31895791289261
20
-208.42028379809048
10
160.31895791289261
20
-201.12028379809047
42
-0.41421356237309509
10
162.06895791289264
20
-199.37028379809047
10
169.36895791289263
20
-199.37028379809047
42
-0.41421356237309509
10
171.11895791289265
20
-201.12028379809047
10
171.11895791289265
20
-208.42028379809048
42
-0.41421356237309509
0
LWPOLYLINE
5
358
100
AcDbEntity
8
0
100
AcDbPolyline
90
8
70
1
43
0.0
10
184.36895791289263
20
-210.17028379809048
10
177.06895791289264
20
-210.17028379809048
42
-0.41421356237309509
10
175.31895791289261
20
-208.42028379809048
10
175.31895791289261
20
-201.12028379809047
42
-0.41421356237309509
10
177.06895791289264
20
-199.37028379809047
10
184.36895791289263
20
-199.3702837980905
42
-0.41421356237309509
10
186.1189579128926
20
-201.12028379809047
10
186.11895791289265
20
-208.42028379809048
42
-0.41421356237309509
0
LWPOLYLINE
5
359
100
AcDbEntity
8
0
100
AcDbPolyline
90
8
70
1
43
0.0
10
199.36895791289263
20
-210.17028379809048
10
192.06895791289264
20
-210.17028379809048
42
-0.41421356237309509
10
190.31895791289261
20
-208.42028379809048
10
190.31895791289261
20
-201.12028379809047
42
-0.41421356237309509
10
192.06895791289264
20
-199.37028379809047
10
199.36895791289263
20
-199.3702837980905
42
-0.41421356237309509
10
201.1189579128926
20
-201.12028379809047
10
201.11895791289265
20
-208.42028379809048
42
-0.41421356237309509
0
LWPOLYLINE
5
360
100
AcDbEntity
8
0
100
AcDbPolyline
90
8
70
1
43
0.0
10
214.36895791289263
20
-210.17028379809048
10
207.06895791289264
20
-210.17028379809048
42
-0.41421356237309509
10
205.31895791289261
20
-208.42028379809048
10
205.31895791289261
20
-201.12028379809047
42
-0.41421356237309509
10
207.06895791289264
20
-199.37028379809047
10
214.36895791289263
20
-199.3702837980905
42
-0.41421356237309509
10
216.1189579128926
20
-201.12028379809047
10
216.11895791289265
20
-208.42028379809048
42
-0.41421356237309509
0
LWPOLYLINE
5
361
100
AcDbEntity
8
0
100
AcDbPolyline
90
8
70
1
43
0.0
10
229.36895791289263
20
-210.17028379809048
10
222.06895791289264
20
-210.17028379809048
42
-0.41421356237309509
10
220.31895791289261
20
-208.42028379809048
10
220.31895791289261
20
-201.12028379809047
42
-0.41421356237309509
10
222.06895791289264
20
-199.37028379809047
10
229.36895791289263
20
-199.3702837980905
42
-0.41421356237309509
10
231.1189579128926
20
-201.12028379809047
10
231.11895791289265
20
-208.42028379809048
42
-0.41421356237309509
0
LWPOLYLINE
5
362
100
AcDbEntity
8
0
100
AcDbPolyline
90
8
70
1
43
0.0
10
244.36895791289263
20
-210.17028379809048
10
237.06895791289264
20
-210.17028379809048
42
-0.41421356237309509
10
235.31895791289261
20
-208.42028379809048
10
235.31895791289261
20
-201.12028379809047
42
-0.41421356237309509
10
237.06895791289264
20
-199.37028379809047
10
244.36895791289263
20
-199.3702837980905
42
-0.41421356237309509
10
246.1189579128926
20
-201.12028379809047
10
246.11895791289265
20
-208.42028379809048
42
-0.41421356237309509
0
LWPOLYLINE
5
363
100
AcDbEntity
8
0
100
AcDbPolyline
90
8
70
1
43
0.0
10
19.368957912892654
20
-225.17028379809048
10
12.068957912892655
20
-225.17028379809048
42
-0.41421356237309509
10
10.318957912892653
20
-223.42028379809048
10
10.318957912892643
20
-216.12028379809047
42
-0.41421356237309431
10
12.068957912892646
20
-214.37028379809047
10
19.368957912892654
20
-214.37028379809047
42
-0.41421356237309509
10
21.118957912892654
20
-216.12028379809047
10
21.118957912892657
20
-223.42028379809048
42
-0.41421356237309509
0
LWPOLYLINE
5
364
100
AcDbEntity
8
0
100
AcDbPolyline
90
8
70
1
43
0.0
10
34.368957912892654
20
-225.17028379809048
10
27.068957912892657
20
-225.17028379809048
42
-0.41421356237309509
10
25.31895791289265
20
-223.42028379809048
10
25.318957912892639
20
-216.12028379809047
42
-0.41421356237309509
10
27.068957912892646
20
-214.37028379809047
10
34.368957912892654
20
-214.37028379809047
42
-0.41421356237309509
10
36.118957912892647
20
-216.12028379809047
10
36.118957912892654
20
-223.42028379809048
42
-0.41421356237309509
0
LWPOLYLINE
5
365
100
AcDbEntity
8
0
100
AcDbPolyline
90
8
70
1
43
0.0
10
49.368957912892654
20
-225.17028379809048
10
42.068957912892643
20
-225.17028379809048
42
-0.41421356237309509
10
40.31895791289265
20
-223.42028379809048
10
40.318957912892643
20
-216.12028379809047
42
-0.41421356237309509
10
42.068957912892643
20
-214.37028379809047
10
49.368957912892654
20
-214.37028379809047
42
-0.41421356237309509
10
51.118957912892647
20
-216.12028379809047
10
51.118957912892654
20
-223.42028379809048
42
-0.41421356237309509
0
LWPOLYLINE
5
366
100
AcDbEntity
8
0
100
AcDbPolyline
90
8
70
1
43
0.0
10
64.36895791289264
20
-225.17028379809048
10
57.068957912892643
20
-225.17028379809048
42
-0.41421356237309509
10
55.318957912892643
20
-223.42028379809048
10
55.318957912892643
20
-216.12028379809047
42
-0.41421356237309348
10
57.068957912892635
20
-214.37028379809047
10
64.368957912892654
20
-214.3702837980905
42
-0.41421356237309509
10
66.11895791289264
20
-216.12028379809047
10
66.118957912892654
20
-223.42028379809048
42
-0.41421356237309509
0
LWPOLYLINE
5
367
100
AcDbEntity
8
0
100
AcDbPolyline
90
8
70
1
43
0.0
10
79.36895791289264
20
-225.17028379809048
10
72.068957912892643
20
-225.17028379809048
42
-0.41421356237309509
10
70.318957912892643
20
-223.42028379809048
10
70.318957912892643
20
-216.12028379809047
42
-0.41421356237309348
10
72.068957912892643
20
-214.37028379809047
10
79.368957912892654
20
-214.3702837980905
42
-0.41421356237309509
10
81.11895791289264
20
-216.12028379809047
10
81.11895791289264
20
-223.42028379809048
42
-0.41421356237309509
0
LWPOLYLINE
5
368
100
AcDbEntity
8
0
100
AcDbPolyline
90
8
70
1
43
0.0
10
94.368957912892654
20
-225.17028379809048
10
87.068957912892643
20
-225.17028379809048
42
-0.41421356237309509
10
85.318957912892643
20
-223.42028379809048
10
85.318957912892643
20
-216.12028379809047
42
-0.41421356237309204
10
87.068957912892628
20
-214.37028379809047
10
94.368957912892654
20
-214.3702837980905
42
-0.41421356237309509
10
96.11895791289264
20
-216.12028379809047
10
96.118957912892654
20
-223.42028379809048
42
-0.41421356237309509
0
LWPOLYLINE
5
369
100
AcDbEntity
8
0
100
AcDbPolyline
90
8
70
1
43
0.0
10
109.36895791289263
20
-225.17028379809048
10
102.06895791289263
20
-225.17028379809048
42
-0.41421356237309509
10
100.31895791289264
20
-223.42028379809048
10
100.31895791289261
20
-216.12028379809047
42
-0.41421356237309509
10
102.06895791289263
20
-214.37028379809047
10
109.36895791289263
20
-214.37028379809047
42
-0.41421356237309509
10
111.11895791289264
20
-216.12028379809047
10
111.11895791289264
20
-223.42028379809048
42
-0.41421356237309509
0
LWPOLYLINE
5
370
100
AcDbEntity
8
0
100
AcDbPolyline
90
8
70
1
43
0.0
10
124.36895791289263
20
-225.17028379809048
10
117.06895791289263
20
-225.17028379809048
42
-0.41421356237309509
10
115.31895791289264
20
-223.42028379809048
10
115.31895791289261
20
-216.12028379809047
42
-0.41421356237309509
10
117.06895791289263
20
-214.37028379809047
10
124.36895791289263
20
-214.37028379809047
42
-0.41421356237309509
10
126.11895791289264
20
-216.12028379809047
10
126.11895791289264
20
-223.42028379809048
42
-0.41421356237309509
0
LWPOLYLINE
5
371
100
AcDbEntity
8
0
100
AcDbPolyline
90
8
70
1
43
0.0
10
139.36895791289263
20
-225.17028379809048
10
132.06895791289264
20
-225.17028379809048
42
-0.41421356237309509
10
130.31895791289264
20
-223.42028379809048
10
130.31895791289261
20
-216.12028379809047
42
-0.41421356237309509
10
132.06895791289264
20
-214.37028379809047
10
139.36895791289263
20
-214.37028379809047
42
-0.41421356237309509
10
141.11895791289265
20
-216.12028379809047
10
141.11895791289265
20
-223.42028379809048
42
-0.41421356237309509
0
LWPOLYLINE
5
372
100
AcDbEntity
8
0
100
AcDbPolyline
90
8
70
1
43
0.0
10
154.36895791289263
20
-225.17028379809048
10
147.06895791289264
20
-225.17028379809048
42
-0.41421356237309509
10
145.31895791289264
20
-223.42028379809048
10
145.31895791289261
20
-216.12028379809047
42
-0.41421356237309509
10
147.06895791289264
20
-214.37028379809047
10
154.36895791289263
20
-214.37028379809047
42
-0.41421356237309509
10
156.11895791289265
20
-216.12028379809047
10
156.11895791289265
20
-223.42028379809048
42
-0.41421356237309509
0
LWPOLYLINE
5
373
100
AcDbEntity
8
0
100
AcDbPolyline
90
8
70
1
43
0.0
10
169.36895791289263
20
-225.17028379809048
10
162.06895791289264
20
-225.17028379809048
42
-0.41421356237309509
10
160.31895791289261
20
-223.42028379809048
10
160.31895791289261
20
-216.12028379809047
42
-0.41421356237309509
10
162.06895791289264
20
-214.37028379809047
10
169.36895791289263
20
-214.37028379809047
42
-0.41421356237309509
10
171.11895791289265
20
-216.12028379809047
10
171.11895791289265
20
-223.42028379809048
42
-0.41421356237309509
0
LWPOLYLINE
5
374
100
AcDbEntity
8
0
100
AcDbPolyline
90
8
70
1
43
0.0
10
184.36895791289263
20
-225.17028379809048
10
177.06895791289264
20
-225.17028379809048
42
-0.41421356237309509
10
175.31895791289261
20
-223.42028379809048
10
175.31895791289261
20
-216.12028379809047
42
-0.41421356237309509
10
177.06895791289264
20
-214.37028379809047
10
184.36895791289263
20
-214.3702837980905
42
-0.41421356237309509
10
186.1189579128926
20
-216.12028379809047
10
186.11895791289265
20
-223.42028379809048
42
-0.41421356237309509
0
LWPOLYLINE
5
375
100
AcDbEntity
8
0
100
AcDbPolyline
90
8
70
1
43
0.0
10
199.36895791289263
20
-225.17028379809048
10
192.06895791289264
20
-225.17028379809048
42
-0.41421356237309509
10
190.31895791289261
20
-223.42028379809048
10
190.31895791289261
20
-216.12028379809047
42
-0.41421356237309509
10
192.06895791289264
20
-214.37028379809047
10
199.36895791289263
20
-214.3702837980905
42
-0.41421356237309509
10
201.1189579128926
20
-216.12028379809047
10
201.11895791289265
20
-223.42028379809048
42
-0.41421356237309509
0
LWPOLYLINE
5
376
100
AcDbEntity
8
0
100
AcDbPolyline
90
8
70
1
43
0.0
10
214.36895791289263
20
-225.17028379809048
10
207.06895791289264
20
-225.17028379809048
42
-0.41421356237309509
10
205.31895791289261
20
-223.42028379809048
10
205.31895791289261
20
-216.12028379809047
42
-0.41421356237309509
10
207.06895791289264
20
-214.37028379809047
10
214.36895791289263
20
-214.3702837980905
42
-0.41421356237309509
10
216.1189579128926
20
-216.12028379809047
10
216.11895791289265
20
-223.42028379809048
42
-0.41421356237309509
0
LWPOLYLINE
5
377
100
AcDbEntity
8
0
100
AcDbPolyline
90
8
70
1
43
0.0
10
229.36895791289263
20
-225.17028379809048
10
222.06895791289264
20
-225.17028379809048
42
-0.41421356237309509
10
220.31895791289261
20
-223.42028379809048
10
220.31895791289261
20
-216.12028379809047
42
-0.41421356237309509
10
222.06895791289264
20
-214.37028379809047
10
229.36895791289263
20
-214.3702837980905
42
-0.41421356237309509
10
231.1189579128926
20
-216.12028379809047
10
231.11895791289265
20
-223.42028379809048
42
-0.41421356237309509
0
LWPOLYLINE
5
378
100
AcDbEntity
8
0
100
AcDbPolyline
90
8
70
1
43
0.0
10
244.36895791289263
20
-225.17028379809048
10
237.06895791289264
20
-225.17028379809048
42
-0.41421356237309509
10
235.31895791289261
20
-223.42028379809048
10
235.31895791289261
20
-216.12028379809047
42
-0.41421356237309509
10
237.06895791289264
20
-214.37028379809047
10
244.36895791289263
20
-214.3702837980905
42
-0.41421356237309509
10
246.1189579128926
20
-216.12028379809047
10
246.11895791289265
20
-223.42028379809048
42
-0.41421356237309509
0
ENDSEC
0
SECTION
2
OBJECTS
0
DICTIONARY
5
C
100
AcDbDictionary
3
ACAD_GROUP
350
D
3
ACAD_MLINESTYLE
350
17
0
DICTIONARY
5
D
100
AcDbDictionary
0
DICTIONARY
5
1A
330
C
100
AcDbDictionary
0
DICTIONARY
5
17
100
AcDbDictionary
0
ENDSEC
0
EOF
