0
SECTION
2
HEADER
9
$INSUNITS
70
4
9
$ACADVER
1
AC1014
9
$HANDSEED
5
FFFF
0
ENDSEC
0
SECTION
2
TABLES
0
TABLE
2
VPORT
5
8
100
AcDbSymbolTable
0
ENDTAB
0
TABLE
2
LTYPE
5
5
100
AcDbSymbolTable
0
LTYPE
5
14
100
AcDbSymbolTableRecord
100
AcDbLinetypeTableRecord
2
BYBLOCK
70
0
0
LTYPE
5
15
100
AcDbSymbolTableRecord
100
AcDbLinetypeTableRecord
2
BYLAYER
70
0
0
ENDTAB
0
TABLE
2
LAYER
5
2
100
AcDbSymbolTable
70
2
0
LAYER
5
50
100
AcDbSymbolTableRecord
100
AcDbLayerTableRecord
2
0
70
0
6
CONTINUOUS
0
ENDTAB
0
TABLE
2
STYLE
5
3
100
AcDbSymbolTable
70
1
0
STYLE
5
11
100
AcDbSymbolTableRecord
100
AcDbTextStyleTableRecord
2
STANDARD
70
0
0
ENDTAB
0
TABLE
2
VIEW
5
6
100
AcDbSymbolTable
70
0
0
ENDTAB
0
TABLE
2
UCS
5
7
100
AcDbSymbolTable
70
0
0
ENDTAB
0
TABLE
2
APPID
5
9
100
AcDbSymbolTable
70
2
0
APPID
5
12
100
AcDbSymbolTableRecord
100
AcDbRegAppTableRecord
2
ACAD
70
0
0
ENDTAB
0
TABLE
2
DIMSTYLE
5
A
100
AcDbSymbolTable
70
1
0
ENDTAB
0
TABLE
2
BLOCK_RECORD
5
1
100
AcDbSymbolTable
70
1
0
BLOCK_RECORD
5
1F
100
AcDbSymbolTableRecord
100
AcDbBlockTableRecord
2
*MODEL_SPACE
0
BLOCK_RECORD
5
1B
100
AcDbSymbolTableRecord
100
AcDbBlockTableRecord
2
*PAPER_SPACE
0
ENDTAB
0
ENDSEC
0
SECTION
2
BLOCKS
0
BLOCK
5
20
100
AcDbEntity
100
AcDbBlockBegin
2
*MODEL_SPACE
0
ENDBLK
5
21
100
AcDbEntity
100
AcDbBlockEnd
0
BLOCK
5
1C
100
AcDbEntity
100
AcDbBlockBegin
2
*PAPER_SPACE
0
ENDBLK
5
1D
100
AcDbEntity
100
AcDbBlockEnd
0
ENDSEC
0
SECTION
2
ENTITIES
0
LWPOLYLINE
5
100
100
AcDbEntity
8
0
100
AcDbPolyline
90
8
70
1
43
0.0
10
25.880572729553421
20
6.5848882085602494
10
18.580572729553417
20
6.5848882085602494
42
-0.41421356237309509
10
16.830572729553417
20
8.3348882085602476
10
16.830572729553413
20
15.634888208560248
42
-0.41421356237309509
10
18.580572729553417
20
17.384888208560248
10
25.880572729553421
20
17.384888208560248
42
-0.41421356237309509
10
27.630572729553418
20
15.634888208560252
10
27.630572729553418
20
8.3348882085602476
42
-0.41421356237309509
0
LWPOLYLINE
5
101
100
AcDbEntity
8
0
100
AcDbPolyline
90
8
70
1
43
0.0
10
254.73057272955342
20
24.48488820856025
10
14.730572729553419
20
24.48488820856025
42
0.41421356237309509
10
9.730572729553419
20
19.484888208560243
10
9.730572729553419
20
-220.51511179143975
42
0.41421356237309448
10
14.730572729553408
20
-225.51511179143975
10
254.73057272955342
20
-225.51511179143975
42
0.41421356237309087
10
259.73057272955339
20
-220.51511179143975
10
259.73057272955339
20
19.48488820856025
42
0.41421356237309243
0
LWPOLYLINE
5
102
100
AcDbEntity
8
0
100
AcDbPolyline
90
8
70
1
43
0.0
10
40.880572729553421
20
6.5848882085602494
10
33.580572729553417
20
6.5848882085602494
42
-0.41421356237309509
10
31.830572729553417
20
8.3348882085602476
10
31.830572729553417
20
15.634888208560248
42
-0.41421356237309509
10
33.580572729553417
20
17.384888208560248
10
40.880572729553421
20
17.384888208560248
42
-0.41421356237309509
10
42.630572729553421
20
15.634888208560252
10
42.630572729553421
20
8.3348882085602476
42
-0.41421356237309509
0
LWPOLYLINE
5
103
100
AcDbEntity
8
0
100
AcDbPolyline
90
8
70
1
43
0.0
10
55.880572729553421
20
6.5848882085602494
10
48.580572729553417
20
6.5848882085602494
42
-0.41421356237309509
10
46.830572729553417
20
8.3348882085602476
10
46.830572729553417
20
15.634888208560248
42
-0.41421356237309509
10
48.580572729553417
20
17.384888208560248
10
55.880572729553421
20
17.384888208560248
42
-0.41421356237309509
10
57.630572729553421
20
15.634888208560252
10
57.630572729553421
20
8.3348882085602476
42
-0.41421356237309509
0
LWPOLYLINE
5
104
100
AcDbEntity
8
0
100
AcDbPolyline
90
8
70
1
43
0.0
10
70.880572729553421
20
6.5848882085602494
10
63.580572729553417
20
6.5848882085602494
42
-0.41421356237309509
10
61.830572729553417
20
8.3348882085602476
10
61.830572729553417
20
15.634888208560248
42
-0.41421356237309509
10
63.580572729553417
20
17.384888208560248
10
70.880572729553421
20
17.384888208560248
42
-0.41421356237309509
10
72.630572729553421
20
15.634888208560252
10
72.630572729553421
20
8.3348882085602476
42
-0.41421356237309509
0
LWPOLYLINE
5
105
100
AcDbEntity
8
0
100
AcDbPolyline
90
8
70
1
43
0.0
10
85.880572729553421
20
6.5848882085602494
10
78.58057272955341
20
6.5848882085602494
42
-0.41421356237309509
10
76.83057272955341
20
8.3348882085602476
10
76.83057272955341
20
15.634888208560248
42
-0.41421356237309509
10
78.580572729553424
20
17.384888208560248
10
85.880572729553421
20
17.384888208560248
42
-0.41421356237309509
10
87.630572729553421
20
15.634888208560252
10
87.630572729553435
20
8.3348882085602476
42
-0.41421356237309509
0
LWPOLYLINE
5
106
100
AcDbEntity
8
0
100
AcDbPolyline
90
8
70
1
43
0.0
10
100.88057272955342
20
6.5848882085602494
10
93.580572729553424
20
6.5848882085602494
42
-0.41421356237309509
10
91.83057272955341
20
8.3348882085602476
10
91.83057272955341
20
15.634888208560248
42
-0.41421356237309509
10
93.580572729553424
20
17.384888208560248
10
100.88057272955342
20
17.384888208560248
42
-0.41421356237309509
10
102.63057272955342
20
15.634888208560252
10
102.63057272955344
20
8.3348882085602476
42
-0.41421356237309509
0
LWPOLYLINE
5
107
100
AcDbEntity
8
0
100
AcDbPolyline
90
8
70
1
43
0.0
10
115.88057272955342
20
6.5848882085602494
10
108.58057272955342
20
6.5848882085602494
42
-0.41421356237309509
10
106.83057272955341
20
8.3348882085602476
10
106.83057272955341
20
15.634888208560248
42
-0.41421356237309509
10
108.58057272955342
20
17.384888208560248
10
115.88057272955342
20
17.384888208560248
42
-0.41421356237309509
10
117.63057272955342
20
15.634888208560252
10
117.63057272955344
20
8.3348882085602476
42
-0.41421356237309509
0
LWPOLYLINE
5
108
100
AcDbEntity
8
0
100
AcDbPolyline
90
8
70
1
43
0.0
10
130.88057272955342
20
6.5848882085602494
10
123.58057272955342
20
6.5848882085602494
42
-0.41421356237309509
10
121.83057272955341
20
8.3348882085602476
10
121.83057272955341
20
15.634888208560248
42
-0.41421356237309509
10
123.58057272955342
20
17.384888208560248
10
130.88057272955342
20
17.384888208560248
42
-0.41421356237309509
10
132.63057272955342
20
15.634888208560252
10
132.63057272955342
20
8.3348882085602476
42
-0.41421356237309509
0
LWPOLYLINE
5
109
100
AcDbEntity
8
0
100
AcDbPolyline
90
8
70
1
43
0.0
10
145.88057272955342
20
6.5848882085602494
10
138.58057272955341
20
6.5848882085602494
42
-0.41421356237309509
10
136.83057272955341
20
8.3348882085602476
10
136.83057272955341
20
15.634888208560248
42
-0.41421356237309509
10
138.58057272955341
20
17.384888208560248
10
145.88057272955342
20
17.384888208560248
42
-0.41421356237309509
10
147.63057272955342
20
15.634888208560252
10
147.63057272955342
20
8.3348882085602476
42
-0.41421356237309509
0
LWPOLYLINE
5
110
100
AcDbEntity
8
0
100
AcDbPolyline
90
8
70
1
43
0.0
10
160.88057272955342
20
6.5848882085602494
10
153.58057272955341
20
6.5848882085602494
42
-0.41421356237309509
10
151.83057272955341
20
8.3348882085602476
10
151.83057272955341
20
15.634888208560248
42
-0.41421356237309509
10
153.58057272955341
20
17.384888208560248
10
160.88057272955342
20
17.384888208560248
42
-0.41421356237309509
10
162.63057272955342
20
15.634888208560252
10
162.63057272955342
20
8.3348882085602476
42
-0.41421356237309509
0
LWPOLYLINE
5
111
100
AcDbEntity
8
0
100
AcDbPolyline
90
8
70
1
43
0.0
10
175.88057272955342
20
6.5848882085602494
10
168.58057272955341
20
6.5848882085602494
42
-0.41421356237309509
10
166.83057272955341
20
8.3348882085602476
10
166.83057272955341
20
15.634888208560248
42
-0.41421356237309509
10
168.58057272955341
20
17.384888208560248
10
175.88057272955342
20
17.384888208560248
42
-0.41421356237309509
10
177.63057272955342
20
15.634888208560252
10
177.63057272955342
20
8.3348882085602476
42
-0.41421356237309509
0
LWPOLYLINE
5
112
100
AcDbEntity
8
0
100
AcDbPolyline
90
8
70
1
43
0.0
10
190.88057272955342
20
6.5848882085602494
10
183.58057272955341
20
6.5848882085602494
42
-0.41421356237309509
10
181.83057272955341
20
8.3348882085602476
10
181.83057272955341
20
15.634888208560248
42
-0.41421356237309509
10
183.58057272955341
20
17.384888208560248
10
190.88057272955342
20
17.384888208560248
42
-0.41421356237309509
10
192.63057272955342
20
15.634888208560252
10
192.63057272955342
20
8.3348882085602476
42
-0.41421356237309509
0
LWPOLYLINE
5
113
100
AcDbEntity
8
0
100
AcDbPolyline
90
8
70
1
43
0.0
10
205.88057272955342
20
6.5848882085602494
10
198.58057272955341
20
6.5848882085602494
42
-0.41421356237309509
10
196.83057272955341
20
8.3348882085602476
10
196.83057272955341
20
15.634888208560248
42
-0.41421356237309509
10
198.58057272955341
20
17.384888208560248
10
205.88057272955342
20
17.384888208560248
42
-0.41421356237309509
10
207.63057272955342
20
15.634888208560252
10
207.63057272955342
20
8.3348882085602476
42
-0.41421356237309509
0
LWPOLYLINE
5
114
100
AcDbEntity
8
0
100
AcDbPolyline
90
8
70
1
43
0.0
10
220.88057272955342
20
6.5848882085602494
10
213.58057272955341
20
6.5848882085602494
42
-0.41421356237309509
10
211.83057272955341
20
8.3348882085602476
10
211.83057272955341
20
15.634888208560248
42
-0.41421356237309509
10
213.58057272955341
20
17.384888208560248
10
220.88057272955342
20
17.384888208560248
42
-0.41421356237309509
10
222.63057272955342
20
15.634888208560252
10
222.63057272955342
20
8.3348882085602476
42
-0.41421356237309509
0
LWPOLYLINE
5
115
100
AcDbEntity
8
0
100
AcDbPolyline
90
8
70
1
43
0.0
10
25.880572729553421
20
-8.4151117914397506
10
18.580572729553417
20
-8.4151117914397506
42
-0.41421356237309509
10
16.830572729553417
20
-6.6651117914397524
10
16.830572729553413
20
0.63488820856024908
42
-0.41421356237309509
10
18.580572729553417
20
2.3848882085602496
10
25.880572729553421
20
2.3848882085602496
42
-0.41421356237309509
10
27.630572729553418
20
0.63488820856025141
10
27.630572729553418
20
-6.6651117914397524
42
-0.41421356237309509
0
LWPOLYLINE
5
116
100
AcDbEntity
8
0
100
AcDbPolyline
90
8
70
1
43
0.0
10
40.880572729553421
20
-8.4151117914397506
10
33.580572729553417
20
-8.4151117914397506
42
-0.41421356237309509
10
31.830572729553417
20
-6.6651117914397524
10
31.830572729553417
20
0.63488820856024908
42
-0.41421356237309509
10
33.580572729553417
20
2.3848882085602496
10
40.880572729553421
20
2.3848882085602496
42
-0.41421356237309509
10
42.630572729553421
20
0.63488820856025141
10
42.630572729553421
20
-6.6651117914397524
42
-0.41421356237309509
0
LWPOLYLINE
5
117
100
AcDbEntity
8
0
100
AcDbPolyline
90
8
70
1
43
0.0
10
55.880572729553421
20
-8.4151117914397506
10
48.580572729553417
20
-8.4151117914397506
42
-0.41421356237309509
10
46.830572729553417
20
-6.6651117914397524
10
46.830572729553417
20
0.63488820856024908
42
-0.41421356237309509
10
48.580572729553417
20
2.3848882085602496
10
55.880572729553421
20
2.3848882085602496
42
-0.41421356237309509
10
57.630572729553421
20
0.63488820856025141
10
57.630572729553421
20
-6.6651117914397524
42
-0.41421356237309509
0
LWPOLYLINE
5
118
100
AcDbEntity
8
0
100
AcDbPolyline
90
8
70
1
43
0.0
10
70.880572729553421
20
-8.4151117914397506
10
63.580572729553417
20
-8.4151117914397506
42
-0.41421356237309509
10
61.830572729553417
20
-6.6651117914397524
10
61.830572729553417
20
0.63488820856024908
42
-0.41421356237309509
10
63.580572729553417
20
2.3848882085602496
10
70.880572729553421
20
2.3848882085602496
42
-0.41421356237309509
10
72.630572729553421
20
0.63488820856025141
10
72.630572729553421
20
-6.6651117914397524
42
-0.41421356237309509
0
LWPOLYLINE
5
119
100
AcDbEntity
8
0
100
AcDbPolyline
90
8
70
1
43
0.0
10
85.880572729553421
20
-8.4151117914397506
10
78.58057272955341
20
-8.4151117914397506
42
-0.41421356237309509
10
76.83057272955341
20
-6.6651117914397524
10
76.83057272955341
20
0.63488820856024908
42
-0.41421356237309509
10
78.580572729553424
20
2.3848882085602496
10
85.880572729553421
20
2.3848882085602496
42
-0.41421356237309509
10
87.630572729553421
20
0.63488820856025141
10
87.630572729553435
20
-6.6651117914397524
42
-0.41421356237309509
0
LWPOLYLINE
5
120
100
AcDbEntity
8
0
100
AcDbPolyline
90
8
70
1
43
0.0
10
100.88057272955342
20
-8.4151117914397506
10
93.580572729553424
20
-8.4151117914397506
42
-0.41421356237309509
10
91.83057272955341
20
-6.6651117914397524
10
91.83057272955341
20
0.63488820856024908
42
-0.41421356237309509
10
93.580572729553424
20
2.3848882085602496
10
100.88057272955342
20
2.3848882085602496
42
-0.41421356237309509
10
102.63057272955342
20
0.63488820856025141
10
102.63057272955344
20
-6.6651117914397524
42
-0.41421356237309509
0
LWPOLYLINE
5
121
100
AcDbEntity
8
0
100
AcDbPolyline
90
8
70
1
43
0.0
10
115.88057272955342
20
-8.4151117914397506
10
108.58057272955342
20
-8.4151117914397506
42
-0.41421356237309509
10
106.83057272955341
20
-6.6651117914397524
10
106.83057272955341
20
0.63488820856024908
42
-0.41421356237309509
10
108.58057272955342
20
2.3848882085602496
10
115.88057272955342
20
2.3848882085602496
42
-0.41421356237309509
10
117.63057272955342
20
0.63488820856025141
10
117.63057272955344
20
-6.6651117914397524
42
-0.41421356237309509
0
LWPOLYLINE
5
122
100
AcDbEntity
8
0
100
AcDbPolyline
90
8
70
1
43
0.0
10
130.88057272955342
20
-8.4151117914397506
10
123.58057272955342
20
-8.4151117914397506
42
-0.41421356237309509
10
121.83057272955341
20
-6.6651117914397524
10
121.83057272955341
20
0.63488820856024908
42
-0.41421356237309509
10
123.58057272955342
20
2.3848882085602496
10
130.88057272955342
20
2.3848882085602496
42
-0.41421356237309509
10
132.63057272955342
20
0.63488820856025141
10
132.63057272955342
20
-6.6651117914397524
42
-0.41421356237309509
0
LWPOLYLINE
5
123
100
AcDbEntity
8
0
100
AcDbPolyline
90
8
70
1
43
0.0
10
145.88057272955342
20
-8.4151117914397506
10
138.58057272955341
20
-8.4151117914397506
42
-0.41421356237309509
10
136.83057272955341
20
-6.6651117914397524
10
136.83057272955341
20
0.63488820856024908
42
-0.41421356237309509
10
138.58057272955341
20
2.3848882085602496
10
145.88057272955342
20
2.3848882085602496
42
-0.41421356237309509
10
147.63057272955342
20
0.63488820856025141
10
147.63057272955342
20
-6.6651117914397524
42
-0.41421356237309509
0
LWPOLYLINE
5
124
100
AcDbEntity
8
0
100
AcDbPolyline
90
8
70
1
43
0.0
10
160.88057272955342
20
-8.4151117914397506
10
153.58057272955341
20
-8.4151117914397506
42
-0.41421356237309509
10
151.83057272955341
20
-6.6651117914397524
10
151.83057272955341
20
0.63488820856024908
42
-0.41421356237309509
10
153.58057272955341
20
2.3848882085602496
10
160.88057272955342
20
2.3848882085602496
42
-0.41421356237309509
10
162.63057272955342
20
0.63488820856025141
10
162.63057272955342
20
-6.6651117914397524
42
-0.41421356237309509
0
LWPOLYLINE
5
125
100
AcDbEntity
8
0
100
AcDbPolyline
90
8
70
1
43
0.0
10
175.88057272955342
20
-8.4151117914397506
10
168.58057272955341
20
-8.4151117914397506
42
-0.41421356237309509
10
166.83057272955341
20
-6.6651117914397524
10
166.83057272955341
20
0.63488820856024908
42
-0.41421356237309509
10
168.58057272955341
20
2.3848882085602496
10
175.88057272955342
20
2.3848882085602496
42
-0.41421356237309509
10
177.63057272955342
20
0.63488820856025141
10
177.63057272955342
20
-6.6651117914397524
42
-0.41421356237309509
0
LWPOLYLINE
5
126
100
AcDbEntity
8
0
100
AcDbPolyline
90
8
70
1
43
0.0
10
190.88057272955342
20
-8.4151117914397506
10
183.58057272955341
20
-8.4151117914397506
42
-0.41421356237309509
10
181.83057272955341
20
-6.6651117914397524
10
181.83057272955341
20
0.63488820856024908
42
-0.41421356237309509
10
183.58057272955341
20
2.3848882085602496
10
190.88057272955342
20
2.3848882085602496
42
-0.41421356237309509
10
192.63057272955342
20
0.63488820856025141
10
192.63057272955342
20
-6.6651117914397524
42
-0.41421356237309509
0
LWPOLYLINE
5
127
100
AcDbEntity
8
0
100
AcDbPolyline
90
8
70
1
43
0.0
10
205.88057272955342
20
-8.4151117914397506
10
198.58057272955341
20
-8.4151117914397506
42
-0.41421356237309509
10
196.83057272955341
20
-6.6651117914397524
10
196.83057272955341
20
0.63488820856024908
42
-0.41421356237309509
10
198.58057272955341
20
2.3848882085602496
10
205.88057272955342
20
2.3848882085602496
42
-0.41421356237309509
10
207.63057272955342
20
0.63488820856025141
10
207.63057272955342
20
-6.6651117914397524
42
-0.41421356237309509
0
LWPOLYLINE
5
128
100
AcDbEntity
8
0
100
AcDbPolyline
90
8
70
1
43
0.0
10
220.88057272955342
20
-8.4151117914397506
10
213.58057272955341
20
-8.4151117914397506
42
-0.41421356237309509
10
211.83057272955341
20
-6.6651117914397524
10
211.83057272955341
20
0.63488820856024908
42
-0.41421356237309509
10
213.58057272955341
20
2.3848882085602496
10
220.88057272955342
20
2.3848882085602496
42
-0.41421356237309509
10
222.63057272955342
20
0.63488820856025141
10
222.63057272955342
20
-6.6651117914397524
42
-0.41421356237309509
0
LWPOLYLINE
5
129
100
AcDbEntity
8
0
100
AcDbPolyline
90
8
70
1
43
0.0
10
25.880572729553421
20
-23.415111791439749
10
18.580572729553417
20
-23.415111791439749
42
-0.41421356237309509
10
16.830572729553417
20
-21.665111791439749
10
16.830572729553413
20
-14.365111791439752
42
-0.41421356237309509
10
18.580572729553417
20
-12.61511179143975
10
25.880572729553421
20
-12.61511179143975
42
-0.41421356237309509
10
27.630572729553418
20
-14.365111791439746
10
27.630572729553418
20
-21.665111791439749
42
-0.41421356237309509
0
LWPOLYLINE
5
130
100
AcDbEntity
8
0
100
AcDbPolyline
90
8
70
1
43
0.0
10
40.880572729553421
20
-23.415111791439749
10
33.580572729553417
20
-23.415111791439749
42
-0.41421356237309509
10
31.830572729553417
20
-21.665111791439749
10
31.830572729553417
20
-14.365111791439752
42
-0.41421356237309509
10
33.580572729553417
20
-12.61511179143975
10
40.880572729553421
20
-12.61511179143975
42
-0.41421356237309509
10
42.630572729553421
20
-14.365111791439746
10
42.630572729553421
20
-21.665111791439749
42
-0.41421356237309509
0
LWPOLYLINE
5
131
100
AcDbEntity
8
0
100
AcDbPolyline
90
8
70
1
43
0.0
10
55.880572729553421
20
-23.415111791439749
10
48.580572729553417
20
-23.415111791439749
42
-0.41421356237309509
10
46.830572729553417
20
-21.665111791439749
10
46.830572729553417
20
-14.365111791439752
42
-0.41421356237309509
10
48.580572729553417
20
-12.61511179143975
10
55.880572729553421
20
-12.61511179143975
42
-0.41421356237309509
10
57.630572729553421
20
-14.365111791439746
10
57.630572729553421
20
-21.665111791439749
42
-0.41421356237309509
0
LWPOLYLINE
5
132
100
AcDbEntity
8
0
100
AcDbPolyline
90
8
70
1
43
0.0
10
70.880572729553421
20
-23.415111791439749
10
63.580572729553417
20
-23.415111791439749
42
-0.41421356237309509
10
61.830572729553417
20
-21.665111791439749
10
61.830572729553417
20
-14.365111791439752
42
-0.41421356237309509
10
63.580572729553417
20
-12.61511179143975
10
70.880572729553421
20
-12.61511179143975
42
-0.41421356237309509
10
72.630572729553421
20
-14.365111791439746
10
72.630572729553421
20
-21.665111791439749
42
-0.41421356237309509
0
LWPOLYLINE
5
133
100
AcDbEntity
8
0
100
AcDbPolyline
90
8
70
1
43
0.0
10
85.880572729553421
20
-23.415111791439749
10
78.58057272955341
20
-23.415111791439749
42
-0.41421356237309509
10
76.83057272955341
20
-21.665111791439749
10
76.83057272955341
20
-14.365111791439752
42
-0.41421356237309509
10
78.580572729553424
20
-12.61511179143975
10
85.880572729553421
20
-12.61511179143975
42
-0.41421356237309509
10
87.630572729553421
20
-14.365111791439746
10
87.630572729553435
20
-21.665111791439749
42
-0.41421356237309509
0
LWPOLYLINE
5
134
100
AcDbEntity
8
0
100
AcDbPolyline
90
8
70
1
43
0.0
10
100.88057272955342
20
-23.415111791439749
10
93.580572729553424
20
-23.415111791439749
42
-0.41421356237309509
10
91.83057272955341
20
-21.665111791439749
10
91.83057272955341
20
-14.365111791439752
42
-0.41421356237309509
10
93.580572729553424
20
-12.61511179143975
10
100.88057272955342
20
-12.61511179143975
42
-0.41421356237309509
10
102.63057272955342
20
-14.365111791439746
10
102.63057272955344
20
-21.665111791439749
42
-0.41421356237309509
0
LWPOLYLINE
5
135
100
AcDbEntity
8
0
100
AcDbPolyline
90
8
70
1
43
0.0
10
115.88057272955342
20
-23.415111791439749
10
108.58057272955342
20
-23.415111791439749
42
-0.41421356237309509
10
106.83057272955341
20
-21.665111791439749
10
106.83057272955341
20
-14.365111791439752
42
-0.41421356237309509
10
108.58057272955342
20
-12.61511179143975
10
115.88057272955342
20
-12.61511179143975
42
-0.41421356237309509
10
117.63057272955342
20
-14.365111791439746
10
117.63057272955344
20
-21.665111791439749
42
-0.41421356237309509
0
LWPOLYLINE
5
136
100
AcDbEntity
8
0
100
AcDbPolyline
90
8
70
1
43
0.0
10
130.88057272955342
20
-23.415111791439749
10
123.58057272955342
20
-23.415111791439749
42
-0.41421356237309509
10
121.83057272955341
20
-21.665111791439749
10
121.83057272955341
20
-14.365111791439752
42
-0.41421356237309509
10
123.58057272955342
20
-12.61511179143975
10
130.88057272955342
20
-12.61511179143975
42
-0.41421356237309509
10
132.63057272955342
20
-14.365111791439746
10
132.63057272955342
20
-21.665111791439749
42
-0.41421356237309509
0
LWPOLYLINE
5
137
100
AcDbEntity
8
0
100
AcDbPolyline
90
8
70
1
43
0.0
10
145.88057272955342
20
-23.415111791439749
10
138.58057272955341
20
-23.415111791439749
42
-0.41421356237309509
10
136.83057272955341
20
-21.665111791439749
10
136.83057272955341
20
-14.365111791439752
42
-0.41421356237309509
10
138.58057272955341
20
-12.61511179143975
10
145.88057272955342
20
-12.61511179143975
42
-0.41421356237309509
10
147.63057272955342
20
-14.365111791439746
10
147.63057272955342
20
-21.665111791439749
42
-0.41421356237309509
0
LWPOLYLINE
5
138
100
AcDbEntity
8
0
100
AcDbPolyline
90
8
70
1
43
0.0
10
160.88057272955342
20
-23.415111791439749
10
153.58057272955341
20
-23.415111791439749
42
-0.41421356237309509
10
151.83057272955341
20
-21.665111791439749
10
151.83057272955341
20
-14.365111791439752
42
-0.41421356237309509
10
153.58057272955341
20
-12.61511179143975
10
160.88057272955342
20
-12.61511179143975
42
-0.41421356237309509
10
162.63057272955342
20
-14.365111791439746
10
162.63057272955342
20
-21.665111791439749
42
-0.41421356237309509
0
LWPOLYLINE
5
139
100
AcDbEntity
8
0
100
AcDbPolyline
90
8
70
1
43
0.0
10
175.88057272955342
20
-23.415111791439749
10
168.58057272955341
20
-23.415111791439749
42
-0.41421356237309509
10
166.83057272955341
20
-21.665111791439749
10
166.83057272955341
20
-14.365111791439752
42
-0.41421356237309509
10
168.58057272955341
20
-12.61511179143975
10
175.88057272955342
20
-12.61511179143975
42
-0.41421356237309509
10
177.63057272955342
20
-14.365111791439746
10
177.63057272955342
20
-21.665111791439749
42
-0.41421356237309509
0
LWPOLYLINE
5
140
100
AcDbEntity
8
0
100
AcDbPolyline
90
8
70
1
43
0.0
10
190.88057272955342
20
-23.415111791439749
10
183.58057272955341
20
-23.415111791439749
42
-0.41421356237309509
10
181.83057272955341
20
-21.665111791439749
10
181.83057272955341
20
-14.365111791439752
42
-0.41421356237309509
10
183.58057272955341
20
-12.61511179143975
10
190.88057272955342
20
-12.61511179143975
42
-0.41421356237309509
10
192.63057272955342
20
-14.365111791439746
10
192.63057272955342
20
-21.665111791439749
42
-0.41421356237309509
0
LWPOLYLINE
5
141
100
AcDbEntity
8
0
100
AcDbPolyline
90
8
70
1
43
0.0
10
205.88057272955342
20
-23.415111791439749
10
198.58057272955341
20
-23.415111791439749
42
-0.41421356237309509
10
196.83057272955341
20
-21.665111791439749
10
196.83057272955341
20
-14.365111791439752
42
-0.41421356237309509
10
198.58057272955341
20
-12.61511179143975
10
205.88057272955342
20
-12.61511179143975
42
-0.41421356237309509
10
207.63057272955342
20
-14.365111791439746
10
207.63057272955342
20
-21.665111791439749
42
-0.41421356237309509
0
LWPOLYLINE
5
142
100
AcDbEntity
8
0
100
AcDbPolyline
90
8
70
1
43
0.0
10
220.88057272955342
20
-23.415111791439749
10
213.58057272955341
20
-23.415111791439749
42
-0.41421356237309509
10
211.83057272955341
20
-21.665111791439749
10
211.83057272955341
20
-14.365111791439752
42
-0.41421356237309509
10
213.58057272955341
20
-12.61511179143975
10
220.88057272955342
20
-12.61511179143975
42
-0.41421356237309509
10
222.63057272955342
20
-14.365111791439746
10
222.63057272955342
20
-21.665111791439749
42
-0.41421356237309509
0
LWPOLYLINE
5
143
100
AcDbEntity
8
0
100
AcDbPolyline
90
8
70
1
43
0.0
10
25.880572729553421
20
-38.415111791439749
10
18.580572729553417
20
-38.415111791439749
42
-0.41421356237309509
10
16.830572729553417
20
-36.665111791439749
10
16.830572729553413
20
-29.365111791439752
42
-0.41421356237309509
10
18.580572729553417
20
-27.615111791439748
10
25.880572729553421
20
-27.615111791439748
42
-0.41421356237309509
10
27.630572729553418
20
-29.365111791439745
10
27.630572729553418
20
-36.665111791439749
42
-0.41421356237309509
0
LWPOLYLINE
5
144
100
AcDbEntity
8
0
100
AcDbPolyline
90
8
70
1
43
0.0
10
40.880572729553421
20
-38.415111791439749
10
33.580572729553417
20
-38.415111791439749
42
-0.41421356237309509
10
31.830572729553417
20
-36.665111791439749
10
31.830572729553417
20
-29.365111791439752
42
-0.41421356237309509
10
33.580572729553417
20
-27.615111791439748
10
40.880572729553421
20
-27.615111791439748
42
-0.41421356237309509
10
42.630572729553421
20
-29.365111791439745
10
42.630572729553421
20
-36.665111791439749
42
-0.41421356237309509
0
LWPOLYLINE
5
145
100
AcDbEntity
8
0
100
AcDbPolyline
90
8
70
1
43
0.0
10
55.880572729553421
20
-38.415111791439749
10
48.580572729553417
20
-38.415111791439749
42
-0.41421356237309509
10
46.830572729553417
20
-36.665111791439749
10
46.830572729553417
20
-29.365111791439752
42
-0.41421356237309509
10
48.580572729553417
20
-27.615111791439748
10
55.880572729553421
20
-27.615111791439748
42
-0.41421356237309509
10
57.630572729553421
20
-29.365111791439745
10
57.630572729553421
20
-36.665111791439749
42
-0.41421356237309509
0
LWPOLYLINE
5
146
100
AcDbEntity
8
0
100
AcDbPolyline
90
8
70
1
43
0.0
10
70.880572729553421
20
-38.415111791439749
10
63.580572729553417
20
-38.415111791439749
42
-0.41421356237309509
10
61.830572729553417
20
-36.665111791439749
10
61.830572729553417
20
-29.365111791439752
42
-0.41421356237309509
10
63.580572729553417
20
-27.615111791439748
10
70.880572729553421
20
-27.615111791439748
42
-0.41421356237309509
10
72.630572729553421
20
-29.365111791439745
10
72.630572729553421
20
-36.665111791439749
42
-0.41421356237309509
0
LWPOLYLINE
5
147
100
AcDbEntity
8
0
100
AcDbPolyline
90
8
70
1
43
0.0
10
85.880572729553421
20
-38.415111791439749
10
78.58057272955341
20
-38.415111791439749
42
-0.41421356237309509
10
76.83057272955341
20
-36.665111791439749
10
76.83057272955341
20
-29.365111791439752
42
-0.41421356237309509
10
78.580572729553424
20
-27.615111791439748
10
85.880572729553421
20
-27.615111791439748
42
-0.41421356237309509
10
87.630572729553421
20
-29.365111791439745
10
87.630572729553435
20
-36.665111791439749
42
-0.41421356237309509
0
LWPOLYLINE
5
148
100
AcDbEntity
8
0
100
AcDbPolyline
90
8
70
1
43
0.0
10
100.88057272955342
20
-38.415111791439749
10
93.580572729553424
20
-38.415111791439749
42
-0.41421356237309509
10
91.83057272955341
20
-36.665111791439749
10
91.83057272955341
20
-29.365111791439752
42
-0.41421356237309509
10
93.580572729553424
20
-27.615111791439748
10
100.88057272955342
20
-27.615111791439748
42
-0.41421356237309509
10
102.63057272955342
20
-29.365111791439745
10
102.63057272955344
20
-36.665111791439749
42
-0.41421356237309509
0
LWPOLYLINE
5
149
100
AcDbEntity
8
0
100
AcDbPolyline
90
8
70
1
43
0.0
10
115.88057272955342
20
-38.415111791439749
10
108.58057272955342
20
-38.415111791439749
42
-0.41421356237309509
10
106.83057272955341
20
-36.665111791439749
10
106.83057272955341
20
-29.365111791439752
42
-0.41421356237309509
10
108.58057272955342
20
-27.615111791439748
10
115.88057272955342
20
-27.615111791439748
42
-0.41421356237309509
10
117.63057272955342
20
-29.365111791439745
10
117.63057272955344
20
-36.665111791439749
42
-0.41421356237309509
0
LWPOLYLINE
5
150
100
AcDbEntity
8
0
100
AcDbPolyline
90
8
70
1
43
0.0
10
130.88057272955342
20
-38.415111791439749
10
123.58057272955342
20
-38.415111791439749
42
-0.41421356237309509
10
121.83057272955341
20
-36.665111791439749
10
121.83057272955341
20
-29.365111791439752
42
-0.41421356237309509
10
123.58057272955342
20
-27.615111791439748
10
130.88057272955342
20
-27.615111791439748
42
-0.41421356237309509
10
132.63057272955342
20
-29.365111791439745
10
132.63057272955342
20
-36.665111791439749
42
-0.41421356237309509
0
LWPOLYLINE
5
151
100
AcDbEntity
8
0
100
AcDbPolyline
90
8
70
1
43
0.0
10
145.88057272955342
20
-38.415111791439749
10
138.58057272955341
20
-38.415111791439749
42
-0.41421356237309509
10
136.83057272955341
20
-36.665111791439749
10
136.83057272955341
20
-29.365111791439752
42
-0.41421356237309509
10
138.58057272955341
20
-27.615111791439748
10
145.88057272955342
20
-27.615111791439748
42
-0.41421356237309509
10
147.63057272955342
20
-29.365111791439745
10
147.63057272955342
20
-36.665111791439749
42
-0.41421356237309509
0
LWPOLYLINE
5
152
100
AcDbEntity
8
0
100
AcDbPolyline
90
8
70
1
43
0.0
10
160.88057272955342
20
-38.415111791439749
10
153.58057272955341
20
-38.415111791439749
42
-0.41421356237309509
10
151.83057272955341
20
-36.665111791439749
10
151.83057272955341
20
-29.365111791439752
42
-0.41421356237309509
10
153.58057272955341
20
-27.615111791439748
10
160.88057272955342
20
-27.615111791439748
42
-0.41421356237309509
10
162.63057272955342
20
-29.365111791439745
10
162.63057272955342
20
-36.665111791439749
42
-0.41421356237309509
0
LWPOLYLINE
5
153
100
AcDbEntity
8
0
100
AcDbPolyline
90
8
70
1
43
0.0
10
175.88057272955342
20
-38.415111791439749
10
168.58057272955341
20
-38.415111791439749
42
-0.41421356237309509
10
166.83057272955341
20
-36.665111791439749
10
166.83057272955341
20
-29.365111791439752
42
-0.41421356237309509
10
168.58057272955341
20
-27.615111791439748
10
175.88057272955342
20
-27.615111791439748
42
-0.41421356237309509
10
177.63057272955342
20
-29.365111791439745
10
177.63057272955342
20
-36.665111791439749
42
-0.41421356237309509
0
LWPOLYLINE
5
154
100
AcDbEntity
8
0
100
AcDbPolyline
90
8
70
1
43
0.0
10
190.88057272955342
20
-38.415111791439749
10
183.58057272955341
20
-38.415111791439749
42
-0.41421356237309509
10
181.83057272955341
20
-36.665111791439749
10
181.83057272955341
20
-29.365111791439752
42
-0.41421356237309509
10
183.58057272955341
20
-27.615111791439748
10
190.88057272955342
20
-27.615111791439748
42
-0.41421356237309509
10
192.63057272955342
20
-29.365111791439745
10
192.63057272955342
20
-36.665111791439749
42
-0.41421356237309509
0
LWPOLYLINE
5
155
100
AcDbEntity
8
0
100
AcDbPolyline
90
8
70
1
43
0.0
10
205.88057272955342
20
-38.415111791439749
10
198.58057272955341
20
-38.415111791439749
42
-0.41421356237309509
10
196.83057272955341
20
-36.665111791439749
10
196.83057272955341
20
-29.365111791439752
42
-0.41421356237309509
10
198.58057272955341
20
-27.615111791439748
10
205.88057272955342
20
-27.615111791439748
42
-0.41421356237309509
10
207.63057272955342
20
-29.365111791439745
10
207.63057272955342
20
-36.665111791439749
42
-0.41421356237309509
0
LWPOLYLINE
5
156
100
AcDbEntity
8
0
100
AcDbPolyline
90
8
70
1
43
0.0
10
220.88057272955342
20
-38.415111791439749
10
213.58057272955341
20
-38.415111791439749
42
-0.41421356237309509
10
211.83057272955341
20
-36.665111791439749
10
211.83057272955341
20
-29.365111791439752
42
-0.41421356237309509
10
213.58057272955341
20
-27.615111791439748
10
220.88057272955342
20
-27.615111791439748
42
-0.41421356237309509
10
222.63057272955342
20
-29.365111791439745
10
222.63057272955342
20
-36.665111791439749
42
-0.41421356237309509
0
LWPOLYLINE
5
157
100
AcDbEntity
8
0
100
AcDbPolyline
90
8
70
1
43
0.0
10
25.880572729553421
20
-53.415111791439749
10
18.580572729553417
20
-53.415111791439749
42
-0.41421356237309509
10
16.830572729553417
20
-51.665111791439756
10
16.830572729553413
20
-44.365111791439759
42
-0.41421356237309509
10
18.580572729553417
20
-42.615111791439745
10
25.880572729553421
20
-42.615111791439745
42
-0.41421356237309509
10
27.630572729553418
20
-44.365111791439745
10
27.630572729553418
20
-51.665111791439749
42
-0.41421356237309509
0
LWPOLYLINE
5
158
100
AcDbEntity
8
0
100
AcDbPolyline
90
8
70
1
43
0.0
10
40.880572729553421
20
-53.415111791439749
10
33.580572729553417
20
-53.415111791439749
42
-0.41421356237309509
10
31.830572729553417
20
-51.665111791439756
10
31.830572729553417
20
-44.365111791439759
42
-0.41421356237309509
10
33.580572729553417
20
-42.615111791439745
10
40.880572729553421
20
-42.615111791439745
42
-0.41421356237309509
10
42.630572729553421
20
-44.365111791439745
10
42.630572729553421
20
-51.665111791439749
42
-0.41421356237309509
0
LWPOLYLINE
5
159
100
AcDbEntity
8
0
100
AcDbPolyline
90
8
70
1
43
0.0
10
55.880572729553421
20
-53.415111791439749
10
48.580572729553417
20
-53.415111791439749
42
-0.41421356237309509
10
46.830572729553417
20
-51.665111791439756
10
46.830572729553417
20
-44.365111791439759
42
-0.41421356237309509
10
48.580572729553417
20
-42.615111791439745
10
55.880572729553421
20
-42.615111791439745
42
-0.41421356237309509
10
57.630572729553421
20
-44.365111791439745
10
57.630572729553421
20
-51.665111791439749
42
-0.41421356237309509
0
LWPOLYLINE
5
160
100
AcDbEntity
8
0
100
AcDbPolyline
90
8
70
1
43
0.0
10
70.880572729553421
20
-53.415111791439749
10
63.580572729553417
20
-53.415111791439749
42
-0.41421356237309509
10
61.830572729553417
20
-51.665111791439756
10
61.830572729553417
20
-44.365111791439759
42
-0.41421356237309509
10
63.580572729553417
20
-42.615111791439745
10
70.880572729553421
20
-42.615111791439745
42
-0.41421356237309509
10
72.630572729553421
20
-44.365111791439745
10
72.630572729553421
20
-51.665111791439749
42
-0.41421356237309509
0
LWPOLYLINE
5
161
100
AcDbEntity
8
0
100
AcDbPolyline
90
8
70
1
43
0.0
10
85.880572729553421
20
-53.415111791439749
10
78.58057272955341
20
-53.415111791439749
42
-0.41421356237309509
10
76.83057272955341
20
-51.665111791439756
10
76.83057272955341
20
-44.365111791439759
42
-0.41421356237309509
10
78.580572729553424
20
-42.615111791439745
10
85.880572729553421
20
-42.615111791439745
42
-0.41421356237309509
10
87.630572729553421
20
-44.365111791439745
10
87.630572729553435
20
-51.665111791439749
42
-0.41421356237309509
0
LWPOLYLINE
5
162
100
AcDbEntity
8
0
100
AcDbPolyline
90
8
70
1
43
0.0
10
100.88057272955342
20
-53.415111791439749
10
93.580572729553424
20
-53.415111791439749
42
-0.41421356237309509
10
91.83057272955341
20
-51.665111791439756
10
91.83057272955341
20
-44.365111791439759
42
-0.41421356237309509
10
93.580572729553424
20
-42.615111791439745
10
100.88057272955342
20
-42.615111791439745
42
-0.41421356237309509
10
102.63057272955342
20
-44.365111791439745
10
102.63057272955344
20
-51.665111791439749
42
-0.41421356237309509
0
LWPOLYLINE
5
163
100
AcDbEntity
8
0
100
AcDbPolyline
90
8
70
1
43
0.0
10
115.88057272955342
20
-53.415111791439749
10
108.58057272955342
20
-53.415111791439749
42
-0.41421356237309509
10
106.83057272955341
20
-51.665111791439756
10
106.83057272955341
20
-44.365111791439759
42
-0.41421356237309509
10
108.58057272955342
20
-42.615111791439745
10
115.88057272955342
20
-42.615111791439745
42
-0.41421356237309509
10
117.63057272955342
20
-44.365111791439745
10
117.63057272955344
20
-51.665111791439749
42
-0.41421356237309509
0
LWPOLYLINE
5
164
100
AcDbEntity
8
0
100
AcDbPolyline
90
8
70
1
43
0.0
10
130.88057272955342
20
-53.415111791439749
10
123.58057272955342
20
-53.415111791439749
42
-0.41421356237309509
10
121.83057272955341
20
-51.665111791439756
10
121.83057272955341
20
-44.365111791439759
42
-0.41421356237309509
10
123.58057272955342
20
-42.615111791439745
10
130.88057272955342
20
-42.615111791439745
42
-0.41421356237309509
10
132.63057272955342
20
-44.365111791439745
10
132.63057272955342
20
-51.665111791439749
42
-0.41421356237309509
0
LWPOLYLINE
5
165
100
AcDbEntity
8
0
100
AcDbPolyline
90
8
70
1
43
0.0
10
145.88057272955342
20
-53.415111791439749
10
138.58057272955341
20
-53.415111791439749
42
-0.41421356237309509
10
136.83057272955341
20
-51.665111791439756
10
136.83057272955341
20
-44.365111791439759
42
-0.41421356237309509
10
138.58057272955341
20
-42.615111791439745
10
145.88057272955342
20
-42.615111791439745
42
-0.41421356237309509
10
147.63057272955342
20
-44.365111791439745
10
147.63057272955342
20
-51.665111791439749
42
-0.41421356237309509
0
LWPOLYLINE
5
166
100
AcDbEntity
8
0
100
AcDbPolyline
90
8
70
1
43
0.0
10
160.88057272955342
20
-53.415111791439749
10
153.58057272955341
20
-53.415111791439749
42
-0.41421356237309509
10
151.83057272955341
20
-51.665111791439756
10
151.83057272955341
20
-44.365111791439759
42
-0.41421356237309509
10
153.58057272955341
20
-42.615111791439745
10
160.88057272955342
20
-42.615111791439745
42
-0.41421356237309509
10
162.63057272955342
20
-44.365111791439745
10
162.63057272955342
20
-51.665111791439749
42
-0.41421356237309509
0
LWPOLYLINE
5
167
100
AcDbEntity
8
0
100
AcDbPolyline
90
8
70
1
43
0.0
10
175.88057272955342
20
-53.415111791439749
10
168.58057272955341
20
-53.415111791439749
42
-0.41421356237309509
10
166.83057272955341
20
-51.665111791439756
10
166.83057272955341
20
-44.365111791439759
42
-0.41421356237309509
10
168.58057272955341
20
-42.615111791439745
10
175.88057272955342
20
-42.615111791439745
42
-0.41421356237309509
10
177.63057272955342
20
-44.365111791439745
10
177.63057272955342
20
-51.665111791439749
42
-0.41421356237309509
0
LWPOLYLINE
5
168
100
AcDbEntity
8
0
100
AcDbPolyline
90
8
70
1
43
0.0
10
190.88057272955342
20
-53.415111791439749
10
183.58057272955341
20
-53.415111791439749
42
-0.41421356237309509
10
181.83057272955341
20
-51.665111791439756
10
181.83057272955341
20
-44.365111791439759
42
-0.41421356237309509
10
183.58057272955341
20
-42.615111791439745
10
190.88057272955342
20
-42.615111791439745
42
-0.41421356237309509
10
192.63057272955342
20
-44.365111791439745
10
192.63057272955342
20
-51.665111791439749
42
-0.41421356237309509
0
LWPOLYLINE
5
169
100
AcDbEntity
8
0
100
AcDbPolyline
90
8
70
1
43
0.0
10
205.88057272955342
20
-53.415111791439749
10
198.58057272955341
20
-53.415111791439749
42
-0.41421356237309509
10
196.83057272955341
20
-51.665111791439756
10
196.83057272955341
20
-44.365111791439759
42
-0.41421356237309509
10
198.58057272955341
20
-42.615111791439745
10
205.88057272955342
20
-42.615111791439745
42
-0.41421356237309509
10
207.63057272955342
20
-44.365111791439745
10
207.63057272955342
20
-51.665111791439749
42
-0.41421356237309509
0
LWPOLYLINE
5
170
100
AcDbEntity
8
0
100
AcDbPolyline
90
8
70
1
43
0.0
10
220.88057272955342
20
-53.415111791439749
10
213.58057272955341
20
-53.415111791439749
42
-0.41421356237309509
10
211.83057272955341
20
-51.665111791439756
10
211.83057272955341
20
-44.365111791439759
42
-0.41421356237309509
10
213.58057272955341
20
-42.615111791439745
10
220.88057272955342
20
-42.615111791439745
42
-0.41421356237309509
10
222.63057272955342
20
-44.365111791439745
10
222.63057272955342
20
-51.665111791439749
42
-0.41421356237309509
0
LWPOLYLINE
5
171
100
AcDbEntity
8
0
100
AcDbPolyline
90
8
70
1
43
0.0
10
25.880572729553421
20
-68.415111791439756
10
18.580572729553417
20
-68.415111791439756
42
-0.41421356237309509
10
16.830572729553417
20
-66.665111791439756
10
16.830572729553413
20
-59.365111791439759
42
-0.41421356237309509
10
18.580572729553417
20
-57.615111791439745
10
25.880572729553421
20
-57.615111791439745
42
-0.41421356237309509
10
27.630572729553418
20
-59.365111791439745
10
27.630572729553418
20
-66.665111791439756
42
-0.41421356237309509
0
LWPOLYLINE
5
172
100
AcDbEntity
8
0
100
AcDbPolyline
90
8
70
1
43
0.0
10
40.880572729553421
20
-68.415111791439756
10
33.580572729553417
20
-68.415111791439756
42
-0.41421356237309509
10
31.830572729553417
20
-66.665111791439756
10
31.830572729553417
20
-59.365111791439759
42
-0.41421356237309509
10
33.580572729553417
20
-57.615111791439745
10
40.880572729553421
20
-57.615111791439745
42
-0.41421356237309509
10
42.630572729553421
20
-59.365111791439745
10
42.630572729553421
20
-66.665111791439756
42
-0.41421356237309509
0
LWPOLYLINE
5
173
100
AcDbEntity
8
0
100
AcDbPolyline
90
8
70
1
43
0.0
10
55.880572729553421
20
-68.415111791439756
10
48.580572729553417
20
-68.415111791439756
42
-0.41421356237309509
10
46.830572729553417
20
-66.665111791439756
10
46.830572729553417
20
-59.365111791439759
42
-0.41421356237309509
10
48.580572729553417
20
-57.615111791439745
10
55.880572729553421
20
-57.615111791439745
42
-0.41421356237309509
10
57.630572729553421
20
-59.365111791439745
10
57.630572729553421
20
-66.665111791439756
42
-0.41421356237309509
0
LWPOLYLINE
5
174
100
AcDbEntity
8
0
100
AcDbPolyline
90
8
70
1
43
0.0
10
70.880572729553421
20
-68.415111791439756
10
63.580572729553417
20
-68.415111791439756
42
-0.41421356237309509
10
61.830572729553417
20
-66.665111791439756
10
61.830572729553417
20
-59.365111791439759
42
-0.41421356237309509
10
63.580572729553417
20
-57.615111791439745
10
70.880572729553421
20
-57.615111791439745
42
-0.41421356237309509
10
72.630572729553421
20
-59.365111791439745
10
72.630572729553421
20
-66.665111791439756
42
-0.41421356237309509
0
LWPOLYLINE
5
175
100
AcDbEntity
8
0
100
AcDbPolyline
90
8
70
1
43
0.0
10
85.880572729553421
20
-68.415111791439756
10
78.58057272955341
20
-68.415111791439756
42
-0.41421356237309509
10
76.83057272955341
20
-66.665111791439756
10
76.83057272955341
20
-59.365111791439759
42
-0.41421356237309509
10
78.580572729553424
20
-57.615111791439745
10
85.880572729553421
20
-57.615111791439745
42
-0.41421356237309509
10
87.630572729553421
20
-59.365111791439745
10
87.630572729553435
20
-66.665111791439756
42
-0.41421356237309509
0
LWPOLYLINE
5
176
100
AcDbEntity
8
0
100
AcDbPolyline
90
8
70
1
43
0.0
10
100.88057272955342
20
-68.415111791439756
10
93.580572729553424
20
-68.415111791439756
42
-0.41421356237309509
10
91.83057272955341
20
-66.665111791439756
10
91.83057272955341
20
-59.365111791439759
42
-0.41421356237309509
10
93.580572729553424
20
-57.615111791439745
10
100.88057272955342
20
-57.615111791439745
42
-0.41421356237309509
10
102.63057272955342
20
-59.365111791439745
10
102.63057272955344
20
-66.665111791439756
42
-0.41421356237309509
0
LWPOLYLINE
5
177
100
AcDbEntity
8
0
100
AcDbPolyline
90
8
70
1
43
0.0
10
115.88057272955342
20
-68.415111791439756
10
108.58057272955342
20
-68.415111791439756
42
-0.41421356237309509
10
106.83057272955341
20
-66.665111791439756
10
106.83057272955341
20
-59.365111791439759
42
-0.41421356237309509
10
108.58057272955342
20
-57.615111791439745
10
115.88057272955342
20
-57.615111791439745
42
-0.41421356237309509
10
117.63057272955342
20
-59.365111791439745
10
117.63057272955344
20
-66.665111791439756
42
-0.41421356237309509
0
LWPOLYLINE
5
178
100
AcDbEntity
8
0
100
AcDbPolyline
90
8
70
1
43
0.0
10
130.88057272955342
20
-68.415111791439756
10
123.58057272955342
20
-68.415111791439756
42
-0.41421356237309509
10
121.83057272955341
20
-66.665111791439756
10
121.83057272955341
20
-59.365111791439759
42
-0.41421356237309509
10
123.58057272955342
20
-57.615111791439745
10
130.88057272955342
20
-57.615111791439745
42
-0.41421356237309509
10
132.63057272955342
20
-59.365111791439745
10
132.63057272955342
20
-66.665111791439756
42
-0.41421356237309509
0
LWPOLYLINE
5
179
100
AcDbEntity
8
0
100
AcDbPolyline
90
8
70
1
43
0.0
10
145.88057272955342
20
-68.415111791439756
10
138.58057272955341
20
-68.415111791439756
42
-0.41421356237309509
10
136.83057272955341
20
-66.665111791439756
10
136.83057272955341
20
-59.365111791439759
42
-0.41421356237309509
10
138.58057272955341
20
-57.615111791439745
10
145.88057272955342
20
-57.615111791439745
42
-0.41421356237309509
10
147.63057272955342
20
-59.365111791439745
10
147.63057272955342
20
-66.665111791439756
42
-0.41421356237309509
0
LWPOLYLINE
5
180
100
AcDbEntity
8
0
100
AcDbPolyline
90
8
70
1
43
0.0
10
160.88057272955342
20
-68.415111791439756
10
153.58057272955341
20
-68.415111791439756
42
-0.41421356237309509
10
151.83057272955341
20
-66.665111791439756
10
151.83057272955341
20
-59.365111791439759
42
-0.41421356237309509
10
153.58057272955341
20
-57.615111791439745
10
160.88057272955342
20
-57.615111791439745
42
-0.41421356237309509
10
162.63057272955342
20
-59.365111791439745
10
162.63057272955342
20
-66.665111791439756
42
-0.41421356237309509
0
LWPOLYLINE
5
181
100
AcDbEntity
8
0
100
AcDbPolyline
90
8
70
1
43
0.0
10
175.88057272955342
20
-68.415111791439756
10
168.58057272955341
20
-68.415111791439756
42
-0.41421356237309509
10
166.83057272955341
20
-66.665111791439756
10
166.83057272955341
20
-59.365111791439759
42
-0.41421356237309509
10
168.58057272955341
20
-57.615111791439745
10
175.88057272955342
20
-57.615111791439745
42
-0.41421356237309509
10
177.63057272955342
20
-59.365111791439745
10
177.63057272955342
20
-66.665111791439756
42
-0.41421356237309509
0
LWPOLYLINE
5
182
100
AcDbEntity
8
0
100
AcDbPolyline
90
8
70
1
43
0.0
10
190.88057272955342
20
-68.415111791439756
10
183.58057272955341
20
-68.415111791439756
42
-0.41421356237309509
10
181.83057272955341
20
-66.665111791439756
10
181.83057272955341
20
-59.365111791439759
42
-0.41421356237309509
10
183.58057272955341
20
-57.615111791439745
10
190.88057272955342
20
-57.615111791439745
42
-0.41421356237309509
10
192.63057272955342
20
-59.365111791439745
10
192.63057272955342
20
-66.665111791439756
42
-0.41421356237309509
0
LWPOLYLINE
5
183
100
AcDbEntity
8
0
100
AcDbPolyline
90
8
70
1
43
0.0
10
205.88057272955342
20
-68.415111791439756
10
198.58057272955341
20
-68.415111791439756
42
-0.41421356237309509
10
196.83057272955341
20
-66.665111791439756
10
196.83057272955341
20
-59.365111791439759
42
-0.41421356237309509
10
198.58057272955341
20
-57.615111791439745
10
205.88057272955342
20
-57.615111791439745
42
-0.41421356237309509
10
207.63057272955342
20
-59.365111791439745
10
207.63057272955342
20
-66.665111791439756
42
-0.41421356237309509
0
LWPOLYLINE
5
184
100
AcDbEntity
8
0
100
AcDbPolyline
90
8
70
1
43
0.0
10
220.88057272955342
20
-68.415111791439756
10
213.58057272955341
20
-68.415111791439756
42
-0.41421356237309509
10
211.83057272955341
20
-66.665111791439756
10
211.83057272955341
20
-59.365111791439759
42
-0.41421356237309509
10
213.58057272955341
20
-57.615111791439745
10
220.88057272955342
20
-57.615111791439745
42
-0.41421356237309509
10
222.63057272955342
20
-59.365111791439745
10
222.63057272955342
20
-66.665111791439756
42
-0.41421356237309509
0
LWPOLYLINE
5
185
100
AcDbEntity
8
0
100
AcDbPolyline
90
8
70
1
43
0.0
10
25.880572729553421
20
-83.415111791439756
10
18.580572729553417
20
-83.415111791439756
42
-0.41421356237309509
10
16.830572729553417
20
-81.665111791439756
10
16.830572729553413
20
-74.365111791439759
42
-0.41421356237309509
10
18.580572729553417
20
-72.615111791439745
10
25.880572729553421
20
-72.615111791439745
42
-0.41421356237309509
10
27.630572729553418
20
-74.365111791439759
10
27.630572729553418
20
-81.665111791439756
42
-0.41421356237309509
0
LWPOLYLINE
5
186
100
AcDbEntity
8
0
100
AcDbPolyline
90
8
70
1
43
0.0
10
40.880572729553421
20
-83.415111791439756
10
33.580572729553417
20
-83.415111791439756
42
-0.41421356237309509
10
31.830572729553417
20
-81.665111791439756
10
31.830572729553417
20
-74.365111791439759
42
-0.41421356237309509
10
33.580572729553417
20
-72.615111791439745
10
40.880572729553421
20
-72.615111791439745
42
-0.41421356237309509
10
42.630572729553421
20
-74.365111791439759
10
42.630572729553421
20
-81.665111791439756
42
-0.41421356237309509
0
LWPOLYLINE
5
187
100
AcDbEntity
8
0
100
AcDbPolyline
90
8
70
1
43
0.0
10
55.880572729553421
20
-83.415111791439756
10
48.580572729553417
20
-83.415111791439756
42
-0.41421356237309509
10
46.830572729553417
20
-81.665111791439756
10
46.830572729553417
20
-74.365111791439759
42
-0.41421356237309509
10
48.580572729553417
20
-72.615111791439745
10
55.880572729553421
20
-72.615111791439745
42
-0.41421356237309509
10
57.630572729553421
20
-74.365111791439759
10
57.630572729553421
20
-81.665111791439756
42
-0.41421356237309509
0
LWPOLYLINE
5
188
100
AcDbEntity
8
0
100
AcDbPolyline
90
8
70
1
43
0.0
10
70.880572729553421
20
-83.415111791439756
10
63.580572729553417
20
-83.415111791439756
42
-0.41421356237309509
10
61.830572729553417
20
-81.665111791439756
10
61.830572729553417
20
-74.365111791439759
42
-0.41421356237309509
10
63.580572729553417
20
-72.615111791439745
10
70.880572729553421
20
-72.615111791439745
42
-0.41421356237309509
10
72.630572729553421
20
-74.365111791439759
10
72.630572729553421
20
-81.665111791439756
42
-0.41421356237309509
0
LWPOLYLINE
5
189
100
AcDbEntity
8
0
100
AcDbPolyline
90
8
70
1
43
0.0
10
85.880572729553421
20
-83.415111791439756
10
78.58057272955341
20
-83.415111791439756
42
-0.41421356237309509
10
76.83057272955341
20
-81.665111791439756
10
76.83057272955341
20
-74.365111791439759
42
-0.41421356237309509
10
78.580572729553424
20
-72.615111791439745
10
85.880572729553421
20
-72.615111791439745
42
-0.41421356237309509
10
87.630572729553421
20
-74.365111791439759
10
87.630572729553435
20
-81.665111791439756
42
-0.41421356237309509
0
LWPOLYLINE
5
190
100
AcDbEntity
8
0
100
AcDbPolyline
90
8
70
1
43
0.0
10
100.88057272955342
20
-83.415111791439756
10
93.580572729553424
20
-83.415111791439756
42
-0.41421356237309509
10
91.83057272955341
20
-81.665111791439756
10
91.83057272955341
20
-74.365111791439759
42
-0.41421356237309509
10
93.580572729553424
20
-72.615111791439745
10
100.88057272955342
20
-72.615111791439745
42
-0.41421356237309509
10
102.63057272955342
20
-74.365111791439759
10
102.63057272955344
20
-81.665111791439756
42
-0.41421356237309509
0
LWPOLYLINE
5
191
100
AcDbEntity
8
0
100
AcDbPolyline
90
8
70
1
43
0.0
10
115.88057272955342
20
-83.415111791439756
10
108.58057272955342
20
-83.415111791439756
42
-0.41421356237309509
10
106.83057272955341
20
-81.665111791439756
10
106.83057272955341
20
-74.365111791439759
42
-0.41421356237309509
10
108.58057272955342
20
-72.615111791439745
10
115.88057272955342
20
-72.615111791439745
42
-0.41421356237309509
10
117.63057272955342
20
-74.365111791439759
10
117.63057272955344
20
-81.665111791439756
42
-0.41421356237309509
0
LWPOLYLINE
5
192
100
AcDbEntity
8
0
100
AcDbPolyline
90
8
70
1
43
0.0
10
130.88057272955342
20
-83.415111791439756
10
123.58057272955342
20
-83.415111791439756
42
-0.41421356237309509
10
121.83057272955341
20
-81.665111791439756
10
121.83057272955341
20
-74.365111791439759
42
-0.41421356237309509
10
123.58057272955342
20
-72.615111791439745
10
130.88057272955342
20
-72.615111791439745
42
-0.41421356237309509
10
132.63057272955342
20
-74.365111791439759
10
132.63057272955342
20
-81.665111791439756
42
-0.41421356237309509
0
LWPOLYLINE
5
193
100
AcDbEntity
8
0
100
AcDbPolyline
90
8
70
1
43
0.0
10
145.88057272955342
20
-83.415111791439756
10
138.58057272955341
20
-83.415111791439756
42
-0.41421356237309509
10
136.83057272955341
20
-81.665111791439756
10
136.83057272955341
20
-74.365111791439759
42
-0.41421356237309509
10
138.58057272955341
20
-72.615111791439745
10
145.88057272955342
20
-72.615111791439745
42
-0.41421356237309509
10
147.63057272955342
20
-74.365111791439759
10
147.63057272955342
20
-81.665111791439756
42
-0.41421356237309509
0
LWPOLYLINE
5
194
100
AcDbEntity
8
0
100
AcDbPolyline
90
8
70
1
43
0.0
10
160.88057272955342
20
-83.415111791439756
10
153.58057272955341
20
-83.415111791439756
42
-0.41421356237309509
10
151.83057272955341
20
-81.665111791439756
10
151.83057272955341
20
-74.365111791439759
42
-0.41421356237309509
10
153.58057272955341
20
-72.615111791439745
10
160.88057272955342
20
-72.615111791439745
42
-0.41421356237309509
10
162.63057272955342
20
-74.365111791439759
10
162.63057272955342
20
-81.665111791439756
42
-0.41421356237309509
0
LWPOLYLINE
5
195
100
AcDbEntity
8
0
100
AcDbPolyline
90
8
70
1
43
0.0
10
175.88057272955342
20
-83.415111791439756
10
168.58057272955341
20
-83.415111791439756
42
-0.41421356237309509
10
166.83057272955341
20
-81.665111791439756
10
166.83057272955341
20
-74.365111791439759
42
-0.41421356237309509
10
168.58057272955341
20
-72.615111791439745
10
175.88057272955342
20
-72.615111791439745
42
-0.41421356237309509
10
177.63057272955342
20
-74.365111791439759
10
177.63057272955342
20
-81.665111791439756
42
-0.41421356237309509
0
LWPOLYLINE
5
196
100
AcDbEntity
8
0
100
AcDbPolyline
90
8
70
1
43
0.0
10
190.88057272955342
20
-83.415111791439756
10
183.58057272955341
20
-83.415111791439756
42
-0.41421356237309509
10
181.83057272955341
20
-81.665111791439756
10
181.83057272955341
20
-74.365111791439759
42
-0.41421356237309509
10
183.58057272955341
20
-72.615111791439745
10
190.88057272955342
20
-72.615111791439745
42
-0.41421356237309509
10
192.63057272955342
20
-74.365111791439759
10
192.63057272955342
20
-81.665111791439756
42
-0.41421356237309509
0
LWPOLYLINE
5
197
100
AcDbEntity
8
0
100
AcDbPolyline
90
8
70
1
43
0.0
10
205.88057272955342
20
-83.415111791439756
10
198.58057272955341
20
-83.415111791439756
42
-0.41421356237309509
10
196.83057272955341
20
-81.665111791439756
10
196.83057272955341
20
-74.365111791439759
42
-0.41421356237309509
10
198.58057272955341
20
-72.615111791439745
10
205.88057272955342
20
-72.615111791439745
42
-0.41421356237309509
10
207.63057272955342
20
-74.365111791439759
10
207.63057272955342
20
-81.665111791439756
42
-0.41421356237309509
0
LWPOLYLINE
5
198
100
AcDbEntity
8
0
100
AcDbPolyline
90
8
70
1
43
0.0
10
220.88057272955342
20
-83.415111791439756
10
213.58057272955341
20
-83.415111791439756
42
-0.41421356237309509
10
211.83057272955341
20
-81.665111791439756
10
211.83057272955341
20
-74.365111791439759
42
-0.41421356237309509
10
213.58057272955341
20
-72.615111791439745
10
220.88057272955342
20
-72.615111791439745
42
-0.41421356237309509
10
222.63057272955342
20
-74.365111791439759
10
222.63057272955342
20
-81.665111791439756
42
-0.41421356237309509
0
LWPOLYLINE
5
199
100
AcDbEntity
8
0
100
AcDbPolyline
90
8
70
1
43
0.0
10
25.880572729553421
20
-98.415111791439756
10
18.580572729553417
20
-98.415111791439756
42
-0.41421356237309509
10
16.830572729553417
20
-96.665111791439756
10
16.830572729553413
20
-89.365111791439759
42
-0.41421356237309509
10
18.580572729553417
20
-87.615111791439745
10
25.880572729553421
20
-87.615111791439773
42
-0.41421356237309509
10
27.630572729553418
20
-89.365111791439759
10
27.630572729553418
20
-96.665111791439756
42
-0.41421356237309509
0
LWPOLYLINE
5
200
100
AcDbEntity
8
0
100
AcDbPolyline
90
8
70
1
43
0.0
10
40.880572729553421
20
-98.415111791439756
10
33.580572729553417
20
-98.415111791439756
42
-0.41421356237309509
10
31.830572729553417
20
-96.665111791439756
10
31.830572729553417
20
-89.365111791439759
42
-0.41421356237309509
10
33.580572729553417
20
-87.615111791439745
10
40.880572729553421
20
-87.615111791439773
42
-0.41421356237309509
10
42.630572729553421
20
-89.365111791439759
10
42.630572729553421
20
-96.665111791439756
42
-0.41421356237309509
0
LWPOLYLINE
5
201
100
AcDbEntity
8
0
100
AcDbPolyline
90
8
70
1
43
0.0
10
55.880572729553421
20
-98.415111791439756
10
48.580572729553417
20
-98.415111791439756
42
-0.41421356237309509
10
46.830572729553417
20
-96.665111791439756
10
46.830572729553417
20
-89.365111791439759
42
-0.41421356237309509
10
48.580572729553417
20
-87.615111791439745
10
55.880572729553421
20
-87.615111791439773
42
-0.41421356237309509
10
57.630572729553421
20
-89.365111791439759
10
57.630572729553421
20
-96.665111791439756
42
-0.41421356237309509
0
LWPOLYLINE
5
202
100
AcDbEntity
8
0
100
AcDbPolyline
90
8
70
1
43
0.0
10
70.880572729553421
20
-98.415111791439756
10
63.580572729553417
20
-98.415111791439756
42
-0.41421356237309509
10
61.830572729553417
20
-96.665111791439756
10
61.830572729553417
20
-89.365111791439759
42
-0.41421356237309509
10
63.580572729553417
20
-87.615111791439745
10
70.880572729553421
20
-87.615111791439773
42
-0.41421356237309509
10
72.630572729553421
20
-89.365111791439759
10
72.630572729553421
20
-96.665111791439756
42
-0.41421356237309509
0
LWPOLYLINE
5
203
100
AcDbEntity
8
0
100
AcDbPolyline
90
8
70
1
43
0.0
10
85.880572729553421
20
-98.415111791439756
10
78.58057272955341
20
-98.415111791439756
42
-0.41421356237309509
10
76.83057272955341
20
-96.665111791439756
10
76.83057272955341
20
-89.365111791439759
42
-0.41421356237309509
10
78.580572729553424
20
-87.615111791439745
10
85.880572729553421
20
-87.615111791439773
42
-0.41421356237309509
10
87.630572729553421
20
-89.365111791439759
10
87.630572729553435
20
-96.665111791439756
42
-0.41421356237309509
0
LWPOLYLINE
5
204
100
AcDbEntity
8
0
100
AcDbPolyline
90
8
70
1
43
0.0
10
100.88057272955342
20
-98.415111791439756
10
93.580572729553424
20
-98.415111791439756
42
-0.41421356237309509
10
91.83057272955341
20
-96.665111791439756
10
91.83057272955341
20
-89.365111791439759
42
-0.41421356237309509
10
93.580572729553424
20
-87.615111791439745
10
100.88057272955342
20
-87.615111791439773
42
-0.41421356237309509
10
102.63057272955342
20
-89.365111791439759
10
102.63057272955344
20
-96.665111791439756
42
-0.41421356237309509
0
LWPOLYLINE
5
205
100
AcDbEntity
8
0
100
AcDbPolyline
90
8
70
1
43
0.0
10
115.88057272955342
20
-98.415111791439756
10
108.58057272955342
20
-98.415111791439756
42
-0.41421356237309509
10
106.83057272955341
20
-96.665111791439756
10
106.83057272955341
20
-89.365111791439759
42
-0.41421356237309509
10
108.58057272955342
20
-87.615111791439745
10
115.88057272955342
20
-87.615111791439773
42
-0.41421356237309509
10
117.63057272955342
20
-89.365111791439759
10
117.63057272955344
20
-96.665111791439756
42
-0.41421356237309509
0
LWPOLYLINE
5
206
100
AcDbEntity
8
0
100
AcDbPolyline
90
8
70
1
43
0.0
10
130.88057272955342
20
-98.415111791439756
10
123.58057272955342
20
-98.415111791439756
42
-0.41421356237309509
10
121.83057272955341
20
-96.665111791439756
10
121.83057272955341
20
-89.365111791439759
42
-0.41421356237309509
10
123.58057272955342
20
-87.615111791439745
10
130.88057272955342
20
-87.615111791439773
42
-0.41421356237309509
10
132.63057272955342
20
-89.365111791439759
10
132.63057272955342
20
-96.665111791439756
42
-0.41421356237309509
0
LWPOLYLINE
5
207
100
AcDbEntity
8
0
100
AcDbPolyline
90
8
70
1
43
0.0
10
145.88057272955342
20
-98.415111791439756
10
138.58057272955341
20
-98.415111791439756
42
-0.41421356237309509
10
136.83057272955341
20
-96.665111791439756
10
136.83057272955341
20
-89.365111791439759
42
-0.41421356237309509
10
138.58057272955341
20
-87.615111791439745
10
145.88057272955342
20
-87.615111791439773
42
-0.41421356237309509
10
147.63057272955342
20
-89.365111791439759
10
147.63057272955342
20
-96.665111791439756
42
-0.41421356237309509
0
LWPOLYLINE
5
208
100
AcDbEntity
8
0
100
AcDbPolyline
90
8
70
1
43
0.0
10
160.88057272955342
20
-98.415111791439756
10
153.58057272955341
20
-98.415111791439756
42
-0.41421356237309509
10
151.83057272955341
20
-96.665111791439756
10
151.83057272955341
20
-89.365111791439759
42
-0.41421356237309509
10
153.58057272955341
20
-87.615111791439745
10
160.88057272955342
20
-87.615111791439773
42
-0.41421356237309509
10
162.63057272955342
20
-89.365111791439759
10
162.63057272955342
20
-96.665111791439756
42
-0.41421356237309509
0
LWPOLYLINE
5
209
100
AcDbEntity
8
0
100
AcDbPolyline
90
8
70
1
43
0.0
10
175.88057272955342
20
-98.415111791439756
10
168.58057272955341
20
-98.415111791439756
42
-0.41421356237309509
10
166.83057272955341
20
-96.665111791439756
10
166.83057272955341
20
-89.365111791439759
42
-0.41421356237309509
10
168.58057272955341
20
-87.615111791439745
10
175.88057272955342
20
-87.615111791439773
42
-0.41421356237309509
10
177.63057272955342
20
-89.365111791439759
10
177.63057272955342
20
-96.665111791439756
42
-0.41421356237309509
0
LWPOLYLINE
5
210
100
AcDbEntity
8
0
100
AcDbPolyline
90
8
70
1
43
0.0
10
190.88057272955342
20
-98.415111791439756
10
183.58057272955341
20
-98.415111791439756
42
-0.41421356237309509
10
181.83057272955341
20
-96.665111791439756
10
181.83057272955341
20
-89.365111791439759
42
-0.41421356237309509
10
183.58057272955341
20
-87.615111791439745
10
190.88057272955342
20
-87.615111791439773
42
-0.41421356237309509
10
192.63057272955342
20
-89.365111791439759
10
192.63057272955342
20
-96.665111791439756
42
-0.41421356237309509
0
LWPOLYLINE
5
211
100
AcDbEntity
8
0
100
AcDbPolyline
90
8
70
1
43
0.0
10
205.88057272955342
20
-98.415111791439756
10
198.58057272955341
20
-98.415111791439756
42
-0.41421356237309509
10
196.83057272955341
20
-96.665111791439756
10
196.83057272955341
20
-89.365111791439759
42
-0.41421356237309509
10
198.58057272955341
20
-87.615111791439745
10
205.88057272955342
20
-87.615111791439773
42
-0.41421356237309509
10
207.63057272955342
20
-89.365111791439759
10
207.63057272955342
20
-96.665111791439756
42
-0.41421356237309509
0
LWPOLYLINE
5
212
100
AcDbEntity
8
0
100
AcDbPolyline
90
8
70
1
43
0.0
10
220.88057272955342
20
-98.415111791439756
10
213.58057272955341
20
-98.415111791439756
42
-0.41421356237309509
10
211.83057272955341
20
-96.665111791439756
10
211.83057272955341
20
-89.365111791439759
42
-0.41421356237309509
10
213.58057272955341
20
-87.615111791439745
10
220.88057272955342
20
-87.615111791439773
42
-0.41421356237309509
10
222.63057272955342
20
-89.365111791439759
10
222.63057272955342
20
-96.665111791439756
42
-0.41421356237309509
0
LWPOLYLINE
5
213
100
AcDbEntity
8
0
100
AcDbPolyline
90
8
70
1
43
0.0
10
25.880572729553421
20
-113.41511179143976
10
18.580572729553417
20
-113.41511179143976
42
-0.41421356237309509
10
16.830572729553417
20
-111.66511179143976
10
16.830572729553413
20
-104.36511179143976
42
-0.41421356237309509
10
18.580572729553417
20
-102.61511179143974
10
25.880572729553421
20
-102.61511179143977
42
-0.41421356237309509
10
27.630572729553418
20
-104.36511179143976
10
27.630572729553418
20
-111.66511179143976
42
-0.41421356237309509
0
LWPOLYLINE
5
214
100
AcDbEntity
8
0
100
AcDbPolyline
90
8
70
1
43
0.0
10
40.880572729553421
20
-113.41511179143976
10
33.580572729553417
20
-113.41511179143976
42
-0.41421356237309509
10
31.830572729553417
20
-111.66511179143976
10
31.830572729553417
20
-104.36511179143976
42
-0.41421356237309509
10
33.580572729553417
20
-102.61511179143974
10
40.880572729553421
20
-102.61511179143977
42
-0.41421356237309509
10
42.630572729553421
20
-104.36511179143976
10
42.630572729553421
20
-111.66511179143976
42
-0.41421356237309509
0
LWPOLYLINE
5
215
100
AcDbEntity
8
0
100
AcDbPolyline
90
8
70
1
43
0.0
10
55.880572729553421
20
-113.41511179143976
10
48.580572729553417
20
-113.41511179143976
42
-0.41421356237309509
10
46.830572729553417
20
-111.66511179143976
10
46.830572729553417
20
-104.36511179143976
42
-0.41421356237309509
10
48.580572729553417
20
-102.61511179143974
10
55.880572729553421
20
-102.61511179143977
42
-0.41421356237309509
10
57.630572729553421
20
-104.36511179143976
10
57.630572729553421
20
-111.66511179143976
42
-0.41421356237309509
0
LWPOLYLINE
5
216
100
AcDbEntity
8
0
100
AcDbPolyline
90
8
70
1
43
0.0
10
70.880572729553421
20
-113.41511179143976
10
63.580572729553417
20
-113.41511179143976
42
-0.41421356237309509
10
61.830572729553417
20
-111.66511179143976
10
61.830572729553417
20
-104.36511179143976
42
-0.41421356237309509
10
63.580572729553417
20
-102.61511179143974
10
70.880572729553421
20
-102.61511179143977
42
-0.41421356237309509
10
72.630572729553421
20
-104.36511179143976
10
72.630572729553421
20
-111.66511179143976
42
-0.41421356237309509
0
LWPOLYLINE
5
217
100
AcDbEntity
8
0
100
AcDbPolyline
90
8
70
1
43
0.0
10
85.880572729553421
20
-113.41511179143976
10
78.58057272955341
20
-113.41511179143976
42
-0.41421356237309509
10
76.83057272955341
20
-111.66511179143976
10
76.83057272955341
20
-104.36511179143976
42
-0.41421356237309509
10
78.580572729553424
20
-102.61511179143974
10
85.880572729553421
20
-102.61511179143977
42
-0.41421356237309509
10
87.630572729553421
20
-104.36511179143976
10
87.630572729553435
20
-111.66511179143976
42
-0.41421356237309509
0
LWPOLYLINE
5
218
100
AcDbEntity
8
0
100
AcDbPolyline
90
8
70
1
43
0.0
10
100.88057272955342
20
-113.41511179143976
10
93.580572729553424
20
-113.41511179143976
42
-0.41421356237309509
10
91.83057272955341
20
-111.66511179143976
10
91.83057272955341
20
-104.36511179143976
42
-0.41421356237309509
10
93.580572729553424
20
-102.61511179143974
10
100.88057272955342
20
-102.61511179143977
42
-0.41421356237309509
10
102.63057272955342
20
-104.36511179143976
10
102.63057272955344
20
-111.66511179143976
42
-0.41421356237309509
0
LWPOLYLINE
5
219
100
AcDbEntity
8
0
100
AcDbPolyline
90
8
70
1
43
0.0
10
115.88057272955342
20
-113.41511179143976
10
108.58057272955342
20
-113.41511179143976
42
-0.41421356237309509
10
106.83057272955341
20
-111.66511179143976
10
106.83057272955341
20
-104.36511179143976
42
-0.41421356237309509
10
108.58057272955342
20
-102.61511179143974
10
115.88057272955342
20
-102.61511179143977
42
-0.41421356237309509
10
117.63057272955342
20
-104.36511179143976
10
117.63057272955344
20
-111.66511179143976
42
-0.41421356237309509
0
LWPOLYLINE
5
220
100
AcDbEntity
8
0
100
AcDbPolyline
90
8
70
1
43
0.0
10
130.88057272955342
20
-113.41511179143976
10
123.58057272955342
20
-113.41511179143976
42
-0.41421356237309509
10
121.83057272955341
20
-111.66511179143976
10
121.83057272955341
20
-104.36511179143976
42
-0.41421356237309509
10
123.58057272955342
20
-102.61511179143974
10
130.88057272955342
20
-102.61511179143977
42
-0.41421356237309509
10
132.63057272955342
20
-104.36511179143976
10
132.63057272955342
20
-111.66511179143976
42
-0.41421356237309509
0
LWPOLYLINE
5
221
100
AcDbEntity
8
0
100
AcDbPolyline
90
8
70
1
43
0.0
10
145.88057272955342
20
-113.41511179143976
10
138.58057272955341
20
-113.41511179143976
42
-0.41421356237309509
10
136.83057272955341
20
-111.66511179143976
10
136.83057272955341
20
-104.36511179143976
42
-0.41421356237309509
10
138.58057272955341
20
-102.61511179143974
10
145.88057272955342
20
-102.61511179143977
42
-0.41421356237309509
10
147.63057272955342
20
-104.36511179143976
10
147.63057272955342
20
-111.66511179143976
42
-0.41421356237309509
0
LWPOLYLINE
5
222
100
AcDbEntity
8
0
100
AcDbPolyline
90
8
70
1
43
0.0
10
160.88057272955342
20
-113.41511179143976
10
153.58057272955341
20
-113.41511179143976
42
-0.41421356237309509
10
151.83057272955341
20
-111.66511179143976
10
151.83057272955341
20
-104.36511179143976
42
-0.41421356237309509
10
153.58057272955341
20
-102.61511179143974
10
160.88057272955342
20
-102.61511179143977
42
-0.41421356237309509
10
162.63057272955342
20
-104.36511179143976
10
162.63057272955342
20
-111.66511179143976
42
-0.41421356237309509
0
LWPOLYLINE
5
223
100
AcDbEntity
8
0
100
AcDbPolyline
90
8
70
1
43
0.0
10
175.88057272955342
20
-113.41511179143976
10
168.58057272955341
20
-113.41511179143976
42
-0.41421356237309509
10
166.83057272955341
20
-111.66511179143976
10
166.83057272955341
20
-104.36511179143976
42
-0.41421356237309509
10
168.58057272955341
20
-102.61511179143974
10
175.88057272955342
20
-102.61511179143977
42
-0.41421356237309509
10
177.63057272955342
20
-104.36511179143976
10
177.63057272955342
20
-111.66511179143976
42
-0.41421356237309509
0
LWPOLYLINE
5
224
100
AcDbEntity
8
0
100
AcDbPolyline
90
8
70
1
43
0.0
10
190.88057272955342
20
-113.41511179143976
10
183.58057272955341
20
-113.41511179143976
42
-0.41421356237309509
10
181.83057272955341
20
-111.66511179143976
10
181.83057272955341
20
-104.36511179143976
42
-0.41421356237309509
10
183.58057272955341
20
-102.61511179143974
10
190.88057272955342
20
-102.61511179143977
42
-0.41421356237309509
10
192.63057272955342
20
-104.36511179143976
10
192.63057272955342
20
-111.66511179143976
42
-0.41421356237309509
0
LWPOLYLINE
5
225
100
AcDbEntity
8
0
100
AcDbPolyline
90
8
70
1
43
0.0
10
205.88057272955342
20
-113.41511179143976
10
198.58057272955341
20
-113.41511179143976
42
-0.41421356237309509
10
196.83057272955341
20
-111.66511179143976
10
196.83057272955341
20
-104.36511179143976
42
-0.41421356237309509
10
198.58057272955341
20
-102.61511179143974
10
205.88057272955342
20
-102.61511179143977
42
-0.41421356237309509
10
207.63057272955342
20
-104.36511179143976
10
207.63057272955342
20
-111.66511179143976
42
-0.41421356237309509
0
LWPOLYLINE
5
226
100
AcDbEntity
8
0
100
AcDbPolyline
90
8
70
1
43
0.0
10
220.88057272955342
20
-113.41511179143976
10
213.58057272955341
20
-113.41511179143976
42
-0.41421356237309509
10
211.83057272955341
20
-111.66511179143976
10
211.83057272955341
20
-104.36511179143976
42
-0.41421356237309509
10
213.58057272955341
20
-102.61511179143974
10
220.88057272955342
20
-102.61511179143977
42
-0.41421356237309509
10
222.63057272955342
20
-104.36511179143976
10
222.63057272955342
20
-111.66511179143976
42
-0.41421356237309509
0
LWPOLYLINE
5
227
100
AcDbEntity
8
0
100
AcDbPolyline
90
8
70
1
43
0.0
10
25.880572729553421
20
-128.41511179143976
10
18.580572729553417
20
-128.41511179143976
42
-0.41421356237309509
10
16.830572729553417
20
-126.66511179143976
10
16.830572729553413
20
-119.36511179143976
42
-0.41421356237309509
10
18.580572729553417
20
-117.61511179143974
10
25.880572729553421
20
-117.61511179143977
42
-0.41421356237309509
10
27.630572729553418
20
-119.36511179143976
10
27.630572729553418
20
-126.66511179143976
42
-0.41421356237309509
0
LWPOLYLINE
5
228
100
AcDbEntity
8
0
100
AcDbPolyline
90
8
70
1
43
0.0
10
40.880572729553421
20
-128.41511179143976
10
33.580572729553417
20
-128.41511179143976
42
-0.41421356237309509
10
31.830572729553417
20
-126.66511179143976
10
31.830572729553417
20
-119.36511179143976
42
-0.41421356237309509
10
33.580572729553417
20
-117.61511179143974
10
40.880572729553421
20
-117.61511179143977
42
-0.41421356237309509
10
42.630572729553421
20
-119.36511179143976
10
42.630572729553421
20
-126.66511179143976
42
-0.41421356237309509
0
LWPOLYLINE
5
229
100
AcDbEntity
8
0
100
AcDbPolyline
90
8
70
1
43
0.0
10
55.880572729553421
20
-128.41511179143976
10
48.580572729553417
20
-128.41511179143976
42
-0.41421356237309509
10
46.830572729553417
20
-126.66511179143976
10
46.830572729553417
20
-119.36511179143976
42
-0.41421356237309509
10
48.580572729553417
20
-117.61511179143974
10
55.880572729553421
20
-117.61511179143977
42
-0.41421356237309509
10
57.630572729553421
20
-119.36511179143976
10
57.630572729553421
20
-126.66511179143976
42
-0.41421356237309509
0
LWPOLYLINE
5
230
100
AcDbEntity
8
0
100
AcDbPolyline
90
8
70
1
43
0.0
10
70.880572729553421
20
-128.41511179143976
10
63.580572729553417
20
-128.41511179143976
42
-0.41421356237309509
10
61.830572729553417
20
-126.66511179143976
10
61.830572729553417
20
-119.36511179143976
42
-0.41421356237309509
10
63.580572729553417
20
-117.61511179143974
10
70.880572729553421
20
-117.61511179143977
42
-0.41421356237309509
10
72.630572729553421
20
-119.36511179143976
10
72.630572729553421
20
-126.66511179143976
42
-0.41421356237309509
0
LWPOLYLINE
5
231
100
AcDbEntity
8
0
100
AcDbPolyline
90
8
70
1
43
0.0
10
85.880572729553421
20
-128.41511179143976
10
78.58057272955341
20
-128.41511179143976
42
-0.41421356237309509
10
76.83057272955341
20
-126.66511179143976
10
76.83057272955341
20
-119.36511179143976
42
-0.41421356237309509
10
78.580572729553424
20
-117.61511179143974
10
85.880572729553421
20
-117.61511179143977
42
-0.41421356237309509
10
87.630572729553421
20
-119.36511179143976
10
87.630572729553435
20
-126.66511179143976
42
-0.41421356237309509
0
LWPOLYLINE
5
232
100
AcDbEntity
8
0
100
AcDbPolyline
90
8
70
1
43
0.0
10
100.88057272955342
20
-128.41511179143976
10
93.580572729553424
20
-128.41511179143976
42
-0.41421356237309509
10
91.83057272955341
20
-126.66511179143976
10
91.83057272955341
20
-119.36511179143976
42
-0.41421356237309509
10
93.580572729553424
20
-117.61511179143974
10
100.88057272955342
20
-117.61511179143977
42
-0.41421356237309509
10
102.63057272955342
20
-119.36511179143976
10
102.63057272955344
20
-126.66511179143976
42
-0.41421356237309509
0
LWPOLYLINE
5
233
100
AcDbEntity
8
0
100
AcDbPolyline
90
8
70
1
43
0.0
10
115.88057272955342
20
-128.41511179143976
10
108.58057272955342
20
-128.41511179143976
42
-0.41421356237309509
10
106.83057272955341
20
-126.66511179143976
10
106.83057272955341
20
-119.36511179143976
42
-0.41421356237309509
10
108.58057272955342
20
-117.61511179143974
10
115.88057272955342
20
-117.61511179143977
42
-0.41421356237309509
10
117.63057272955342
20
-119.36511179143976
10
117.63057272955344
20
-126.66511179143976
42
-0.41421356237309509
0
LWPOLYLINE
5
234
100
AcDbEntity
8
0
100
AcDbPolyline
90
8
70
1
43
0.0
10
130.88057272955342
20
-128.41511179143976
10
123.58057272955342
20
-128.41511179143976
42
-0.41421356237309509
10
121.83057272955341
20
-126.66511179143976
10
121.83057272955341
20
-119.36511179143976
42
-0.41421356237309509
10
123.58057272955342
20
-117.61511179143974
10
130.88057272955342
20
-117.61511179143977
42
-0.41421356237309509
10
132.63057272955342
20
-119.36511179143976
10
132.63057272955342
20
-126.66511179143976
42
-0.41421356237309509
0
LWPOLYLINE
5
235
100
AcDbEntity
8
0
100
AcDbPolyline
90
8
70
1
43
0.0
10
145.88057272955342
20
-128.41511179143976
10
138.58057272955341
20
-128.41511179143976
42
-0.41421356237309509
10
136.83057272955341
20
-126.66511179143976
10
136.83057272955341
20
-119.36511179143976
42
-0.41421356237309509
10
138.58057272955341
20
-117.61511179143974
10
145.88057272955342
20
-117.61511179143977
42
-0.41421356237309509
10
147.63057272955342
20
-119.36511179143976
10
147.63057272955342
20
-126.66511179143976
42
-0.41421356237309509
0
LWPOLYLINE
5
236
100
AcDbEntity
8
0
100
AcDbPolyline
90
8
70
1
43
0.0
10
160.88057272955342
20
-128.41511179143976
10
153.58057272955341
20
-128.41511179143976
42
-0.41421356237309509
10
151.83057272955341
20
-126.66511179143976
10
151.83057272955341
20
-119.36511179143976
42
-0.41421356237309509
10
153.58057272955341
20
-117.61511179143974
10
160.88057272955342
20
-117.61511179143977
42
-0.41421356237309509
10
162.63057272955342
20
-119.36511179143976
10
162.63057272955342
20
-126.66511179143976
42
-0.41421356237309509
0
LWPOLYLINE
5
237
100
AcDbEntity
8
0
100
AcDbPolyline
90
8
70
1
43
0.0
10
175.88057272955342
20
-128.41511179143976
10
168.58057272955341
20
-128.41511179143976
42
-0.41421356237309509
10
166.83057272955341
20
-126.66511179143976
10
166.83057272955341
20
-119.36511179143976
42
-0.41421356237309509
10
168.58057272955341
20
-117.61511179143974
10
175.88057272955342
20
-117.61511179143977
42
-0.41421356237309509
10
177.63057272955342
20
-119.36511179143976
10
177.63057272955342
20
-126.66511179143976
42
-0.41421356237309509
0
LWPOLYLINE
5
238
100
AcDbEntity
8
0
100
AcDbPolyline
90
8
70
1
43
0.0
10
190.88057272955342
20
-128.41511179143976
10
183.58057272955341
20
-128.41511179143976
42
-0.41421356237309509
10
181.83057272955341
20
-126.66511179143976
10
181.83057272955341
20
-119.36511179143976
42
-0.41421356237309509
10
183.58057272955341
20
-117.61511179143974
10
190.88057272955342
20
-117.61511179143977
42
-0.41421356237309509
10
192.63057272955342
20
-119.36511179143976
10
192.63057272955342
20
-126.66511179143976
42
-0.41421356237309509
0
LWPOLYLINE
5
239
100
AcDbEntity
8
0
100
AcDbPolyline
90
8
70
1
43
0.0
10
205.88057272955342
20
-128.41511179143976
10
198.58057272955341
20
-128.41511179143976
42
-0.41421356237309509
10
196.83057272955341
20
-126.66511179143976
10
196.83057272955341
20
-119.36511179143976
42
-0.41421356237309509
10
198.58057272955341
20
-117.61511179143974
10
205.88057272955342
20
-117.61511179143977
42
-0.41421356237309509
10
207.63057272955342
20
-119.36511179143976
10
207.63057272955342
20
-126.66511179143976
42
-0.41421356237309509
0
LWPOLYLINE
5
240
100
AcDbEntity
8
0
100
AcDbPolyline
90
8
70
1
43
0.0
10
220.88057272955342
20
-128.41511179143976
10
213.58057272955341
20
-128.41511179143976
42
-0.41421356237309509
10
211.83057272955341
20
-126.66511179143976
10
211.83057272955341
20
-119.36511179143976
42
-0.41421356237309509
10
213.58057272955341
20
-117.61511179143974
10
220.88057272955342
20
-117.61511179143977
42
-0.41421356237309509
10
222.63057272955342
20
-119.36511179143976
10
222.63057272955342
20
-126.66511179143976
42
-0.41421356237309509
0
LWPOLYLINE
5
241
100
AcDbEntity
8
0
100
AcDbPolyline
90
8
70
1
43
0.0
10
25.880572729553421
20
-143.41511179143976
10
18.580572729553417
20
-143.41511179143976
42
-0.41421356237309509
10
16.830572729553417
20
-141.66511179143976
10
16.830572729553413
20
-134.36511179143974
42
-0.41421356237309509
10
18.580572729553417
20
-132.61511179143974
10
25.880572729553421
20
-132.61511179143977
42
-0.41421356237309509
10
27.630572729553418
20
-134.36511179143974
10
27.630572729553418
20
-141.66511179143976
42
-0.41421356237309509
0
LWPOLYLINE
5
242
100
AcDbEntity
8
0
100
AcDbPolyline
90
8
70
1
43
0.0
10
40.880572729553421
20
-143.41511179143976
10
33.580572729553417
20
-143.41511179143976
42
-0.41421356237309509
10
31.830572729553417
20
-141.66511179143976
10
31.830572729553417
20
-134.36511179143974
42
-0.41421356237309509
10
33.580572729553417
20
-132.61511179143974
10
40.880572729553421
20
-132.61511179143977
42
-0.41421356237309509
10
42.630572729553421
20
-134.36511179143974
10
42.630572729553421
20
-141.66511179143976
42
-0.41421356237309509
0
LWPOLYLINE
5
243
100
AcDbEntity
8
0
100
AcDbPolyline
90
8
70
1
43
0.0
10
55.880572729553421
20
-143.41511179143976
10
48.580572729553417
20
-143.41511179143976
42
-0.41421356237309509
10
46.830572729553417
20
-141.66511179143976
10
46.830572729553417
20
-134.36511179143974
42
-0.41421356237309509
10
48.580572729553417
20
-132.61511179143974
10
55.880572729553421
20
-132.61511179143977
42
-0.41421356237309509
10
57.630572729553421
20
-134.36511179143974
10
57.630572729553421
20
-141.66511179143976
42
-0.41421356237309509
0
LWPOLYLINE
5
244
100
AcDbEntity
8
0
100
AcDbPolyline
90
8
70
1
43
0.0
10
70.880572729553421
20
-143.41511179143976
10
63.580572729553417
20
-143.41511179143976
42
-0.41421356237309509
10
61.830572729553417
20
-141.66511179143976
10
61.830572729553417
20
-134.36511179143974
42
-0.41421356237309509
10
63.580572729553417
20
-132.61511179143974
10
70.880572729553421
20
-132.61511179143977
42
-0.41421356237309509
10
72.630572729553421
20
-134.36511179143974
10
72.630572729553421
20
-141.66511179143976
42
-0.41421356237309509
0
LWPOLYLINE
5
245
100
AcDbEntity
8
0
100
AcDbPolyline
90
8
70
1
43
0.0
10
85.880572729553421
20
-143.41511179143976
10
78.58057272955341
20
-143.41511179143976
42
-0.41421356237309509
10
76.83057272955341
20
-141.66511179143976
10
76.83057272955341
20
-134.36511179143974
42
-0.41421356237309509
10
78.580572729553424
20
-132.61511179143974
10
85.880572729553421
20
-132.61511179143977
42
-0.41421356237309509
10
87.630572729553421
20
-134.36511179143974
10
87.630572729553435
20
-141.66511179143976
42
-0.41421356237309509
0
LWPOLYLINE
5
246
100
AcDbEntity
8
0
100
AcDbPolyline
90
8
70
1
43
0.0
10
100.88057272955342
20
-143.41511179143976
10
93.580572729553424
20
-143.41511179143976
42
-0.41421356237309509
10
91.83057272955341
20
-141.66511179143976
10
91.83057272955341
20
-134.36511179143974
42
-0.41421356237309509
10
93.580572729553424
20
-132.61511179143974
10
100.88057272955342
20
-132.61511179143977
42
-0.41421356237309509
10
102.63057272955342
20
-134.36511179143974
10
102.63057272955344
20
-141.66511179143976
42
-0.41421356237309509
0
LWPOLYLINE
5
247
100
AcDbEntity
8
0
100
AcDbPolyline
90
8
70
1
43
0.0
10
115.88057272955342
20
-143.41511179143976
10
108.58057272955342
20
-143.41511179143976
42
-0.41421356237309509
10
106.83057272955341
20
-141.66511179143976
10
106.83057272955341
20
-134.36511179143974
42
-0.41421356237309509
10
108.58057272955342
20
-132.61511179143974
10
115.88057272955342
20
-132.61511179143977
42
-0.41421356237309509
10
117.63057272955342
20
-134.36511179143974
10
117.63057272955344
20
-141.66511179143976
42
-0.41421356237309509
0
LWPOLYLINE
5
248
100
AcDbEntity
8
0
100
AcDbPolyline
90
8
70
1
43
0.0
10
130.88057272955342
20
-143.41511179143976
10
123.58057272955342
20
-143.41511179143976
42
-0.41421356237309509
10
121.83057272955341
20
-141.66511179143976
10
121.83057272955341
20
-134.36511179143974
42
-0.41421356237309509
10
123.58057272955342
20
-132.61511179143974
10
130.88057272955342
20
-132.61511179143977
42
-0.41421356237309509
10
132.63057272955342
20
-134.36511179143974
10
132.63057272955342
20
-141.66511179143976
42
-0.41421356237309509
0
LWPOLYLINE
5
249
100
AcDbEntity
8
0
100
AcDbPolyline
90
8
70
1
43
0.0
10
145.88057272955342
20
-143.41511179143976
10
138.58057272955341
20
-143.41511179143976
42
-0.41421356237309509
10
136.83057272955341
20
-141.66511179143976
10
136.83057272955341
20
-134.36511179143974
42
-0.41421356237309509
10
138.58057272955341
20
-132.61511179143974
10
145.88057272955342
20
-132.61511179143977
42
-0.41421356237309509
10
147.63057272955342
20
-134.36511179143974
10
147.63057272955342
20
-141.66511179143976
42
-0.41421356237309509
0
LWPOLYLINE
5
250
100
AcDbEntity
8
0
100
AcDbPolyline
90
8
70
1
43
0.0
10
160.88057272955342
20
-143.41511179143976
10
153.58057272955341
20
-143.41511179143976
42
-0.41421356237309509
10
151.83057272955341
20
-141.66511179143976
10
151.83057272955341
20
-134.36511179143974
42
-0.41421356237309509
10
153.58057272955341
20
-132.61511179143974
10
160.88057272955342
20
-132.61511179143977
42
-0.41421356237309509
10
162.63057272955342
20
-134.36511179143974
10
162.63057272955342
20
-141.66511179143976
42
-0.41421356237309509
0
LWPOLYLINE
5
251
100
AcDbEntity
8
0
100
AcDbPolyline
90
8
70
1
43
0.0
10
175.88057272955342
20
-143.41511179143976
10
168.58057272955341
20
-143.41511179143976
42
-0.41421356237309509
10
166.83057272955341
20
-141.66511179143976
10
166.83057272955341
20
-134.36511179143974
42
-0.41421356237309509
10
168.58057272955341
20
-132.61511179143974
10
175.88057272955342
20
-132.61511179143977
42
-0.41421356237309509
10
177.63057272955342
20
-134.36511179143974
10
177.63057272955342
20
-141.66511179143976
42
-0.41421356237309509
0
LWPOLYLINE
5
252
100
AcDbEntity
8
0
100
AcDbPolyline
90
8
70
1
43
0.0
10
190.88057272955342
20
-143.41511179143976
10
183.58057272955341
20
-143.41511179143976
42
-0.41421356237309509
10
181.83057272955341
20
-141.66511179143976
10
181.83057272955341
20
-134.36511179143974
42
-0.41421356237309509
10
183.58057272955341
20
-132.61511179143974
10
190.88057272955342
20
-132.61511179143977
42
-0.41421356237309509
10
192.63057272955342
20
-134.36511179143974
10
192.63057272955342
20
-141.66511179143976
42
-0.41421356237309509
0
LWPOLYLINE
5
253
100
AcDbEntity
8
0
100
AcDbPolyline
90
8
70
1
43
0.0
10
205.88057272955342
20
-143.41511179143976
10
198.58057272955341
20
-143.41511179143976
42
-0.41421356237309509
10
196.83057272955341
20
-141.66511179143976
10
196.83057272955341
20
-134.36511179143974
42
-0.41421356237309509
10
198.58057272955341
20
-132.61511179143974
10
205.88057272955342
20
-132.61511179143977
42
-0.41421356237309509
10
207.63057272955342
20
-134.36511179143974
10
207.63057272955342
20
-141.66511179143976
42
-0.41421356237309509
0
LWPOLYLINE
5
254
100
AcDbEntity
8
0
100
AcDbPolyline
90
8
70
1
43
0.0
10
220.88057272955342
20
-143.41511179143976
10
213.58057272955341
20
-143.41511179143976
42
-0.41421356237309509
10
211.83057272955341
20
-141.66511179143976
10
211.83057272955341
20
-134.36511179143974
42
-0.41421356237309509
10
213.58057272955341
20
-132.61511179143974
10
220.88057272955342
20
-132.61511179143977
42
-0.41421356237309509
10
222.63057272955342
20
-134.36511179143974
10
222.63057272955342
20
-141.66511179143976
42
-0.41421356237309509
0
LWPOLYLINE
5
255
100
AcDbEntity
8
0
100
AcDbPolyline
90
8
70
1
43
0.0
10
25.880572729553421
20
-158.41511179143976
10
18.580572729553417
20
-158.41511179143976
42
-0.41421356237309509
10
16.830572729553417
20
-156.66511179143976
10
16.830572729553413
20
-149.36511179143974
42
-0.41421356237309509
10
18.580572729553417
20
-147.61511179143974
10
25.880572729553421
20
-147.61511179143977
42
-0.41421356237309509
10
27.630572729553418
20
-149.36511179143974
10
27.630572729553418
20
-156.66511179143976
42
-0.41421356237309509
0
LWPOLYLINE
5
256
100
AcDbEntity
8
0
100
AcDbPolyline
90
8
70
1
43
0.0
10
40.880572729553421
20
-158.41511179143976
10
33.580572729553417
20
-158.41511179143976
42
-0.41421356237309509
10
31.830572729553417
20
-156.66511179143976
10
31.830572729553417
20
-149.36511179143974
42
-0.41421356237309509
10
33.580572729553417
20
-147.61511179143974
10
40.880572729553421
20
-147.61511179143977
42
-0.41421356237309509
10
42.630572729553421
20
-149.36511179143974
10
42.630572729553421
20
-156.66511179143976
42
-0.41421356237309509
0
LWPOLYLINE
5
257
100
AcDbEntity
8
0
100
AcDbPolyline
90
8
70
1
43
0.0
10
55.880572729553421
20
-158.41511179143976
10
48.580572729553417
20
-158.41511179143976
42
-0.41421356237309509
10
46.830572729553417
20
-156.66511179143976
10
46.830572729553417
20
-149.36511179143974
42
-0.41421356237309509
10
48.580572729553417
20
-147.61511179143974
10
55.880572729553421
20
-147.61511179143977
42
-0.41421356237309509
10
57.630572729553421
20
-149.36511179143974
10
57.630572729553421
20
-156.66511179143976
42
-0.41421356237309509
0
LWPOLYLINE
5
258
100
AcDbEntity
8
0
100
AcDbPolyline
90
8
70
1
43
0.0
10
70.880572729553421
20
-158.41511179143976
10
63.580572729553417
20
-158.41511179143976
42
-0.41421356237309509
10
61.830572729553417
20
-156.66511179143976
10
61.830572729553417
20
-149.36511179143974
42
-0.41421356237309509
10
63.580572729553417
20
-147.61511179143974
10
70.880572729553421
20
-147.61511179143977
42
-0.41421356237309509
10
72.630572729553421
20
-149.36511179143974
10
72.630572729553421
20
-156.66511179143976
42
-0.41421356237309509
0
LWPOLYLINE
5
259
100
AcDbEntity
8
0
100
AcDbPolyline
90
8
70
1
43
0.0
10
85.880572729553421
20
-158.41511179143976
10
78.58057272955341
20
-158.41511179143976
42
-0.41421356237309509
10
76.83057272955341
20
-156.66511179143976
10
76.83057272955341
20
-149.36511179143974
42
-0.41421356237309509
10
78.580572729553424
20
-147.61511179143974
10
85.880572729553421
20
-147.61511179143977
42
-0.41421356237309509
10
87.630572729553421
20
-149.36511179143974
10
87.630572729553435
20
-156.66511179143976
42
-0.41421356237309509
0
LWPOLYLINE
5
260
100
AcDbEntity
8
0
100
AcDbPolyline
90
8
70
1
43
0.0
10
100.88057272955342
20
-158.41511179143976
10
93.580572729553424
20
-158.41511179143976
42
-0.41421356237309509
10
91.83057272955341
20
-156.66511179143976
10
91.83057272955341
20
-149.36511179143974
42
-0.41421356237309509
10
93.580572729553424
20
-147.61511179143974
10
100.88057272955342
20
-147.61511179143977
42
-0.41421356237309509
10
102.63057272955342
20
-149.36511179143974
10
102.63057272955344
20
-156.66511179143976
42
-0.41421356237309509
0
LWPOLYLINE
5
261
100
AcDbEntity
8
0
100
AcDbPolyline
90
8
70
1
43
0.0
10
115.88057272955342
20
-158.41511179143976
10
108.58057272955342
20
-158.41511179143976
42
-0.41421356237309509
10
106.83057272955341
20
-156.66511179143976
10
106.83057272955341
20
-149.36511179143974
42
-0.41421356237309509
10
108.58057272955342
20
-147.61511179143974
10
115.88057272955342
20
-147.61511179143977
42
-0.41421356237309509
10
117.63057272955342
20
-149.36511179143974
10
117.63057272955344
20
-156.66511179143976
42
-0.41421356237309509
0
LWPOLYLINE
5
262
100
AcDbEntity
8
0
100
AcDbPolyline
90
8
70
1
43
0.0
10
130.88057272955342
20
-158.41511179143976
10
123.58057272955342
20
-158.41511179143976
42
-0.41421356237309509
10
121.83057272955341
20
-156.66511179143976
10
121.83057272955341
20
-149.36511179143974
42
-0.41421356237309509
10
123.58057272955342
20
-147.61511179143974
10
130.88057272955342
20
-147.61511179143977
42
-0.41421356237309509
10
132.63057272955342
20
-149.36511179143974
10
132.63057272955342
20
-156.66511179143976
42
-0.41421356237309509
0
LWPOLYLINE
5
263
100
AcDbEntity
8
0
100
AcDbPolyline
90
8
70
1
43
0.0
10
145.88057272955342
20
-158.41511179143976
10
138.58057272955341
20
-158.41511179143976
42
-0.41421356237309509
10
136.83057272955341
20
-156.66511179143976
10
136.83057272955341
20
-149.36511179143974
42
-0.41421356237309509
10
138.58057272955341
20
-147.61511179143974
10
145.88057272955342
20
-147.61511179143977
42
-0.41421356237309509
10
147.63057272955342
20
-149.36511179143974
10
147.63057272955342
20
-156.66511179143976
42
-0.41421356237309509
0
LWPOLYLINE
5
264
100
AcDbEntity
8
0
100
AcDbPolyline
90
8
70
1
43
0.0
10
160.88057272955342
20
-158.41511179143976
10
153.58057272955341
20
-158.41511179143976
42
-0.41421356237309509
10
151.83057272955341
20
-156.66511179143976
10
151.83057272955341
20
-149.36511179143974
42
-0.41421356237309509
10
153.58057272955341
20
-147.61511179143974
10
160.88057272955342
20
-147.61511179143977
42
-0.41421356237309509
10
162.63057272955342
20
-149.36511179143974
10
162.63057272955342
20
-156.66511179143976
42
-0.41421356237309509
0
LWPOLYLINE
5
265
100
AcDbEntity
8
0
100
AcDbPolyline
90
8
70
1
43
0.0
10
175.88057272955342
20
-158.41511179143976
10
168.58057272955341
20
-158.41511179143976
42
-0.41421356237309509
10
166.83057272955341
20
-156.66511179143976
10
166.83057272955341
20
-149.36511179143974
42
-0.41421356237309509
10
168.58057272955341
20
-147.61511179143974
10
175.88057272955342
20
-147.61511179143977
42
-0.41421356237309509
10
177.63057272955342
20
-149.36511179143974
10
177.63057272955342
20
-156.66511179143976
42
-0.41421356237309509
0
LWPOLYLINE
5
266
100
AcDbEntity
8
0
100
AcDbPolyline
90
8
70
1
43
0.0
10
190.88057272955342
20
-158.41511179143976
10
183.58057272955341
20
-158.41511179143976
42
-0.41421356237309509
10
181.83057272955341
20
-156.66511179143976
10
181.83057272955341
20
-149.36511179143974
42
-0.41421356237309509
10
183.58057272955341
20
-147.61511179143974
10
190.88057272955342
20
-147.61511179143977
42
-0.41421356237309509
10
192.63057272955342
20
-149.36511179143974
10
192.63057272955342
20
-156.66511179143976
42
-0.41421356237309509
0
LWPOLYLINE
5
267
100
AcDbEntity
8
0
100
AcDbPolyline
90
8
70
1
43
0.0
10
205.88057272955342
20
-158.41511179143976
10
198.58057272955341
20
-158.41511179143976
42
-0.41421356237309509
10
196.83057272955341
20
-156.66511179143976
10
196.83057272955341
20
-149.36511179143974
42
-0.41421356237309509
10
198.58057272955341
20
-147.61511179143974
10
205.88057272955342
20
-147.61511179143977
42
-0.41421356237309509
10
207.63057272955342
20
-149.36511179143974
10
207.63057272955342
20
-156.66511179143976
42
-0.41421356237309509
0
LWPOLYLINE
5
268
100
AcDbEntity
8
0
100
AcDbPolyline
90
8
70
1
43
0.0
10
220.88057272955342
20
-158.41511179143976
10
213.58057272955341
20
-158.41511179143976
42
-0.41421356237309509
10
211.83057272955341
20
-156.66511179143976
10
211.83057272955341
20
-149.36511179143974
42
-0.41421356237309509
10
213.58057272955341
20
-147.61511179143974
10
220.88057272955342
20
-147.61511179143977
42
-0.41421356237309509
10
222.63057272955342
20
-149.36511179143974
10
222.63057272955342
20
-156.66511179143976
42
-0.41421356237309509
0
LWPOLYLINE
5
269
100
AcDbEntity
8
0
100
AcDbPolyline
90
8
70
1
43
0.0
10
25.880572729553421
20
-173.41511179143976
10
18.580572729553417
20
-173.41511179143976
42
-0.41421356237309509
10
16.830572729553417
20
-171.66511179143976
10
16.830572729553413
20
-164.36511179143974
42
-0.41421356237309509
10
18.580572729553417
20
-162.61511179143977
10
25.880572729553421
20
-162.61511179143974
42
-0.41421356237309509
10
27.630572729553418
20
-164.36511179143974
10
27.630572729553418
20
-171.66511179143976
42
-0.41421356237309509
0
LWPOLYLINE
5
270
100
AcDbEntity
8
0
100
AcDbPolyline
90
8
70
1
43
0.0
10
40.880572729553421
20
-173.41511179143976
10
33.580572729553417
20
-173.41511179143976
42
-0.41421356237309509
10
31.830572729553417
20
-171.66511179143976
10
31.830572729553417
20
-164.36511179143974
42
-0.41421356237309509
10
33.580572729553417
20
-162.61511179143977
10
40.880572729553421
20
-162.61511179143974
42
-0.41421356237309509
10
42.630572729553421
20
-164.36511179143974
10
42.630572729553421
20
-171.66511179143976
42
-0.41421356237309509
0
LWPOLYLINE
5
271
100
AcDbEntity
8
0
100
AcDbPolyline
90
8
70
1
43
0.0
10
55.880572729553421
20
-173.41511179143976
10
48.580572729553417
20
-173.41511179143976
42
-0.41421356237309509
10
46.830572729553417
20
-171.66511179143976
10
46.830572729553417
20
-164.36511179143974
42
-0.41421356237309509
10
48.580572729553417
20
-162.61511179143977
10
55.880572729553421
20
-162.61511179143974
42
-0.41421356237309509
10
57.630572729553421
20
-164.36511179143974
10
57.630572729553421
20
-171.66511179143976
42
-0.41421356237309509
0
LWPOLYLINE
5
272
100
AcDbEntity
8
0
100
AcDbPolyline
90
8
70
1
43
0.0
10
70.880572729553421
20
-173.41511179143976
10
63.580572729553417
20
-173.41511179143976
42
-0.41421356237309509
10
61.830572729553417
20
-171.66511179143976
10
61.830572729553417
20
-164.36511179143974
42
-0.41421356237309509
10
63.580572729553417
20
-162.61511179143977
10
70.880572729553421
20
-162.61511179143974
42
-0.41421356237309509
10
72.630572729553421
20
-164.36511179143974
10
72.630572729553421
20
-171.66511179143976
42
-0.41421356237309509
0
LWPOLYLINE
5
273
100
AcDbEntity
8
0
100
AcDbPolyline
90
8
70
1
43
0.0
10
85.880572729553421
20
-173.41511179143976
10
78.58057272955341
20
-173.41511179143976
42
-0.41421356237309509
10
76.83057272955341
20
-171.66511179143976
10
76.83057272955341
20
-164.36511179143974
42
-0.41421356237309509
10
78.580572729553424
20
-162.61511179143977
10
85.880572729553421
20
-162.61511179143974
42
-0.41421356237309509
10
87.630572729553421
20
-164.36511179143974
10
87.630572729553435
20
-171.66511179143976
42
-0.41421356237309509
0
LWPOLYLINE
5
274
100
AcDbEntity
8
0
100
AcDbPolyline
90
8
70
1
43
0.0
10
100.88057272955342
20
-173.41511179143976
10
93.580572729553424
20
-173.41511179143976
42
-0.41421356237309509
10
91.83057272955341
20
-171.66511179143976
10
91.83057272955341
20
-164.36511179143974
42
-0.41421356237309509
10
93.580572729553424
20
-162.61511179143977
10
100.88057272955342
20
-162.61511179143974
42
-0.41421356237309509
10
102.63057272955342
20
-164.36511179143974
10
102.63057272955344
20
-171.66511179143976
42
-0.41421356237309509
0
LWPOLYLINE
5
275
100
AcDbEntity
8
0
100
AcDbPolyline
90
8
70
1
43
0.0
10
115.88057272955342
20
-173.41511179143976
10
108.58057272955342
20
-173.41511179143976
42
-0.41421356237309509
10
106.83057272955341
20
-171.66511179143976
10
106.83057272955341
20
-164.36511179143974
42
-0.41421356237309509
10
108.58057272955342
20
-162.61511179143977
10
115.88057272955342
20
-162.61511179143974
42
-0.41421356237309509
10
117.63057272955342
20
-164.36511179143974
10
117.63057272955344
20
-171.66511179143976
42
-0.41421356237309509
0
LWPOLYLINE
5
276
100
AcDbEntity
8
0
100
AcDbPolyline
90
8
70
1
43
0.0
10
130.88057272955342
20
-173.41511179143976
10
123.58057272955342
20
-173.41511179143976
42
-0.41421356237309509
10
121.83057272955341
20
-171.66511179143976
10
121.83057272955341
20
-164.36511179143974
42
-0.41421356237309509
10
123.58057272955342
20
-162.61511179143977
10
130.88057272955342
20
-162.61511179143974
42
-0.41421356237309509
10
132.63057272955342
20
-164.36511179143974
10
132.63057272955342
20
-171.66511179143976
42
-0.41421356237309509
0
LWPOLYLINE
5
277
100
AcDbEntity
8
0
100
AcDbPolyline
90
8
70
1
43
0.0
10
145.88057272955342
20
-173.41511179143976
10
138.58057272955341
20
-173.41511179143976
42
-0.41421356237309509
10
136.83057272955341
20
-171.66511179143976
10
136.83057272955341
20
-164.36511179143974
42
-0.41421356237309509
10
138.58057272955341
20
-162.61511179143977
10
145.88057272955342
20
-162.61511179143974
42
-0.41421356237309509
10
147.63057272955342
20
-164.36511179143974
10
147.63057272955342
20
-171.66511179143976
42
-0.41421356237309509
0
LWPOLYLINE
5
278
100
AcDbEntity
8
0
100
AcDbPolyline
90
8
70
1
43
0.0
10
160.88057272955342
20
-173.41511179143976
10
153.58057272955341
20
-173.41511179143976
42
-0.41421356237309509
10
151.83057272955341
20
-171.66511179143976
10
151.83057272955341
20
-164.36511179143974
42
-0.41421356237309509
10
153.58057272955341
20
-162.61511179143977
10
160.88057272955342
20
-162.61511179143974
42
-0.41421356237309509
10
162.63057272955342
20
-164.36511179143974
10
162.63057272955342
20
-171.66511179143976
42
-0.41421356237309509
0
LWPOLYLINE
5
279
100
AcDbEntity
8
0
100
AcDbPolyline
90
8
70
1
43
0.0
10
175.88057272955342
20
-173.41511179143976
10
168.58057272955341
20
-173.41511179143976
42
-0.41421356237309509
10
166.83057272955341
20
-171.66511179143976
10
166.83057272955341
20
-164.36511179143974
42
-0.41421356237309509
10
168.58057272955341
20
-162.61511179143977
10
175.88057272955342
20
-162.61511179143974
42
-0.41421356237309509
10
177.63057272955342
20
-164.36511179143974
10
177.63057272955342
20
-171.66511179143976
42
-0.41421356237309509
0
LWPOLYLINE
5
280
100
AcDbEntity
8
0
100
AcDbPolyline
90
8
70
1
43
0.0
10
190.88057272955342
20
-173.41511179143976
10
183.58057272955341
20
-173.41511179143976
42
-0.41421356237309509
10
181.83057272955341
20
-171.66511179143976
10
181.83057272955341
20
-164.36511179143974
42
-0.41421356237309509
10
183.58057272955341
20
-162.61511179143977
10
190.88057272955342
20
-162.61511179143974
42
-0.41421356237309509
10
192.63057272955342
20
-164.36511179143974
10
192.63057272955342
20
-171.66511179143976
42
-0.41421356237309509
0
LWPOLYLINE
5
281
100
AcDbEntity
8
0
100
AcDbPolyline
90
8
70
1
43
0.0
10
205.88057272955342
20
-173.41511179143976
10
198.58057272955341
20
-173.41511179143976
42
-0.41421356237309509
10
196.83057272955341
20
-171.66511179143976
10
196.83057272955341
20
-164.36511179143974
42
-0.41421356237309509
10
198.58057272955341
20
-162.61511179143977
10
205.88057272955342
20
-162.61511179143974
42
-0.41421356237309509
10
207.63057272955342
20
-164.36511179143974
10
207.63057272955342
20
-171.66511179143976
42
-0.41421356237309509
0
LWPOLYLINE
5
282
100
AcDbEntity
8
0
100
AcDbPolyline
90
8
70
1
43
0.0
10
220.88057272955342
20
-173.41511179143976
10
213.58057272955341
20
-173.41511179143976
42
-0.41421356237309509
10
211.83057272955341
20
-171.66511179143976
10
211.83057272955341
20
-164.36511179143974
42
-0.41421356237309509
10
213.58057272955341
20
-162.61511179143977
10
220.88057272955342
20
-162.61511179143974
42
-0.41421356237309509
10
222.63057272955342
20
-164.36511179143974
10
222.63057272955342
20
-171.66511179143976
42
-0.41421356237309509
0
LWPOLYLINE
5
283
100
AcDbEntity
8
0
100
AcDbPolyline
90
8
70
1
43
0.0
10
25.880572729553421
20
-188.41511179143976
10
18.580572729553417
20
-188.41511179143976
42
-0.41421356237309509
10
16.830572729553417
20
-186.66511179143976
10
16.830572729553413
20
-179.36511179143974
42
-0.41421356237309509
10
18.580572729553417
20
-177.61511179143977
10
25.880572729553421
20
-177.61511179143974
42
-0.41421356237309509
10
27.630572729553418
20
-179.36511179143974
10
27.630572729553418
20
-186.66511179143976
42
-0.41421356237309509
0
LWPOLYLINE
5
284
100
AcDbEntity
8
0
100
AcDbPolyline
90
8
70
1
43
0.0
10
40.880572729553421
20
-188.41511179143976
10
33.580572729553417
20
-188.41511179143976
42
-0.41421356237309509
10
31.830572729553417
20
-186.66511179143976
10
31.830572729553417
20
-179.36511179143974
42
-0.41421356237309509
10
33.580572729553417
20
-177.61511179143977
10
40.880572729553421
20
-177.61511179143974
42
-0.41421356237309509
10
42.630572729553421
20
-179.36511179143974
10
42.630572729553421
20
-186.66511179143976
42
-0.41421356237309509
0
LWPOLYLINE
5
285
100
AcDbEntity
8
0
100
AcDbPolyline
90
8
70
1
43
0.0
10
55.880572729553421
20
-188.41511179143976
10
48.580572729553417
20
-188.41511179143976
42
-0.41421356237309509
10
46.830572729553417
20
-186.66511179143976
10
46.830572729553417
20
-179.36511179143974
42
-0.41421356237309509
10
48.580572729553417
20
-177.61511179143977
10
55.880572729553421
20
-177.61511179143974
42
-0.41421356237309509
10
57.630572729553421
20
-179.36511179143974
10
57.630572729553421
20
-186.66511179143976
42
-0.41421356237309509
0
LWPOLYLINE
5
286
100
AcDbEntity
8
0
100
AcDbPolyline
90
8
70
1
43
0.0
10
70.880572729553421
20
-188.41511179143976
10
63.580572729553417
20
-188.41511179143976
42
-0.41421356237309509
10
61.830572729553417
20
-186.66511179143976
10
61.830572729553417
20
-179.36511179143974
42
-0.41421356237309509
10
63.580572729553417
20
-177.61511179143977
10
70.880572729553421
20
-177.61511179143974
42
-0.41421356237309509
10
72.630572729553421
20
-179.36511179143974
10
72.630572729553421
20
-186.66511179143976
42
-0.41421356237309509
0
LWPOLYLINE
5
287
100
AcDbEntity
8
0
100
AcDbPolyline
90
8
70
1
43
0.0
10
85.880572729553421
20
-188.41511179143976
10
78.58057272955341
20
-188.41511179143976
42
-0.41421356237309509
10
76.83057272955341
20
-186.66511179143976
10
76.83057272955341
20
-179.36511179143974
42
-0.41421356237309509
10
78.580572729553424
20
-177.61511179143977
10
85.880572729553421
20
-177.61511179143974
42
-0.41421356237309509
10
87.630572729553421
20
-179.36511179143974
10
87.630572729553435
20
-186.66511179143976
42
-0.41421356237309509
0
LWPOLYLINE
5
288
100
AcDbEntity
8
0
100
AcDbPolyline
90
8
70
1
43
0.0
10
100.88057272955342
20
-188.41511179143976
10
93.580572729553424
20
-188.41511179143976
42
-0.41421356237309509
10
91.83057272955341
20
-186.66511179143976
10
91.83057272955341
20
-179.36511179143974
42
-0.41421356237309509
10
93.580572729553424
20
-177.61511179143977
10
100.88057272955342
20
-177.61511179143974
42
-0.41421356237309509
10
102.63057272955342
20
-179.36511179143974
10
102.63057272955344
20
-186.66511179143976
42
-0.41421356237309509
0
LWPOLYLINE
5
289
100
AcDbEntity
8
0
100
AcDbPolyline
90
8
70
1
43
0.0
10
115.88057272955342
20
-188.41511179143976
10
108.58057272955342
20
-188.41511179143976
42
-0.41421356237309509
10
106.83057272955341
20
-186.66511179143976
10
106.83057272955341
20
-179.36511179143974
42
-0.41421356237309509
10
108.58057272955342
20
-177.61511179143977
10
115.88057272955342
20
-177.61511179143974
42
-0.41421356237309509
10
117.63057272955342
20
-179.36511179143974
10
117.63057272955344
20
-186.66511179143976
42
-0.41421356237309509
0
LWPOLYLINE
5
290
100
AcDbEntity
8
0
100
AcDbPolyline
90
8
70
1
43
0.0
10
130.88057272955342
20
-188.41511179143976
10
123.58057272955342
20
-188.41511179143976
42
-0.41421356237309509
10
121.83057272955341
20
-186.66511179143976
10
121.83057272955341
20
-179.36511179143974
42
-0.41421356237309509
10
123.58057272955342
20
-177.61511179143977
10
130.88057272955342
20
-177.61511179143974
42
-0.41421356237309509
10
132.63057272955342
20
-179.36511179143974
10
132.63057272955342
20
-186.66511179143976
42
-0.41421356237309509
0
LWPOLYLINE
5
291
100
AcDbEntity
8
0
100
AcDbPolyline
90
8
70
1
43
0.0
10
145.88057272955342
20
-188.41511179143976
10
138.58057272955341
20
-188.41511179143976
42
-0.41421356237309509
10
136.83057272955341
20
-186.66511179143976
10
136.83057272955341
20
-179.36511179143974
42
-0.41421356237309509
10
138.58057272955341
20
-177.61511179143977
10
145.88057272955342
20
-177.61511179143974
42
-0.41421356237309509
10
147.63057272955342
20
-179.36511179143974
10
147.63057272955342
20
-186.66511179143976
42
-0.41421356237309509
0
LWPOLYLINE
5
292
100
AcDbEntity
8
0
100
AcDbPolyline
90
8
70
1
43
0.0
10
160.88057272955342
20
-188.41511179143976
10
153.58057272955341
20
-188.41511179143976
42
-0.41421356237309509
10
151.83057272955341
20
-186.66511179143976
10
151.83057272955341
20
-179.36511179143974
42
-0.41421356237309509
10
153.58057272955341
20
-177.61511179143977
10
160.88057272955342
20
-177.61511179143974
42
-0.41421356237309509
10
162.63057272955342
20
-179.36511179143974
10
162.63057272955342
20
-186.66511179143976
42
-0.41421356237309509
0
LWPOLYLINE
5
293
100
AcDbEntity
8
0
100
AcDbPolyline
90
8
70
1
43
0.0
10
175.88057272955342
20
-188.41511179143976
10
168.58057272955341
20
-188.41511179143976
42
-0.41421356237309509
10
166.83057272955341
20
-186.66511179143976
10
166.83057272955341
20
-179.36511179143974
42
-0.41421356237309509
10
168.58057272955341
20
-177.61511179143977
10
175.88057272955342
20
-177.61511179143974
42
-0.41421356237309509
10
177.63057272955342
20
-179.36511179143974
10
177.63057272955342
20
-186.66511179143976
42
-0.41421356237309509
0
LWPOLYLINE
5
294
100
AcDbEntity
8
0
100
AcDbPolyline
90
8
70
1
43
0.0
10
190.88057272955342
20
-188.41511179143976
10
183.58057272955341
20
-188.41511179143976
42
-0.41421356237309509
10
181.83057272955341
20
-186.66511179143976
10
181.83057272955341
20
-179.36511179143974
42
-0.41421356237309509
10
183.58057272955341
20
-177.61511179143977
10
190.88057272955342
20
-177.61511179143974
42
-0.41421356237309509
10
192.63057272955342
20
-179.36511179143974
10
192.63057272955342
20
-186.66511179143976
42
-0.41421356237309509
0
LWPOLYLINE
5
295
100
AcDbEntity
8
0
100
AcDbPolyline
90
8
70
1
43
0.0
10
205.88057272955342
20
-188.41511179143976
10
198.58057272955341
20
-188.41511179143976
42
-0.41421356237309509
10
196.83057272955341
20
-186.66511179143976
10
196.83057272955341
20
-179.36511179143974
42
-0.41421356237309509
10
198.58057272955341
20
-177.61511179143977
10
205.88057272955342
20
-177.61511179143974
42
-0.41421356237309509
10
207.63057272955342
20
-179.36511179143974
10
207.63057272955342
20
-186.66511179143976
42
-0.41421356237309509
0
LWPOLYLINE
5
296
100
AcDbEntity
8
0
100
AcDbPolyline
90
8
70
1
43
0.0
10
220.88057272955342
20
-188.41511179143976
10
213.58057272955341
20
-188.41511179143976
42
-0.41421356237309509
10
211.83057272955341
20
-186.66511179143976
10
211.83057272955341
20
-179.36511179143974
42
-0.41421356237309509
10
213.58057272955341
20
-177.61511179143977
10
220.88057272955342
20
-177.61511179143974
42
-0.41421356237309509
10
222.63057272955342
20
-179.36511179143974
10
222.63057272955342
20
-186.66511179143976
42
-0.41421356237309509
0
LWPOLYLINE
5
297
100
AcDbEntity
8
0
100
AcDbPolyline
90
8
70
1
43
0.0
10
25.880572729553421
20
-203.41511179143976
10
18.580572729553417
20
-203.41511179143976
42
-0.41421356237309509
10
16.830572729553417
20
-201.66511179143976
10
16.830572729553413
20
-194.36511179143974
42
-0.41421356237309509
10
18.580572729553417
20
-192.61511179143977
10
25.880572729553421
20
-192.61511179143974
42
-0.41421356237309509
10
27.630572729553418
20
-194.36511179143974
10
27.630572729553418
20
-201.66511179143976
42
-0.41421356237309509
0
LWPOLYLINE
5
298
100
AcDbEntity
8
0
100
AcDbPolyline
90
8
70
1
43
0.0
10
40.880572729553421
20
-203.41511179143976
10
33.580572729553417
20
-203.41511179143976
42
-0.41421356237309509
10
31.830572729553417
20
-201.66511179143976
10
31.830572729553417
20
-194.36511179143974
42
-0.41421356237309509
10
33.580572729553417
20
-192.61511179143977
10
40.880572729553421
20
-192.61511179143974
42
-0.41421356237309509
10
42.630572729553421
20
-194.36511179143974
10
42.630572729553421
20
-201.66511179143976
42
-0.41421356237309509
0
LWPOLYLINE
5
299
100
AcDbEntity
8
0
100
AcDbPolyline
90
8
70
1
43
0.0
10
55.880572729553421
20
-203.41511179143976
10
48.580572729553417
20
-203.41511179143976
42
-0.41421356237309509
10
46.830572729553417
20
-201.66511179143976
10
46.830572729553417
20
-194.36511179143974
42
-0.41421356237309509
10
48.580572729553417
20
-192.61511179143977
10
55.880572729553421
20
-192.61511179143974
42
-0.41421356237309509
10
57.630572729553421
20
-194.36511179143974
10
57.630572729553421
20
-201.66511179143976
42
-0.41421356237309509
0
LWPOLYLINE
5
300
100
AcDbEntity
8
0
100
AcDbPolyline
90
8
70
1
43
0.0
10
70.880572729553421
20
-203.41511179143976
10
63.580572729553417
20
-203.41511179143976
42
-0.41421356237309509
10
61.830572729553417
20
-201.66511179143976
10
61.830572729553417
20
-194.36511179143974
42
-0.41421356237309509
10
63.580572729553417
20
-192.61511179143977
10
70.880572729553421
20
-192.61511179143974
42
-0.41421356237309509
10
72.630572729553421
20
-194.36511179143974
10
72.630572729553421
20
-201.66511179143976
42
-0.41421356237309509
0
LWPOLYLINE
5
301
100
AcDbEntity
8
0
100
AcDbPolyline
90
8
70
1
43
0.0
10
85.880572729553421
20
-203.41511179143976
10
78.58057272955341
20
-203.41511179143976
42
-0.41421356237309509
10
76.83057272955341
20
-201.66511179143976
10
76.83057272955341
20
-194.36511179143974
42
-0.41421356237309509
10
78.580572729553424
20
-192.61511179143977
10
85.880572729553421
20
-192.61511179143974
42
-0.41421356237309509
10
87.630572729553421
20
-194.36511179143974
10
87.630572729553435
20
-201.66511179143976
42
-0.41421356237309509
0
LWPOLYLINE
5
302
100
AcDbEntity
8
0
100
AcDbPolyline
90
8
70
1
43
0.0
10
100.88057272955342
20
-203.41511179143976
10
93.580572729553424
20
-203.41511179143976
42
-0.41421356237309509
10
91.83057272955341
20
-201.66511179143976
10
91.83057272955341
20
-194.36511179143974
42
-0.41421356237309509
10
93.580572729553424
20
-192.61511179143977
10
100.88057272955342
20
-192.61511179143974
42
-0.41421356237309509
10
102.63057272955342
20
-194.36511179143974
10
102.63057272955344
20
-201.66511179143976
42
-0.41421356237309509
0
LWPOLYLINE
5
303
100
AcDbEntity
8
0
100
AcDbPolyline
90
8
70
1
43
0.0
10
115.88057272955342
20
-203.41511179143976
10
108.58057272955342
20
-203.41511179143976
42
-0.41421356237309509
10
106.83057272955341
20
-201.66511179143976
10
106.83057272955341
20
-194.36511179143974
42
-0.41421356237309509
10
108.58057272955342
20
-192.61511179143977
10
115.88057272955342
20
-192.61511179143974
42
-0.41421356237309509
10
117.63057272955342
20
-194.36511179143974
10
117.63057272955344
20
-201.66511179143976
42
-0.41421356237309509
0
LWPOLYLINE
5
304
100
AcDbEntity
8
0
100
AcDbPolyline
90
8
70
1
43
0.0
10
130.88057272955342
20
-203.41511179143976
10
123.58057272955342
20
-203.41511179143976
42
-0.41421356237309509
10
121.83057272955341
20
-201.66511179143976
10
121.83057272955341
20
-194.36511179143974
42
-0.41421356237309509
10
123.58057272955342
20
-192.61511179143977
10
130.88057272955342
20
-192.61511179143974
42
-0.41421356237309509
10
132.63057272955342
20
-194.36511179143974
10
132.63057272955342
20
-201.66511179143976
42
-0.41421356237309509
0
LWPOLYLINE
5
305
100
AcDbEntity
8
0
100
AcDbPolyline
90
8
70
1
43
0.0
10
145.88057272955342
20
-203.41511179143976
10
138.58057272955341
20
-203.41511179143976
42
-0.41421356237309509
10
136.83057272955341
20
-201.66511179143976
10
136.83057272955341
20
-194.36511179143974
42
-0.41421356237309509
10
138.58057272955341
20
-192.61511179143977
10
145.88057272955342
20
-192.61511179143974
42
-0.41421356237309509
10
147.63057272955342
20
-194.36511179143974
10
147.63057272955342
20
-201.66511179143976
42
-0.41421356237309509
0
LWPOLYLINE
5
306
100
AcDbEntity
8
0
100
AcDbPolyline
90
8
70
1
43
0.0
10
160.88057272955342
20
-203.41511179143976
10
153.58057272955341
20
-203.41511179143976
42
-0.41421356237309509
10
151.83057272955341
20
-201.66511179143976
10
151.83057272955341
20
-194.36511179143974
42
-0.41421356237309509
10
153.58057272955341
20
-192.61511179143977
10
160.88057272955342
20
-192.61511179143974
42
-0.41421356237309509
10
162.63057272955342
20
-194.36511179143974
10
162.63057272955342
20
-201.66511179143976
42
-0.41421356237309509
0
LWPOLYLINE
5
307
100
AcDbEntity
8
0
100
AcDbPolyline
90
8
70
1
43
0.0
10
175.88057272955342
20
-203.41511179143976
10
168.58057272955341
20
-203.41511179143976
42
-0.41421356237309509
10
166.83057272955341
20
-201.66511179143976
10
166.83057272955341
20
-194.36511179143974
42
-0.41421356237309509
10
168.58057272955341
20
-192.61511179143977
10
175.88057272955342
20
-192.61511179143974
42
-0.41421356237309509
10
177.63057272955342
20
-194.36511179143974
10
177.63057272955342
20
-201.66511179143976
42
-0.41421356237309509
0
LWPOLYLINE
5
308
100
AcDbEntity
8
0
100
AcDbPolyline
90
8
70
1
43
0.0
10
190.88057272955342
20
-203.41511179143976
10
183.58057272955341
20
-203.41511179143976
42
-0.41421356237309509
10
181.83057272955341
20
-201.66511179143976
10
181.83057272955341
20
-194.36511179143974
42
-0.41421356237309509
10
183.58057272955341
20
-192.61511179143977
10
190.88057272955342
20
-192.61511179143974
42
-0.41421356237309509
10
192.63057272955342
20
-194.36511179143974
10
192.63057272955342
20
-201.66511179143976
42
-0.41421356237309509
0
LWPOLYLINE
5
309
100
AcDbEntity
8
0
100
AcDbPolyline
90
8
70
1
43
0.0
10
205.88057272955342
20
-203.41511179143976
10
198.58057272955341
20
-203.41511179143976
42
-0.41421356237309509
10
196.83057272955341
20
-201.66511179143976
10
196.83057272955341
20
-194.36511179143974
42
-0.41421356237309509
10
198.58057272955341
20
-192.61511179143977
10
205.88057272955342
20
-192.61511179143974
42
-0.41421356237309509
10
207.63057272955342
20
-194.36511179143974
10
207.63057272955342
20
-201.66511179143976
42
-0.41421356237309509
0
LWPOLYLINE
5
310
100
AcDbEntity
8
0
100
AcDbPolyline
90
8
70
1
43
0.0
10
220.88057272955342
20
-203.41511179143976
10
213.58057272955341
20
-203.41511179143976
42
-0.41421356237309509
10
211.83057272955341
20
-201.66511179143976
10
211.83057272955341
20
-194.36511179143974
42
-0.41421356237309509
10
213.58057272955341
20
-192.61511179143977
10
220.88057272955342
20
-192.61511179143974
42
-0.41421356237309509
10
222.63057272955342
20
-194.36511179143974
10
222.63057272955342
20
-201.66511179143976
42
-0.41421356237309509
0
LWPOLYLINE
5
311
100
AcDbEntity
8
0
100
AcDbPolyline
90
8
70
1
43
0.0
10
25.880572729553421
20
-218.41511179143976
10
18.580572729553417
20
-218.41511179143976
42
-0.41421356237309509
10
16.830572729553417
20
-216.66511179143976
10
16.830572729553413
20
-209.36511179143974
42
-0.41421356237309509
10
18.580572729553417
20
-207.61511179143977
10
25.880572729553421
20
-207.61511179143974
42
-0.41421356237309509
10
27.630572729553418
20
-209.36511179143974
10
27.630572729553418
20
-216.66511179143976
42
-0.41421356237309509
0
LWPOLYLINE
5
312
100
AcDbEntity
8
0
100
AcDbPolyline
90
8
70
1
43
0.0
10
40.880572729553421
20
-218.41511179143976
10
33.580572729553417
20
-218.41511179143976
42
-0.41421356237309509
10
31.830572729553417
20
-216.66511179143976
10
31.830572729553417
20
-209.36511179143974
42
-0.41421356237309509
10
33.580572729553417
20
-207.61511179143977
10
40.880572729553421
20
-207.61511179143974
42
-0.41421356237309509
10
42.630572729553421
20
-209.36511179143974
10
42.630572729553421
20
-216.66511179143976
42
-0.41421356237309509
0
LWPOLYLINE
5
313
100
AcDbEntity
8
0
100
AcDbPolyline
90
8
70
1
43
0.0
10
55.880572729553421
20
-218.41511179143976
10
48.580572729553417
20
-218.41511179143976
42
-0.41421356237309509
10
46.830572729553417
20
-216.66511179143976
10
46.830572729553417
20
-209.36511179143974
42
-0.41421356237309509
10
48.580572729553417
20
-207.61511179143977
10
55.880572729553421
20
-207.61511179143974
42
-0.41421356237309509
10
57.630572729553421
20
-209.36511179143974
10
57.630572729553421
20
-216.66511179143976
42
-0.41421356237309509
0
LWPOLYLINE
5
314
100
AcDbEntity
8
0
100
AcDbPolyline
90
8
70
1
43
0.0
10
70.880572729553421
20
-218.41511179143976
10
63.580572729553417
20
-218.41511179143976
42
-0.41421356237309509
10
61.830572729553417
20
-216.66511179143976
10
61.830572729553417
20
-209.36511179143974
42
-0.41421356237309509
10
63.580572729553417
20
-207.61511179143977
10
70.880572729553421
20
-207.61511179143974
42
-0.41421356237309509
10
72.630572729553421
20
-209.36511179143974
10
72.630572729553421
20
-216.66511179143976
42
-0.41421356237309509
0
LWPOLYLINE
5
315
100
AcDbEntity
8
0
100
AcDbPolyline
90
8
70
1
43
0.0
10
85.880572729553421
20
-218.41511179143976
10
78.58057272955341
20
-218.41511179143976
42
-0.41421356237309509
10
76.83057272955341
20
-216.66511179143976
10
76.83057272955341
20
-209.36511179143974
42
-0.41421356237309509
10
78.580572729553424
20
-207.61511179143977
10
85.880572729553421
20
-207.61511179143974
42
-0.41421356237309509
10
87.630572729553421
20
-209.36511179143974
10
87.630572729553435
20
-216.66511179143976
42
-0.41421356237309509
0
LWPOLYLINE
5
316
100
AcDbEntity
8
0
100
AcDbPolyline
90
8
70
1
43
0.0
10
100.88057272955342
20
-218.41511179143976
10
93.580572729553424
20
-218.41511179143976
42
-0.41421356237309509
10
91.83057272955341
20
-216.66511179143976
10
91.83057272955341
20
-209.36511179143974
42
-0.41421356237309509
10
93.580572729553424
20
-207.61511179143977
10
100.88057272955342
20
-207.61511179143974
42
-0.41421356237309509
10
102.63057272955342
20
-209.36511179143974
10
102.63057272955344
20
-216.66511179143976
42
-0.41421356237309509
0
LWPOLYLINE
5
317
100
AcDbEntity
8
0
100
AcDbPolyline
90
8
70
1
43
0.0
10
115.88057272955342
20
-218.41511179143976
10
108.58057272955342
20
-218.41511179143976
42
-0.41421356237309509
10
106.83057272955341
20
-216.66511179143976
10
106.83057272955341
20
-209.36511179143974
42
-0.41421356237309509
10
108.58057272955342
20
-207.61511179143977
10
115.88057272955342
20
-207.61511179143974
42
-0.41421356237309509
10
117.63057272955342
20
-209.36511179143974
10
117.63057272955344
20
-216.66511179143976
42
-0.41421356237309509
0
LWPOLYLINE
5
318
100
AcDbEntity
8
0
100
AcDbPolyline
90
8
70
1
43
0.0
10
130.88057272955342
20
-218.41511179143976
10
123.58057272955342
20
-218.41511179143976
42
-0.41421356237309509
10
121.83057272955341
20
-216.66511179143976
10
121.83057272955341
20
-209.36511179143974
42
-0.41421356237309509
10
123.58057272955342
20
-207.61511179143977
10
130.88057272955342
20
-207.61511179143974
42
-0.41421356237309509
10
132.63057272955342
20
-209.36511179143974
10
132.63057272955342
20
-216.66511179143976
42
-0.41421356237309509
0
LWPOLYLINE
5
319
100
AcDbEntity
8
0
100
AcDbPolyline
90
8
70
1
43
0.0
10
145.88057272955342
20
-218.41511179143976
10
138.58057272955341
20
-218.41511179143976
42
-0.41421356237309509
10
136.83057272955341
20
-216.66511179143976
10
136.83057272955341
20
-209.36511179143974
42
-0.41421356237309509
10
138.58057272955341
20
-207.61511179143977
10
145.88057272955342
20
-207.61511179143974
42
-0.41421356237309509
10
147.63057272955342
20
-209.36511179143974
10
147.63057272955342
20
-216.66511179143976
42
-0.41421356237309509
0
LWPOLYLINE
5
320
100
AcDbEntity
8
0
100
AcDbPolyline
90
8
70
1
43
0.0
10
160.88057272955342
20
-218.41511179143976
10
153.58057272955341
20
-218.41511179143976
42
-0.41421356237309509
10
151.83057272955341
20
-216.66511179143976
10
151.83057272955341
20
-209.36511179143974
42
-0.41421356237309509
10
153.58057272955341
20
-207.61511179143977
10
160.88057272955342
20
-207.61511179143974
42
-0.41421356237309509
10
162.63057272955342
20
-209.36511179143974
10
162.63057272955342
20
-216.66511179143976
42
-0.41421356237309509
0
LWPOLYLINE
5
321
100
AcDbEntity
8
0
100
AcDbPolyline
90
8
70
1
43
0.0
10
175.88057272955342
20
-218.41511179143976
10
168.58057272955341
20
-218.41511179143976
42
-0.41421356237309509
10
166.83057272955341
20
-216.66511179143976
10
166.83057272955341
20
-209.36511179143974
42
-0.41421356237309509
10
168.58057272955341
20
-207.61511179143977
10
175.88057272955342
20
-207.61511179143974
42
-0.41421356237309509
10
177.63057272955342
20
-209.36511179143974
10
177.63057272955342
20
-216.66511179143976
42
-0.41421356237309509
0
LWPOLYLINE
5
322
100
AcDbEntity
8
0
100
AcDbPolyline
90
8
70
1
43
0.0
10
190.88057272955342
20
-218.41511179143976
10
183.58057272955341
20
-218.41511179143976
42
-0.41421356237309509
10
181.83057272955341
20
-216.66511179143976
10
181.83057272955341
20
-209.36511179143974
42
-0.41421356237309509
10
183.58057272955341
20
-207.61511179143977
10
190.88057272955342
20
-207.61511179143974
42
-0.41421356237309509
10
192.63057272955342
20
-209.36511179143974
10
192.63057272955342
20
-216.66511179143976
42
-0.41421356237309509
0
LWPOLYLINE
5
323
100
AcDbEntity
8
0
100
AcDbPolyline
90
8
70
1
43
0.0
10
205.88057272955342
20
-218.41511179143976
10
198.58057272955341
20
-218.41511179143976
42
-0.41421356237309509
10
196.83057272955341
20
-216.66511179143976
10
196.83057272955341
20
-209.36511179143974
42
-0.41421356237309509
10
198.58057272955341
20
-207.61511179143977
10
205.88057272955342
20
-207.61511179143974
42
-0.41421356237309509
10
207.63057272955342
20
-209.36511179143974
10
207.63057272955342
20
-216.66511179143976
42
-0.41421356237309509
0
LWPOLYLINE
5
324
100
AcDbEntity
8
0
100
AcDbPolyline
90
8
70
1
43
0.0
10
220.88057272955342
20
-218.41511179143976
10
213.58057272955341
20
-218.41511179143976
42
-0.41421356237309509
10
211.83057272955341
20
-216.66511179143976
10
211.83057272955341
20
-209.36511179143974
42
-0.41421356237309509
10
213.58057272955341
20
-207.61511179143977
10
220.88057272955342
20
-207.61511179143974
42
-0.41421356237309509
10
222.63057272955342
20
-209.36511179143974
10
222.63057272955342
20
-216.66511179143976
42
-0.41421356237309509
0
LWPOLYLINE
5
325
100
AcDbEntity
8
0
100
AcDbPolyline
90
8
70
1
43
0.0
10
235.88057272955342
20
6.5848882085602494
10
228.58057272955341
20
6.5848882085602405
42
-0.41421356237309509
10
226.83057272955341
20
8.3348882085602476
10
226.83057272955341
20
15.634888208560248
42
-0.41421356237309509
10
228.58057272955341
20
17.384888208560248
10
235.88057272955342
20
17.384888208560259
42
-0.41421356237309509
10
237.63057272955342
20
15.634888208560252
10
237.63057272955342
20
8.3348882085602476
42
-0.41421356237309509
0
LWPOLYLINE
5
326
100
AcDbEntity
8
0
100
AcDbPolyline
90
8
70
1
43
0.0
10
250.88057272955342
20
6.5848882085602494
10
243.58057272955341
20
6.5848882085602405
42
-0.41421356237309509
10
241.83057272955341
20
8.3348882085602476
10
241.83057272955341
20
15.634888208560248
42
-0.41421356237309509
10
243.58057272955341
20
17.384888208560248
10
250.88057272955342
20
17.384888208560259
42
-0.41421356237309509
10
252.63057272955342
20
15.634888208560252
10
252.63057272955342
20
8.3348882085602476
42
-0.41421356237309509
0
LWPOLYLINE
5
327
100
AcDbEntity
8
0
100
AcDbPolyline
90
8
70
1
43
0.0
10
235.88057272955342
20
-8.4151117914397506
10
228.58057272955341
20
-8.4151117914397595
42
-0.41421356237309509
10
226.83057272955341
20
-6.6651117914397524
10
226.83057272955341
20
0.63488820856024908
42
-0.41421356237309509
10
228.58057272955341
20
2.3848882085602496
10
235.88057272955342
20
2.3848882085602585
42
-0.41421356237309509
10
237.63057272955342
20
0.63488820856025141
10
237.63057272955342
20
-6.6651117914397524
42
-0.41421356237309509
0
LWPOLYLINE
5
328
100
AcDbEntity
8
0
100
AcDbPolyline
90
8
70
1
43
0.0
10
250.88057272955342
20
-8.4151117914397506
10
243.58057272955341
20
-8.4151117914397595
42
-0.41421356237309509
10
241.83057272955341
20
-6.6651117914397524
10
241.83057272955341
20
0.63488820856024908
42
-0.41421356237309509
10
243.58057272955341
20
2.3848882085602496
10
250.88057272955342
20
2.3848882085602585
42
-0.41421356237309509
10
252.63057272955342
20
0.63488820856025141
10
252.63057272955342
20
-6.6651117914397524
42
-0.41421356237309509
0
LWPOLYLINE
5
329
100
AcDbEntity
8
0
100
AcDbPolyline
90
8
70
1
43
0.0
10
235.88057272955342
20
-23.415111791439749
10
228.58057272955341
20
-23.415111791439756
42
-0.41421356237309509
10
226.83057272955341
20
-21.665111791439749
10
226.83057272955341
20
-14.365111791439752
42
-0.41421356237309509
10
228.58057272955341
20
-12.61511179143975
10
235.88057272955342
20
-12.615111791439741
42
-0.41421356237309509
10
237.63057272955342
20
-14.365111791439748
10
237.63057272955342
20
-21.665111791439749
42
-0.41421356237309509
0
LWPOLYLINE
5
330
100
AcDbEntity
8
0
100
AcDbPolyline
90
8
70
1
43
0.0
10
250.88057272955342
20
-23.415111791439749
10
243.58057272955341
20
-23.415111791439756
42
-0.41421356237309509
10
241.83057272955341
20
-21.665111791439749
10
241.83057272955341
20
-14.365111791439752
42
-0.41421356237309509
10
243.58057272955341
20
-12.61511179143975
10
250.88057272955342
20
-12.615111791439741
42
-0.41421356237309509
10
252.63057272955342
20
-14.365111791439748
10
252.63057272955342
20
-21.665111791439749
42
-0.41421356237309509
0
LWPOLYLINE
5
331
100
AcDbEntity
8
0
100
AcDbPolyline
90
8
70
1
43
0.0
10
235.88057272955342
20
-38.415111791439749
10
228.58057272955341
20
-38.415111791439756
42
-0.41421356237309509
10
226.83057272955341
20
-36.665111791439749
10
226.83057272955341
20
-29.365111791439752
42
-0.41421356237309509
10
228.58057272955341
20
-27.615111791439748
10
235.88057272955342
20
-27.615111791439737
42
-0.41421356237309509
10
237.63057272955342
20
-29.365111791439745
10
237.63057272955342
20
-36.665111791439749
42
-0.41421356237309509
0
LWPOLYLINE
5
332
100
AcDbEntity
8
0
100
AcDbPolyline
90
8
70
1
43
0.0
10
250.88057272955342
20
-38.415111791439749
10
243.58057272955341
20
-38.415111791439756
42
-0.41421356237309509
10
241.83057272955341
20
-36.665111791439749
10
241.83057272955341
20
-29.365111791439752
42
-0.41421356237309509
10
243.58057272955341
20
-27.615111791439748
10
250.88057272955342
20
-27.615111791439737
42
-0.41421356237309509
10
252.63057272955342
20
-29.365111791439745
10
252.63057272955342
20
-36.665111791439749
42
-0.41421356237309509
0
LWPOLYLINE
5
333
100
AcDbEntity
8
0
100
AcDbPolyline
90
8
70
1
43
0.0
10
235.88057272955342
20
-53.415111791439749
10
228.58057272955341
20
-53.415111791439756
42
-0.41421356237309509
10
226.83057272955341
20
-51.665111791439749
10
226.83057272955341
20
-44.365111791439759
42
-0.41421356237309509
10
228.58057272955341
20
-42.615111791439745
10
235.88057272955342
20
-42.615111791439737
42
-0.41421356237309509
10
237.63057272955342
20
-44.365111791439745
10
237.63057272955342
20
-51.665111791439749
42
-0.41421356237309509
0
LWPOLYLINE
5
334
100
AcDbEntity
8
0
100
AcDbPolyline
90
8
70
1
43
0.0
10
250.88057272955342
20
-53.415111791439749
10
243.58057272955341
20
-53.415111791439756
42
-0.41421356237309509
10
241.83057272955341
20
-51.665111791439749
10
241.83057272955341
20
-44.365111791439759
42
-0.41421356237309509
10
243.58057272955341
20
-42.615111791439745
10
250.88057272955342
20
-42.615111791439737
42
-0.41421356237309509
10
252.63057272955342
20
-44.365111791439745
10
252.63057272955342
20
-51.665111791439749
42
-0.41421356237309509
0
LWPOLYLINE
5
335
100
AcDbEntity
8
0
100
AcDbPolyline
90
8
70
1
43
0.0
10
235.88057272955342
20
-68.415111791439756
10
228.58057272955341
20
-68.415111791439756
42
-0.41421356237309509
10
226.83057272955341
20
-66.665111791439756
10
226.83057272955341
20
-59.365111791439759
42
-0.41421356237309509
10
228.58057272955341
20
-57.615111791439745
10
235.88057272955342
20
-57.615111791439737
42
-0.41421356237309509
10
237.63057272955342
20
-59.365111791439745
10
237.63057272955342
20
-66.665111791439756
42
-0.41421356237309509
0
LWPOLYLINE
5
336
100
AcDbEntity
8
0
100
AcDbPolyline
90
8
70
1
43
0.0
10
250.88057272955342
20
-68.415111791439756
10
243.58057272955341
20
-68.415111791439756
42
-0.41421356237309509
10
241.83057272955341
20
-66.665111791439756
10
241.83057272955341
20
-59.365111791439759
42
-0.41421356237309509
10
243.58057272955341
20
-57.615111791439745
10
250.88057272955342
20
-57.615111791439737
42
-0.41421356237309509
10
252.63057272955342
20
-59.365111791439745
10
252.63057272955342
20
-66.665111791439756
42
-0.41421356237309509
0
LWPOLYLINE
5
337
100
AcDbEntity
8
0
100
AcDbPolyline
90
8
70
1
43
0.0
10
235.88057272955342
20
-83.415111791439756
10
228.58057272955341
20
-83.41511179143977
42
-0.41421356237309509
10
226.83057272955341
20
-81.665111791439756
10
226.83057272955341
20
-74.365111791439759
42
-0.41421356237309509
10
228.58057272955341
20
-72.615111791439745
10
235.88057272955342
20
-72.615111791439745
42
-0.41421356237309509
10
237.63057272955342
20
-74.365111791439745
10
237.63057272955342
20
-81.665111791439756
42
-0.41421356237309509
0
LWPOLYLINE
5
338
100
AcDbEntity
8
0
100
AcDbPolyline
90
8
70
1
43
0.0
10
250.88057272955342
20
-83.415111791439756
10
243.58057272955341
20
-83.41511179143977
42
-0.41421356237309509
10
241.83057272955341
20
-81.665111791439756
10
241.83057272955341
20
-74.365111791439759
42
-0.41421356237309509
10
243.58057272955341
20
-72.615111791439745
10
250.88057272955342
20
-72.615111791439745
42
-0.41421356237309509
10
252.63057272955342
20
-74.365111791439745
10
252.63057272955342
20
-81.665111791439756
42
-0.41421356237309509
0
LWPOLYLINE
5
339
100
AcDbEntity
8
0
100
AcDbPolyline
90
8
70
1
43
0.0
10
235.88057272955342
20
-98.415111791439756
10
228.58057272955341
20
-98.41511179143977
42
-0.41421356237309509
10
226.83057272955341
20
-96.665111791439756
10
226.83057272955341
20
-89.365111791439759
42
-0.41421356237309509
10
228.58057272955341
20
-87.615111791439745
10
235.88057272955342
20
-87.615111791439745
42
-0.41421356237309509
10
237.63057272955342
20
-89.365111791439759
10
237.63057272955342
20
-96.665111791439756
42
-0.41421356237309509
0
LWPOLYLINE
5
340
100
AcDbEntity
8
0
100
AcDbPolyline
90
8
70
1
43
0.0
10
250.88057272955342
20
-98.415111791439756
10
243.58057272955341
20
-98.41511179143977
42
-0.41421356237309509
10
241.83057272955341
20
-96.665111791439756
10
241.83057272955341
20
-89.365111791439759
42
-0.41421356237309509
10
243.58057272955341
20
-87.615111791439745
10
250.88057272955342
20
-87.615111791439745
42
-0.41421356237309509
10
252.63057272955342
20
-89.365111791439759
10
252.63057272955342
20
-96.665111791439756
42
-0.41421356237309509
0
LWPOLYLINE
5
341
100
AcDbEntity
8
0
100
AcDbPolyline
90
8
70
1
43
0.0
10
235.88057272955342
20
-113.41511179143976
10
228.58057272955341
20
-113.41511179143977
42
-0.41421356237309509
10
226.83057272955341
20
-111.66511179143976
10
226.83057272955341
20
-104.36511179143976
42
-0.41421356237309509
10
228.58057272955341
20
-102.61511179143974
10
235.88057272955342
20
-102.61511179143974
42
-0.41421356237309509
10
237.63057272955342
20
-104.36511179143976
10
237.63057272955342
20
-111.66511179143976
42
-0.41421356237309509
0
LWPOLYLINE
5
342
100
AcDbEntity
8
0
100
AcDbPolyline
90
8
70
1
43
0.0
10
250.88057272955342
20
-113.41511179143976
10
243.58057272955341
20
-113.41511179143977
42
-0.41421356237309509
10
241.83057272955341
20
-111.66511179143976
10
241.83057272955341
20
-104.36511179143976
42
-0.41421356237309509
10
243.58057272955341
20
-102.61511179143974
10
250.88057272955342
20
-102.61511179143974
42
-0.41421356237309509
10
252.63057272955342
20
-104.36511179143976
10
252.63057272955342
20
-111.66511179143976
42
-0.41421356237309509
0
LWPOLYLINE
5
343
100
AcDbEntity
8
0
100
AcDbPolyline
90
8
70
1
43
0.0
10
235.88057272955342
20
-128.41511179143976
10
228.58057272955341
20
-128.41511179143976
42
-0.41421356237309509
10
226.83057272955341
20
-126.66511179143976
10
226.83057272955341
20
-119.36511179143976
42
-0.41421356237309509
10
228.58057272955341
20
-117.61511179143974
10
235.88057272955342
20
-117.61511179143974
42
-0.41421356237309509
10
237.63057272955342
20
-119.36511179143976
10
237.63057272955342
20
-126.66511179143976
42
-0.41421356237309509
0
LWPOLYLINE
5
344
100
AcDbEntity
8
0
100
AcDbPolyline
90
8
70
1
43
0.0
10
250.88057272955342
20
-128.41511179143976
10
243.58057272955341
20
-128.41511179143976
42
-0.41421356237309509
10
241.83057272955341
20
-126.66511179143976
10
241.83057272955341
20
-119.36511179143976
42
-0.41421356237309509
10
243.58057272955341
20
-117.61511179143974
10
250.88057272955342
20
-117.61511179143974
42
-0.41421356237309509
10
252.63057272955342
20
-119.36511179143976
10
252.63057272955342
20
-126.66511179143976
42
-0.41421356237309509
0
LWPOLYLINE
5
345
100
AcDbEntity
8
0
100
AcDbPolyline
90
8
70
1
43
0.0
10
235.88057272955342
20
-143.41511179143976
10
228.58057272955341
20
-143.41511179143976
42
-0.41421356237309509
10
226.83057272955341
20
-141.66511179143976
10
226.83057272955341
20
-134.36511179143974
42
-0.41421356237309509
10
228.58057272955341
20
-132.61511179143974
10
235.88057272955342
20
-132.61511179143974
42
-0.41421356237309509
10
237.63057272955342
20
-134.36511179143974
10
237.63057272955342
20
-141.66511179143976
42
-0.41421356237309509
0
LWPOLYLINE
5
346
100
AcDbEntity
8
0
100
AcDbPolyline
90
8
70
1
43
0.0
10
250.88057272955342
20
-143.41511179143976
10
243.58057272955341
20
-143.41511179143976
42
-0.41421356237309509
10
241.83057272955341
20
-141.66511179143976
10
241.83057272955341
20
-134.36511179143974
42
-0.41421356237309509
10
243.58057272955341
20
-132.61511179143974
10
250.88057272955342
20
-132.61511179143974
42
-0.41421356237309509
10
252.63057272955342
20
-134.36511179143974
10
252.63057272955342
20
-141.66511179143976
42
-0.41421356237309509
0
LWPOLYLINE
5
347
100
AcDbEntity
8
0
100
AcDbPolyline
90
8
70
1
43
0.0
10
235.88057272955342
20
-158.41511179143976
10
228.58057272955341
20
-158.41511179143976
42
-0.41421356237309509
10
226.83057272955341
20
-156.66511179143976
10
226.83057272955341
20
-149.36511179143974
42
-0.41421356237309509
10
228.58057272955341
20
-147.61511179143974
10
235.88057272955342
20
-147.61511179143974
42
-0.41421356237309509
10
237.63057272955342
20
-149.36511179143974
10
237.63057272955342
20
-156.66511179143976
42
-0.41421356237309509
0
LWPOLYLINE
5
348
100
AcDbEntity
8
0
100
AcDbPolyline
90
8
70
1
43
0.0
10
250.88057272955342
20
-158.41511179143976
10
243.58057272955341
20
-158.41511179143976
42
-0.41421356237309509
10
241.83057272955341
20
-156.66511179143976
10
241.83057272955341
20
-149.36511179143974
42
-0.41421356237309509
10
243.58057272955341
20
-147.61511179143974
10
250.88057272955342
20
-147.61511179143974
42
-0.41421356237309509
10
252.63057272955342
20
-149.36511179143974
10
252.63057272955342
20
-156.66511179143976
42
-0.41421356237309509
0
LWPOLYLINE
5
349
100
AcDbEntity
8
0
100
AcDbPolyline
90
8
70
1
43
0.0
10
235.88057272955342
20
-173.41511179143976
10
228.58057272955341
20
-173.41511179143976
42
-0.41421356237309509
10
226.83057272955341
20
-171.66511179143976
10
226.83057272955347
20
-164.36511179143974
42
-0.41421356237309509
10
228.58057272955341
20
-162.61511179143977
10
235.88057272955342
20
-162.61511179143974
42
-0.41421356237309509
10
237.63057272955342
20
-164.36511179143974
10
237.63057272955342
20
-171.66511179143976
42
-0.41421356237309509
0
LWPOLYLINE
5
350
100
AcDbEntity
8
0
100
AcDbPolyline
90
8
70
1
43
0.0
10
250.88057272955342
20
-173.41511179143976
10
243.58057272955341
20
-173.41511179143976
42
-0.41421356237309509
10
241.83057272955341
20
-171.66511179143976
10
241.83057272955347
20
-164.36511179143974
42
-0.41421356237309509
10
243.58057272955341
20
-162.61511179143977
10
250.88057272955342
20
-162.61511179143974
42
-0.41421356237309509
10
252.63057272955342
20
-164.36511179143974
10
252.63057272955342
20
-171.66511179143976
42
-0.41421356237309509
0
LWPOLYLINE
5
351
100
AcDbEntity
8
0
100
AcDbPolyline
90
8
70
1
43
0.0
10
235.88057272955342
20
-188.41511179143976
10
228.58057272955341
20
-188.41511179143976
42
-0.41421356237309509
10
226.83057272955341
20
-186.66511179143976
10
226.83057272955347
20
-179.36511179143974
42
-0.41421356237309509
10
228.58057272955341
20
-177.61511179143977
10
235.88057272955342
20
-177.61511179143974
42
-0.41421356237309509
10
237.63057272955342
20
-179.36511179143974
10
237.63057272955342
20
-186.66511179143976
42
-0.41421356237309509
0
LWPOLYLINE
5
352
100
AcDbEntity
8
0
100
AcDbPolyline
90
8
70
1
43
0.0
10
250.88057272955342
20
-188.41511179143976
10
243.58057272955341
20
-188.41511179143976
42
-0.41421356237309509
10
241.83057272955341
20
-186.66511179143976
10
241.83057272955347
20
-179.36511179143974
42
-0.41421356237309509
10
243.58057272955341
20
-177.61511179143977
10
250.88057272955342
20
-177.61511179143974
42
-0.41421356237309509
10
252.63057272955342
20
-179.36511179143974
10
252.63057272955342
20
-186.66511179143976
42
-0.41421356237309509
0
LWPOLYLINE
5
353
100
AcDbEntity
8
0
100
AcDbPolyline
90
8
70
1
43
0.0
10
235.88057272955342
20
-203.41511179143976
10
228.58057272955341
20
-203.41511179143976
42
-0.41421356237309509
10
226.83057272955341
20
-201.66511179143976
10
226.83057272955347
20
-194.36511179143974
42
-0.41421356237309509
10
228.58057272955341
20
-192.61511179143977
10
235.88057272955342
20
-192.61511179143974
42
-0.41421356237309509
10
237.63057272955342
20
-194.36511179143974
10
237.63057272955342
20
-201.66511179143976
42
-0.41421356237309509
0
LWPOLYLINE
5
354
100
AcDbEntity
8
0
100
AcDbPolyline
90
8
70
1
43
0.0
10
250.88057272955342
20
-203.41511179143976
10
243.58057272955341
20
-203.41511179143976
42
-0.41421356237309509
10
241.83057272955341
20
-201.66511179143976
10
241.83057272955347
20
-194.36511179143974
42
-0.41421356237309509
10
243.58057272955341
20
-192.61511179143977
10
250.88057272955342
20
-192.61511179143974
42
-0.41421356237309509
10
252.63057272955342
20
-194.36511179143974
10
252.63057272955342
20
-201.66511179143976
42
-0.41421356237309509
0
LWPOLYLINE
5
355
100
AcDbEntity
8
0
100
AcDbPolyline
90
8
70
1
43
0.0
10
235.88057272955342
20
-218.41511179143976
10
228.58057272955341
20
-218.41511179143976
42
-0.41421356237309509
10
226.83057272955341
20
-216.66511179143976
10
226.83057272955347
20
-209.36511179143974
42
-0.41421356237309509
10
228.58057272955341
20
-207.61511179143977
10
235.88057272955342
20
-207.61511179143974
42
-0.41421356237309509
10
237.63057272955342
20
-209.36511179143974
10
237.63057272955342
20
-216.66511179143976
42
-0.41421356237309509
0
LWPOLYLINE
5
356
100
AcDbEntity
8
0
100
AcDbPolyline
90
8
70
1
43
0.0
10
250.88057272955342
20
-218.41511179143976
10
243.58057272955341
20
-218.41511179143976
42
-0.41421356237309509
10
241.83057272955341
20
-216.66511179143976
10
241.83057272955347
20
-209.36511179143974
42
-0.41421356237309509
10
243.58057272955341
20
-207.61511179143977
10
250.88057272955342
20
-207.61511179143974
42
-0.41421356237309509
10
252.63057272955342
20
-209.36511179143974
10
252.63057272955342
20
-216.66511179143976
42
-0.41421356237309509
0
ENDSEC
0
SECTION
2
OBJECTS
0
DICTIONARY
5
C
100
AcDbDictionary
3
ACAD_GROUP
350
D
3
ACAD_MLINESTYLE
350
17
0
DICTIONARY
5
D
100
AcDbDictionary
0
DICTIONARY
5
1A
330
C
100
AcDbDictionary
0
DICTIONARY
5
17
100
AcDbDictionary
0
ENDSEC
0
EOF
