0
SECTION
2
HEADER
9
$INSUNITS
70
4
9
$ACADVER
1
AC1014
9
$HANDSEED
5
FFFF
0
ENDSEC
0
SECTION
2
TABLES
0
TABLE
2
VPORT
5
8
100
AcDbSymbolTable
0
ENDTAB
0
TABLE
2
LTYPE
5
5
100
AcDbSymbolTable
0
LTYPE
5
14
100
AcDbSymbolTableRecord
100
AcDbLinetypeTableRecord
2
BYBLOCK
70
0
0
LTYPE
5
15
100
AcDbSymbolTableRecord
100
AcDbLinetypeTableRecord
2
BYLAYER
70
0
0
ENDTAB
0
TABLE
2
LAYER
5
2
100
AcDbSymbolTable
70
2
0
LAYER
5
50
100
AcDbSymbolTableRecord
100
AcDbLayerTableRecord
2
0
70
0
6
CONTINUOUS
0
ENDTAB
0
TABLE
2
STYLE
5
3
100
AcDbSymbolTable
70
1
0
STYLE
5
11
100
AcDbSymbolTableRecord
100
AcDbTextStyleTableRecord
2
STANDARD
70
0
0
ENDTAB
0
TABLE
2
VIEW
5
6
100
AcDbSymbolTable
70
0
0
ENDTAB
0
TABLE
2
UCS
5
7
100
AcDbSymbolTable
70
0
0
ENDTAB
0
TABLE
2
APPID
5
9
100
AcDbSymbolTable
70
2
0
APPID
5
12
100
AcDbSymbolTableRecord
100
AcDbRegAppTableRecord
2
ACAD
70
0
0
ENDTAB
0
TABLE
2
DIMSTYLE
5
A
100
AcDbSymbolTable
70
1
0
ENDTAB
0
TABLE
2
BLOCK_RECORD
5
1
100
AcDbSymbolTable
70
1
0
BLOCK_RECORD
5
1F
100
AcDbSymbolTableRecord
100
AcDbBlockTableRecord
2
*MODEL_SPACE
0
BLOCK_RECORD
5
1B
100
AcDbSymbolTableRecord
100
AcDbBlockTableRecord
2
*PAPER_SPACE
0
ENDTAB
0
ENDSEC
0
SECTION
2
BLOCKS
0
BLOCK
5
20
100
AcDbEntity
100
AcDbBlockBegin
2
*MODEL_SPACE
0
ENDBLK
5
21
100
AcDbEntity
100
AcDbBlockEnd
0
BLOCK
5
1C
100
AcDbEntity
100
AcDbBlockBegin
2
*PAPER_SPACE
0
ENDBLK
5
1D
100
AcDbEntity
100
AcDbBlockEnd
0
ENDSEC
0
SECTION
2
ENTITIES
0
LWPOLYLINE
5
100
100
AcDbEntity
8
0
100
AcDbPolyline
90
8
70
1
43
0.0
10
22.980572729553398
20
4.0848882085602662
10
15.680572729553395
20
4.0848882085602618
42
-0.41421356237309509
10
13.930572729553392
20
5.8348882085602654
10
13.930572729553397
20
13.134888208560266
42
-0.41421356237309509
10
15.680572729553397
20
14.884888208560268
10
22.980572729553398
20
14.884888208560268
42
-0.41421356237309509
10
24.730572729553394
20
13.13488820856027
10
24.730572729553394
20
5.8348882085602654
42
-0.41421356237309509
0
LWPOLYLINE
5
101
100
AcDbEntity
8
0
100
AcDbPolyline
90
8
70
1
43
0.0
10
254.73057272955342
20
24.88488820856027
10
8.930572729553397
20
24.88488820856027
42
0.41421356237309509
10
3.9305727295533943
20
19.88488820856027
10
3.9305727295533943
20
-225.91511179143976
42
0.41421356237309509
10
8.9305727295533899
20
-230.91511179143976
10
254.73057272955339
20
-230.91511179143976
42
0.41421356237309509
10
259.73057272955339
20
-225.9151117914397
10
259.73057272955339
20
19.884888208560277
42
0.41421356237309448
0
LWPOLYLINE
5
102
100
AcDbEntity
8
0
100
AcDbPolyline
90
8
70
1
43
0.0
10
37.980572729553401
20
4.0848882085602662
10
30.680572729553397
20
4.0848882085602618
42
-0.41421356237309509
10
28.93057272955339
20
5.8348882085602654
10
28.930572729553397
20
13.134888208560266
42
-0.41421356237309509
10
30.680572729553397
20
14.884888208560268
10
37.980572729553394
20
14.884888208560268
42
-0.41421356237309509
10
39.730572729553394
20
13.13488820856027
10
39.730572729553394
20
5.8348882085602654
42
-0.41421356237309509
0
LWPOLYLINE
5
103
100
AcDbEntity
8
0
100
AcDbPolyline
90
8
70
1
43
0.0
10
52.980572729553401
20
4.0848882085602662
10
45.680572729553397
20
4.0848882085602618
42
-0.41421356237309509
10
43.93057272955339
20
5.8348882085602654
10
43.930572729553397
20
13.134888208560266
42
-0.41421356237309509
10
45.680572729553397
20
14.884888208560268
10
52.980572729553401
20
14.884888208560268
42
-0.41421356237309509
10
54.730572729553387
20
13.13488820856027
10
54.730572729553401
20
5.8348882085602654
42
-0.41421356237309509
0
LWPOLYLINE
5
104
100
AcDbEntity
8
0
100
AcDbPolyline
90
8
70
1
43
0.0
10
67.980572729553401
20
4.0848882085602662
10
60.680572729553397
20
4.0848882085602618
42
-0.41421356237309509
10
58.93057272955339
20
5.8348882085602654
10
58.930572729553397
20
13.134888208560266
42
-0.41421356237309509
10
60.680572729553397
20
14.884888208560268
10
67.980572729553401
20
14.884888208560268
42
-0.41421356237309509
10
69.730572729553387
20
13.13488820856027
10
69.730572729553401
20
5.8348882085602654
42
-0.41421356237309509
0
LWPOLYLINE
5
105
100
AcDbEntity
8
0
100
AcDbPolyline
90
8
70
1
43
0.0
10
22.980572729553398
20
-10.915111791439733
10
15.680572729553395
20
-10.915111791439738
42
-0.41421356237309509
10
13.930572729553392
20
-9.1651117914397346
10
13.930572729553397
20
-1.865111791439733
42
-0.41421356237309509
10
15.680572729553397
20
-0.1151117914397326
10
22.980572729553398
20
-0.1151117914397326
42
-0.41421356237309509
10
24.730572729553394
20
-1.8651117914397308
10
24.730572729553394
20
-9.1651117914397346
42
-0.41421356237309509
0
LWPOLYLINE
5
106
100
AcDbEntity
8
0
100
AcDbPolyline
90
8
70
1
43
0.0
10
37.980572729553401
20
-10.915111791439733
10
30.680572729553397
20
-10.915111791439738
42
-0.41421356237309509
10
28.93057272955339
20
-9.1651117914397346
10
28.930572729553397
20
-1.865111791439733
42
-0.41421356237309509
10
30.680572729553397
20
-0.1151117914397326
10
37.980572729553394
20
-0.1151117914397326
42
-0.41421356237309509
10
39.730572729553394
20
-1.8651117914397308
10
39.730572729553394
20
-9.1651117914397346
42
-0.41421356237309509
0
LWPOLYLINE
5
107
100
AcDbEntity
8
0
100
AcDbPolyline
90
8
70
1
43
0.0
10
52.980572729553401
20
-10.915111791439733
10
45.680572729553397
20
-10.915111791439738
42
-0.41421356237309509
10
43.93057272955339
20
-9.1651117914397346
10
43.930572729553397
20
-1.865111791439733
42
-0.41421356237309509
10
45.680572729553397
20
-0.1151117914397326
10
52.980572729553401
20
-0.1151117914397326
42
-0.41421356237309509
10
54.730572729553387
20
-1.8651117914397308
10
54.730572729553401
20
-9.1651117914397346
42
-0.41421356237309509
0
LWPOLYLINE
5
108
100
AcDbEntity
8
0
100
AcDbPolyline
90
8
70
1
43
0.0
10
67.980572729553401
20
-10.915111791439733
10
60.680572729553397
20
-10.915111791439738
42
-0.41421356237309509
10
58.93057272955339
20
-9.1651117914397346
10
58.930572729553397
20
-1.865111791439733
42
-0.41421356237309509
10
60.680572729553397
20
-0.1151117914397326
10
67.980572729553401
20
-0.1151117914397326
42
-0.41421356237309509
10
69.730572729553387
20
-1.8651117914397308
10
69.730572729553401
20
-9.1651117914397346
42
-0.41421356237309509
0
LWPOLYLINE
5
109
100
AcDbEntity
8
0
100
AcDbPolyline
90
8
70
1
43
0.0
10
22.980572729553398
20
-25.915111791439735
10
15.680572729553395
20
-25.915111791439735
42
-0.41421356237309509
10
13.930572729553392
20
-24.165111791439735
10
13.930572729553397
20
-16.865111791439734
42
-0.41421356237309509
10
15.680572729553397
20
-15.115111791439732
10
22.980572729553398
20
-15.115111791439732
42
-0.41421356237309509
10
24.730572729553394
20
-16.86511179143973
10
24.730572729553394
20
-24.165111791439735
42
-0.41421356237309509
0
LWPOLYLINE
5
110
100
AcDbEntity
8
0
100
AcDbPolyline
90
8
70
1
43
0.0
10
37.980572729553401
20
-25.915111791439735
10
30.680572729553397
20
-25.915111791439735
42
-0.41421356237309509
10
28.93057272955339
20
-24.165111791439735
10
28.930572729553397
20
-16.865111791439734
42
-0.41421356237309509
10
30.680572729553397
20
-15.115111791439732
10
37.980572729553394
20
-15.115111791439732
42
-0.41421356237309509
10
39.730572729553394
20
-16.86511179143973
10
39.730572729553394
20
-24.165111791439735
42
-0.41421356237309509
0
LWPOLYLINE
5
111
100
AcDbEntity
8
0
100
AcDbPolyline
90
8
70
1
43
0.0
10
52.980572729553401
20
-25.915111791439735
10
45.680572729553397
20
-25.915111791439735
42
-0.41421356237309509
10
43.93057272955339
20
-24.165111791439735
10
43.930572729553397
20
-16.865111791439734
42
-0.41421356237309509
10
45.680572729553397
20
-15.115111791439732
10
52.980572729553401
20
-15.115111791439732
42
-0.41421356237309509
10
54.730572729553387
20
-16.86511179143973
10
54.730572729553401
20
-24.165111791439735
42
-0.41421356237309509
0
LWPOLYLINE
5
112
100
AcDbEntity
8
0
100
AcDbPolyline
90
8
70
1
43
0.0
10
67.980572729553401
20
-25.915111791439735
10
60.680572729553397
20
-25.915111791439735
42
-0.41421356237309509
10
58.93057272955339
20
-24.165111791439735
10
58.930572729553397
20
-16.865111791439734
42
-0.41421356237309509
10
60.680572729553397
20
-15.115111791439732
10
67.980572729553401
20
-15.115111791439732
42
-0.41421356237309509
10
69.730572729553387
20
-16.86511179143973
10
69.730572729553401
20
-24.165111791439735
42
-0.41421356237309509
0
LWPOLYLINE
5
113
100
AcDbEntity
8
0
100
AcDbPolyline
90
8
70
1
43
0.0
10
22.980572729553398
20
-40.915111791439728
10
15.680572729553395
20
-40.915111791439728
42
-0.41421356237309509
10
13.930572729553392
20
-39.165111791439735
10
13.930572729553397
20
-31.865111791439734
42
-0.41421356237309509
10
15.680572729553397
20
-30.11511179143973
10
22.980572729553398
20
-30.11511179143973
42
-0.41421356237309509
10
24.730572729553394
20
-31.86511179143973
10
24.730572729553394
20
-39.165111791439735
42
-0.41421356237309509
0
LWPOLYLINE
5
114
100
AcDbEntity
8
0
100
AcDbPolyline
90
8
70
1
43
0.0
10
37.980572729553401
20
-40.915111791439728
10
30.680572729553397
20
-40.915111791439728
42
-0.41421356237309509
10
28.93057272955339
20
-39.165111791439735
10
28.930572729553397
20
-31.865111791439734
42
-0.41421356237309509
10
30.680572729553397
20
-30.11511179143973
10
37.980572729553394
20
-30.11511179143973
42
-0.41421356237309509
10
39.730572729553394
20
-31.86511179143973
10
39.730572729553394
20
-39.165111791439735
42
-0.41421356237309509
0
LWPOLYLINE
5
115
100
AcDbEntity
8
0
100
AcDbPolyline
90
8
70
1
43
0.0
10
52.980572729553401
20
-40.915111791439728
10
45.680572729553397
20
-40.915111791439728
42
-0.41421356237309509
10
43.93057272955339
20
-39.165111791439735
10
43.930572729553397
20
-31.865111791439734
42
-0.41421356237309509
10
45.680572729553397
20
-30.11511179143973
10
52.980572729553401
20
-30.11511179143973
42
-0.41421356237309509
10
54.730572729553387
20
-31.86511179143973
10
54.730572729553401
20
-39.165111791439735
42
-0.41421356237309509
0
LWPOLYLINE
5
116
100
AcDbEntity
8
0
100
AcDbPolyline
90
8
70
1
43
0.0
10
67.980572729553401
20
-40.915111791439728
10
60.680572729553397
20
-40.915111791439728
42
-0.41421356237309509
10
58.93057272955339
20
-39.165111791439735
10
58.930572729553397
20
-31.865111791439734
42
-0.41421356237309509
10
60.680572729553397
20
-30.11511179143973
10
67.980572729553401
20
-30.11511179143973
42
-0.41421356237309509
10
69.730572729553387
20
-31.86511179143973
10
69.730572729553401
20
-39.165111791439735
42
-0.41421356237309509
0
LINE
5
117
100
AcDbEntity
8
0
100
AcDbLine
10
71.830572729553396
20
14.88488820856027
30
0
11
71.830572729553424
21
-220.91511179143976
31
0
0
LWPOLYLINE
5
118
100
AcDbEntity
8
0
100
AcDbPolyline
90
8
70
1
43
0.0
10
82.980572729553401
20
4.0848882085602662
10
75.680572729553404
20
4.0848882085602618
42
-0.41421356237309509
10
73.93057272955339
20
5.8348882085602654
10
73.930572729553404
20
13.134888208560266
42
-0.41421356237309509
10
75.680572729553404
20
14.884888208560268
10
82.980572729553401
20
14.884888208560268
42
-0.41421356237309509
10
84.730572729553387
20
13.13488820856027
10
84.730572729553415
20
5.8348882085602654
42
-0.41421356237309509
0
LWPOLYLINE
5
119
100
AcDbEntity
8
0
100
AcDbPolyline
90
8
70
1
43
0.0
10
82.980572729553401
20
-10.915111791439733
10
75.680572729553404
20
-10.915111791439738
42
-0.41421356237309509
10
73.93057272955339
20
-9.1651117914397346
10
73.930572729553404
20
-1.865111791439733
42
-0.41421356237309509
10
75.680572729553404
20
-0.1151117914397326
10
82.980572729553401
20
-0.1151117914397326
42
-0.41421356237309509
10
84.730572729553387
20
-1.8651117914397308
10
84.730572729553415
20
-9.1651117914397346
42
-0.41421356237309509
0
LWPOLYLINE
5
120
100
AcDbEntity
8
0
100
AcDbPolyline
90
8
70
1
43
0.0
10
82.980572729553401
20
-25.915111791439735
10
75.680572729553404
20
-25.915111791439735
42
-0.41421356237309509
10
73.93057272955339
20
-24.165111791439735
10
73.930572729553404
20
-16.865111791439734
42
-0.41421356237309509
10
75.680572729553404
20
-15.115111791439732
10
82.980572729553401
20
-15.115111791439732
42
-0.41421356237309509
10
84.730572729553387
20
-16.86511179143973
10
84.730572729553415
20
-24.165111791439735
42
-0.41421356237309509
0
LWPOLYLINE
5
121
100
AcDbEntity
8
0
100
AcDbPolyline
90
8
70
1
43
0.0
10
82.980572729553401
20
-40.915111791439728
10
75.680572729553404
20
-40.915111791439728
42
-0.41421356237309509
10
73.93057272955339
20
-39.165111791439735
10
73.930572729553404
20
-31.865111791439734
42
-0.41421356237309509
10
75.680572729553404
20
-30.11511179143973
10
82.980572729553401
20
-30.11511179143973
42
-0.41421356237309509
10
84.730572729553387
20
-31.86511179143973
10
84.730572729553415
20
-39.165111791439735
42
-0.41421356237309509
0
LWPOLYLINE
5
122
100
AcDbEntity
8
0
100
AcDbPolyline
90
8
70
1
43
0.0
10
22.980572729553398
20
-55.915111791439728
10
15.680572729553395
20
-55.915111791439728
42
-0.41421356237309509
10
13.930572729553392
20
-54.165111791439742
10
13.930572729553397
20
-46.865111791439737
42
-0.41421356237309509
10
15.680572729553397
20
-45.11511179143973
10
22.980572729553398
20
-45.11511179143973
42
-0.41421356237309509
10
24.730572729553394
20
-46.86511179143973
10
24.730572729553394
20
-54.165111791439735
42
-0.41421356237309509
0
LWPOLYLINE
5
123
100
AcDbEntity
8
0
100
AcDbPolyline
90
8
70
1
43
0.0
10
37.980572729553401
20
-55.915111791439728
10
30.680572729553397
20
-55.915111791439728
42
-0.41421356237309509
10
28.93057272955339
20
-54.165111791439742
10
28.930572729553397
20
-46.865111791439737
42
-0.41421356237309509
10
30.680572729553397
20
-45.11511179143973
10
37.980572729553394
20
-45.11511179143973
42
-0.41421356237309509
10
39.730572729553394
20
-46.86511179143973
10
39.730572729553394
20
-54.165111791439735
42
-0.41421356237309509
0
LWPOLYLINE
5
124
100
AcDbEntity
8
0
100
AcDbPolyline
90
8
70
1
43
0.0
10
52.980572729553401
20
-55.915111791439728
10
45.680572729553397
20
-55.915111791439728
42
-0.41421356237309509
10
43.93057272955339
20
-54.165111791439742
10
43.930572729553397
20
-46.865111791439737
42
-0.41421356237309509
10
45.680572729553397
20
-45.11511179143973
10
52.980572729553401
20
-45.11511179143973
42
-0.41421356237309509
10
54.730572729553387
20
-46.86511179143973
10
54.730572729553401
20
-54.165111791439735
42
-0.41421356237309509
0
LWPOLYLINE
5
125
100
AcDbEntity
8
0
100
AcDbPolyline
90
8
70
1
43
0.0
10
67.980572729553401
20
-55.915111791439728
10
60.680572729553397
20
-55.915111791439728
42
-0.41421356237309509
10
58.93057272955339
20
-54.165111791439742
10
58.930572729553397
20
-46.865111791439737
42
-0.41421356237309509
10
60.680572729553397
20
-45.11511179143973
10
67.980572729553401
20
-45.11511179143973
42
-0.41421356237309509
10
69.730572729553387
20
-46.86511179143973
10
69.730572729553401
20
-54.165111791439735
42
-0.41421356237309509
0
LWPOLYLINE
5
126
100
AcDbEntity
8
0
100
AcDbPolyline
90
8
70
1
43
0.0
10
82.980572729553401
20
-55.915111791439728
10
75.680572729553404
20
-55.915111791439728
42
-0.41421356237309509
10
73.93057272955339
20
-54.165111791439742
10
73.930572729553404
20
-46.865111791439737
42
-0.41421356237309509
10
75.680572729553404
20
-45.11511179143973
10
82.980572729553401
20
-45.11511179143973
42
-0.41421356237309509
10
84.730572729553387
20
-46.86511179143973
10
84.730572729553415
20
-54.165111791439735
42
-0.41421356237309509
0
LINE
5
127
100
AcDbEntity
8
0
100
AcDbLine
10
13.930572729553393
20
-43.015111791439729
30
0
11
249.73057272955342
21
-43.015111791439729
31
0
0
LINE
5
128
100
AcDbEntity
8
0
100
AcDbLine
10
13.930572729553393
20
-103.01511179143972
30
0
11
249.73057272955342
21
-103.01511179143969
31
0
0
LINE
5
129
100
AcDbEntity
8
0
100
AcDbLine
10
13.930572729553393
20
-163.01511179143972
30
0
11
249.73057272955342
21
-163.01511179143972
31
0
0
LINE
5
130
100
AcDbEntity
8
0
100
AcDbLine
10
131.83057272955338
20
14.88488820856027
30
0
11
131.83057272955338
21
-220.91511179143976
31
0
0
LINE
5
131
100
AcDbEntity
8
0
100
AcDbLine
10
191.83057272955338
20
14.88488820856027
30
0
11
191.83057272955338
21
-220.91511179143976
31
0
0
ARC
5
132
100
AcDbEntity
8
0
100
AcDbCircle
10
-32.986160476847076
20
-80.761469959811507
30
0
40
1.2688040775514446
100
AcDbArc
50
36.880560129985099
51
143.13010235415632
0
ARC
5
133
100
AcDbEntity
8
0
100
AcDbCircle
10
-30.987005447367771
20
-79.261522303950272
30
0
40
1.2304885828258931
100
AcDbArc
50
216.88056012998601
51
323.12473906222004
0
ARC
5
134
100
AcDbEntity
8
0
100
AcDbCircle
10
-29.001377038420749
20
-80.751034051172255
30
0
40
1.2517212031330809
100
AcDbArc
50
36.869905495987943
51
143.12473906485189
0
ARC
5
135
100
AcDbEntity
8
0
100
AcDbCircle
10
-27.002153346722832
20
-79.251615854405173
30
0
40
1.2473086682855277
100
AcDbArc
50
216.8699054960195
51
321.33728562085599
0
ARC
5
136
100
AcDbEntity
8
0
100
AcDbCircle
10
-19.002153346722828
20
-79.251615854405173
30
0
40
1.2473086682855314
100
AcDbArc
50
216.86990549601927
51
321.33728562085599
0
ARC
5
137
100
AcDbEntity
8
0
100
AcDbCircle
10
-22.987005447367771
20
-79.261522303950272
30
0
40
1.2304885828258896
100
AcDbArc
50
216.88056012998607
51
323.12473906222004
0
ARC
5
138
100
AcDbEntity
8
0
100
AcDbCircle
10
-21.001377038420749
20
-80.751034051172255
30
0
40
1.2517212031330809
100
AcDbArc
50
36.86990549598805
51
143.12473906485189
0
ARC
5
139
100
AcDbEntity
8
0
100
AcDbCircle
10
-24.986160476847079
20
-80.761469959811507
30
0
40
1.2688040775514484
100
AcDbArc
50
36.8805601299849
51
143.13010235415621
0
ARC
5
140
100
AcDbEntity
8
0
100
AcDbCircle
10
-11.00215334672283
20
-79.251615854405173
30
0
40
1.2473086682855297
100
AcDbArc
50
216.86990549601941
51
321.33728562085599
0
ARC
5
141
100
AcDbEntity
8
0
100
AcDbCircle
10
-14.987005447367771
20
-79.261522303950272
30
0
40
1.2304885828258914
100
AcDbArc
50
216.88056012998601
51
323.1247390622201
0
ARC
5
142
100
AcDbEntity
8
0
100
AcDbCircle
10
-13.001377038420749
20
-80.751034051172255
30
0
40
1.2517212031330827
100
AcDbArc
50
36.869905495987943
51
143.12473906485187
0
ARC
5
143
100
AcDbEntity
8
0
100
AcDbCircle
10
-16.986160476847076
20
-80.761469959811507
30
0
40
1.2688040775514446
100
AcDbArc
50
36.880560129985099
51
143.13010235415632
0
CIRCLE
5
144
100
AcDbEntity
8
0
100
AcDbCircle
10
8.930572729553397
20
19.884888208560266
30
0
40
1.5500000000000003
0
CIRCLE
5
145
100
AcDbEntity
8
0
100
AcDbCircle
10
254.73057272955342
20
19.88488820856027
30
0
40
1.549999999999998
0
CIRCLE
5
146
100
AcDbEntity
8
0
100
AcDbCircle
10
8.9305727295533934
20
-225.91511179143976
30
0
40
1.5500000000000025
0
CIRCLE
5
147
100
AcDbEntity
8
0
100
AcDbCircle
10
254.73057272955339
20
-225.9151117914397
30
0
40
1.5500000000000114
0
LWPOLYLINE
5
148
100
AcDbEntity
8
0
100
AcDbPolyline
90
8
70
1
43
0.0
10
97.980572729553401
20
4.0848882085602662
10
90.680572729553404
20
4.0848882085602582
42
-0.41421356237309509
10
88.93057272955339
20
5.8348882085602654
10
88.93057272955339
20
13.134888208560266
42
-0.41421356237309509
10
90.680572729553404
20
14.884888208560268
10
97.980572729553401
20
14.884888208560259
42
-0.41421356237309509
10
99.730572729553387
20
13.13488820856027
10
99.730572729553415
20
5.8348882085602654
42
-0.41421356237309509
0
LWPOLYLINE
5
149
100
AcDbEntity
8
0
100
AcDbPolyline
90
8
70
1
43
0.0
10
112.9805727295534
20
4.0848882085602662
10
105.6805727295534
20
4.0848882085602582
42
-0.41421356237309509
10
103.93057272955339
20
5.8348882085602654
10
103.93057272955339
20
13.134888208560266
42
-0.41421356237309509
10
105.6805727295534
20
14.884888208560268
10
112.9805727295534
20
14.884888208560259
42
-0.41421356237309509
10
114.73057272955339
20
13.13488820856027
10
114.73057272955342
20
5.8348882085602654
42
-0.41421356237309509
0
LWPOLYLINE
5
150
100
AcDbEntity
8
0
100
AcDbPolyline
90
8
70
1
43
0.0
10
127.9805727295534
20
4.0848882085602662
10
120.6805727295534
20
4.0848882085602582
42
-0.41421356237309509
10
118.93057272955339
20
5.8348882085602654
10
118.93057272955339
20
13.134888208560266
42
-0.41421356237309509
10
120.6805727295534
20
14.884888208560268
10
127.9805727295534
20
14.884888208560259
42
-0.41421356237309509
10
129.73057272955339
20
13.13488820856027
10
129.73057272955342
20
5.8348882085602654
42
-0.41421356237309509
0
LWPOLYLINE
5
151
100
AcDbEntity
8
0
100
AcDbPolyline
90
8
70
1
43
0.0
10
142.98057272955339
20
4.0848882085602662
10
135.6805727295534
20
4.0848882085602582
42
-0.41421356237309509
10
133.93057272955338
20
5.8348882085602654
10
133.93057272955338
20
13.134888208560266
42
-0.41421356237309509
10
135.6805727295534
20
14.884888208560268
10
142.98057272955339
20
14.884888208560259
42
-0.41421356237309509
10
144.73057272955339
20
13.13488820856027
10
144.73057272955342
20
5.8348882085602654
42
-0.41421356237309509
0
LWPOLYLINE
5
152
100
AcDbEntity
8
0
100
AcDbPolyline
90
8
70
1
43
0.0
10
157.98057272955339
20
4.0848882085602662
10
150.6805727295534
20
4.0848882085602582
42
-0.41421356237309509
10
148.93057272955338
20
5.8348882085602654
10
148.93057272955338
20
13.134888208560266
42
-0.41421356237309509
10
150.6805727295534
20
14.884888208560268
10
157.98057272955339
20
14.884888208560259
42
-0.41421356237309509
10
159.73057272955339
20
13.13488820856027
10
159.73057272955342
20
5.8348882085602654
42
-0.41421356237309509
0
LWPOLYLINE
5
153
100
AcDbEntity
8
0
100
AcDbPolyline
90
8
70
1
43
0.0
10
172.98057272955339
20
4.0848882085602662
10
165.6805727295534
20
4.0848882085602582
42
-0.41421356237309509
10
163.93057272955338
20
5.8348882085602654
10
163.93057272955338
20
13.134888208560266
42
-0.41421356237309509
10
165.6805727295534
20
14.884888208560268
10
172.98057272955339
20
14.884888208560277
42
-0.41421356237309509
10
174.73057272955342
20
13.13488820856027
10
174.73057272955342
20
5.8348882085602654
42
-0.41421356237309509
0
LWPOLYLINE
5
154
100
AcDbEntity
8
0
100
AcDbPolyline
90
8
70
1
43
0.0
10
187.98057272955339
20
4.0848882085602662
10
180.6805727295534
20
4.0848882085602582
42
-0.41421356237309509
10
178.93057272955338
20
5.8348882085602654
10
178.93057272955338
20
13.134888208560266
42
-0.41421356237309509
10
180.6805727295534
20
14.884888208560268
10
187.98057272955339
20
14.884888208560277
42
-0.41421356237309509
10
189.73057272955342
20
13.13488820856027
10
189.73057272955342
20
5.8348882085602654
42
-0.41421356237309509
0
LWPOLYLINE
5
155
100
AcDbEntity
8
0
100
AcDbPolyline
90
8
70
1
43
0.0
10
202.98057272955339
20
4.0848882085602662
10
195.6805727295534
20
4.0848882085602582
42
-0.41421356237309509
10
193.93057272955338
20
5.8348882085602654
10
193.93057272955338
20
13.134888208560266
42
-0.41421356237309509
10
195.6805727295534
20
14.884888208560268
10
202.98057272955339
20
14.884888208560277
42
-0.41421356237309509
10
204.73057272955342
20
13.13488820856027
10
204.73057272955342
20
5.8348882085602654
42
-0.41421356237309509
0
LWPOLYLINE
5
156
100
AcDbEntity
8
0
100
AcDbPolyline
90
8
70
1
43
0.0
10
217.98057272955339
20
4.0848882085602662
10
210.6805727295534
20
4.0848882085602582
42
-0.41421356237309509
10
208.93057272955338
20
5.8348882085602654
10
208.93057272955338
20
13.134888208560266
42
-0.41421356237309509
10
210.6805727295534
20
14.884888208560268
10
217.98057272955339
20
14.884888208560277
42
-0.41421356237309509
10
219.73057272955342
20
13.13488820856027
10
219.73057272955342
20
5.8348882085602654
42
-0.41421356237309509
0
LWPOLYLINE
5
157
100
AcDbEntity
8
0
100
AcDbPolyline
90
8
70
1
43
0.0
10
232.98057272955339
20
4.0848882085602662
10
225.6805727295534
20
4.0848882085602582
42
-0.41421356237309509
10
223.93057272955338
20
5.8348882085602654
10
223.93057272955338
20
13.134888208560266
42
-0.41421356237309509
10
225.6805727295534
20
14.884888208560268
10
232.98057272955339
20
14.884888208560277
42
-0.41421356237309509
10
234.73057272955342
20
13.13488820856027
10
234.73057272955342
20
5.8348882085602654
42
-0.41421356237309509
0
LWPOLYLINE
5
158
100
AcDbEntity
8
0
100
AcDbPolyline
90
8
70
1
43
0.0
10
247.98057272955339
20
4.0848882085602662
10
240.6805727295534
20
4.0848882085602582
42
-0.41421356237309509
10
238.93057272955338
20
5.8348882085602654
10
238.93057272955338
20
13.134888208560266
42
-0.41421356237309509
10
240.6805727295534
20
14.884888208560268
10
247.98057272955339
20
14.884888208560277
42
-0.41421356237309509
10
249.73057272955342
20
13.13488820856027
10
249.73057272955342
20
5.8348882085602654
42
-0.41421356237309509
0
LWPOLYLINE
5
159
100
AcDbEntity
8
0
100
AcDbPolyline
90
8
70
1
43
0.0
10
97.980572729553401
20
-10.915111791439733
10
90.680572729553404
20
-10.915111791439742
42
-0.41421356237309509
10
88.93057272955339
20
-9.1651117914397346
10
88.93057272955339
20
-1.865111791439733
42
-0.41421356237309509
10
90.680572729553404
20
-0.1151117914397326
10
97.980572729553401
20
-0.11511179143974148
42
-0.41421356237309509
10
99.730572729553387
20
-1.8651117914397308
10
99.730572729553415
20
-9.1651117914397346
42
-0.41421356237309509
0
LWPOLYLINE
5
160
100
AcDbEntity
8
0
100
AcDbPolyline
90
8
70
1
43
0.0
10
112.9805727295534
20
-10.915111791439733
10
105.6805727295534
20
-10.915111791439742
42
-0.41421356237309509
10
103.93057272955339
20
-9.1651117914397346
10
103.93057272955339
20
-1.865111791439733
42
-0.41421356237309509
10
105.6805727295534
20
-0.1151117914397326
10
112.9805727295534
20
-0.11511179143974148
42
-0.41421356237309509
10
114.73057272955339
20
-1.8651117914397308
10
114.73057272955342
20
-9.1651117914397346
42
-0.41421356237309509
0
LWPOLYLINE
5
161
100
AcDbEntity
8
0
100
AcDbPolyline
90
8
70
1
43
0.0
10
127.9805727295534
20
-10.915111791439733
10
120.6805727295534
20
-10.915111791439742
42
-0.41421356237309509
10
118.93057272955339
20
-9.1651117914397346
10
118.93057272955339
20
-1.865111791439733
42
-0.41421356237309509
10
120.6805727295534
20
-0.1151117914397326
10
127.9805727295534
20
-0.11511179143974148
42
-0.41421356237309509
10
129.73057272955339
20
-1.8651117914397308
10
129.73057272955342
20
-9.1651117914397346
42
-0.41421356237309509
0
LWPOLYLINE
5
162
100
AcDbEntity
8
0
100
AcDbPolyline
90
8
70
1
43
0.0
10
142.98057272955339
20
-10.915111791439733
10
135.6805727295534
20
-10.915111791439742
42
-0.41421356237309509
10
133.93057272955338
20
-9.1651117914397346
10
133.93057272955338
20
-1.865111791439733
42
-0.41421356237309509
10
135.6805727295534
20
-0.1151117914397326
10
142.98057272955339
20
-0.11511179143974148
42
-0.41421356237309509
10
144.73057272955339
20
-1.8651117914397308
10
144.73057272955342
20
-9.1651117914397346
42
-0.41421356237309509
0
LWPOLYLINE
5
163
100
AcDbEntity
8
0
100
AcDbPolyline
90
8
70
1
43
0.0
10
157.98057272955339
20
-10.915111791439733
10
150.6805727295534
20
-10.915111791439742
42
-0.41421356237309509
10
148.93057272955338
20
-9.1651117914397346
10
148.93057272955338
20
-1.865111791439733
42
-0.41421356237309509
10
150.6805727295534
20
-0.1151117914397326
10
157.98057272955339
20
-0.11511179143974148
42
-0.41421356237309509
10
159.73057272955339
20
-1.8651117914397308
10
159.73057272955342
20
-9.1651117914397346
42
-0.41421356237309509
0
LWPOLYLINE
5
164
100
AcDbEntity
8
0
100
AcDbPolyline
90
8
70
1
43
0.0
10
172.98057272955339
20
-10.915111791439733
10
165.6805727295534
20
-10.915111791439742
42
-0.41421356237309509
10
163.93057272955338
20
-9.1651117914397346
10
163.93057272955338
20
-1.865111791439733
42
-0.41421356237309509
10
165.6805727295534
20
-0.1151117914397326
10
172.98057272955339
20
-0.11511179143972372
42
-0.41421356237309509
10
174.73057272955342
20
-1.8651117914397308
10
174.73057272955342
20
-9.1651117914397346
42
-0.41421356237309509
0
LWPOLYLINE
5
165
100
AcDbEntity
8
0
100
AcDbPolyline
90
8
70
1
43
0.0
10
187.98057272955339
20
-10.915111791439733
10
180.6805727295534
20
-10.915111791439742
42
-0.41421356237309509
10
178.93057272955338
20
-9.1651117914397346
10
178.93057272955338
20
-1.865111791439733
42
-0.41421356237309509
10
180.6805727295534
20
-0.1151117914397326
10
187.98057272955339
20
-0.11511179143972372
42
-0.41421356237309509
10
189.73057272955342
20
-1.8651117914397308
10
189.73057272955342
20
-9.1651117914397346
42
-0.41421356237309509
0
LWPOLYLINE
5
166
100
AcDbEntity
8
0
100
AcDbPolyline
90
8
70
1
43
0.0
10
202.98057272955339
20
-10.915111791439733
10
195.6805727295534
20
-10.915111791439742
42
-0.41421356237309509
10
193.93057272955338
20
-9.1651117914397346
10
193.93057272955338
20
-1.865111791439733
42
-0.41421356237309509
10
195.6805727295534
20
-0.1151117914397326
10
202.98057272955339
20
-0.11511179143972372
42
-0.41421356237309509
10
204.73057272955342
20
-1.8651117914397308
10
204.73057272955342
20
-9.1651117914397346
42
-0.41421356237309509
0
LWPOLYLINE
5
167
100
AcDbEntity
8
0
100
AcDbPolyline
90
8
70
1
43
0.0
10
217.98057272955339
20
-10.915111791439733
10
210.6805727295534
20
-10.915111791439742
42
-0.41421356237309509
10
208.93057272955338
20
-9.1651117914397346
10
208.93057272955338
20
-1.865111791439733
42
-0.41421356237309509
10
210.6805727295534
20
-0.1151117914397326
10
217.98057272955339
20
-0.11511179143972372
42
-0.41421356237309509
10
219.73057272955342
20
-1.8651117914397308
10
219.73057272955342
20
-9.1651117914397346
42
-0.41421356237309509
0
LWPOLYLINE
5
168
100
AcDbEntity
8
0
100
AcDbPolyline
90
8
70
1
43
0.0
10
232.98057272955339
20
-10.915111791439733
10
225.6805727295534
20
-10.915111791439742
42
-0.41421356237309509
10
223.93057272955338
20
-9.1651117914397346
10
223.93057272955338
20
-1.865111791439733
42
-0.41421356237309509
10
225.6805727295534
20
-0.1151117914397326
10
232.98057272955339
20
-0.11511179143972372
42
-0.41421356237309509
10
234.73057272955342
20
-1.8651117914397308
10
234.73057272955342
20
-9.1651117914397346
42
-0.41421356237309509
0
LWPOLYLINE
5
169
100
AcDbEntity
8
0
100
AcDbPolyline
90
8
70
1
43
0.0
10
247.98057272955339
20
-10.915111791439733
10
240.6805727295534
20
-10.915111791439742
42
-0.41421356237309509
10
238.93057272955338
20
-9.1651117914397346
10
238.93057272955338
20
-1.865111791439733
42
-0.41421356237309509
10
240.6805727295534
20
-0.1151117914397326
10
247.98057272955339
20
-0.11511179143972372
42
-0.41421356237309509
10
249.73057272955342
20
-1.8651117914397308
10
249.73057272955342
20
-9.1651117914397346
42
-0.41421356237309509
0
LWPOLYLINE
5
170
100
AcDbEntity
8
0
100
AcDbPolyline
90
8
70
1
43
0.0
10
97.980572729553401
20
-25.915111791439735
10
90.680572729553404
20
-25.915111791439742
42
-0.41421356237309509
10
88.93057272955339
20
-24.165111791439735
10
88.93057272955339
20
-16.865111791439734
42
-0.41421356237309509
10
90.680572729553404
20
-15.115111791439732
10
97.980572729553401
20
-15.115111791439741
42
-0.41421356237309509
10
99.730572729553387
20
-16.86511179143973
10
99.730572729553415
20
-24.165111791439735
42
-0.41421356237309509
0
LWPOLYLINE
5
171
100
AcDbEntity
8
0
100
AcDbPolyline
90
8
70
1
43
0.0
10
112.9805727295534
20
-25.915111791439735
10
105.6805727295534
20
-25.915111791439742
42
-0.41421356237309509
10
103.93057272955339
20
-24.165111791439735
10
103.93057272955339
20
-16.865111791439734
42
-0.41421356237309509
10
105.6805727295534
20
-15.115111791439732
10
112.9805727295534
20
-15.115111791439741
42
-0.41421356237309509
10
114.73057272955339
20
-16.86511179143973
10
114.73057272955342
20
-24.165111791439735
42
-0.41421356237309509
0
LWPOLYLINE
5
172
100
AcDbEntity
8
0
100
AcDbPolyline
90
8
70
1
43
0.0
10
127.9805727295534
20
-25.915111791439735
10
120.6805727295534
20
-25.915111791439742
42
-0.41421356237309509
10
118.93057272955339
20
-24.165111791439735
10
118.93057272955339
20
-16.865111791439734
42
-0.41421356237309509
10
120.6805727295534
20
-15.115111791439732
10
127.9805727295534
20
-15.115111791439741
42
-0.41421356237309509
10
129.73057272955339
20
-16.86511179143973
10
129.73057272955342
20
-24.165111791439735
42
-0.41421356237309509
0
LWPOLYLINE
5
173
100
AcDbEntity
8
0
100
AcDbPolyline
90
8
70
1
43
0.0
10
142.98057272955339
20
-25.915111791439735
10
135.6805727295534
20
-25.915111791439742
42
-0.41421356237309509
10
133.93057272955338
20
-24.165111791439735
10
133.93057272955338
20
-16.865111791439734
42
-0.41421356237309509
10
135.6805727295534
20
-15.115111791439732
10
142.98057272955339
20
-15.115111791439741
42
-0.41421356237309509
10
144.73057272955339
20
-16.86511179143973
10
144.73057272955342
20
-24.165111791439735
42
-0.41421356237309509
0
LWPOLYLINE
5
174
100
AcDbEntity
8
0
100
AcDbPolyline
90
8
70
1
43
0.0
10
157.98057272955339
20
-25.915111791439735
10
150.6805727295534
20
-25.915111791439742
42
-0.41421356237309509
10
148.93057272955338
20
-24.165111791439735
10
148.93057272955338
20
-16.865111791439734
42
-0.41421356237309509
10
150.6805727295534
20
-15.115111791439732
10
157.98057272955339
20
-15.115111791439741
42
-0.41421356237309509
10
159.73057272955339
20
-16.86511179143973
10
159.73057272955342
20
-24.165111791439735
42
-0.41421356237309509
0
LWPOLYLINE
5
175
100
AcDbEntity
8
0
100
AcDbPolyline
90
8
70
1
43
0.0
10
172.98057272955339
20
-25.915111791439735
10
165.6805727295534
20
-25.915111791439742
42
-0.41421356237309509
10
163.93057272955338
20
-24.165111791439735
10
163.93057272955338
20
-16.865111791439734
42
-0.41421356237309509
10
165.6805727295534
20
-15.115111791439732
10
172.98057272955339
20
-15.115111791439723
42
-0.41421356237309509
10
174.73057272955342
20
-16.86511179143973
10
174.73057272955342
20
-24.165111791439735
42
-0.41421356237309509
0
LWPOLYLINE
5
176
100
AcDbEntity
8
0
100
AcDbPolyline
90
8
70
1
43
0.0
10
187.98057272955339
20
-25.915111791439735
10
180.6805727295534
20
-25.915111791439742
42
-0.41421356237309509
10
178.93057272955338
20
-24.165111791439735
10
178.93057272955338
20
-16.865111791439734
42
-0.41421356237309509
10
180.6805727295534
20
-15.115111791439732
10
187.98057272955339
20
-15.115111791439723
42
-0.41421356237309509
10
189.73057272955342
20
-16.86511179143973
10
189.73057272955342
20
-24.165111791439735
42
-0.41421356237309509
0
LWPOLYLINE
5
177
100
AcDbEntity
8
0
100
AcDbPolyline
90
8
70
1
43
0.0
10
202.98057272955339
20
-25.915111791439735
10
195.6805727295534
20
-25.915111791439742
42
-0.41421356237309509
10
193.93057272955338
20
-24.165111791439735
10
193.93057272955338
20
-16.865111791439734
42
-0.41421356237309509
10
195.6805727295534
20
-15.115111791439732
10
202.98057272955339
20
-15.115111791439723
42
-0.41421356237309509
10
204.73057272955342
20
-16.86511179143973
10
204.73057272955342
20
-24.165111791439735
42
-0.41421356237309509
0
LWPOLYLINE
5
178
100
AcDbEntity
8
0
100
AcDbPolyline
90
8
70
1
43
0.0
10
217.98057272955339
20
-25.915111791439735
10
210.6805727295534
20
-25.915111791439742
42
-0.41421356237309509
10
208.93057272955338
20
-24.165111791439735
10
208.93057272955338
20
-16.865111791439734
42
-0.41421356237309509
10
210.6805727295534
20
-15.115111791439732
10
217.98057272955339
20
-15.115111791439723
42
-0.41421356237309509
10
219.73057272955342
20
-16.86511179143973
10
219.73057272955342
20
-24.165111791439735
42
-0.41421356237309509
0
LWPOLYLINE
5
179
100
AcDbEntity
8
0
100
AcDbPolyline
90
8
70
1
43
0.0
10
232.98057272955339
20
-25.915111791439735
10
225.6805727295534
20
-25.915111791439742
42
-0.41421356237309509
10
223.93057272955338
20
-24.165111791439735
10
223.93057272955338
20
-16.865111791439734
42
-0.41421356237309509
10
225.6805727295534
20
-15.115111791439732
10
232.98057272955339
20
-15.115111791439723
42
-0.41421356237309509
10
234.73057272955342
20
-16.86511179143973
10
234.73057272955342
20
-24.165111791439735
42
-0.41421356237309509
0
LWPOLYLINE
5
180
100
AcDbEntity
8
0
100
AcDbPolyline
90
8
70
1
43
0.0
10
247.98057272955339
20
-25.915111791439735
10
240.6805727295534
20
-25.915111791439742
42
-0.41421356237309509
10
238.93057272955338
20
-24.165111791439735
10
238.93057272955338
20
-16.865111791439734
42
-0.41421356237309509
10
240.6805727295534
20
-15.115111791439732
10
247.98057272955339
20
-15.115111791439723
42
-0.41421356237309509
10
249.73057272955342
20
-16.86511179143973
10
249.73057272955342
20
-24.165111791439735
42
-0.41421356237309509
0
LWPOLYLINE
5
181
100
AcDbEntity
8
0
100
AcDbPolyline
90
8
70
1
43
0.0
10
97.980572729553401
20
-40.915111791439728
10
90.680572729553404
20
-40.915111791439742
42
-0.41421356237309509
10
88.93057272955339
20
-39.165111791439735
10
88.93057272955339
20
-31.865111791439734
42
-0.41421356237309509
10
90.680572729553404
20
-30.11511179143973
10
97.980572729553401
20
-30.115111791439737
42
-0.41421356237309509
10
99.730572729553387
20
-31.86511179143973
10
99.730572729553415
20
-39.165111791439735
42
-0.41421356237309509
0
LWPOLYLINE
5
182
100
AcDbEntity
8
0
100
AcDbPolyline
90
8
70
1
43
0.0
10
112.9805727295534
20
-40.915111791439728
10
105.6805727295534
20
-40.915111791439742
42
-0.41421356237309509
10
103.93057272955339
20
-39.165111791439735
10
103.93057272955339
20
-31.865111791439734
42
-0.41421356237309509
10
105.6805727295534
20
-30.11511179143973
10
112.9805727295534
20
-30.115111791439737
42
-0.41421356237309509
10
114.73057272955339
20
-31.86511179143973
10
114.73057272955342
20
-39.165111791439735
42
-0.41421356237309509
0
LWPOLYLINE
5
183
100
AcDbEntity
8
0
100
AcDbPolyline
90
8
70
1
43
0.0
10
127.9805727295534
20
-40.915111791439728
10
120.6805727295534
20
-40.915111791439742
42
-0.41421356237309509
10
118.93057272955339
20
-39.165111791439735
10
118.93057272955339
20
-31.865111791439734
42
-0.41421356237309509
10
120.6805727295534
20
-30.11511179143973
10
127.9805727295534
20
-30.115111791439737
42
-0.41421356237309509
10
129.73057272955339
20
-31.86511179143973
10
129.73057272955342
20
-39.165111791439735
42
-0.41421356237309509
0
LWPOLYLINE
5
184
100
AcDbEntity
8
0
100
AcDbPolyline
90
8
70
1
43
0.0
10
142.98057272955339
20
-40.915111791439728
10
135.6805727295534
20
-40.915111791439742
42
-0.41421356237309509
10
133.93057272955338
20
-39.165111791439735
10
133.93057272955338
20
-31.865111791439734
42
-0.41421356237309509
10
135.6805727295534
20
-30.11511179143973
10
142.98057272955339
20
-30.115111791439737
42
-0.41421356237309509
10
144.73057272955339
20
-31.86511179143973
10
144.73057272955342
20
-39.165111791439735
42
-0.41421356237309509
0
LWPOLYLINE
5
185
100
AcDbEntity
8
0
100
AcDbPolyline
90
8
70
1
43
0.0
10
157.98057272955339
20
-40.915111791439728
10
150.6805727295534
20
-40.915111791439742
42
-0.41421356237309509
10
148.93057272955338
20
-39.165111791439735
10
148.93057272955338
20
-31.865111791439734
42
-0.41421356237309509
10
150.6805727295534
20
-30.11511179143973
10
157.98057272955339
20
-30.115111791439737
42
-0.41421356237309509
10
159.73057272955339
20
-31.86511179143973
10
159.73057272955342
20
-39.165111791439735
42
-0.41421356237309509
0
LWPOLYLINE
5
186
100
AcDbEntity
8
0
100
AcDbPolyline
90
8
70
1
43
0.0
10
172.98057272955339
20
-40.915111791439728
10
165.6805727295534
20
-40.915111791439742
42
-0.41421356237309509
10
163.93057272955338
20
-39.165111791439735
10
163.93057272955338
20
-31.865111791439734
42
-0.41421356237309509
10
165.6805727295534
20
-30.11511179143973
10
172.98057272955339
20
-30.115111791439723
42
-0.41421356237309509
10
174.73057272955342
20
-31.86511179143973
10
174.73057272955342
20
-39.165111791439735
42
-0.41421356237309509
0
LWPOLYLINE
5
187
100
AcDbEntity
8
0
100
AcDbPolyline
90
8
70
1
43
0.0
10
187.98057272955339
20
-40.915111791439728
10
180.6805727295534
20
-40.915111791439742
42
-0.41421356237309509
10
178.93057272955338
20
-39.165111791439735
10
178.93057272955338
20
-31.865111791439734
42
-0.41421356237309509
10
180.6805727295534
20
-30.11511179143973
10
187.98057272955339
20
-30.115111791439723
42
-0.41421356237309509
10
189.73057272955342
20
-31.86511179143973
10
189.73057272955342
20
-39.165111791439735
42
-0.41421356237309509
0
LWPOLYLINE
5
188
100
AcDbEntity
8
0
100
AcDbPolyline
90
8
70
1
43
0.0
10
202.98057272955339
20
-40.915111791439728
10
195.6805727295534
20
-40.915111791439742
42
-0.41421356237309509
10
193.93057272955338
20
-39.165111791439735
10
193.93057272955338
20
-31.865111791439734
42
-0.41421356237309509
10
195.6805727295534
20
-30.11511179143973
10
202.98057272955339
20
-30.115111791439723
42
-0.41421356237309509
10
204.73057272955342
20
-31.86511179143973
10
204.73057272955342
20
-39.165111791439735
42
-0.41421356237309509
0
LWPOLYLINE
5
189
100
AcDbEntity
8
0
100
AcDbPolyline
90
8
70
1
43
0.0
10
217.98057272955339
20
-40.915111791439728
10
210.6805727295534
20
-40.915111791439742
42
-0.41421356237309509
10
208.93057272955338
20
-39.165111791439735
10
208.93057272955338
20
-31.865111791439734
42
-0.41421356237309509
10
210.6805727295534
20
-30.11511179143973
10
217.98057272955339
20
-30.115111791439723
42
-0.41421356237309509
10
219.73057272955342
20
-31.86511179143973
10
219.73057272955342
20
-39.165111791439735
42
-0.41421356237309509
0
LWPOLYLINE
5
190
100
AcDbEntity
8
0
100
AcDbPolyline
90
8
70
1
43
0.0
10
232.98057272955339
20
-40.915111791439728
10
225.6805727295534
20
-40.915111791439742
42
-0.41421356237309509
10
223.93057272955338
20
-39.165111791439735
10
223.93057272955338
20
-31.865111791439734
42
-0.41421356237309509
10
225.6805727295534
20
-30.11511179143973
10
232.98057272955339
20
-30.115111791439723
42
-0.41421356237309509
10
234.73057272955342
20
-31.86511179143973
10
234.73057272955342
20
-39.165111791439735
42
-0.41421356237309509
0
LWPOLYLINE
5
191
100
AcDbEntity
8
0
100
AcDbPolyline
90
8
70
1
43
0.0
10
247.98057272955339
20
-40.915111791439728
10
240.6805727295534
20
-40.915111791439742
42
-0.41421356237309509
10
238.93057272955338
20
-39.165111791439735
10
238.93057272955338
20
-31.865111791439734
42
-0.41421356237309509
10
240.6805727295534
20
-30.11511179143973
10
247.98057272955339
20
-30.115111791439723
42
-0.41421356237309509
10
249.73057272955342
20
-31.86511179143973
10
249.73057272955342
20
-39.165111791439735
42
-0.41421356237309509
0
LWPOLYLINE
5
192
100
AcDbEntity
8
0
100
AcDbPolyline
90
8
70
1
43
0.0
10
97.980572729553401
20
-55.915111791439728
10
90.680572729553404
20
-55.915111791439742
42
-0.41421356237309509
10
88.93057272955339
20
-54.165111791439735
10
88.93057272955339
20
-46.865111791439737
42
-0.41421356237309509
10
90.680572729553404
20
-45.11511179143973
10
97.980572729553401
20
-45.115111791439737
42
-0.41421356237309509
10
99.730572729553387
20
-46.86511179143973
10
99.730572729553415
20
-54.165111791439735
42
-0.41421356237309509
0
LWPOLYLINE
5
193
100
AcDbEntity
8
0
100
AcDbPolyline
90
8
70
1
43
0.0
10
112.9805727295534
20
-55.915111791439728
10
105.6805727295534
20
-55.915111791439742
42
-0.41421356237309509
10
103.93057272955339
20
-54.165111791439735
10
103.93057272955339
20
-46.865111791439737
42
-0.41421356237309509
10
105.6805727295534
20
-45.11511179143973
10
112.9805727295534
20
-45.115111791439737
42
-0.41421356237309509
10
114.73057272955339
20
-46.86511179143973
10
114.73057272955342
20
-54.165111791439735
42
-0.41421356237309509
0
LWPOLYLINE
5
194
100
AcDbEntity
8
0
100
AcDbPolyline
90
8
70
1
43
0.0
10
127.9805727295534
20
-55.915111791439728
10
120.6805727295534
20
-55.915111791439742
42
-0.41421356237309509
10
118.93057272955339
20
-54.165111791439735
10
118.93057272955339
20
-46.865111791439737
42
-0.41421356237309509
10
120.6805727295534
20
-45.11511179143973
10
127.9805727295534
20
-45.115111791439737
42
-0.41421356237309509
10
129.73057272955339
20
-46.86511179143973
10
129.73057272955342
20
-54.165111791439735
42
-0.41421356237309509
0
LWPOLYLINE
5
195
100
AcDbEntity
8
0
100
AcDbPolyline
90
8
70
1
43
0.0
10
142.98057272955339
20
-55.915111791439728
10
135.6805727295534
20
-55.915111791439742
42
-0.41421356237309509
10
133.93057272955338
20
-54.165111791439735
10
133.93057272955338
20
-46.865111791439737
42
-0.41421356237309509
10
135.6805727295534
20
-45.11511179143973
10
142.98057272955339
20
-45.115111791439737
42
-0.41421356237309509
10
144.73057272955339
20
-46.86511179143973
10
144.73057272955342
20
-54.165111791439735
42
-0.41421356237309509
0
LWPOLYLINE
5
196
100
AcDbEntity
8
0
100
AcDbPolyline
90
8
70
1
43
0.0
10
157.98057272955339
20
-55.915111791439728
10
150.6805727295534
20
-55.915111791439742
42
-0.41421356237309509
10
148.93057272955338
20
-54.165111791439735
10
148.93057272955338
20
-46.865111791439737
42
-0.41421356237309509
10
150.6805727295534
20
-45.11511179143973
10
157.98057272955339
20
-45.115111791439737
42
-0.41421356237309509
10
159.73057272955339
20
-46.86511179143973
10
159.73057272955342
20
-54.165111791439735
42
-0.41421356237309509
0
LWPOLYLINE
5
197
100
AcDbEntity
8
0
100
AcDbPolyline
90
8
70
1
43
0.0
10
172.98057272955339
20
-55.915111791439728
10
165.6805727295534
20
-55.915111791439742
42
-0.41421356237309509
10
163.93057272955338
20
-54.165111791439735
10
163.93057272955338
20
-46.865111791439737
42
-0.41421356237309509
10
165.6805727295534
20
-45.11511179143973
10
172.98057272955339
20
-45.115111791439723
42
-0.41421356237309509
10
174.73057272955342
20
-46.86511179143973
10
174.73057272955342
20
-54.165111791439735
42
-0.41421356237309509
0
LWPOLYLINE
5
198
100
AcDbEntity
8
0
100
AcDbPolyline
90
8
70
1
43
0.0
10
187.98057272955339
20
-55.915111791439728
10
180.6805727295534
20
-55.915111791439742
42
-0.41421356237309509
10
178.93057272955338
20
-54.165111791439735
10
178.93057272955338
20
-46.865111791439737
42
-0.41421356237309509
10
180.6805727295534
20
-45.11511179143973
10
187.98057272955339
20
-45.115111791439723
42
-0.41421356237309509
10
189.73057272955342
20
-46.86511179143973
10
189.73057272955342
20
-54.165111791439735
42
-0.41421356237309509
0
LWPOLYLINE
5
199
100
AcDbEntity
8
0
100
AcDbPolyline
90
8
70
1
43
0.0
10
202.98057272955339
20
-55.915111791439728
10
195.6805727295534
20
-55.915111791439742
42
-0.41421356237309509
10
193.93057272955338
20
-54.165111791439735
10
193.93057272955338
20
-46.865111791439737
42
-0.41421356237309509
10
195.6805727295534
20
-45.11511179143973
10
202.98057272955339
20
-45.115111791439723
42
-0.41421356237309509
10
204.73057272955342
20
-46.86511179143973
10
204.73057272955342
20
-54.165111791439735
42
-0.41421356237309509
0
LWPOLYLINE
5
200
100
AcDbEntity
8
0
100
AcDbPolyline
90
8
70
1
43
0.0
10
217.98057272955339
20
-55.915111791439728
10
210.6805727295534
20
-55.915111791439742
42
-0.41421356237309509
10
208.93057272955338
20
-54.165111791439735
10
208.93057272955338
20
-46.865111791439737
42
-0.41421356237309509
10
210.6805727295534
20
-45.11511179143973
10
217.98057272955339
20
-45.115111791439723
42
-0.41421356237309509
10
219.73057272955342
20
-46.86511179143973
10
219.73057272955342
20
-54.165111791439735
42
-0.41421356237309509
0
LWPOLYLINE
5
201
100
AcDbEntity
8
0
100
AcDbPolyline
90
8
70
1
43
0.0
10
232.98057272955339
20
-55.915111791439728
10
225.6805727295534
20
-55.915111791439742
42
-0.41421356237309509
10
223.93057272955338
20
-54.165111791439735
10
223.93057272955338
20
-46.865111791439737
42
-0.41421356237309509
10
225.6805727295534
20
-45.11511179143973
10
232.98057272955339
20
-45.115111791439723
42
-0.41421356237309509
10
234.73057272955342
20
-46.86511179143973
10
234.73057272955342
20
-54.165111791439735
42
-0.41421356237309509
0
LWPOLYLINE
5
202
100
AcDbEntity
8
0
100
AcDbPolyline
90
8
70
1
43
0.0
10
247.98057272955339
20
-55.915111791439728
10
240.6805727295534
20
-55.915111791439742
42
-0.41421356237309509
10
238.93057272955338
20
-54.165111791439735
10
238.93057272955338
20
-46.865111791439737
42
-0.41421356237309509
10
240.6805727295534
20
-45.11511179143973
10
247.98057272955339
20
-45.115111791439723
42
-0.41421356237309509
10
249.73057272955342
20
-46.86511179143973
10
249.73057272955342
20
-54.165111791439735
42
-0.41421356237309509
0
LWPOLYLINE
5
203
100
AcDbEntity
8
0
100
AcDbPolyline
90
8
70
1
43
0.0
10
22.980572729553398
20
-70.915111791439728
10
15.680572729553395
20
-70.915111791439728
42
-0.41421356237309509
10
13.930572729553392
20
-69.165111791439728
10
13.93057272955339
20
-61.865111791439737
42
-0.41421356237309509
10
15.680572729553397
20
-60.11511179143973
10
22.980572729553398
20
-60.11511179143973
42
-0.41421356237309509
10
24.730572729553394
20
-61.86511179143973
10
24.730572729553394
20
-69.165111791439728
42
-0.41421356237309509
0
LWPOLYLINE
5
204
100
AcDbEntity
8
0
100
AcDbPolyline
90
8
70
1
43
0.0
10
37.980572729553394
20
-70.915111791439728
10
30.680572729553397
20
-70.915111791439742
42
-0.41421356237309509
10
28.93057272955339
20
-69.165111791439728
10
28.93057272955339
20
-61.865111791439737
42
-0.41421356237309509
10
30.680572729553397
20
-60.11511179143973
10
37.980572729553394
20
-60.11511179143973
42
-0.41421356237309509
10
39.730572729553394
20
-61.86511179143973
10
39.730572729553394
20
-69.165111791439728
42
-0.41421356237309509
0
LWPOLYLINE
5
205
100
AcDbEntity
8
0
100
AcDbPolyline
90
8
70
1
43
0.0
10
52.980572729553401
20
-70.915111791439728
10
45.680572729553397
20
-70.915111791439742
42
-0.41421356237309509
10
43.93057272955339
20
-69.165111791439728
10
43.93057272955339
20
-61.865111791439737
42
-0.41421356237309509
10
45.680572729553397
20
-60.11511179143973
10
52.980572729553401
20
-60.115111791439737
42
-0.41421356237309509
10
54.730572729553387
20
-61.86511179143973
10
54.730572729553401
20
-69.165111791439728
42
-0.41421356237309509
0
LWPOLYLINE
5
206
100
AcDbEntity
8
0
100
AcDbPolyline
90
8
70
1
43
0.0
10
67.980572729553401
20
-70.915111791439728
10
60.680572729553397
20
-70.915111791439742
42
-0.41421356237309509
10
58.93057272955339
20
-69.165111791439728
10
58.93057272955339
20
-61.865111791439737
42
-0.41421356237309509
10
60.680572729553397
20
-60.11511179143973
10
67.980572729553401
20
-60.115111791439737
42
-0.41421356237309509
10
69.730572729553387
20
-61.86511179143973
10
69.730572729553401
20
-69.165111791439728
42
-0.41421356237309509
0
LWPOLYLINE
5
207
100
AcDbEntity
8
0
100
AcDbPolyline
90
8
70
1
43
0.0
10
82.980572729553401
20
-70.915111791439728
10
75.680572729553404
20
-70.915111791439742
42
-0.41421356237309509
10
73.93057272955339
20
-69.165111791439728
10
73.93057272955339
20
-61.865111791439737
42
-0.41421356237309509
10
75.680572729553404
20
-60.11511179143973
10
82.980572729553401
20
-60.115111791439737
42
-0.41421356237309509
10
84.730572729553387
20
-61.86511179143973
10
84.730572729553415
20
-69.165111791439728
42
-0.41421356237309509
0
LWPOLYLINE
5
208
100
AcDbEntity
8
0
100
AcDbPolyline
90
8
70
1
43
0.0
10
97.980572729553401
20
-70.915111791439728
10
90.680572729553404
20
-70.915111791439742
42
-0.41421356237309509
10
88.93057272955339
20
-69.165111791439728
10
88.93057272955339
20
-61.865111791439737
42
-0.41421356237309509
10
90.680572729553404
20
-60.11511179143973
10
97.980572729553401
20
-60.115111791439737
42
-0.41421356237309509
10
99.730572729553387
20
-61.86511179143973
10
99.730572729553415
20
-69.165111791439728
42
-0.41421356237309509
0
LWPOLYLINE
5
209
100
AcDbEntity
8
0
100
AcDbPolyline
90
8
70
1
43
0.0
10
112.9805727295534
20
-70.915111791439728
10
105.6805727295534
20
-70.915111791439742
42
-0.41421356237309509
10
103.93057272955339
20
-69.165111791439728
10
103.93057272955339
20
-61.865111791439737
42
-0.41421356237309509
10
105.6805727295534
20
-60.11511179143973
10
112.9805727295534
20
-60.115111791439737
42
-0.41421356237309509
10
114.73057272955339
20
-61.86511179143973
10
114.73057272955342
20
-69.165111791439728
42
-0.41421356237309509
0
LWPOLYLINE
5
210
100
AcDbEntity
8
0
100
AcDbPolyline
90
8
70
1
43
0.0
10
127.9805727295534
20
-70.915111791439728
10
120.6805727295534
20
-70.915111791439742
42
-0.41421356237309509
10
118.93057272955339
20
-69.165111791439728
10
118.93057272955339
20
-61.865111791439737
42
-0.41421356237309509
10
120.6805727295534
20
-60.11511179143973
10
127.9805727295534
20
-60.115111791439737
42
-0.41421356237309509
10
129.73057272955339
20
-61.86511179143973
10
129.73057272955342
20
-69.165111791439728
42
-0.41421356237309509
0
LWPOLYLINE
5
211
100
AcDbEntity
8
0
100
AcDbPolyline
90
8
70
1
43
0.0
10
142.98057272955339
20
-70.915111791439728
10
135.6805727295534
20
-70.915111791439742
42
-0.41421356237309509
10
133.93057272955338
20
-69.165111791439728
10
133.93057272955338
20
-61.865111791439737
42
-0.41421356237309509
10
135.6805727295534
20
-60.11511179143973
10
142.98057272955339
20
-60.115111791439737
42
-0.41421356237309509
10
144.73057272955339
20
-61.86511179143973
10
144.73057272955342
20
-69.165111791439728
42
-0.41421356237309509
0
LWPOLYLINE
5
212
100
AcDbEntity
8
0
100
AcDbPolyline
90
8
70
1
43
0.0
10
157.98057272955339
20
-70.915111791439728
10
150.6805727295534
20
-70.915111791439742
42
-0.41421356237309509
10
148.93057272955338
20
-69.165111791439728
10
148.93057272955338
20
-61.865111791439737
42
-0.41421356237309509
10
150.6805727295534
20
-60.11511179143973
10
157.98057272955339
20
-60.115111791439737
42
-0.41421356237309509
10
159.73057272955339
20
-61.86511179143973
10
159.73057272955342
20
-69.165111791439728
42
-0.41421356237309509
0
LWPOLYLINE
5
213
100
AcDbEntity
8
0
100
AcDbPolyline
90
8
70
1
43
0.0
10
172.98057272955339
20
-70.915111791439728
10
165.6805727295534
20
-70.915111791439742
42
-0.41421356237309509
10
163.93057272955338
20
-69.165111791439728
10
163.93057272955338
20
-61.865111791439737
42
-0.41421356237309509
10
165.6805727295534
20
-60.11511179143973
10
172.98057272955339
20
-60.115111791439723
42
-0.41421356237309509
10
174.73057272955342
20
-61.86511179143973
10
174.73057272955342
20
-69.165111791439728
42
-0.41421356237309509
0
LWPOLYLINE
5
214
100
AcDbEntity
8
0
100
AcDbPolyline
90
8
70
1
43
0.0
10
187.98057272955339
20
-70.915111791439728
10
180.6805727295534
20
-70.915111791439742
42
-0.41421356237309509
10
178.93057272955338
20
-69.165111791439728
10
178.93057272955338
20
-61.865111791439737
42
-0.41421356237309509
10
180.6805727295534
20
-60.11511179143973
10
187.98057272955339
20
-60.115111791439723
42
-0.41421356237309509
10
189.73057272955342
20
-61.86511179143973
10
189.73057272955342
20
-69.165111791439728
42
-0.41421356237309509
0
LWPOLYLINE
5
215
100
AcDbEntity
8
0
100
AcDbPolyline
90
8
70
1
43
0.0
10
202.98057272955339
20
-70.915111791439728
10
195.6805727295534
20
-70.915111791439742
42
-0.41421356237309509
10
193.93057272955338
20
-69.165111791439728
10
193.93057272955338
20
-61.865111791439737
42
-0.41421356237309509
10
195.6805727295534
20
-60.11511179143973
10
202.98057272955339
20
-60.115111791439723
42
-0.41421356237309509
10
204.73057272955342
20
-61.86511179143973
10
204.73057272955342
20
-69.165111791439728
42
-0.41421356237309509
0
LWPOLYLINE
5
216
100
AcDbEntity
8
0
100
AcDbPolyline
90
8
70
1
43
0.0
10
217.98057272955339
20
-70.915111791439728
10
210.6805727295534
20
-70.915111791439742
42
-0.41421356237309509
10
208.93057272955338
20
-69.165111791439728
10
208.93057272955338
20
-61.865111791439737
42
-0.41421356237309509
10
210.6805727295534
20
-60.11511179143973
10
217.98057272955339
20
-60.115111791439723
42
-0.41421356237309509
10
219.73057272955342
20
-61.86511179143973
10
219.73057272955342
20
-69.165111791439728
42
-0.41421356237309509
0
LWPOLYLINE
5
217
100
AcDbEntity
8
0
100
AcDbPolyline
90
8
70
1
43
0.0
10
232.98057272955339
20
-70.915111791439728
10
225.6805727295534
20
-70.915111791439742
42
-0.41421356237309509
10
223.93057272955338
20
-69.165111791439728
10
223.93057272955338
20
-61.865111791439737
42
-0.41421356237309509
10
225.6805727295534
20
-60.11511179143973
10
232.98057272955339
20
-60.115111791439723
42
-0.41421356237309509
10
234.73057272955342
20
-61.86511179143973
10
234.73057272955342
20
-69.165111791439728
42
-0.41421356237309509
0
LWPOLYLINE
5
218
100
AcDbEntity
8
0
100
AcDbPolyline
90
8
70
1
43
0.0
10
247.98057272955339
20
-70.915111791439728
10
240.6805727295534
20
-70.915111791439742
42
-0.41421356237309509
10
238.93057272955338
20
-69.165111791439728
10
238.93057272955338
20
-61.865111791439737
42
-0.41421356237309509
10
240.6805727295534
20
-60.11511179143973
10
247.98057272955339
20
-60.115111791439723
42
-0.41421356237309509
10
249.73057272955342
20
-61.86511179143973
10
249.73057272955342
20
-69.165111791439728
42
-0.41421356237309509
0
LWPOLYLINE
5
219
100
AcDbEntity
8
0
100
AcDbPolyline
90
8
70
1
43
0.0
10
22.980572729553398
20
-85.915111791439728
10
15.680572729553395
20
-85.915111791439756
42
-0.41421356237309509
10
13.930572729553392
20
-84.165111791439742
10
13.93057272955339
20
-76.865111791439745
42
-0.41421356237309509
10
15.680572729553397
20
-75.11511179143973
10
22.980572729553398
20
-75.11511179143973
42
-0.41421356237309509
10
24.730572729553394
20
-76.86511179143973
10
24.730572729553387
20
-84.165111791439742
42
-0.41421356237309509
0
LWPOLYLINE
5
220
100
AcDbEntity
8
0
100
AcDbPolyline
90
8
70
1
43
0.0
10
37.980572729553394
20
-85.915111791439728
10
30.680572729553397
20
-85.915111791439756
42
-0.41421356237309509
10
28.93057272955339
20
-84.165111791439742
10
28.93057272955339
20
-76.865111791439745
42
-0.41421356237309509
10
30.680572729553397
20
-75.11511179143973
10
37.980572729553394
20
-75.11511179143973
42
-0.41421356237309509
10
39.730572729553394
20
-76.86511179143973
10
39.730572729553387
20
-84.165111791439742
42
-0.41421356237309509
0
LWPOLYLINE
5
221
100
AcDbEntity
8
0
100
AcDbPolyline
90
8
70
1
43
0.0
10
52.980572729553401
20
-85.915111791439728
10
45.680572729553397
20
-85.915111791439756
42
-0.41421356237309509
10
43.93057272955339
20
-84.165111791439742
10
43.93057272955339
20
-76.865111791439745
42
-0.41421356237309509
10
45.680572729553397
20
-75.11511179143973
10
52.980572729553401
20
-75.115111791439745
42
-0.41421356237309509
10
54.730572729553387
20
-76.86511179143973
10
54.730572729553387
20
-84.165111791439742
42
-0.41421356237309509
0
LWPOLYLINE
5
222
100
AcDbEntity
8
0
100
AcDbPolyline
90
8
70
1
43
0.0
10
67.980572729553401
20
-85.915111791439728
10
60.680572729553397
20
-85.915111791439756
42
-0.41421356237309509
10
58.93057272955339
20
-84.165111791439742
10
58.93057272955339
20
-76.865111791439745
42
-0.41421356237309509
10
60.680572729553397
20
-75.11511179143973
10
67.980572729553401
20
-75.115111791439745
42
-0.41421356237309509
10
69.730572729553387
20
-76.86511179143973
10
69.730572729553387
20
-84.165111791439742
42
-0.41421356237309509
0
LWPOLYLINE
5
223
100
AcDbEntity
8
0
100
AcDbPolyline
90
8
70
1
43
0.0
10
82.980572729553401
20
-85.915111791439728
10
75.680572729553404
20
-85.915111791439756
42
-0.41421356237309509
10
73.93057272955339
20
-84.165111791439742
10
73.93057272955339
20
-76.865111791439745
42
-0.41421356237309509
10
75.680572729553404
20
-75.11511179143973
10
82.980572729553401
20
-75.115111791439745
42
-0.41421356237309509
10
84.730572729553387
20
-76.86511179143973
10
84.730572729553387
20
-84.165111791439742
42
-0.41421356237309509
0
LWPOLYLINE
5
224
100
AcDbEntity
8
0
100
AcDbPolyline
90
8
70
1
43
0.0
10
97.980572729553401
20
-85.915111791439728
10
90.680572729553404
20
-85.915111791439756
42
-0.41421356237309509
10
88.93057272955339
20
-84.165111791439742
10
88.93057272955339
20
-76.865111791439745
42
-0.41421356237309509
10
90.680572729553404
20
-75.11511179143973
10
97.980572729553401
20
-75.115111791439745
42
-0.41421356237309509
10
99.730572729553387
20
-76.86511179143973
10
99.730572729553387
20
-84.165111791439742
42
-0.41421356237309509
0
LWPOLYLINE
5
225
100
AcDbEntity
8
0
100
AcDbPolyline
90
8
70
1
43
0.0
10
112.9805727295534
20
-85.915111791439728
10
105.6805727295534
20
-85.915111791439756
42
-0.41421356237309509
10
103.93057272955339
20
-84.165111791439742
10
103.93057272955339
20
-76.865111791439745
42
-0.41421356237309509
10
105.6805727295534
20
-75.11511179143973
10
112.9805727295534
20
-75.115111791439745
42
-0.41421356237309509
10
114.73057272955339
20
-76.86511179143973
10
114.73057272955339
20
-84.165111791439742
42
-0.41421356237309509
0
LWPOLYLINE
5
226
100
AcDbEntity
8
0
100
AcDbPolyline
90
8
70
1
43
0.0
10
127.9805727295534
20
-85.915111791439728
10
120.6805727295534
20
-85.915111791439756
42
-0.41421356237309509
10
118.93057272955339
20
-84.165111791439742
10
118.93057272955339
20
-76.865111791439745
42
-0.41421356237309509
10
120.6805727295534
20
-75.11511179143973
10
127.9805727295534
20
-75.115111791439745
42
-0.41421356237309509
10
129.73057272955339
20
-76.86511179143973
10
129.73057272955339
20
-84.165111791439742
42
-0.41421356237309509
0
LWPOLYLINE
5
227
100
AcDbEntity
8
0
100
AcDbPolyline
90
8
70
1
43
0.0
10
142.98057272955339
20
-85.915111791439728
10
135.6805727295534
20
-85.915111791439756
42
-0.41421356237309509
10
133.93057272955338
20
-84.165111791439742
10
133.93057272955338
20
-76.865111791439745
42
-0.41421356237309509
10
135.6805727295534
20
-75.11511179143973
10
142.98057272955339
20
-75.115111791439745
42
-0.41421356237309509
10
144.73057272955339
20
-76.86511179143973
10
144.73057272955339
20
-84.165111791439742
42
-0.41421356237309509
0
LWPOLYLINE
5
228
100
AcDbEntity
8
0
100
AcDbPolyline
90
8
70
1
43
0.0
10
157.98057272955339
20
-85.915111791439728
10
150.6805727295534
20
-85.915111791439756
42
-0.41421356237309509
10
148.93057272955338
20
-84.165111791439742
10
148.93057272955338
20
-76.865111791439745
42
-0.41421356237309509
10
150.6805727295534
20
-75.11511179143973
10
157.98057272955339
20
-75.115111791439745
42
-0.41421356237309509
10
159.73057272955339
20
-76.86511179143973
10
159.73057272955339
20
-84.165111791439742
42
-0.41421356237309509
0
LWPOLYLINE
5
229
100
AcDbEntity
8
0
100
AcDbPolyline
90
8
70
1
43
0.0
10
172.98057272955339
20
-85.915111791439728
10
165.6805727295534
20
-85.915111791439756
42
-0.41421356237309509
10
163.93057272955338
20
-84.165111791439742
10
163.93057272955338
20
-76.865111791439745
42
-0.41421356237309509
10
165.6805727295534
20
-75.11511179143973
10
172.98057272955339
20
-75.115111791439716
42
-0.41421356237309509
10
174.73057272955342
20
-76.86511179143973
10
174.73057272955339
20
-84.165111791439742
42
-0.41421356237309509
0
LWPOLYLINE
5
230
100
AcDbEntity
8
0
100
AcDbPolyline
90
8
70
1
43
0.0
10
187.98057272955339
20
-85.915111791439728
10
180.6805727295534
20
-85.915111791439756
42
-0.41421356237309509
10
178.93057272955338
20
-84.165111791439742
10
178.93057272955338
20
-76.865111791439745
42
-0.41421356237309509
10
180.6805727295534
20
-75.11511179143973
10
187.98057272955339
20
-75.115111791439716
42
-0.41421356237309509
10
189.73057272955342
20
-76.86511179143973
10
189.73057272955339
20
-84.165111791439742
42
-0.41421356237309509
0
LWPOLYLINE
5
231
100
AcDbEntity
8
0
100
AcDbPolyline
90
8
70
1
43
0.0
10
202.98057272955339
20
-85.915111791439728
10
195.6805727295534
20
-85.915111791439756
42
-0.41421356237309509
10
193.93057272955338
20
-84.165111791439742
10
193.93057272955338
20
-76.865111791439745
42
-0.41421356237309509
10
195.6805727295534
20
-75.11511179143973
10
202.98057272955339
20
-75.115111791439716
42
-0.41421356237309509
10
204.73057272955342
20
-76.86511179143973
10
204.73057272955339
20
-84.165111791439742
42
-0.41421356237309509
0
LWPOLYLINE
5
232
100
AcDbEntity
8
0
100
AcDbPolyline
90
8
70
1
43
0.0
10
217.98057272955339
20
-85.915111791439728
10
210.6805727295534
20
-85.915111791439756
42
-0.41421356237309509
10
208.93057272955338
20
-84.165111791439742
10
208.93057272955338
20
-76.865111791439745
42
-0.41421356237309509
10
210.6805727295534
20
-75.11511179143973
10
217.98057272955339
20
-75.115111791439716
42
-0.41421356237309509
10
219.73057272955342
20
-76.86511179143973
10
219.73057272955339
20
-84.165111791439742
42
-0.41421356237309509
0
LWPOLYLINE
5
233
100
AcDbEntity
8
0
100
AcDbPolyline
90
8
70
1
43
0.0
10
232.98057272955339
20
-85.915111791439728
10
225.6805727295534
20
-85.915111791439756
42
-0.41421356237309509
10
223.93057272955338
20
-84.165111791439742
10
223.93057272955338
20
-76.865111791439745
42
-0.41421356237309509
10
225.6805727295534
20
-75.11511179143973
10
232.98057272955339
20
-75.115111791439716
42
-0.41421356237309509
10
234.73057272955342
20
-76.86511179143973
10
234.73057272955339
20
-84.165111791439742
42
-0.41421356237309509
0
LWPOLYLINE
5
234
100
AcDbEntity
8
0
100
AcDbPolyline
90
8
70
1
43
0.0
10
247.98057272955339
20
-85.915111791439728
10
240.6805727295534
20
-85.915111791439756
42
-0.41421356237309509
10
238.93057272955338
20
-84.165111791439742
10
238.93057272955338
20
-76.865111791439745
42
-0.41421356237309509
10
240.6805727295534
20
-75.11511179143973
10
247.98057272955339
20
-75.115111791439716
42
-0.41421356237309509
10
249.73057272955342
20
-76.86511179143973
10
249.73057272955339
20
-84.165111791439742
42
-0.41421356237309509
0
LWPOLYLINE
5
235
100
AcDbEntity
8
0
100
AcDbPolyline
90
8
70
1
43
0.0
10
22.980572729553398
20
-100.91511179143973
10
15.680572729553395
20
-100.91511179143976
42
-0.41421356237309509
10
13.930572729553392
20
-99.165111791439742
10
13.93057272955339
20
-91.865111791439745
42
-0.41421356237309509
10
15.680572729553397
20
-90.11511179143973
10
22.980572729553398
20
-90.11511179143973
42
-0.41421356237309509
10
24.730572729553394
20
-91.865111791439745
10
24.730572729553387
20
-99.165111791439742
42
-0.41421356237309509
0
LWPOLYLINE
5
236
100
AcDbEntity
8
0
100
AcDbPolyline
90
8
70
1
43
0.0
10
37.980572729553394
20
-100.91511179143973
10
30.680572729553397
20
-100.91511179143976
42
-0.41421356237309509
10
28.93057272955339
20
-99.165111791439742
10
28.93057272955339
20
-91.865111791439745
42
-0.41421356237309509
10
30.680572729553397
20
-90.11511179143973
10
37.980572729553394
20
-90.11511179143973
42
-0.41421356237309509
10
39.730572729553394
20
-91.865111791439745
10
39.730572729553387
20
-99.165111791439742
42
-0.41421356237309509
0
LWPOLYLINE
5
237
100
AcDbEntity
8
0
100
AcDbPolyline
90
8
70
1
43
0.0
10
52.980572729553401
20
-100.91511179143973
10
45.680572729553397
20
-100.91511179143976
42
-0.41421356237309509
10
43.93057272955339
20
-99.165111791439742
10
43.93057272955339
20
-91.865111791439745
42
-0.41421356237309509
10
45.680572729553397
20
-90.11511179143973
10
52.980572729553401
20
-90.115111791439745
42
-0.41421356237309509
10
54.730572729553387
20
-91.865111791439745
10
54.730572729553387
20
-99.165111791439742
42
-0.41421356237309509
0
LWPOLYLINE
5
238
100
AcDbEntity
8
0
100
AcDbPolyline
90
8
70
1
43
0.0
10
67.980572729553401
20
-100.91511179143973
10
60.680572729553397
20
-100.91511179143976
42
-0.41421356237309509
10
58.93057272955339
20
-99.165111791439742
10
58.93057272955339
20
-91.865111791439745
42
-0.41421356237309509
10
60.680572729553397
20
-90.11511179143973
10
67.980572729553401
20
-90.115111791439745
42
-0.41421356237309509
10
69.730572729553387
20
-91.865111791439745
10
69.730572729553387
20
-99.165111791439742
42
-0.41421356237309509
0
LWPOLYLINE
5
239
100
AcDbEntity
8
0
100
AcDbPolyline
90
8
70
1
43
0.0
10
82.980572729553401
20
-100.91511179143973
10
75.680572729553404
20
-100.91511179143976
42
-0.41421356237309509
10
73.93057272955339
20
-99.165111791439742
10
73.93057272955339
20
-91.865111791439745
42
-0.41421356237309509
10
75.680572729553404
20
-90.11511179143973
10
82.980572729553401
20
-90.115111791439745
42
-0.41421356237309509
10
84.730572729553387
20
-91.865111791439745
10
84.730572729553387
20
-99.165111791439742
42
-0.41421356237309509
0
LWPOLYLINE
5
240
100
AcDbEntity
8
0
100
AcDbPolyline
90
8
70
1
43
0.0
10
97.980572729553401
20
-100.91511179143973
10
90.680572729553404
20
-100.91511179143976
42
-0.41421356237309509
10
88.93057272955339
20
-99.165111791439742
10
88.93057272955339
20
-91.865111791439745
42
-0.41421356237309509
10
90.680572729553404
20
-90.11511179143973
10
97.980572729553401
20
-90.115111791439745
42
-0.41421356237309509
10
99.730572729553387
20
-91.865111791439745
10
99.730572729553387
20
-99.165111791439742
42
-0.41421356237309509
0
LWPOLYLINE
5
241
100
AcDbEntity
8
0
100
AcDbPolyline
90
8
70
1
43
0.0
10
112.9805727295534
20
-100.91511179143973
10
105.6805727295534
20
-100.91511179143976
42
-0.41421356237309509
10
103.93057272955339
20
-99.165111791439742
10
103.93057272955339
20
-91.865111791439745
42
-0.41421356237309509
10
105.6805727295534
20
-90.11511179143973
10
112.9805727295534
20
-90.115111791439745
42
-0.41421356237309509
10
114.73057272955339
20
-91.865111791439745
10
114.73057272955339
20
-99.165111791439742
42
-0.41421356237309509
0
LWPOLYLINE
5
242
100
AcDbEntity
8
0
100
AcDbPolyline
90
8
70
1
43
0.0
10
127.9805727295534
20
-100.91511179143973
10
120.6805727295534
20
-100.91511179143976
42
-0.41421356237309509
10
118.93057272955339
20
-99.165111791439742
10
118.93057272955339
20
-91.865111791439745
42
-0.41421356237309509
10
120.6805727295534
20
-90.11511179143973
10
127.9805727295534
20
-90.115111791439745
42
-0.41421356237309509
10
129.73057272955339
20
-91.865111791439745
10
129.73057272955339
20
-99.165111791439742
42
-0.41421356237309509
0
LWPOLYLINE
5
243
100
AcDbEntity
8
0
100
AcDbPolyline
90
8
70
1
43
0.0
10
142.98057272955339
20
-100.91511179143973
10
135.6805727295534
20
-100.91511179143976
42
-0.41421356237309509
10
133.93057272955338
20
-99.165111791439742
10
133.93057272955338
20
-91.865111791439745
42
-0.41421356237309509
10
135.6805727295534
20
-90.11511179143973
10
142.98057272955339
20
-90.115111791439745
42
-0.41421356237309509
10
144.73057272955339
20
-91.865111791439745
10
144.73057272955339
20
-99.165111791439742
42
-0.41421356237309509
0
LWPOLYLINE
5
244
100
AcDbEntity
8
0
100
AcDbPolyline
90
8
70
1
43
0.0
10
157.98057272955339
20
-100.91511179143973
10
150.6805727295534
20
-100.91511179143976
42
-0.41421356237309509
10
148.93057272955338
20
-99.165111791439742
10
148.93057272955338
20
-91.865111791439745
42
-0.41421356237309509
10
150.6805727295534
20
-90.11511179143973
10
157.98057272955339
20
-90.115111791439745
42
-0.41421356237309509
10
159.73057272955339
20
-91.865111791439745
10
159.73057272955339
20
-99.165111791439742
42
-0.41421356237309509
0
LWPOLYLINE
5
245
100
AcDbEntity
8
0
100
AcDbPolyline
90
8
70
1
43
0.0
10
172.98057272955339
20
-100.91511179143973
10
165.6805727295534
20
-100.91511179143976
42
-0.41421356237309509
10
163.93057272955338
20
-99.165111791439742
10
163.93057272955338
20
-91.865111791439745
42
-0.41421356237309509
10
165.6805727295534
20
-90.11511179143973
10
172.98057272955339
20
-90.11511179143973
42
-0.41421356237309509
10
174.73057272955342
20
-91.865111791439745
10
174.73057272955339
20
-99.165111791439742
42
-0.41421356237309509
0
LWPOLYLINE
5
246
100
AcDbEntity
8
0
100
AcDbPolyline
90
8
70
1
43
0.0
10
187.98057272955339
20
-100.91511179143973
10
180.6805727295534
20
-100.91511179143976
42
-0.41421356237309509
10
178.93057272955338
20
-99.165111791439742
10
178.93057272955338
20
-91.865111791439745
42
-0.41421356237309509
10
180.6805727295534
20
-90.11511179143973
10
187.98057272955339
20
-90.11511179143973
42
-0.41421356237309509
10
189.73057272955342
20
-91.865111791439745
10
189.73057272955339
20
-99.165111791439742
42
-0.41421356237309509
0
LWPOLYLINE
5
247
100
AcDbEntity
8
0
100
AcDbPolyline
90
8
70
1
43
0.0
10
202.98057272955339
20
-100.91511179143973
10
195.6805727295534
20
-100.91511179143976
42
-0.41421356237309509
10
193.93057272955338
20
-99.165111791439742
10
193.93057272955338
20
-91.865111791439745
42
-0.41421356237309509
10
195.6805727295534
20
-90.11511179143973
10
202.98057272955339
20
-90.11511179143973
42
-0.41421356237309509
10
204.73057272955342
20
-91.865111791439745
10
204.73057272955339
20
-99.165111791439742
42
-0.41421356237309509
0
LWPOLYLINE
5
248
100
AcDbEntity
8
0
100
AcDbPolyline
90
8
70
1
43
0.0
10
217.98057272955339
20
-100.91511179143973
10
210.6805727295534
20
-100.91511179143976
42
-0.41421356237309509
10
208.93057272955338
20
-99.165111791439742
10
208.93057272955338
20
-91.865111791439745
42
-0.41421356237309509
10
210.6805727295534
20
-90.11511179143973
10
217.98057272955339
20
-90.11511179143973
42
-0.41421356237309509
10
219.73057272955342
20
-91.865111791439745
10
219.73057272955339
20
-99.165111791439742
42
-0.41421356237309509
0
LWPOLYLINE
5
249
100
AcDbEntity
8
0
100
AcDbPolyline
90
8
70
1
43
0.0
10
232.98057272955339
20
-100.91511179143973
10
225.6805727295534
20
-100.91511179143976
42
-0.41421356237309509
10
223.93057272955338
20
-99.165111791439742
10
223.93057272955338
20
-91.865111791439745
42
-0.41421356237309509
10
225.6805727295534
20
-90.11511179143973
10
232.98057272955339
20
-90.11511179143973
42
-0.41421356237309509
10
234.73057272955342
20
-91.865111791439745
10
234.73057272955339
20
-99.165111791439742
42
-0.41421356237309509
0
LWPOLYLINE
5
250
100
AcDbEntity
8
0
100
AcDbPolyline
90
8
70
1
43
0.0
10
247.98057272955339
20
-100.91511179143973
10
240.6805727295534
20
-100.91511179143976
42
-0.41421356237309509
10
238.93057272955338
20
-99.165111791439742
10
238.93057272955338
20
-91.865111791439745
42
-0.41421356237309509
10
240.6805727295534
20
-90.11511179143973
10
247.98057272955339
20
-90.11511179143973
42
-0.41421356237309509
10
249.73057272955342
20
-91.865111791439745
10
249.73057272955339
20
-99.165111791439742
42
-0.41421356237309509
0
LWPOLYLINE
5
251
100
AcDbEntity
8
0
100
AcDbPolyline
90
8
70
1
43
0.0
10
22.980572729553398
20
-115.91511179143973
10
15.680572729553395
20
-115.91511179143976
42
-0.41421356237309509
10
13.930572729553392
20
-114.16511179143974
10
13.93057272955339
20
-106.86511179143974
42
-0.41421356237309509
10
15.680572729553397
20
-105.11511179143973
10
22.980572729553398
20
-105.11511179143973
42
-0.41421356237309509
10
24.730572729553394
20
-106.86511179143974
10
24.730572729553387
20
-114.16511179143974
42
-0.41421356237309509
0
LWPOLYLINE
5
252
100
AcDbEntity
8
0
100
AcDbPolyline
90
8
70
1
43
0.0
10
37.980572729553394
20
-115.91511179143973
10
30.680572729553397
20
-115.91511179143976
42
-0.41421356237309509
10
28.93057272955339
20
-114.16511179143974
10
28.93057272955339
20
-106.86511179143974
42
-0.41421356237309509
10
30.680572729553397
20
-105.11511179143973
10
37.980572729553394
20
-105.11511179143973
42
-0.41421356237309509
10
39.730572729553394
20
-106.86511179143974
10
39.730572729553387
20
-114.16511179143974
42
-0.41421356237309509
0
LWPOLYLINE
5
253
100
AcDbEntity
8
0
100
AcDbPolyline
90
8
70
1
43
0.0
10
52.980572729553401
20
-115.91511179143973
10
45.680572729553397
20
-115.91511179143976
42
-0.41421356237309509
10
43.93057272955339
20
-114.16511179143974
10
43.93057272955339
20
-106.86511179143974
42
-0.41421356237309509
10
45.680572729553397
20
-105.11511179143973
10
52.980572729553401
20
-105.11511179143974
42
-0.41421356237309509
10
54.730572729553387
20
-106.86511179143974
10
54.730572729553387
20
-114.16511179143974
42
-0.41421356237309509
0
LWPOLYLINE
5
254
100
AcDbEntity
8
0
100
AcDbPolyline
90
8
70
1
43
0.0
10
67.980572729553401
20
-115.91511179143973
10
60.680572729553397
20
-115.91511179143976
42
-0.41421356237309509
10
58.93057272955339
20
-114.16511179143974
10
58.93057272955339
20
-106.86511179143974
42
-0.41421356237309509
10
60.680572729553397
20
-105.11511179143973
10
67.980572729553401
20
-105.11511179143974
42
-0.41421356237309509
10
69.730572729553387
20
-106.86511179143974
10
69.730572729553387
20
-114.16511179143974
42
-0.41421356237309509
0
LWPOLYLINE
5
255
100
AcDbEntity
8
0
100
AcDbPolyline
90
8
70
1
43
0.0
10
82.980572729553401
20
-115.91511179143973
10
75.680572729553404
20
-115.91511179143976
42
-0.41421356237309509
10
73.93057272955339
20
-114.16511179143974
10
73.93057272955339
20
-106.86511179143974
42
-0.41421356237309509
10
75.680572729553404
20
-105.11511179143973
10
82.980572729553401
20
-105.11511179143974
42
-0.41421356237309509
10
84.730572729553387
20
-106.86511179143974
10
84.730572729553387
20
-114.16511179143974
42
-0.41421356237309509
0
LWPOLYLINE
5
256
100
AcDbEntity
8
0
100
AcDbPolyline
90
8
70
1
43
0.0
10
97.980572729553401
20
-115.91511179143973
10
90.680572729553404
20
-115.91511179143976
42
-0.41421356237309509
10
88.93057272955339
20
-114.16511179143974
10
88.93057272955339
20
-106.86511179143974
42
-0.41421356237309509
10
90.680572729553404
20
-105.11511179143973
10
97.980572729553401
20
-105.11511179143974
42
-0.41421356237309509
10
99.730572729553387
20
-106.86511179143974
10
99.730572729553387
20
-114.16511179143974
42
-0.41421356237309509
0
LWPOLYLINE
5
257
100
AcDbEntity
8
0
100
AcDbPolyline
90
8
70
1
43
0.0
10
112.9805727295534
20
-115.91511179143973
10
105.6805727295534
20
-115.91511179143976
42
-0.41421356237309509
10
103.93057272955339
20
-114.16511179143974
10
103.93057272955339
20
-106.86511179143974
42
-0.41421356237309509
10
105.6805727295534
20
-105.11511179143973
10
112.9805727295534
20
-105.11511179143974
42
-0.41421356237309509
10
114.73057272955339
20
-106.86511179143974
10
114.73057272955339
20
-114.16511179143974
42
-0.41421356237309509
0
LWPOLYLINE
5
258
100
AcDbEntity
8
0
100
AcDbPolyline
90
8
70
1
43
0.0
10
127.9805727295534
20
-115.91511179143973
10
120.6805727295534
20
-115.91511179143976
42
-0.41421356237309509
10
118.93057272955339
20
-114.16511179143974
10
118.93057272955339
20
-106.86511179143974
42
-0.41421356237309509
10
120.6805727295534
20
-105.11511179143973
10
127.9805727295534
20
-105.11511179143974
42
-0.41421356237309509
10
129.73057272955339
20
-106.86511179143974
10
129.73057272955339
20
-114.16511179143974
42
-0.41421356237309509
0
LWPOLYLINE
5
259
100
AcDbEntity
8
0
100
AcDbPolyline
90
8
70
1
43
0.0
10
142.98057272955339
20
-115.91511179143973
10
135.6805727295534
20
-115.91511179143976
42
-0.41421356237309509
10
133.93057272955338
20
-114.16511179143974
10
133.93057272955338
20
-106.86511179143974
42
-0.41421356237309509
10
135.6805727295534
20
-105.11511179143973
10
142.98057272955339
20
-105.11511179143974
42
-0.41421356237309509
10
144.73057272955339
20
-106.86511179143974
10
144.73057272955339
20
-114.16511179143974
42
-0.41421356237309509
0
LWPOLYLINE
5
260
100
AcDbEntity
8
0
100
AcDbPolyline
90
8
70
1
43
0.0
10
157.98057272955339
20
-115.91511179143973
10
150.6805727295534
20
-115.91511179143976
42
-0.41421356237309509
10
148.93057272955338
20
-114.16511179143974
10
148.93057272955338
20
-106.86511179143974
42
-0.41421356237309509
10
150.6805727295534
20
-105.11511179143973
10
157.98057272955339
20
-105.11511179143974
42
-0.41421356237309509
10
159.73057272955339
20
-106.86511179143974
10
159.73057272955339
20
-114.16511179143974
42
-0.41421356237309509
0
LWPOLYLINE
5
261
100
AcDbEntity
8
0
100
AcDbPolyline
90
8
70
1
43
0.0
10
172.98057272955339
20
-115.91511179143973
10
165.6805727295534
20
-115.91511179143976
42
-0.41421356237309509
10
163.93057272955338
20
-114.16511179143974
10
163.93057272955338
20
-106.86511179143974
42
-0.41421356237309509
10
165.6805727295534
20
-105.11511179143973
10
172.98057272955339
20
-105.11511179143973
42
-0.41421356237309509
10
174.73057272955342
20
-106.86511179143974
10
174.73057272955339
20
-114.16511179143974
42
-0.41421356237309509
0
LWPOLYLINE
5
262
100
AcDbEntity
8
0
100
AcDbPolyline
90
8
70
1
43
0.0
10
187.98057272955339
20
-115.91511179143973
10
180.6805727295534
20
-115.91511179143976
42
-0.41421356237309509
10
178.93057272955338
20
-114.16511179143974
10
178.93057272955338
20
-106.86511179143974
42
-0.41421356237309509
10
180.6805727295534
20
-105.11511179143973
10
187.98057272955339
20
-105.11511179143973
42
-0.41421356237309509
10
189.73057272955342
20
-106.86511179143974
10
189.73057272955339
20
-114.16511179143974
42
-0.41421356237309509
0
LWPOLYLINE
5
263
100
AcDbEntity
8
0
100
AcDbPolyline
90
8
70
1
43
0.0
10
202.98057272955339
20
-115.91511179143973
10
195.6805727295534
20
-115.91511179143976
42
-0.41421356237309509
10
193.93057272955338
20
-114.16511179143974
10
193.93057272955338
20
-106.86511179143974
42
-0.41421356237309509
10
195.6805727295534
20
-105.11511179143973
10
202.98057272955339
20
-105.11511179143973
42
-0.41421356237309509
10
204.73057272955342
20
-106.86511179143974
10
204.73057272955339
20
-114.16511179143974
42
-0.41421356237309509
0
LWPOLYLINE
5
264
100
AcDbEntity
8
0
100
AcDbPolyline
90
8
70
1
43
0.0
10
217.98057272955339
20
-115.91511179143973
10
210.6805727295534
20
-115.91511179143976
42
-0.41421356237309509
10
208.93057272955338
20
-114.16511179143974
10
208.93057272955338
20
-106.86511179143974
42
-0.41421356237309509
10
210.6805727295534
20
-105.11511179143973
10
217.98057272955339
20
-105.11511179143973
42
-0.41421356237309509
10
219.73057272955342
20
-106.86511179143974
10
219.73057272955339
20
-114.16511179143974
42
-0.41421356237309509
0
LWPOLYLINE
5
265
100
AcDbEntity
8
0
100
AcDbPolyline
90
8
70
1
43
0.0
10
232.98057272955339
20
-115.91511179143973
10
225.6805727295534
20
-115.91511179143976
42
-0.41421356237309509
10
223.93057272955338
20
-114.16511179143974
10
223.93057272955338
20
-106.86511179143974
42
-0.41421356237309509
10
225.6805727295534
20
-105.11511179143973
10
232.98057272955339
20
-105.11511179143973
42
-0.41421356237309509
10
234.73057272955342
20
-106.86511179143974
10
234.73057272955339
20
-114.16511179143974
42
-0.41421356237309509
0
LWPOLYLINE
5
266
100
AcDbEntity
8
0
100
AcDbPolyline
90
8
70
1
43
0.0
10
247.98057272955339
20
-115.91511179143973
10
240.6805727295534
20
-115.91511179143976
42
-0.41421356237309509
10
238.93057272955338
20
-114.16511179143974
10
238.93057272955338
20
-106.86511179143974
42
-0.41421356237309509
10
240.6805727295534
20
-105.11511179143973
10
247.98057272955339
20
-105.11511179143973
42
-0.41421356237309509
10
249.73057272955342
20
-106.86511179143974
10
249.73057272955339
20
-114.16511179143974
42
-0.41421356237309509
0
LWPOLYLINE
5
267
100
AcDbEntity
8
0
100
AcDbPolyline
90
8
70
1
43
0.0
10
22.980572729553398
20
-130.91511179143973
10
15.680572729553395
20
-130.91511179143976
42
-0.41421356237309509
10
13.930572729553392
20
-129.16511179143976
10
13.93057272955339
20
-121.86511179143974
42
-0.41421356237309509
10
15.680572729553397
20
-120.11511179143973
10
22.980572729553398
20
-120.11511179143973
42
-0.41421356237309509
10
24.730572729553394
20
-121.86511179143974
10
24.730572729553387
20
-129.16511179143976
42
-0.41421356237309509
0
LWPOLYLINE
5
268
100
AcDbEntity
8
0
100
AcDbPolyline
90
8
70
1
43
0.0
10
37.980572729553394
20
-130.91511179143973
10
30.680572729553397
20
-130.91511179143976
42
-0.41421356237309509
10
28.93057272955339
20
-129.16511179143976
10
28.93057272955339
20
-121.86511179143974
42
-0.41421356237309509
10
30.680572729553397
20
-120.11511179143973
10
37.980572729553394
20
-120.11511179143973
42
-0.41421356237309509
10
39.730572729553394
20
-121.86511179143974
10
39.730572729553387
20
-129.16511179143976
42
-0.41421356237309509
0
LWPOLYLINE
5
269
100
AcDbEntity
8
0
100
AcDbPolyline
90
8
70
1
43
0.0
10
52.980572729553401
20
-130.91511179143973
10
45.680572729553397
20
-130.91511179143976
42
-0.41421356237309509
10
43.93057272955339
20
-129.16511179143976
10
43.93057272955339
20
-121.86511179143974
42
-0.41421356237309509
10
45.680572729553397
20
-120.11511179143973
10
52.980572729553401
20
-120.11511179143974
42
-0.41421356237309509
10
54.730572729553387
20
-121.86511179143974
10
54.730572729553387
20
-129.16511179143976
42
-0.41421356237309509
0
LWPOLYLINE
5
270
100
AcDbEntity
8
0
100
AcDbPolyline
90
8
70
1
43
0.0
10
67.980572729553401
20
-130.91511179143973
10
60.680572729553397
20
-130.91511179143976
42
-0.41421356237309509
10
58.93057272955339
20
-129.16511179143976
10
58.93057272955339
20
-121.86511179143974
42
-0.41421356237309509
10
60.680572729553397
20
-120.11511179143973
10
67.980572729553401
20
-120.11511179143974
42
-0.41421356237309509
10
69.730572729553387
20
-121.86511179143974
10
69.730572729553387
20
-129.16511179143976
42
-0.41421356237309509
0
LWPOLYLINE
5
271
100
AcDbEntity
8
0
100
AcDbPolyline
90
8
70
1
43
0.0
10
82.980572729553401
20
-130.91511179143973
10
75.680572729553404
20
-130.91511179143976
42
-0.41421356237309509
10
73.93057272955339
20
-129.16511179143976
10
73.93057272955339
20
-121.86511179143974
42
-0.41421356237309509
10
75.680572729553404
20
-120.11511179143973
10
82.980572729553401
20
-120.11511179143974
42
-0.41421356237309509
10
84.730572729553387
20
-121.86511179143974
10
84.730572729553387
20
-129.16511179143976
42
-0.41421356237309509
0
LWPOLYLINE
5
272
100
AcDbEntity
8
0
100
AcDbPolyline
90
8
70
1
43
0.0
10
97.980572729553401
20
-130.91511179143973
10
90.680572729553404
20
-130.91511179143976
42
-0.41421356237309509
10
88.93057272955339
20
-129.16511179143976
10
88.93057272955339
20
-121.86511179143974
42
-0.41421356237309509
10
90.680572729553404
20
-120.11511179143973
10
97.980572729553401
20
-120.11511179143974
42
-0.41421356237309509
10
99.730572729553387
20
-121.86511179143974
10
99.730572729553387
20
-129.16511179143976
42
-0.41421356237309509
0
LWPOLYLINE
5
273
100
AcDbEntity
8
0
100
AcDbPolyline
90
8
70
1
43
0.0
10
112.9805727295534
20
-130.91511179143973
10
105.6805727295534
20
-130.91511179143976
42
-0.41421356237309509
10
103.93057272955339
20
-129.16511179143976
10
103.93057272955339
20
-121.86511179143974
42
-0.41421356237309509
10
105.6805727295534
20
-120.11511179143973
10
112.9805727295534
20
-120.11511179143974
42
-0.41421356237309509
10
114.73057272955339
20
-121.86511179143974
10
114.73057272955339
20
-129.16511179143976
42
-0.41421356237309509
0
LWPOLYLINE
5
274
100
AcDbEntity
8
0
100
AcDbPolyline
90
8
70
1
43
0.0
10
127.9805727295534
20
-130.91511179143973
10
120.6805727295534
20
-130.91511179143976
42
-0.41421356237309509
10
118.93057272955339
20
-129.16511179143976
10
118.93057272955339
20
-121.86511179143974
42
-0.41421356237309509
10
120.6805727295534
20
-120.11511179143973
10
127.9805727295534
20
-120.11511179143974
42
-0.41421356237309509
10
129.73057272955339
20
-121.86511179143974
10
129.73057272955339
20
-129.16511179143976
42
-0.41421356237309509
0
LWPOLYLINE
5
275
100
AcDbEntity
8
0
100
AcDbPolyline
90
8
70
1
43
0.0
10
142.98057272955339
20
-130.91511179143973
10
135.6805727295534
20
-130.91511179143976
42
-0.41421356237309509
10
133.93057272955338
20
-129.16511179143976
10
133.93057272955338
20
-121.86511179143974
42
-0.41421356237309509
10
135.6805727295534
20
-120.11511179143973
10
142.98057272955339
20
-120.11511179143974
42
-0.41421356237309509
10
144.73057272955339
20
-121.86511179143974
10
144.73057272955339
20
-129.16511179143976
42
-0.41421356237309509
0
LWPOLYLINE
5
276
100
AcDbEntity
8
0
100
AcDbPolyline
90
8
70
1
43
0.0
10
157.98057272955339
20
-130.91511179143973
10
150.6805727295534
20
-130.91511179143976
42
-0.41421356237309509
10
148.93057272955338
20
-129.16511179143976
10
148.93057272955338
20
-121.86511179143974
42
-0.41421356237309509
10
150.6805727295534
20
-120.11511179143973
10
157.98057272955339
20
-120.11511179143974
42
-0.41421356237309509
10
159.73057272955339
20
-121.86511179143974
10
159.73057272955339
20
-129.16511179143976
42
-0.41421356237309509
0
LWPOLYLINE
5
277
100
AcDbEntity
8
0
100
AcDbPolyline
90
8
70
1
43
0.0
10
172.98057272955339
20
-130.91511179143973
10
165.6805727295534
20
-130.91511179143976
42
-0.41421356237309509
10
163.93057272955338
20
-129.16511179143976
10
163.93057272955338
20
-121.86511179143974
42
-0.41421356237309509
10
165.6805727295534
20
-120.11511179143973
10
172.98057272955339
20
-120.11511179143973
42
-0.41421356237309509
10
174.73057272955342
20
-121.86511179143974
10
174.73057272955339
20
-129.16511179143976
42
-0.41421356237309509
0
LWPOLYLINE
5
278
100
AcDbEntity
8
0
100
AcDbPolyline
90
8
70
1
43
0.0
10
187.98057272955339
20
-130.91511179143973
10
180.6805727295534
20
-130.91511179143976
42
-0.41421356237309509
10
178.93057272955338
20
-129.16511179143976
10
178.93057272955338
20
-121.86511179143974
42
-0.41421356237309509
10
180.6805727295534
20
-120.11511179143973
10
187.98057272955339
20
-120.11511179143973
42
-0.41421356237309509
10
189.73057272955342
20
-121.86511179143974
10
189.73057272955339
20
-129.16511179143976
42
-0.41421356237309509
0
LWPOLYLINE
5
279
100
AcDbEntity
8
0
100
AcDbPolyline
90
8
70
1
43
0.0
10
202.98057272955339
20
-130.91511179143973
10
195.6805727295534
20
-130.91511179143976
42
-0.41421356237309509
10
193.93057272955338
20
-129.16511179143976
10
193.93057272955338
20
-121.86511179143974
42
-0.41421356237309509
10
195.6805727295534
20
-120.11511179143973
10
202.98057272955339
20
-120.11511179143973
42
-0.41421356237309509
10
204.73057272955342
20
-121.86511179143974
10
204.73057272955339
20
-129.16511179143976
42
-0.41421356237309509
0
LWPOLYLINE
5
280
100
AcDbEntity
8
0
100
AcDbPolyline
90
8
70
1
43
0.0
10
217.98057272955339
20
-130.91511179143973
10
210.6805727295534
20
-130.91511179143976
42
-0.41421356237309509
10
208.93057272955338
20
-129.16511179143976
10
208.93057272955338
20
-121.86511179143974
42
-0.41421356237309509
10
210.6805727295534
20
-120.11511179143973
10
217.98057272955339
20
-120.11511179143973
42
-0.41421356237309509
10
219.73057272955342
20
-121.86511179143974
10
219.73057272955339
20
-129.16511179143976
42
-0.41421356237309509
0
LWPOLYLINE
5
281
100
AcDbEntity
8
0
100
AcDbPolyline
90
8
70
1
43
0.0
10
232.98057272955339
20
-130.91511179143973
10
225.6805727295534
20
-130.91511179143976
42
-0.41421356237309509
10
223.93057272955338
20
-129.16511179143976
10
223.93057272955338
20
-121.86511179143974
42
-0.41421356237309509
10
225.6805727295534
20
-120.11511179143973
10
232.98057272955339
20
-120.11511179143973
42
-0.41421356237309509
10
234.73057272955342
20
-121.86511179143974
10
234.73057272955339
20
-129.16511179143976
42
-0.41421356237309509
0
LWPOLYLINE
5
282
100
AcDbEntity
8
0
100
AcDbPolyline
90
8
70
1
43
0.0
10
247.98057272955339
20
-130.91511179143973
10
240.6805727295534
20
-130.91511179143976
42
-0.41421356237309509
10
238.93057272955338
20
-129.16511179143976
10
238.93057272955338
20
-121.86511179143974
42
-0.41421356237309509
10
240.6805727295534
20
-120.11511179143973
10
247.98057272955339
20
-120.11511179143973
42
-0.41421356237309509
10
249.73057272955342
20
-121.86511179143974
10
249.73057272955339
20
-129.16511179143976
42
-0.41421356237309509
0
LWPOLYLINE
5
283
100
AcDbEntity
8
0
100
AcDbPolyline
90
8
70
1
43
0.0
10
22.980572729553398
20
-145.91511179143973
10
15.680572729553395
20
-145.91511179143976
42
-0.41421356237309509
10
13.930572729553392
20
-144.16511179143976
10
13.93057272955339
20
-136.86511179143974
42
-0.41421356237309509
10
15.680572729553397
20
-135.11511179143974
10
22.980572729553398
20
-135.11511179143974
42
-0.41421356237309509
10
24.730572729553394
20
-136.86511179143974
10
24.730572729553387
20
-144.16511179143976
42
-0.41421356237309509
0
LWPOLYLINE
5
284
100
AcDbEntity
8
0
100
AcDbPolyline
90
8
70
1
43
0.0
10
37.980572729553394
20
-145.91511179143973
10
30.680572729553397
20
-145.91511179143976
42
-0.41421356237309509
10
28.93057272955339
20
-144.16511179143976
10
28.93057272955339
20
-136.86511179143974
42
-0.41421356237309509
10
30.680572729553397
20
-135.11511179143974
10
37.980572729553394
20
-135.11511179143974
42
-0.41421356237309509
10
39.730572729553394
20
-136.86511179143974
10
39.730572729553387
20
-144.16511179143976
42
-0.41421356237309509
0
LWPOLYLINE
5
285
100
AcDbEntity
8
0
100
AcDbPolyline
90
8
70
1
43
0.0
10
52.980572729553401
20
-145.91511179143973
10
45.680572729553397
20
-145.91511179143976
42
-0.41421356237309509
10
43.93057272955339
20
-144.16511179143976
10
43.93057272955339
20
-136.86511179143974
42
-0.41421356237309509
10
45.680572729553397
20
-135.11511179143974
10
52.980572729553401
20
-135.11511179143974
42
-0.41421356237309509
10
54.730572729553387
20
-136.86511179143974
10
54.730572729553387
20
-144.16511179143976
42
-0.41421356237309509
0
LWPOLYLINE
5
286
100
AcDbEntity
8
0
100
AcDbPolyline
90
8
70
1
43
0.0
10
67.980572729553401
20
-145.91511179143973
10
60.680572729553397
20
-145.91511179143976
42
-0.41421356237309509
10
58.93057272955339
20
-144.16511179143976
10
58.93057272955339
20
-136.86511179143974
42
-0.41421356237309509
10
60.680572729553397
20
-135.11511179143974
10
67.980572729553401
20
-135.11511179143974
42
-0.41421356237309509
10
69.730572729553387
20
-136.86511179143974
10
69.730572729553387
20
-144.16511179143976
42
-0.41421356237309509
0
LWPOLYLINE
5
287
100
AcDbEntity
8
0
100
AcDbPolyline
90
8
70
1
43
0.0
10
82.980572729553401
20
-145.91511179143973
10
75.680572729553404
20
-145.91511179143976
42
-0.41421356237309509
10
73.93057272955339
20
-144.16511179143976
10
73.93057272955339
20
-136.86511179143974
42
-0.41421356237309509
10
75.680572729553404
20
-135.11511179143974
10
82.980572729553401
20
-135.11511179143974
42
-0.41421356237309509
10
84.730572729553387
20
-136.86511179143974
10
84.730572729553387
20
-144.16511179143976
42
-0.41421356237309509
0
LWPOLYLINE
5
288
100
AcDbEntity
8
0
100
AcDbPolyline
90
8
70
1
43
0.0
10
97.980572729553401
20
-145.91511179143973
10
90.680572729553404
20
-145.91511179143976
42
-0.41421356237309509
10
88.93057272955339
20
-144.16511179143976
10
88.93057272955339
20
-136.86511179143974
42
-0.41421356237309509
10
90.680572729553404
20
-135.11511179143974
10
97.980572729553401
20
-135.11511179143974
42
-0.41421356237309509
10
99.730572729553387
20
-136.86511179143974
10
99.730572729553387
20
-144.16511179143976
42
-0.41421356237309509
0
LWPOLYLINE
5
289
100
AcDbEntity
8
0
100
AcDbPolyline
90
8
70
1
43
0.0
10
112.9805727295534
20
-145.91511179143973
10
105.6805727295534
20
-145.91511179143976
42
-0.41421356237309509
10
103.93057272955339
20
-144.16511179143976
10
103.93057272955339
20
-136.86511179143974
42
-0.41421356237309509
10
105.6805727295534
20
-135.11511179143974
10
112.9805727295534
20
-135.11511179143974
42
-0.41421356237309509
10
114.73057272955339
20
-136.86511179143974
10
114.73057272955339
20
-144.16511179143976
42
-0.41421356237309509
0
LWPOLYLINE
5
290
100
AcDbEntity
8
0
100
AcDbPolyline
90
8
70
1
43
0.0
10
127.9805727295534
20
-145.91511179143973
10
120.6805727295534
20
-145.91511179143976
42
-0.41421356237309509
10
118.93057272955339
20
-144.16511179143976
10
118.93057272955339
20
-136.86511179143974
42
-0.41421356237309509
10
120.6805727295534
20
-135.11511179143974
10
127.9805727295534
20
-135.11511179143974
42
-0.41421356237309509
10
129.73057272955339
20
-136.86511179143974
10
129.73057272955339
20
-144.16511179143976
42
-0.41421356237309509
0
LWPOLYLINE
5
291
100
AcDbEntity
8
0
100
AcDbPolyline
90
8
70
1
43
0.0
10
142.98057272955339
20
-145.91511179143973
10
135.6805727295534
20
-145.91511179143976
42
-0.41421356237309509
10
133.93057272955338
20
-144.16511179143976
10
133.93057272955338
20
-136.86511179143974
42
-0.41421356237309509
10
135.6805727295534
20
-135.11511179143974
10
142.98057272955339
20
-135.11511179143974
42
-0.41421356237309509
10
144.73057272955339
20
-136.86511179143974
10
144.73057272955339
20
-144.16511179143976
42
-0.41421356237309509
0
LWPOLYLINE
5
292
100
AcDbEntity
8
0
100
AcDbPolyline
90
8
70
1
43
0.0
10
157.98057272955339
20
-145.91511179143973
10
150.6805727295534
20
-145.91511179143976
42
-0.41421356237309509
10
148.93057272955338
20
-144.16511179143976
10
148.93057272955338
20
-136.86511179143974
42
-0.41421356237309509
10
150.6805727295534
20
-135.11511179143974
10
157.98057272955339
20
-135.11511179143974
42
-0.41421356237309509
10
159.73057272955339
20
-136.86511179143974
10
159.73057272955339
20
-144.16511179143976
42
-0.41421356237309509
0
LWPOLYLINE
5
293
100
AcDbEntity
8
0
100
AcDbPolyline
90
8
70
1
43
0.0
10
172.98057272955339
20
-145.91511179143973
10
165.6805727295534
20
-145.91511179143976
42
-0.41421356237309509
10
163.93057272955338
20
-144.16511179143976
10
163.93057272955338
20
-136.86511179143974
42
-0.41421356237309509
10
165.6805727295534
20
-135.11511179143974
10
172.98057272955339
20
-135.11511179143974
42
-0.41421356237309509
10
174.73057272955342
20
-136.86511179143974
10
174.73057272955339
20
-144.16511179143976
42
-0.41421356237309509
0
LWPOLYLINE
5
294
100
AcDbEntity
8
0
100
AcDbPolyline
90
8
70
1
43
0.0
10
187.98057272955339
20
-145.91511179143973
10
180.6805727295534
20
-145.91511179143976
42
-0.41421356237309509
10
178.93057272955338
20
-144.16511179143976
10
178.93057272955338
20
-136.86511179143974
42
-0.41421356237309509
10
180.6805727295534
20
-135.11511179143974
10
187.98057272955339
20
-135.11511179143974
42
-0.41421356237309509
10
189.73057272955342
20
-136.86511179143974
10
189.73057272955339
20
-144.16511179143976
42
-0.41421356237309509
0
LWPOLYLINE
5
295
100
AcDbEntity
8
0
100
AcDbPolyline
90
8
70
1
43
0.0
10
202.98057272955339
20
-145.91511179143973
10
195.6805727295534
20
-145.91511179143976
42
-0.41421356237309509
10
193.93057272955338
20
-144.16511179143976
10
193.93057272955338
20
-136.86511179143974
42
-0.41421356237309509
10
195.6805727295534
20
-135.11511179143974
10
202.98057272955339
20
-135.11511179143974
42
-0.41421356237309509
10
204.73057272955342
20
-136.86511179143974
10
204.73057272955339
20
-144.16511179143976
42
-0.41421356237309509
0
LWPOLYLINE
5
296
100
AcDbEntity
8
0
100
AcDbPolyline
90
8
70
1
43
0.0
10
217.98057272955339
20
-145.91511179143973
10
210.6805727295534
20
-145.91511179143976
42
-0.41421356237309509
10
208.93057272955338
20
-144.16511179143976
10
208.93057272955338
20
-136.86511179143974
42
-0.41421356237309509
10
210.6805727295534
20
-135.11511179143974
10
217.98057272955339
20
-135.11511179143974
42
-0.41421356237309509
10
219.73057272955342
20
-136.86511179143974
10
219.73057272955339
20
-144.16511179143976
42
-0.41421356237309509
0
LWPOLYLINE
5
297
100
AcDbEntity
8
0
100
AcDbPolyline
90
8
70
1
43
0.0
10
232.98057272955339
20
-145.91511179143973
10
225.6805727295534
20
-145.91511179143976
42
-0.41421356237309509
10
223.93057272955338
20
-144.16511179143976
10
223.93057272955338
20
-136.86511179143974
42
-0.41421356237309509
10
225.6805727295534
20
-135.11511179143974
10
232.98057272955339
20
-135.11511179143974
42
-0.41421356237309509
10
234.73057272955342
20
-136.86511179143974
10
234.73057272955339
20
-144.16511179143976
42
-0.41421356237309509
0
LWPOLYLINE
5
298
100
AcDbEntity
8
0
100
AcDbPolyline
90
8
70
1
43
0.0
10
247.98057272955339
20
-145.91511179143973
10
240.6805727295534
20
-145.91511179143976
42
-0.41421356237309509
10
238.93057272955338
20
-144.16511179143976
10
238.93057272955338
20
-136.86511179143974
42
-0.41421356237309509
10
240.6805727295534
20
-135.11511179143974
10
247.98057272955339
20
-135.11511179143974
42
-0.41421356237309509
10
249.73057272955342
20
-136.86511179143974
10
249.73057272955339
20
-144.16511179143976
42
-0.41421356237309509
0
LWPOLYLINE
5
299
100
AcDbEntity
8
0
100
AcDbPolyline
90
8
70
1
43
0.0
10
22.980572729553398
20
-160.91511179143976
10
15.680572729553395
20
-160.91511179143976
42
-0.41421356237309509
10
13.930572729553392
20
-159.16511179143976
10
13.93057272955339
20
-151.86511179143974
42
-0.41421356237309509
10
15.680572729553397
20
-150.11511179143974
10
22.980572729553398
20
-150.11511179143974
42
-0.41421356237309509
10
24.730572729553394
20
-151.86511179143974
10
24.730572729553405
20
-159.16511179143976
42
-0.41421356237309509
0
LWPOLYLINE
5
300
100
AcDbEntity
8
0
100
AcDbPolyline
90
8
70
1
43
0.0
10
37.980572729553394
20
-160.91511179143976
10
30.680572729553397
20
-160.91511179143976
42
-0.41421356237309509
10
28.93057272955339
20
-159.16511179143976
10
28.93057272955339
20
-151.86511179143974
42
-0.41421356237309509
10
30.680572729553397
20
-150.11511179143974
10
37.980572729553394
20
-150.11511179143974
42
-0.41421356237309509
10
39.730572729553394
20
-151.86511179143974
10
39.730572729553401
20
-159.16511179143976
42
-0.41421356237309509
0
LWPOLYLINE
5
301
100
AcDbEntity
8
0
100
AcDbPolyline
90
8
70
1
43
0.0
10
52.980572729553401
20
-160.91511179143976
10
45.680572729553397
20
-160.91511179143976
42
-0.41421356237309509
10
43.93057272955339
20
-159.16511179143976
10
43.93057272955339
20
-151.86511179143974
42
-0.41421356237309509
10
45.680572729553397
20
-150.11511179143974
10
52.980572729553401
20
-150.11511179143974
42
-0.41421356237309509
10
54.730572729553387
20
-151.86511179143974
10
54.730572729553408
20
-159.16511179143976
42
-0.41421356237309509
0
LWPOLYLINE
5
302
100
AcDbEntity
8
0
100
AcDbPolyline
90
8
70
1
43
0.0
10
67.980572729553401
20
-160.91511179143976
10
60.680572729553397
20
-160.91511179143976
42
-0.41421356237309509
10
58.93057272955339
20
-159.16511179143976
10
58.93057272955339
20
-151.86511179143974
42
-0.41421356237309509
10
60.680572729553397
20
-150.11511179143974
10
67.980572729553401
20
-150.11511179143974
42
-0.41421356237309509
10
69.730572729553387
20
-151.86511179143974
10
69.730572729553415
20
-159.16511179143976
42
-0.41421356237309509
0
LWPOLYLINE
5
303
100
AcDbEntity
8
0
100
AcDbPolyline
90
8
70
1
43
0.0
10
82.980572729553401
20
-160.91511179143976
10
75.680572729553404
20
-160.91511179143976
42
-0.41421356237309509
10
73.93057272955339
20
-159.16511179143976
10
73.93057272955339
20
-151.86511179143974
42
-0.41421356237309509
10
75.680572729553404
20
-150.11511179143974
10
82.980572729553401
20
-150.11511179143974
42
-0.41421356237309509
10
84.730572729553387
20
-151.86511179143974
10
84.730572729553415
20
-159.16511179143976
42
-0.41421356237309509
0
LWPOLYLINE
5
304
100
AcDbEntity
8
0
100
AcDbPolyline
90
8
70
1
43
0.0
10
97.980572729553401
20
-160.91511179143976
10
90.680572729553404
20
-160.91511179143976
42
-0.41421356237309509
10
88.93057272955339
20
-159.16511179143976
10
88.93057272955339
20
-151.86511179143974
42
-0.41421356237309509
10
90.680572729553404
20
-150.11511179143974
10
97.980572729553401
20
-150.11511179143974
42
-0.41421356237309509
10
99.730572729553387
20
-151.86511179143974
10
99.730572729553415
20
-159.16511179143976
42
-0.41421356237309509
0
LWPOLYLINE
5
305
100
AcDbEntity
8
0
100
AcDbPolyline
90
8
70
1
43
0.0
10
112.9805727295534
20
-160.91511179143976
10
105.6805727295534
20
-160.91511179143976
42
-0.41421356237309509
10
103.93057272955339
20
-159.16511179143976
10
103.93057272955339
20
-151.86511179143974
42
-0.41421356237309509
10
105.6805727295534
20
-150.11511179143974
10
112.9805727295534
20
-150.11511179143974
42
-0.41421356237309509
10
114.73057272955339
20
-151.86511179143974
10
114.73057272955342
20
-159.16511179143976
42
-0.41421356237309509
0
LWPOLYLINE
5
306
100
AcDbEntity
8
0
100
AcDbPolyline
90
8
70
1
43
0.0
10
127.9805727295534
20
-160.91511179143976
10
120.6805727295534
20
-160.91511179143976
42
-0.41421356237309509
10
118.93057272955339
20
-159.16511179143976
10
118.93057272955339
20
-151.86511179143974
42
-0.41421356237309509
10
120.6805727295534
20
-150.11511179143974
10
127.9805727295534
20
-150.11511179143974
42
-0.41421356237309509
10
129.73057272955339
20
-151.86511179143974
10
129.73057272955342
20
-159.16511179143976
42
-0.41421356237309509
0
LWPOLYLINE
5
307
100
AcDbEntity
8
0
100
AcDbPolyline
90
8
70
1
43
0.0
10
142.98057272955339
20
-160.91511179143976
10
135.6805727295534
20
-160.91511179143976
42
-0.41421356237309509
10
133.93057272955338
20
-159.16511179143976
10
133.93057272955338
20
-151.86511179143974
42
-0.41421356237309509
10
135.6805727295534
20
-150.11511179143974
10
142.98057272955339
20
-150.11511179143974
42
-0.41421356237309509
10
144.73057272955339
20
-151.86511179143974
10
144.73057272955342
20
-159.16511179143976
42
-0.41421356237309509
0
LWPOLYLINE
5
308
100
AcDbEntity
8
0
100
AcDbPolyline
90
8
70
1
43
0.0
10
157.98057272955339
20
-160.91511179143976
10
150.6805727295534
20
-160.91511179143976
42
-0.41421356237309509
10
148.93057272955338
20
-159.16511179143976
10
148.93057272955338
20
-151.86511179143974
42
-0.41421356237309509
10
150.6805727295534
20
-150.11511179143974
10
157.98057272955339
20
-150.11511179143974
42
-0.41421356237309509
10
159.73057272955339
20
-151.86511179143974
10
159.73057272955342
20
-159.16511179143976
42
-0.41421356237309509
0
LWPOLYLINE
5
309
100
AcDbEntity
8
0
100
AcDbPolyline
90
8
70
1
43
0.0
10
172.98057272955339
20
-160.91511179143976
10
165.6805727295534
20
-160.91511179143976
42
-0.41421356237309509
10
163.93057272955338
20
-159.16511179143976
10
163.93057272955338
20
-151.86511179143974
42
-0.41421356237309509
10
165.6805727295534
20
-150.11511179143974
10
172.98057272955339
20
-150.11511179143974
42
-0.41421356237309509
10
174.73057272955342
20
-151.86511179143974
10
174.73057272955342
20
-159.16511179143976
42
-0.41421356237309509
0
LWPOLYLINE
5
310
100
AcDbEntity
8
0
100
AcDbPolyline
90
8
70
1
43
0.0
10
187.98057272955339
20
-160.91511179143976
10
180.6805727295534
20
-160.91511179143976
42
-0.41421356237309509
10
178.93057272955338
20
-159.16511179143976
10
178.93057272955338
20
-151.86511179143974
42
-0.41421356237309509
10
180.6805727295534
20
-150.11511179143974
10
187.98057272955339
20
-150.11511179143974
42
-0.41421356237309509
10
189.73057272955342
20
-151.86511179143974
10
189.73057272955342
20
-159.16511179143976
42
-0.41421356237309509
0
LWPOLYLINE
5
311
100
AcDbEntity
8
0
100
AcDbPolyline
90
8
70
1
43
0.0
10
202.98057272955339
20
-160.91511179143976
10
195.6805727295534
20
-160.91511179143976
42
-0.41421356237309509
10
193.93057272955338
20
-159.16511179143976
10
193.93057272955338
20
-151.86511179143974
42
-0.41421356237309509
10
195.6805727295534
20
-150.11511179143974
10
202.98057272955339
20
-150.11511179143974
42
-0.41421356237309509
10
204.73057272955342
20
-151.86511179143974
10
204.73057272955342
20
-159.16511179143976
42
-0.41421356237309509
0
LWPOLYLINE
5
312
100
AcDbEntity
8
0
100
AcDbPolyline
90
8
70
1
43
0.0
10
217.98057272955339
20
-160.91511179143976
10
210.6805727295534
20
-160.91511179143976
42
-0.41421356237309509
10
208.93057272955338
20
-159.16511179143976
10
208.93057272955338
20
-151.86511179143974
42
-0.41421356237309509
10
210.6805727295534
20
-150.11511179143974
10
217.98057272955339
20
-150.11511179143974
42
-0.41421356237309509
10
219.73057272955342
20
-151.86511179143974
10
219.73057272955342
20
-159.16511179143976
42
-0.41421356237309509
0
LWPOLYLINE
5
313
100
AcDbEntity
8
0
100
AcDbPolyline
90
8
70
1
43
0.0
10
232.98057272955339
20
-160.91511179143976
10
225.6805727295534
20
-160.91511179143976
42
-0.41421356237309509
10
223.93057272955338
20
-159.16511179143976
10
223.93057272955338
20
-151.86511179143974
42
-0.41421356237309509
10
225.6805727295534
20
-150.11511179143974
10
232.98057272955339
20
-150.11511179143974
42
-0.41421356237309509
10
234.73057272955342
20
-151.86511179143974
10
234.73057272955342
20
-159.16511179143976
42
-0.41421356237309509
0
LWPOLYLINE
5
314
100
AcDbEntity
8
0
100
AcDbPolyline
90
8
70
1
43
0.0
10
247.98057272955339
20
-160.91511179143976
10
240.6805727295534
20
-160.91511179143976
42
-0.41421356237309509
10
238.93057272955338
20
-159.16511179143976
10
238.93057272955338
20
-151.86511179143974
42
-0.41421356237309509
10
240.6805727295534
20
-150.11511179143974
10
247.98057272955339
20
-150.11511179143974
42
-0.41421356237309509
10
249.73057272955342
20
-151.86511179143974
10
249.73057272955342
20
-159.16511179143976
42
-0.41421356237309509
0
LWPOLYLINE
5
315
100
AcDbEntity
8
0
100
AcDbPolyline
90
8
70
1
43
0.0
10
22.980572729553398
20
-175.91511179143976
10
15.680572729553395
20
-175.91511179143976
42
-0.41421356237309509
10
13.930572729553392
20
-174.16511179143976
10
13.93057272955339
20
-166.86511179143974
42
-0.41421356237309509
10
15.680572729553397
20
-165.11511179143974
10
22.980572729553398
20
-165.11511179143974
42
-0.41421356237309509
10
24.730572729553394
20
-166.86511179143974
10
24.730572729553405
20
-174.16511179143976
42
-0.41421356237309509
0
LWPOLYLINE
5
316
100
AcDbEntity
8
0
100
AcDbPolyline
90
8
70
1
43
0.0
10
37.980572729553394
20
-175.91511179143976
10
30.680572729553397
20
-175.91511179143976
42
-0.41421356237309509
10
28.93057272955339
20
-174.16511179143976
10
28.93057272955339
20
-166.86511179143974
42
-0.41421356237309509
10
30.680572729553397
20
-165.11511179143974
10
37.980572729553394
20
-165.11511179143974
42
-0.41421356237309509
10
39.730572729553394
20
-166.86511179143974
10
39.730572729553401
20
-174.16511179143976
42
-0.41421356237309509
0
LWPOLYLINE
5
317
100
AcDbEntity
8
0
100
AcDbPolyline
90
8
70
1
43
0.0
10
52.980572729553401
20
-175.91511179143976
10
45.680572729553397
20
-175.91511179143976
42
-0.41421356237309509
10
43.93057272955339
20
-174.16511179143976
10
43.93057272955339
20
-166.86511179143974
42
-0.41421356237309509
10
45.680572729553397
20
-165.11511179143974
10
52.980572729553401
20
-165.11511179143974
42
-0.41421356237309509
10
54.730572729553387
20
-166.86511179143974
10
54.730572729553408
20
-174.16511179143976
42
-0.41421356237309509
0
LWPOLYLINE
5
318
100
AcDbEntity
8
0
100
AcDbPolyline
90
8
70
1
43
0.0
10
67.980572729553401
20
-175.91511179143976
10
60.680572729553397
20
-175.91511179143976
42
-0.41421356237309509
10
58.93057272955339
20
-174.16511179143976
10
58.93057272955339
20
-166.86511179143974
42
-0.41421356237309509
10
60.680572729553397
20
-165.11511179143974
10
67.980572729553401
20
-165.11511179143974
42
-0.41421356237309509
10
69.730572729553387
20
-166.86511179143974
10
69.730572729553415
20
-174.16511179143976
42
-0.41421356237309509
0
LWPOLYLINE
5
319
100
AcDbEntity
8
0
100
AcDbPolyline
90
8
70
1
43
0.0
10
82.980572729553401
20
-175.91511179143976
10
75.680572729553404
20
-175.91511179143976
42
-0.41421356237309509
10
73.93057272955339
20
-174.16511179143976
10
73.93057272955339
20
-166.86511179143974
42
-0.41421356237309509
10
75.680572729553404
20
-165.11511179143974
10
82.980572729553401
20
-165.11511179143974
42
-0.41421356237309509
10
84.730572729553387
20
-166.86511179143974
10
84.730572729553415
20
-174.16511179143976
42
-0.41421356237309509
0
LWPOLYLINE
5
320
100
AcDbEntity
8
0
100
AcDbPolyline
90
8
70
1
43
0.0
10
97.980572729553401
20
-175.91511179143976
10
90.680572729553404
20
-175.91511179143976
42
-0.41421356237309509
10
88.93057272955339
20
-174.16511179143976
10
88.93057272955339
20
-166.86511179143974
42
-0.41421356237309509
10
90.680572729553404
20
-165.11511179143974
10
97.980572729553401
20
-165.11511179143974
42
-0.41421356237309509
10
99.730572729553387
20
-166.86511179143974
10
99.730572729553415
20
-174.16511179143976
42
-0.41421356237309509
0
LWPOLYLINE
5
321
100
AcDbEntity
8
0
100
AcDbPolyline
90
8
70
1
43
0.0
10
112.9805727295534
20
-175.91511179143976
10
105.6805727295534
20
-175.91511179143976
42
-0.41421356237309509
10
103.93057272955339
20
-174.16511179143976
10
103.93057272955339
20
-166.86511179143974
42
-0.41421356237309509
10
105.6805727295534
20
-165.11511179143974
10
112.9805727295534
20
-165.11511179143974
42
-0.41421356237309509
10
114.73057272955339
20
-166.86511179143974
10
114.73057272955342
20
-174.16511179143976
42
-0.41421356237309509
0
LWPOLYLINE
5
322
100
AcDbEntity
8
0
100
AcDbPolyline
90
8
70
1
43
0.0
10
127.9805727295534
20
-175.91511179143976
10
120.6805727295534
20
-175.91511179143976
42
-0.41421356237309509
10
118.93057272955339
20
-174.16511179143976
10
118.93057272955339
20
-166.86511179143974
42
-0.41421356237309509
10
120.6805727295534
20
-165.11511179143974
10
127.9805727295534
20
-165.11511179143974
42
-0.41421356237309509
10
129.73057272955339
20
-166.86511179143974
10
129.73057272955342
20
-174.16511179143976
42
-0.41421356237309509
0
LWPOLYLINE
5
323
100
AcDbEntity
8
0
100
AcDbPolyline
90
8
70
1
43
0.0
10
142.98057272955339
20
-175.91511179143976
10
135.6805727295534
20
-175.91511179143976
42
-0.41421356237309509
10
133.93057272955338
20
-174.16511179143976
10
133.93057272955338
20
-166.86511179143974
42
-0.41421356237309509
10
135.6805727295534
20
-165.11511179143974
10
142.98057272955339
20
-165.11511179143974
42
-0.41421356237309509
10
144.73057272955339
20
-166.86511179143974
10
144.73057272955342
20
-174.16511179143976
42
-0.41421356237309509
0
LWPOLYLINE
5
324
100
AcDbEntity
8
0
100
AcDbPolyline
90
8
70
1
43
0.0
10
157.98057272955339
20
-175.91511179143976
10
150.6805727295534
20
-175.91511179143976
42
-0.41421356237309509
10
148.93057272955338
20
-174.16511179143976
10
148.93057272955338
20
-166.86511179143974
42
-0.41421356237309509
10
150.6805727295534
20
-165.11511179143974
10
157.98057272955339
20
-165.11511179143974
42
-0.41421356237309509
10
159.73057272955339
20
-166.86511179143974
10
159.73057272955342
20
-174.16511179143976
42
-0.41421356237309509
0
LWPOLYLINE
5
325
100
AcDbEntity
8
0
100
AcDbPolyline
90
8
70
1
43
0.0
10
172.98057272955339
20
-175.91511179143976
10
165.6805727295534
20
-175.91511179143976
42
-0.41421356237309509
10
163.93057272955338
20
-174.16511179143976
10
163.93057272955338
20
-166.86511179143974
42
-0.41421356237309509
10
165.6805727295534
20
-165.11511179143974
10
172.98057272955339
20
-165.11511179143974
42
-0.41421356237309509
10
174.73057272955342
20
-166.86511179143974
10
174.73057272955342
20
-174.16511179143976
42
-0.41421356237309509
0
LWPOLYLINE
5
326
100
AcDbEntity
8
0
100
AcDbPolyline
90
8
70
1
43
0.0
10
187.98057272955339
20
-175.91511179143976
10
180.6805727295534
20
-175.91511179143976
42
-0.41421356237309509
10
178.93057272955338
20
-174.16511179143976
10
178.93057272955338
20
-166.86511179143974
42
-0.41421356237309509
10
180.6805727295534
20
-165.11511179143974
10
187.98057272955339
20
-165.11511179143974
42
-0.41421356237309509
10
189.73057272955342
20
-166.86511179143974
10
189.73057272955342
20
-174.16511179143976
42
-0.41421356237309509
0
LWPOLYLINE
5
327
100
AcDbEntity
8
0
100
AcDbPolyline
90
8
70
1
43
0.0
10
202.98057272955339
20
-175.91511179143976
10
195.6805727295534
20
-175.91511179143976
42
-0.41421356237309509
10
193.93057272955338
20
-174.16511179143976
10
193.93057272955338
20
-166.86511179143974
42
-0.41421356237309509
10
195.6805727295534
20
-165.11511179143974
10
202.98057272955339
20
-165.11511179143974
42
-0.41421356237309509
10
204.73057272955342
20
-166.86511179143974
10
204.73057272955342
20
-174.16511179143976
42
-0.41421356237309509
0
LWPOLYLINE
5
328
100
AcDbEntity
8
0
100
AcDbPolyline
90
8
70
1
43
0.0
10
217.98057272955339
20
-175.91511179143976
10
210.6805727295534
20
-175.91511179143976
42
-0.41421356237309509
10
208.93057272955338
20
-174.16511179143976
10
208.93057272955338
20
-166.86511179143974
42
-0.41421356237309509
10
210.6805727295534
20
-165.11511179143974
10
217.98057272955339
20
-165.11511179143974
42
-0.41421356237309509
10
219.73057272955342
20
-166.86511179143974
10
219.73057272955342
20
-174.16511179143976
42
-0.41421356237309509
0
LWPOLYLINE
5
329
100
AcDbEntity
8
0
100
AcDbPolyline
90
8
70
1
43
0.0
10
232.98057272955339
20
-175.91511179143976
10
225.6805727295534
20
-175.91511179143976
42
-0.41421356237309509
10
223.93057272955338
20
-174.16511179143976
10
223.93057272955338
20
-166.86511179143974
42
-0.41421356237309509
10
225.6805727295534
20
-165.11511179143974
10
232.98057272955339
20
-165.11511179143974
42
-0.41421356237309509
10
234.73057272955342
20
-166.86511179143974
10
234.73057272955342
20
-174.16511179143976
42
-0.41421356237309509
0
LWPOLYLINE
5
330
100
AcDbEntity
8
0
100
AcDbPolyline
90
8
70
1
43
0.0
10
247.98057272955339
20
-175.91511179143976
10
240.6805727295534
20
-175.91511179143976
42
-0.41421356237309509
10
238.93057272955338
20
-174.16511179143976
10
238.93057272955338
20
-166.86511179143974
42
-0.41421356237309509
10
240.6805727295534
20
-165.11511179143974
10
247.98057272955339
20
-165.11511179143974
42
-0.41421356237309509
10
249.73057272955342
20
-166.86511179143974
10
249.73057272955342
20
-174.16511179143976
42
-0.41421356237309509
0
LWPOLYLINE
5
331
100
AcDbEntity
8
0
100
AcDbPolyline
90
8
70
1
43
0.0
10
22.980572729553398
20
-190.91511179143976
10
15.680572729553395
20
-190.91511179143976
42
-0.41421356237309509
10
13.930572729553392
20
-189.16511179143976
10
13.93057272955339
20
-181.86511179143974
42
-0.41421356237309509
10
15.680572729553397
20
-180.11511179143974
10
22.980572729553398
20
-180.11511179143974
42
-0.41421356237309509
10
24.730572729553394
20
-181.86511179143974
10
24.730572729553405
20
-189.16511179143976
42
-0.41421356237309509
0
LWPOLYLINE
5
332
100
AcDbEntity
8
0
100
AcDbPolyline
90
8
70
1
43
0.0
10
37.980572729553394
20
-190.91511179143976
10
30.680572729553397
20
-190.91511179143976
42
-0.41421356237309509
10
28.93057272955339
20
-189.16511179143976
10
28.93057272955339
20
-181.86511179143974
42
-0.41421356237309509
10
30.680572729553397
20
-180.11511179143974
10
37.980572729553394
20
-180.11511179143974
42
-0.41421356237309509
10
39.730572729553394
20
-181.86511179143974
10
39.730572729553401
20
-189.16511179143976
42
-0.41421356237309509
0
LWPOLYLINE
5
333
100
AcDbEntity
8
0
100
AcDbPolyline
90
8
70
1
43
0.0
10
52.980572729553401
20
-190.91511179143976
10
45.680572729553397
20
-190.91511179143976
42
-0.41421356237309509
10
43.93057272955339
20
-189.16511179143976
10
43.93057272955339
20
-181.86511179143974
42
-0.41421356237309509
10
45.680572729553397
20
-180.11511179143974
10
52.980572729553401
20
-180.11511179143974
42
-0.41421356237309509
10
54.730572729553387
20
-181.86511179143974
10
54.730572729553408
20
-189.16511179143976
42
-0.41421356237309509
0
LWPOLYLINE
5
334
100
AcDbEntity
8
0
100
AcDbPolyline
90
8
70
1
43
0.0
10
67.980572729553401
20
-190.91511179143976
10
60.680572729553397
20
-190.91511179143976
42
-0.41421356237309509
10
58.93057272955339
20
-189.16511179143976
10
58.93057272955339
20
-181.86511179143974
42
-0.41421356237309509
10
60.680572729553397
20
-180.11511179143974
10
67.980572729553401
20
-180.11511179143974
42
-0.41421356237309509
10
69.730572729553387
20
-181.86511179143974
10
69.730572729553415
20
-189.16511179143976
42
-0.41421356237309509
0
LWPOLYLINE
5
335
100
AcDbEntity
8
0
100
AcDbPolyline
90
8
70
1
43
0.0
10
82.980572729553401
20
-190.91511179143976
10
75.680572729553404
20
-190.91511179143976
42
-0.41421356237309509
10
73.93057272955339
20
-189.16511179143976
10
73.93057272955339
20
-181.86511179143974
42
-0.41421356237309509
10
75.680572729553404
20
-180.11511179143974
10
82.980572729553401
20
-180.11511179143974
42
-0.41421356237309509
10
84.730572729553387
20
-181.86511179143974
10
84.730572729553415
20
-189.16511179143976
42
-0.41421356237309509
0
LWPOLYLINE
5
336
100
AcDbEntity
8
0
100
AcDbPolyline
90
8
70
1
43
0.0
10
97.980572729553401
20
-190.91511179143976
10
90.680572729553404
20
-190.91511179143976
42
-0.41421356237309509
10
88.93057272955339
20
-189.16511179143976
10
88.93057272955339
20
-181.86511179143974
42
-0.41421356237309509
10
90.680572729553404
20
-180.11511179143974
10
97.980572729553401
20
-180.11511179143974
42
-0.41421356237309509
10
99.730572729553387
20
-181.86511179143974
10
99.730572729553415
20
-189.16511179143976
42
-0.41421356237309509
0
LWPOLYLINE
5
337
100
AcDbEntity
8
0
100
AcDbPolyline
90
8
70
1
43
0.0
10
112.9805727295534
20
-190.91511179143976
10
105.6805727295534
20
-190.91511179143976
42
-0.41421356237309509
10
103.93057272955339
20
-189.16511179143976
10
103.93057272955339
20
-181.86511179143974
42
-0.41421356237309509
10
105.6805727295534
20
-180.11511179143974
10
112.9805727295534
20
-180.11511179143974
42
-0.41421356237309509
10
114.73057272955339
20
-181.86511179143974
10
114.73057272955342
20
-189.16511179143976
42
-0.41421356237309509
0
LWPOLYLINE
5
338
100
AcDbEntity
8
0
100
AcDbPolyline
90
8
70
1
43
0.0
10
127.9805727295534
20
-190.91511179143976
10
120.6805727295534
20
-190.91511179143976
42
-0.41421356237309509
10
118.93057272955339
20
-189.16511179143976
10
118.93057272955339
20
-181.86511179143974
42
-0.41421356237309509
10
120.6805727295534
20
-180.11511179143974
10
127.9805727295534
20
-180.11511179143974
42
-0.41421356237309509
10
129.73057272955339
20
-181.86511179143974
10
129.73057272955342
20
-189.16511179143976
42
-0.41421356237309509
0
LWPOLYLINE
5
339
100
AcDbEntity
8
0
100
AcDbPolyline
90
8
70
1
43
0.0
10
142.98057272955339
20
-190.91511179143976
10
135.6805727295534
20
-190.91511179143976
42
-0.41421356237309509
10
133.93057272955338
20
-189.16511179143976
10
133.93057272955338
20
-181.86511179143974
42
-0.41421356237309509
10
135.6805727295534
20
-180.11511179143974
10
142.98057272955339
20
-180.11511179143974
42
-0.41421356237309509
10
144.73057272955339
20
-181.86511179143974
10
144.73057272955342
20
-189.16511179143976
42
-0.41421356237309509
0
LWPOLYLINE
5
340
100
AcDbEntity
8
0
100
AcDbPolyline
90
8
70
1
43
0.0
10
157.98057272955339
20
-190.91511179143976
10
150.6805727295534
20
-190.91511179143976
42
-0.41421356237309509
10
148.93057272955338
20
-189.16511179143976
10
148.93057272955338
20
-181.86511179143974
42
-0.41421356237309509
10
150.6805727295534
20
-180.11511179143974
10
157.98057272955339
20
-180.11511179143974
42
-0.41421356237309509
10
159.73057272955339
20
-181.86511179143974
10
159.73057272955342
20
-189.16511179143976
42
-0.41421356237309509
0
LWPOLYLINE
5
341
100
AcDbEntity
8
0
100
AcDbPolyline
90
8
70
1
43
0.0
10
172.98057272955339
20
-190.91511179143976
10
165.6805727295534
20
-190.91511179143976
42
-0.41421356237309509
10
163.93057272955338
20
-189.16511179143976
10
163.93057272955338
20
-181.86511179143974
42
-0.41421356237309509
10
165.6805727295534
20
-180.11511179143974
10
172.98057272955339
20
-180.11511179143974
42
-0.41421356237309509
10
174.73057272955342
20
-181.86511179143974
10
174.73057272955342
20
-189.16511179143976
42
-0.41421356237309509
0
LWPOLYLINE
5
342
100
AcDbEntity
8
0
100
AcDbPolyline
90
8
70
1
43
0.0
10
187.98057272955339
20
-190.91511179143976
10
180.6805727295534
20
-190.91511179143976
42
-0.41421356237309509
10
178.93057272955338
20
-189.16511179143976
10
178.93057272955338
20
-181.86511179143974
42
-0.41421356237309509
10
180.6805727295534
20
-180.11511179143974
10
187.98057272955339
20
-180.11511179143974
42
-0.41421356237309509
10
189.73057272955342
20
-181.86511179143974
10
189.73057272955342
20
-189.16511179143976
42
-0.41421356237309509
0
LWPOLYLINE
5
343
100
AcDbEntity
8
0
100
AcDbPolyline
90
8
70
1
43
0.0
10
202.98057272955339
20
-190.91511179143976
10
195.6805727295534
20
-190.91511179143976
42
-0.41421356237309509
10
193.93057272955338
20
-189.16511179143976
10
193.93057272955338
20
-181.86511179143974
42
-0.41421356237309509
10
195.6805727295534
20
-180.11511179143974
10
202.98057272955339
20
-180.11511179143974
42
-0.41421356237309509
10
204.73057272955342
20
-181.86511179143974
10
204.73057272955342
20
-189.16511179143976
42
-0.41421356237309509
0
LWPOLYLINE
5
344
100
AcDbEntity
8
0
100
AcDbPolyline
90
8
70
1
43
0.0
10
217.98057272955339
20
-190.91511179143976
10
210.6805727295534
20
-190.91511179143976
42
-0.41421356237309509
10
208.93057272955338
20
-189.16511179143976
10
208.93057272955338
20
-181.86511179143974
42
-0.41421356237309509
10
210.6805727295534
20
-180.11511179143974
10
217.98057272955339
20
-180.11511179143974
42
-0.41421356237309509
10
219.73057272955342
20
-181.86511179143974
10
219.73057272955342
20
-189.16511179143976
42
-0.41421356237309509
0
LWPOLYLINE
5
345
100
AcDbEntity
8
0
100
AcDbPolyline
90
8
70
1
43
0.0
10
232.98057272955339
20
-190.91511179143976
10
225.6805727295534
20
-190.91511179143976
42
-0.41421356237309509
10
223.93057272955338
20
-189.16511179143976
10
223.93057272955338
20
-181.86511179143974
42
-0.41421356237309509
10
225.6805727295534
20
-180.11511179143974
10
232.98057272955339
20
-180.11511179143974
42
-0.41421356237309509
10
234.73057272955342
20
-181.86511179143974
10
234.73057272955342
20
-189.16511179143976
42
-0.41421356237309509
0
LWPOLYLINE
5
346
100
AcDbEntity
8
0
100
AcDbPolyline
90
8
70
1
43
0.0
10
247.98057272955339
20
-190.91511179143976
10
240.6805727295534
20
-190.91511179143976
42
-0.41421356237309509
10
238.93057272955338
20
-189.16511179143976
10
238.93057272955338
20
-181.86511179143974
42
-0.41421356237309509
10
240.6805727295534
20
-180.11511179143974
10
247.98057272955339
20
-180.11511179143974
42
-0.41421356237309509
10
249.73057272955342
20
-181.86511179143974
10
249.73057272955342
20
-189.16511179143976
42
-0.41421356237309509
0
LWPOLYLINE
5
347
100
AcDbEntity
8
0
100
AcDbPolyline
90
8
70
1
43
0.0
10
22.980572729553398
20
-205.91511179143976
10
15.680572729553395
20
-205.91511179143976
42
-0.41421356237309509
10
13.930572729553392
20
-204.16511179143976
10
13.93057272955339
20
-196.86511179143974
42
-0.41421356237309509
10
15.680572729553397
20
-195.11511179143974
10
22.980572729553398
20
-195.11511179143974
42
-0.41421356237309509
10
24.730572729553394
20
-196.86511179143974
10
24.730572729553405
20
-204.16511179143976
42
-0.41421356237309509
0
LWPOLYLINE
5
348
100
AcDbEntity
8
0
100
AcDbPolyline
90
8
70
1
43
0.0
10
37.980572729553394
20
-205.91511179143976
10
30.680572729553397
20
-205.91511179143976
42
-0.41421356237309509
10
28.93057272955339
20
-204.16511179143976
10
28.93057272955339
20
-196.86511179143974
42
-0.41421356237309509
10
30.680572729553397
20
-195.11511179143974
10
37.980572729553394
20
-195.11511179143974
42
-0.41421356237309509
10
39.730572729553394
20
-196.86511179143974
10
39.730572729553401
20
-204.16511179143976
42
-0.41421356237309509
0
LWPOLYLINE
5
349
100
AcDbEntity
8
0
100
AcDbPolyline
90
8
70
1
43
0.0
10
52.980572729553401
20
-205.91511179143976
10
45.680572729553397
20
-205.91511179143976
42
-0.41421356237309509
10
43.93057272955339
20
-204.16511179143976
10
43.93057272955339
20
-196.86511179143974
42
-0.41421356237309509
10
45.680572729553397
20
-195.11511179143974
10
52.980572729553401
20
-195.11511179143974
42
-0.41421356237309509
10
54.730572729553387
20
-196.86511179143974
10
54.730572729553408
20
-204.16511179143976
42
-0.41421356237309509
0
LWPOLYLINE
5
350
100
AcDbEntity
8
0
100
AcDbPolyline
90
8
70
1
43
0.0
10
67.980572729553401
20
-205.91511179143976
10
60.680572729553397
20
-205.91511179143976
42
-0.41421356237309509
10
58.93057272955339
20
-204.16511179143976
10
58.93057272955339
20
-196.86511179143974
42
-0.41421356237309509
10
60.680572729553397
20
-195.11511179143974
10
67.980572729553401
20
-195.11511179143974
42
-0.41421356237309509
10
69.730572729553387
20
-196.86511179143974
10
69.730572729553415
20
-204.16511179143976
42
-0.41421356237309509
0
LWPOLYLINE
5
351
100
AcDbEntity
8
0
100
AcDbPolyline
90
8
70
1
43
0.0
10
82.980572729553401
20
-205.91511179143976
10
75.680572729553404
20
-205.91511179143976
42
-0.41421356237309509
10
73.93057272955339
20
-204.16511179143976
10
73.93057272955339
20
-196.86511179143974
42
-0.41421356237309509
10
75.680572729553404
20
-195.11511179143974
10
82.980572729553401
20
-195.11511179143974
42
-0.41421356237309509
10
84.730572729553387
20
-196.86511179143974
10
84.730572729553415
20
-204.16511179143976
42
-0.41421356237309509
0
LWPOLYLINE
5
352
100
AcDbEntity
8
0
100
AcDbPolyline
90
8
70
1
43
0.0
10
97.980572729553401
20
-205.91511179143976
10
90.680572729553404
20
-205.91511179143976
42
-0.41421356237309509
10
88.93057272955339
20
-204.16511179143976
10
88.93057272955339
20
-196.86511179143974
42
-0.41421356237309509
10
90.680572729553404
20
-195.11511179143974
10
97.980572729553401
20
-195.11511179143974
42
-0.41421356237309509
10
99.730572729553387
20
-196.86511179143974
10
99.730572729553415
20
-204.16511179143976
42
-0.41421356237309509
0
LWPOLYLINE
5
353
100
AcDbEntity
8
0
100
AcDbPolyline
90
8
70
1
43
0.0
10
112.9805727295534
20
-205.91511179143976
10
105.6805727295534
20
-205.91511179143976
42
-0.41421356237309509
10
103.93057272955339
20
-204.16511179143976
10
103.93057272955339
20
-196.86511179143974
42
-0.41421356237309509
10
105.6805727295534
20
-195.11511179143974
10
112.9805727295534
20
-195.11511179143974
42
-0.41421356237309509
10
114.73057272955339
20
-196.86511179143974
10
114.73057272955342
20
-204.16511179143976
42
-0.41421356237309509
0
LWPOLYLINE
5
354
100
AcDbEntity
8
0
100
AcDbPolyline
90
8
70
1
43
0.0
10
127.9805727295534
20
-205.91511179143976
10
120.6805727295534
20
-205.91511179143976
42
-0.41421356237309509
10
118.93057272955339
20
-204.16511179143976
10
118.93057272955339
20
-196.86511179143974
42
-0.41421356237309509
10
120.6805727295534
20
-195.11511179143974
10
127.9805727295534
20
-195.11511179143974
42
-0.41421356237309509
10
129.73057272955339
20
-196.86511179143974
10
129.73057272955342
20
-204.16511179143976
42
-0.41421356237309509
0
LWPOLYLINE
5
355
100
AcDbEntity
8
0
100
AcDbPolyline
90
8
70
1
43
0.0
10
142.98057272955339
20
-205.91511179143976
10
135.6805727295534
20
-205.91511179143976
42
-0.41421356237309509
10
133.93057272955338
20
-204.16511179143976
10
133.93057272955338
20
-196.86511179143974
42
-0.41421356237309509
10
135.6805727295534
20
-195.11511179143974
10
142.98057272955339
20
-195.11511179143974
42
-0.41421356237309509
10
144.73057272955339
20
-196.86511179143974
10
144.73057272955342
20
-204.16511179143976
42
-0.41421356237309509
0
LWPOLYLINE
5
356
100
AcDbEntity
8
0
100
AcDbPolyline
90
8
70
1
43
0.0
10
157.98057272955339
20
-205.91511179143976
10
150.6805727295534
20
-205.91511179143976
42
-0.41421356237309509
10
148.93057272955338
20
-204.16511179143976
10
148.93057272955338
20
-196.86511179143974
42
-0.41421356237309509
10
150.6805727295534
20
-195.11511179143974
10
157.98057272955339
20
-195.11511179143974
42
-0.41421356237309509
10
159.73057272955339
20
-196.86511179143974
10
159.73057272955342
20
-204.16511179143976
42
-0.41421356237309509
0
LWPOLYLINE
5
357
100
AcDbEntity
8
0
100
AcDbPolyline
90
8
70
1
43
0.0
10
172.98057272955339
20
-205.91511179143976
10
165.6805727295534
20
-205.91511179143976
42
-0.41421356237309509
10
163.93057272955338
20
-204.16511179143976
10
163.93057272955338
20
-196.86511179143974
42
-0.41421356237309509
10
165.6805727295534
20
-195.11511179143974
10
172.98057272955339
20
-195.11511179143974
42
-0.41421356237309509
10
174.73057272955342
20
-196.86511179143974
10
174.73057272955342
20
-204.16511179143976
42
-0.41421356237309509
0
LWPOLYLINE
5
358
100
AcDbEntity
8
0
100
AcDbPolyline
90
8
70
1
43
0.0
10
187.98057272955339
20
-205.91511179143976
10
180.6805727295534
20
-205.91511179143976
42
-0.41421356237309509
10
178.93057272955338
20
-204.16511179143976
10
178.93057272955338
20
-196.86511179143974
42
-0.41421356237309509
10
180.6805727295534
20
-195.11511179143974
10
187.98057272955339
20
-195.11511179143974
42
-0.41421356237309509
10
189.73057272955342
20
-196.86511179143974
10
189.73057272955342
20
-204.16511179143976
42
-0.41421356237309509
0
LWPOLYLINE
5
359
100
AcDbEntity
8
0
100
AcDbPolyline
90
8
70
1
43
0.0
10
202.98057272955339
20
-205.91511179143976
10
195.6805727295534
20
-205.91511179143976
42
-0.41421356237309509
10
193.93057272955338
20
-204.16511179143976
10
193.93057272955338
20
-196.86511179143974
42
-0.41421356237309509
10
195.6805727295534
20
-195.11511179143974
10
202.98057272955339
20
-195.11511179143974
42
-0.41421356237309509
10
204.73057272955342
20
-196.86511179143974
10
204.73057272955342
20
-204.16511179143976
42
-0.41421356237309509
0
LWPOLYLINE
5
360
100
AcDbEntity
8
0
100
AcDbPolyline
90
8
70
1
43
0.0
10
217.98057272955339
20
-205.91511179143976
10
210.6805727295534
20
-205.91511179143976
42
-0.41421356237309509
10
208.93057272955338
20
-204.16511179143976
10
208.93057272955338
20
-196.86511179143974
42
-0.41421356237309509
10
210.6805727295534
20
-195.11511179143974
10
217.98057272955339
20
-195.11511179143974
42
-0.41421356237309509
10
219.73057272955342
20
-196.86511179143974
10
219.73057272955342
20
-204.16511179143976
42
-0.41421356237309509
0
LWPOLYLINE
5
361
100
AcDbEntity
8
0
100
AcDbPolyline
90
8
70
1
43
0.0
10
232.98057272955339
20
-205.91511179143976
10
225.6805727295534
20
-205.91511179143976
42
-0.41421356237309509
10
223.93057272955338
20
-204.16511179143976
10
223.93057272955338
20
-196.86511179143974
42
-0.41421356237309509
10
225.6805727295534
20
-195.11511179143974
10
232.98057272955339
20
-195.11511179143974
42
-0.41421356237309509
10
234.73057272955342
20
-196.86511179143974
10
234.73057272955342
20
-204.16511179143976
42
-0.41421356237309509
0
LWPOLYLINE
5
362
100
AcDbEntity
8
0
100
AcDbPolyline
90
8
70
1
43
0.0
10
247.98057272955339
20
-205.91511179143976
10
240.6805727295534
20
-205.91511179143976
42
-0.41421356237309509
10
238.93057272955338
20
-204.16511179143976
10
238.93057272955338
20
-196.86511179143974
42
-0.41421356237309509
10
240.6805727295534
20
-195.11511179143974
10
247.98057272955339
20
-195.11511179143974
42
-0.41421356237309509
10
249.73057272955342
20
-196.86511179143974
10
249.73057272955342
20
-204.16511179143976
42
-0.41421356237309509
0
LWPOLYLINE
5
363
100
AcDbEntity
8
0
100
AcDbPolyline
90
8
70
1
43
0.0
10
22.980572729553398
20
-220.91511179143976
10
15.680572729553395
20
-220.91511179143976
42
-0.41421356237309509
10
13.930572729553392
20
-219.16511179143976
10
13.93057272955339
20
-211.86511179143974
42
-0.41421356237309509
10
15.680572729553397
20
-210.11511179143974
10
22.980572729553398
20
-210.11511179143974
42
-0.41421356237309509
10
24.730572729553394
20
-211.86511179143974
10
24.730572729553405
20
-219.16511179143976
42
-0.41421356237309509
0
LWPOLYLINE
5
364
100
AcDbEntity
8
0
100
AcDbPolyline
90
8
70
1
43
0.0
10
37.980572729553394
20
-220.91511179143976
10
30.680572729553397
20
-220.91511179143976
42
-0.41421356237309509
10
28.93057272955339
20
-219.16511179143976
10
28.93057272955339
20
-211.86511179143974
42
-0.41421356237309509
10
30.680572729553397
20
-210.11511179143974
10
37.980572729553394
20
-210.11511179143974
42
-0.41421356237309509
10
39.730572729553394
20
-211.86511179143974
10
39.730572729553401
20
-219.16511179143976
42
-0.41421356237309509
0
LWPOLYLINE
5
365
100
AcDbEntity
8
0
100
AcDbPolyline
90
8
70
1
43
0.0
10
52.980572729553401
20
-220.91511179143976
10
45.680572729553397
20
-220.91511179143976
42
-0.41421356237309509
10
43.93057272955339
20
-219.16511179143976
10
43.93057272955339
20
-211.86511179143974
42
-0.41421356237309509
10
45.680572729553397
20
-210.11511179143974
10
52.980572729553401
20
-210.11511179143974
42
-0.41421356237309509
10
54.730572729553387
20
-211.86511179143974
10
54.730572729553408
20
-219.16511179143976
42
-0.41421356237309509
0
LWPOLYLINE
5
366
100
AcDbEntity
8
0
100
AcDbPolyline
90
8
70
1
43
0.0
10
67.980572729553401
20
-220.91511179143976
10
60.680572729553397
20
-220.91511179143976
42
-0.41421356237309509
10
58.93057272955339
20
-219.16511179143976
10
58.93057272955339
20
-211.86511179143974
42
-0.41421356237309509
10
60.680572729553397
20
-210.11511179143974
10
67.980572729553401
20
-210.11511179143974
42
-0.41421356237309509
10
69.730572729553387
20
-211.86511179143974
10
69.730572729553415
20
-219.16511179143976
42
-0.41421356237309509
0
LWPOLYLINE
5
367
100
AcDbEntity
8
0
100
AcDbPolyline
90
8
70
1
43
0.0
10
82.980572729553401
20
-220.91511179143976
10
75.680572729553404
20
-220.91511179143976
42
-0.41421356237309509
10
73.93057272955339
20
-219.16511179143976
10
73.93057272955339
20
-211.86511179143974
42
-0.41421356237309509
10
75.680572729553404
20
-210.11511179143974
10
82.980572729553401
20
-210.11511179143974
42
-0.41421356237309509
10
84.730572729553387
20
-211.86511179143974
10
84.730572729553415
20
-219.16511179143976
42
-0.41421356237309509
0
LWPOLYLINE
5
368
100
AcDbEntity
8
0
100
AcDbPolyline
90
8
70
1
43
0.0
10
97.980572729553401
20
-220.91511179143976
10
90.680572729553404
20
-220.91511179143976
42
-0.41421356237309509
10
88.93057272955339
20
-219.16511179143976
10
88.93057272955339
20
-211.86511179143974
42
-0.41421356237309509
10
90.680572729553404
20
-210.11511179143974
10
97.980572729553401
20
-210.11511179143974
42
-0.41421356237309509
10
99.730572729553387
20
-211.86511179143974
10
99.730572729553415
20
-219.16511179143976
42
-0.41421356237309509
0
LWPOLYLINE
5
369
100
AcDbEntity
8
0
100
AcDbPolyline
90
8
70
1
43
0.0
10
112.9805727295534
20
-220.91511179143976
10
105.6805727295534
20
-220.91511179143976
42
-0.41421356237309509
10
103.93057272955339
20
-219.16511179143976
10
103.93057272955339
20
-211.86511179143974
42
-0.41421356237309509
10
105.6805727295534
20
-210.11511179143974
10
112.9805727295534
20
-210.11511179143974
42
-0.41421356237309509
10
114.73057272955339
20
-211.86511179143974
10
114.73057272955342
20
-219.16511179143976
42
-0.41421356237309509
0
LWPOLYLINE
5
370
100
AcDbEntity
8
0
100
AcDbPolyline
90
8
70
1
43
0.0
10
127.9805727295534
20
-220.91511179143976
10
120.6805727295534
20
-220.91511179143976
42
-0.41421356237309509
10
118.93057272955339
20
-219.16511179143976
10
118.93057272955339
20
-211.86511179143974
42
-0.41421356237309509
10
120.6805727295534
20
-210.11511179143974
10
127.9805727295534
20
-210.11511179143974
42
-0.41421356237309509
10
129.73057272955339
20
-211.86511179143974
10
129.73057272955342
20
-219.16511179143976
42
-0.41421356237309509
0
LWPOLYLINE
5
371
100
AcDbEntity
8
0
100
AcDbPolyline
90
8
70
1
43
0.0
10
142.98057272955339
20
-220.91511179143976
10
135.6805727295534
20
-220.91511179143976
42
-0.41421356237309509
10
133.93057272955338
20
-219.16511179143976
10
133.93057272955338
20
-211.86511179143974
42
-0.41421356237309509
10
135.6805727295534
20
-210.11511179143974
10
142.98057272955339
20
-210.11511179143974
42
-0.41421356237309509
10
144.73057272955339
20
-211.86511179143974
10
144.73057272955342
20
-219.16511179143976
42
-0.41421356237309509
0
LWPOLYLINE
5
372
100
AcDbEntity
8
0
100
AcDbPolyline
90
8
70
1
43
0.0
10
157.98057272955339
20
-220.91511179143976
10
150.6805727295534
20
-220.91511179143976
42
-0.41421356237309509
10
148.93057272955338
20
-219.16511179143976
10
148.93057272955338
20
-211.86511179143974
42
-0.41421356237309509
10
150.6805727295534
20
-210.11511179143974
10
157.98057272955339
20
-210.11511179143974
42
-0.41421356237309509
10
159.73057272955339
20
-211.86511179143974
10
159.73057272955342
20
-219.16511179143976
42
-0.41421356237309509
0
LWPOLYLINE
5
373
100
AcDbEntity
8
0
100
AcDbPolyline
90
8
70
1
43
0.0
10
172.98057272955339
20
-220.91511179143976
10
165.6805727295534
20
-220.91511179143976
42
-0.41421356237309509
10
163.93057272955338
20
-219.16511179143976
10
163.93057272955338
20
-211.86511179143974
42
-0.41421356237309509
10
165.6805727295534
20
-210.11511179143974
10
172.98057272955339
20
-210.11511179143974
42
-0.41421356237309509
10
174.73057272955342
20
-211.86511179143974
10
174.73057272955342
20
-219.16511179143976
42
-0.41421356237309509
0
LWPOLYLINE
5
374
100
AcDbEntity
8
0
100
AcDbPolyline
90
8
70
1
43
0.0
10
187.98057272955339
20
-220.91511179143976
10
180.6805727295534
20
-220.91511179143976
42
-0.41421356237309509
10
178.93057272955338
20
-219.16511179143976
10
178.93057272955338
20
-211.86511179143974
42
-0.41421356237309509
10
180.6805727295534
20
-210.11511179143974
10
187.98057272955339
20
-210.11511179143974
42
-0.41421356237309509
10
189.73057272955342
20
-211.86511179143974
10
189.73057272955342
20
-219.16511179143976
42
-0.41421356237309509
0
LWPOLYLINE
5
375
100
AcDbEntity
8
0
100
AcDbPolyline
90
8
70
1
43
0.0
10
202.98057272955339
20
-220.91511179143976
10
195.6805727295534
20
-220.91511179143976
42
-0.41421356237309509
10
193.93057272955338
20
-219.16511179143976
10
193.93057272955338
20
-211.86511179143974
42
-0.41421356237309509
10
195.6805727295534
20
-210.11511179143974
10
202.98057272955339
20
-210.11511179143974
42
-0.41421356237309509
10
204.73057272955342
20
-211.86511179143974
10
204.73057272955342
20
-219.16511179143976
42
-0.41421356237309509
0
LWPOLYLINE
5
376
100
AcDbEntity
8
0
100
AcDbPolyline
90
8
70
1
43
0.0
10
217.98057272955339
20
-220.91511179143976
10
210.6805727295534
20
-220.91511179143976
42
-0.41421356237309509
10
208.93057272955338
20
-219.16511179143976
10
208.93057272955338
20
-211.86511179143974
42
-0.41421356237309509
10
210.6805727295534
20
-210.11511179143974
10
217.98057272955339
20
-210.11511179143974
42
-0.41421356237309509
10
219.73057272955342
20
-211.86511179143974
10
219.73057272955342
20
-219.16511179143976
42
-0.41421356237309509
0
LWPOLYLINE
5
377
100
AcDbEntity
8
0
100
AcDbPolyline
90
8
70
1
43
0.0
10
232.98057272955339
20
-220.91511179143976
10
225.6805727295534
20
-220.91511179143976
42
-0.41421356237309509
10
223.93057272955338
20
-219.16511179143976
10
223.93057272955338
20
-211.86511179143974
42
-0.41421356237309509
10
225.6805727295534
20
-210.11511179143974
10
232.98057272955339
20
-210.11511179143974
42
-0.41421356237309509
10
234.73057272955342
20
-211.86511179143974
10
234.73057272955342
20
-219.16511179143976
42
-0.41421356237309509
0
LWPOLYLINE
5
378
100
AcDbEntity
8
0
100
AcDbPolyline
90
8
70
1
43
0.0
10
247.98057272955339
20
-220.91511179143976
10
240.6805727295534
20
-220.91511179143976
42
-0.41421356237309509
10
238.93057272955338
20
-219.16511179143976
10
238.93057272955338
20
-211.86511179143974
42
-0.41421356237309509
10
240.6805727295534
20
-210.11511179143974
10
247.98057272955339
20
-210.11511179143974
42
-0.41421356237309509
10
249.73057272955342
20
-211.86511179143974
10
249.73057272955342
20
-219.16511179143976
42
-0.41421356237309509
0
ENDSEC
0
SECTION
2
OBJECTS
0
DICTIONARY
5
C
100
AcDbDictionary
3
ACAD_GROUP
350
D
3
ACAD_MLINESTYLE
350
17
0
DICTIONARY
5
D
100
AcDbDictionary
0
DICTIONARY
5
1A
330
C
100
AcDbDictionary
0
DICTIONARY
5
17
100
AcDbDictionary
0
ENDSEC
0
EOF
