0
SECTION
2
HEADER
9
$INSUNITS
70
4
9
$ACADVER
1
AC1014
9
$HANDSEED
5
FFFF
0
ENDSEC
0
SECTION
2
TABLES
0
TABLE
2
VPORT
5
8
100
AcDbSymbolTable
0
ENDTAB
0
TABLE
2
LTYPE
5
5
100
AcDbSymbolTable
0
LTYPE
5
14
100
AcDbSymbolTableRecord
100
AcDbLinetypeTableRecord
2
BYBLOCK
70
0
0
LTYPE
5
15
100
AcDbSymbolTableRecord
100
AcDbLinetypeTableRecord
2
BYLAYER
70
0
0
ENDTAB
0
TABLE
2
LAYER
5
2
100
AcDbSymbolTable
70
2
0
LAYER
5
50
100
AcDbSymbolTableRecord
100
AcDbLayerTableRecord
2
0
70
0
6
CONTINUOUS
0
ENDTAB
0
TABLE
2
STYLE
5
3
100
AcDbSymbolTable
70
1
0
STYLE
5
11
100
AcDbSymbolTableRecord
100
AcDbTextStyleTableRecord
2
STANDARD
70
0
0
ENDTAB
0
TABLE
2
VIEW
5
6
100
AcDbSymbolTable
70
0
0
ENDTAB
0
TABLE
2
UCS
5
7
100
AcDbSymbolTable
70
0
0
ENDTAB
0
TABLE
2
APPID
5
9
100
AcDbSymbolTable
70
2
0
APPID
5
12
100
AcDbSymbolTableRecord
100
AcDbRegAppTableRecord
2
ACAD
70
0
0
ENDTAB
0
TABLE
2
DIMSTYLE
5
A
100
AcDbSymbolTable
70
1
0
ENDTAB
0
TABLE
2
BLOCK_RECORD
5
1
100
AcDbSymbolTable
70
1
0
BLOCK_RECORD
5
1F
100
AcDbSymbolTableRecord
100
AcDbBlockTableRecord
2
*MODEL_SPACE
0
BLOCK_RECORD
5
1B
100
AcDbSymbolTableRecord
100
AcDbBlockTableRecord
2
*PAPER_SPACE
0
ENDTAB
0
ENDSEC
0
SECTION
2
BLOCKS
0
BLOCK
5
20
100
AcDbEntity
100
AcDbBlockBegin
2
*MODEL_SPACE
0
ENDBLK
5
21
100
AcDbEntity
100
AcDbBlockEnd
0
BLOCK
5
1C
100
AcDbEntity
100
AcDbBlockBegin
2
*PAPER_SPACE
0
ENDBLK
5
1D
100
AcDbEntity
100
AcDbBlockEnd
0
ENDSEC
0
SECTION
2
ENTITIES
0
LINE
5
100
100
AcDbEntity
8
0
100
AcDbLine
10
0.31895791289265119
20
-230.17028379809051
30
0
11
0.3189579128926523
21
15.629716201909538
31
0
0
LWPOLYLINE
5
101
100
AcDbEntity
8
0
100
AcDbPolyline
90
8
70
1
43
0.0
10
251.11895791289257
20
20.629716201909538
10
5.3189579128926514
20
20.629716201909538
42
0.41421356237309714
10
0.31895791289265452
20
15.629716201909503
10
0.31895791289265896
20
-270.17028379809051
42
0.41421356237309509
10
5.3189579128926567
20
-275.17028379809051
10
251.11895791289257
20
-275.17028379809051
42
0.41421356237309509
10
256.1189579128926
20
-270.1702837980904
10
256.1189579128926
20
15.62971620190954
42
0.41421356237309492
0
CIRCLE
5
102
100
AcDbEntity
8
0
100
AcDbCircle
10
5.3189579128926399
20
15.629716201909547
30
0
40
1.5500000000000003
0
CIRCLE
5
103
100
AcDbEntity
8
0
100
AcDbCircle
10
251.11895791289265
20
15.629716201909538
30
0
40
1.549999999999998
0
CIRCLE
5
104
100
AcDbEntity
8
0
100
AcDbCircle
10
251.11895791289254
20
-230.17028379809037
30
0
40
1.5500000000000114
0
CIRCLE
5
105
100
AcDbEntity
8
0
100
AcDbCircle
10
5.3189579128926443
20
-230.17028379809045
30
0
40
1.5500000000000114
0
CIRCLE
5
106
100
AcDbEntity
8
0
100
AcDbCircle
10
23.218957912892648
20
-2.2702837980904604
30
0
40
1.05
0
CIRCLE
5
107
100
AcDbEntity
8
0
100
AcDbCircle
10
53.218957912892648
20
-2.2702837980904604
30
0
40
1.05
0
CIRCLE
5
108
100
AcDbEntity
8
0
100
AcDbCircle
10
23.218957912892648
20
-32.27028379809046
30
0
40
1.05
0
CIRCLE
5
109
100
AcDbEntity
8
0
100
AcDbCircle
10
53.218957912892648
20
-32.27028379809046
30
0
40
1.05
0
CIRCLE
5
110
100
AcDbEntity
8
0
100
AcDbCircle
10
83.218957912892648
20
-2.2702837980904604
30
0
40
1.05
0
CIRCLE
5
111
100
AcDbEntity
8
0
100
AcDbCircle
10
113.21895791289265
20
-2.2702837980904604
30
0
40
1.05
0
CIRCLE
5
112
100
AcDbEntity
8
0
100
AcDbCircle
10
143.21895791289265
20
-2.2702837980904604
30
0
40
1.05
0
CIRCLE
5
113
100
AcDbEntity
8
0
100
AcDbCircle
10
173.21895791289265
20
-2.2702837980904604
30
0
40
1.05
0
CIRCLE
5
114
100
AcDbEntity
8
0
100
AcDbCircle
10
203.21895791289265
20
-2.2702837980904604
30
0
40
1.05
0
CIRCLE
5
115
100
AcDbEntity
8
0
100
AcDbCircle
10
233.21895791289265
20
-2.2702837980904604
30
0
40
1.05
0
CIRCLE
5
116
100
AcDbEntity
8
0
100
AcDbCircle
10
83.218957912892648
20
-32.27028379809046
30
0
40
1.05
0
CIRCLE
5
117
100
AcDbEntity
8
0
100
AcDbCircle
10
113.21895791289265
20
-32.27028379809046
30
0
40
1.05
0
CIRCLE
5
118
100
AcDbEntity
8
0
100
AcDbCircle
10
143.21895791289265
20
-32.27028379809046
30
0
40
1.05
0
CIRCLE
5
119
100
AcDbEntity
8
0
100
AcDbCircle
10
173.21895791289265
20
-32.27028379809046
30
0
40
1.05
0
CIRCLE
5
120
100
AcDbEntity
8
0
100
AcDbCircle
10
203.21895791289265
20
-32.27028379809046
30
0
40
1.05
0
CIRCLE
5
121
100
AcDbEntity
8
0
100
AcDbCircle
10
233.21895791289265
20
-32.27028379809046
30
0
40
1.05
0
CIRCLE
5
122
100
AcDbEntity
8
0
100
AcDbCircle
10
23.218957912892648
20
-62.27028379809046
30
0
40
1.05
0
CIRCLE
5
123
100
AcDbEntity
8
0
100
AcDbCircle
10
53.218957912892648
20
-62.27028379809046
30
0
40
1.05
0
CIRCLE
5
124
100
AcDbEntity
8
0
100
AcDbCircle
10
83.218957912892648
20
-62.27028379809046
30
0
40
1.05
0
CIRCLE
5
125
100
AcDbEntity
8
0
100
AcDbCircle
10
113.21895791289265
20
-62.27028379809046
30
0
40
1.05
0
CIRCLE
5
126
100
AcDbEntity
8
0
100
AcDbCircle
10
143.21895791289265
20
-62.27028379809046
30
0
40
1.05
0
CIRCLE
5
127
100
AcDbEntity
8
0
100
AcDbCircle
10
173.21895791289265
20
-62.27028379809046
30
0
40
1.05
0
CIRCLE
5
128
100
AcDbEntity
8
0
100
AcDbCircle
10
203.21895791289265
20
-62.27028379809046
30
0
40
1.05
0
CIRCLE
5
129
100
AcDbEntity
8
0
100
AcDbCircle
10
233.21895791289265
20
-62.27028379809046
30
0
40
1.05
0
CIRCLE
5
130
100
AcDbEntity
8
0
100
AcDbCircle
10
23.218957912892648
20
-92.270283798090446
30
0
40
1.05
0
CIRCLE
5
131
100
AcDbEntity
8
0
100
AcDbCircle
10
53.218957912892648
20
-92.270283798090446
30
0
40
1.05
0
CIRCLE
5
132
100
AcDbEntity
8
0
100
AcDbCircle
10
83.218957912892648
20
-92.270283798090446
30
0
40
1.05
0
CIRCLE
5
133
100
AcDbEntity
8
0
100
AcDbCircle
10
113.21895791289265
20
-92.270283798090446
30
0
40
1.05
0
CIRCLE
5
134
100
AcDbEntity
8
0
100
AcDbCircle
10
143.21895791289265
20
-92.270283798090446
30
0
40
1.05
0
CIRCLE
5
135
100
AcDbEntity
8
0
100
AcDbCircle
10
173.21895791289265
20
-92.270283798090446
30
0
40
1.05
0
CIRCLE
5
136
100
AcDbEntity
8
0
100
AcDbCircle
10
203.21895791289265
20
-92.270283798090446
30
0
40
1.05
0
CIRCLE
5
137
100
AcDbEntity
8
0
100
AcDbCircle
10
233.21895791289265
20
-92.270283798090446
30
0
40
1.05
0
CIRCLE
5
138
100
AcDbEntity
8
0
100
AcDbCircle
10
23.218957912892648
20
-122.27028379809045
30
0
40
1.05
0
CIRCLE
5
139
100
AcDbEntity
8
0
100
AcDbCircle
10
53.218957912892648
20
-122.27028379809045
30
0
40
1.05
0
CIRCLE
5
140
100
AcDbEntity
8
0
100
AcDbCircle
10
83.218957912892648
20
-122.27028379809045
30
0
40
1.05
0
CIRCLE
5
141
100
AcDbEntity
8
0
100
AcDbCircle
10
113.21895791289265
20
-122.27028379809045
30
0
40
1.05
0
CIRCLE
5
142
100
AcDbEntity
8
0
100
AcDbCircle
10
143.21895791289265
20
-122.27028379809045
30
0
40
1.05
0
CIRCLE
5
143
100
AcDbEntity
8
0
100
AcDbCircle
10
173.21895791289265
20
-122.27028379809045
30
0
40
1.05
0
CIRCLE
5
144
100
AcDbEntity
8
0
100
AcDbCircle
10
203.21895791289265
20
-122.27028379809045
30
0
40
1.05
0
CIRCLE
5
145
100
AcDbEntity
8
0
100
AcDbCircle
10
233.21895791289265
20
-122.27028379809045
30
0
40
1.05
0
CIRCLE
5
146
100
AcDbEntity
8
0
100
AcDbCircle
10
23.218957912892648
20
-152.27028379809045
30
0
40
1.05
0
CIRCLE
5
147
100
AcDbEntity
8
0
100
AcDbCircle
10
53.218957912892648
20
-152.27028379809045
30
0
40
1.05
0
CIRCLE
5
148
100
AcDbEntity
8
0
100
AcDbCircle
10
83.218957912892648
20
-152.27028379809045
30
0
40
1.05
0
CIRCLE
5
149
100
AcDbEntity
8
0
100
AcDbCircle
10
113.21895791289265
20
-152.27028379809045
30
0
40
1.05
0
CIRCLE
5
150
100
AcDbEntity
8
0
100
AcDbCircle
10
143.21895791289265
20
-152.27028379809045
30
0
40
1.05
0
CIRCLE
5
151
100
AcDbEntity
8
0
100
AcDbCircle
10
173.21895791289265
20
-152.27028379809045
30
0
40
1.05
0
CIRCLE
5
152
100
AcDbEntity
8
0
100
AcDbCircle
10
203.21895791289265
20
-152.27028379809045
30
0
40
1.05
0
CIRCLE
5
153
100
AcDbEntity
8
0
100
AcDbCircle
10
233.21895791289265
20
-152.27028379809045
30
0
40
1.05
0
CIRCLE
5
154
100
AcDbEntity
8
0
100
AcDbCircle
10
23.218957912892648
20
-182.27028379809045
30
0
40
1.05
0
CIRCLE
5
155
100
AcDbEntity
8
0
100
AcDbCircle
10
53.218957912892648
20
-182.27028379809045
30
0
40
1.05
0
CIRCLE
5
156
100
AcDbEntity
8
0
100
AcDbCircle
10
83.218957912892648
20
-182.27028379809045
30
0
40
1.05
0
CIRCLE
5
157
100
AcDbEntity
8
0
100
AcDbCircle
10
113.21895791289265
20
-182.27028379809045
30
0
40
1.05
0
CIRCLE
5
158
100
AcDbEntity
8
0
100
AcDbCircle
10
143.21895791289265
20
-182.27028379809045
30
0
40
1.05
0
CIRCLE
5
159
100
AcDbEntity
8
0
100
AcDbCircle
10
173.21895791289265
20
-182.27028379809045
30
0
40
1.05
0
CIRCLE
5
160
100
AcDbEntity
8
0
100
AcDbCircle
10
203.21895791289265
20
-182.27028379809045
30
0
40
1.05
0
CIRCLE
5
161
100
AcDbEntity
8
0
100
AcDbCircle
10
233.21895791289265
20
-182.27028379809045
30
0
40
1.05
0
CIRCLE
5
162
100
AcDbEntity
8
0
100
AcDbCircle
10
23.218957912892648
20
-212.27028379809045
30
0
40
1.05
0
CIRCLE
5
163
100
AcDbEntity
8
0
100
AcDbCircle
10
53.218957912892648
20
-212.27028379809045
30
0
40
1.05
0
CIRCLE
5
164
100
AcDbEntity
8
0
100
AcDbCircle
10
83.218957912892648
20
-212.27028379809045
30
0
40
1.05
0
CIRCLE
5
165
100
AcDbEntity
8
0
100
AcDbCircle
10
113.21895791289265
20
-212.27028379809045
30
0
40
1.05
0
CIRCLE
5
166
100
AcDbEntity
8
0
100
AcDbCircle
10
143.21895791289265
20
-212.27028379809045
30
0
40
1.05
0
CIRCLE
5
167
100
AcDbEntity
8
0
100
AcDbCircle
10
173.21895791289265
20
-212.27028379809045
30
0
40
1.05
0
CIRCLE
5
168
100
AcDbEntity
8
0
100
AcDbCircle
10
203.21895791289265
20
-212.27028379809045
30
0
40
1.05
0
CIRCLE
5
169
100
AcDbEntity
8
0
100
AcDbCircle
10
233.21895791289265
20
-212.27028379809045
30
0
40
1.05
0
LWPOLYLINE
5
170
100
AcDbEntity
8
0
100
AcDbPolyline
90
8
70
1
43
0.0
10
25.218957912892659
20
-12.270283798090468
10
51.218957912892648
20
-12.270283798090464
42
-0.41421356237309243
10
53.218957912892648
20
-14.270283798090466
10
53.218957912892648
20
-20.270283798090464
42
-0.41421356237309309
10
51.218957912892648
20
-22.270283798090468
10
25.218957912892655
20
-22.270283798090468
42
-0.41421356237309637
10
23.218957912892652
20
-20.270283798090464
10
23.218957912892652
20
-14.270283798090466
42
-0.4142135623730967
0
LWPOLYLINE
5
171
100
AcDbEntity
8
0
100
AcDbPolyline
90
8
70
1
43
0.0
10
85.218957912892662
20
-12.270283798090468
10
111.21895791289265
20
-12.270283798090464
42
-0.41421356237309109
10
113.21895791289265
20
-14.270283798090466
10
113.21895791289265
20
-20.270283798090464
42
-0.41421356237309176
10
111.21895791289265
20
-22.270283798090468
10
85.218957912892662
20
-22.27028379809046
42
-0.41421356237309825
10
83.218957912892648
20
-20.270283798090464
10
83.218957912892648
20
-14.270283798090466
42
-0.41421356237309792
0
LWPOLYLINE
5
172
100
AcDbEntity
8
0
100
AcDbPolyline
90
8
70
1
43
0.0
10
145.21895791289265
20
-12.270283798090468
10
171.21895791289265
20
-12.270283798090446
42
-0.41421356237308854
10
173.21895791289265
20
-14.270283798090466
10
173.21895791289262
20
-20.270283798090464
42
-0.41421356237308915
10
171.21895791289265
20
-22.270283798090468
10
145.21895791289265
20
-22.27028379809046
42
-0.41421356237309825
10
143.21895791289265
20
-20.270283798090464
10
143.21895791289265
20
-14.270283798090466
42
-0.41421356237309792
0
LWPOLYLINE
5
173
100
AcDbEntity
8
0
100
AcDbPolyline
90
8
70
1
43
0.0
10
205.21895791289268
20
-12.270283798090468
10
231.21895791289265
20
-12.270283798090446
42
-0.41421356237308854
10
233.21895791289265
20
-14.270283798090466
10
233.21895791289262
20
-20.270283798090464
42
-0.41421356237308915
10
231.21895791289265
20
-22.270283798090468
10
205.21895791289265
20
-22.27028379809046
42
-0.4142135623730957
10
203.21895791289265
20
-20.270283798090464
10
203.21895791289265
20
-14.270283798090466
42
-0.41421356237310053
0
LWPOLYLINE
5
174
100
AcDbEntity
8
0
100
AcDbPolyline
90
8
70
1
43
0.0
10
25.218957912892659
20
-72.270283798090475
10
51.218957912892648
20
-72.27028379809046
42
-0.41421356237309243
10
53.218957912892648
20
-74.27028379809046
10
53.218957912892648
20
-80.27028379809046
42
-0.4142135623730937
10
51.218957912892648
20
-82.270283798090475
10
25.218957912892655
20
-82.270283798090446
42
-0.4142135623730957
10
23.218957912892652
20
-80.27028379809046
10
23.218957912892655
20
-74.27028379809046
42
-0.41421356237309637
0
LWPOLYLINE
5
175
100
AcDbEntity
8
0
100
AcDbPolyline
90
8
70
1
43
0.0
10
85.218957912892662
20
-72.270283798090475
10
111.21895791289265
20
-72.27028379809046
42
-0.41421356237309109
10
113.21895791289265
20
-74.27028379809046
10
113.21895791289265
20
-80.27028379809046
42
-0.41421356237309243
10
111.21895791289265
20
-82.270283798090475
10
85.218957912892662
20
-82.270283798090446
42
-0.4142135623730977
10
83.218957912892648
20
-80.27028379809046
10
83.218957912892648
20
-74.27028379809046
42
-0.4142135623730977
0
LWPOLYLINE
5
176
100
AcDbEntity
8
0
100
AcDbPolyline
90
8
70
1
43
0.0
10
145.21895791289265
20
-72.270283798090475
10
171.21895791289265
20
-72.270283798090446
42
-0.41421356237308854
10
173.21895791289265
20
-74.27028379809046
10
173.21895791289265
20
-80.27028379809046
42
-0.41421356237308982
10
171.21895791289265
20
-82.270283798090475
10
145.21895791289265
20
-82.270283798090446
42
-0.4142135623730977
10
143.21895791289265
20
-80.27028379809046
10
143.21895791289265
20
-74.27028379809046
42
-0.4142135623730977
0
LWPOLYLINE
5
177
100
AcDbEntity
8
0
100
AcDbPolyline
90
8
70
1
43
0.0
10
205.21895791289268
20
-72.270283798090475
10
231.21895791289265
20
-72.270283798090446
42
-0.41421356237308854
10
233.21895791289265
20
-74.27028379809046
10
233.21895791289265
20
-80.27028379809046
42
-0.41421356237308982
10
231.21895791289265
20
-82.270283798090475
10
205.21895791289265
20
-82.270283798090446
42
-0.41421356237309509
10
203.21895791289265
20
-80.27028379809046
10
203.21895791289265
20
-74.27028379809046
42
-0.4142135623731002
0
LWPOLYLINE
5
178
100
AcDbEntity
8
0
100
AcDbPolyline
90
8
70
1
43
0.0
10
25.218957912892659
20
-132.27028379809047
10
51.218957912892648
20
-132.27028379809047
42
-0.41421356237309109
10
53.218957912892648
20
-134.27028379809047
10
53.218957912892648
20
-140.27028379809047
42
-0.4142135623730937
10
51.218957912892648
20
-142.27028379809047
10
25.218957912892655
20
-142.27028379809045
42
-0.4142135623730957
10
23.218957912892652
20
-140.27028379809047
10
23.218957912892655
20
-134.27028379809047
42
-0.41421356237309637
0
LWPOLYLINE
5
179
100
AcDbEntity
8
0
100
AcDbPolyline
90
8
70
1
43
0.0
10
85.218957912892662
20
-132.27028379809047
10
111.21895791289265
20
-132.27028379809047
42
-0.41421356237308982
10
113.21895791289265
20
-134.27028379809047
10
113.21895791289265
20
-140.27028379809047
42
-0.41421356237309243
10
111.21895791289265
20
-142.27028379809047
10
85.218957912892662
20
-142.27028379809045
42
-0.4142135623730977
10
83.218957912892648
20
-140.27028379809047
10
83.218957912892648
20
-134.27028379809047
42
-0.4142135623730977
0
LWPOLYLINE
5
180
100
AcDbEntity
8
0
100
AcDbPolyline
90
8
70
1
43
0.0
10
145.21895791289265
20
-132.27028379809047
10
171.21895791289262
20
-132.27028379809045
42
-0.41421356237308726
10
173.21895791289265
20
-134.27028379809047
10
173.21895791289265
20
-140.27028379809047
42
-0.41421356237308982
10
171.21895791289265
20
-142.27028379809047
10
145.21895791289265
20
-142.27028379809045
42
-0.4142135623730977
10
143.21895791289265
20
-140.27028379809047
10
143.21895791289265
20
-134.27028379809047
42
-0.4142135623730977
0
LWPOLYLINE
5
181
100
AcDbEntity
8
0
100
AcDbPolyline
90
8
70
1
43
0.0
10
205.21895791289268
20
-132.27028379809047
10
231.21895791289262
20
-132.27028379809045
42
-0.41421356237308726
10
233.21895791289265
20
-134.27028379809047
10
233.21895791289265
20
-140.27028379809047
42
-0.41421356237308982
10
231.21895791289265
20
-142.27028379809047
10
205.21895791289265
20
-142.27028379809045
42
-0.41421356237309509
10
203.21895791289265
20
-140.27028379809047
10
203.21895791289265
20
-134.27028379809047
42
-0.4142135623731002
0
LWPOLYLINE
5
182
100
AcDbEntity
8
0
100
AcDbPolyline
90
8
70
1
43
0.0
10
25.218957912892659
20
-192.27028379809045
10
51.218957912892648
20
-192.27028379809047
42
-0.4142135623730937
10
53.218957912892648
20
-194.27028379809047
10
53.218957912892634
20
-200.27028379809047
42
-0.4142135623730937
10
51.218957912892648
20
-202.27028379809045
10
25.218957912892655
20
-202.27028379809045
42
-0.4142135623730957
10
23.218957912892652
20
-200.27028379809047
10
23.218957912892655
20
-194.27028379809047
42
-0.41421356237310153
0
LWPOLYLINE
5
183
100
AcDbEntity
8
0
100
AcDbPolyline
90
8
70
1
43
0.0
10
85.218957912892662
20
-192.27028379809045
10
111.21895791289265
20
-192.27028379809047
42
-0.41421356237309243
10
113.21895791289265
20
-194.27028379809047
10
113.21895791289263
20
-200.27028379809047
42
-0.41421356237309243
10
111.21895791289265
20
-202.27028379809045
10
85.218957912892662
20
-202.27028379809045
42
-0.4142135623730977
10
83.218957912892648
20
-200.27028379809047
10
83.218957912892648
20
-194.27028379809053
42
-0.41421356237310281
0
LWPOLYLINE
5
184
100
AcDbEntity
8
0
100
AcDbPolyline
90
8
70
1
43
0.0
10
145.21895791289265
20
-192.27028379809045
10
171.21895791289265
20
-192.27028379809045
42
-0.41421356237308982
10
173.21895791289265
20
-194.27028379809047
10
173.21895791289262
20
-200.27028379809047
42
-0.41421356237308982
10
171.21895791289265
20
-202.27028379809045
10
145.21895791289265
20
-202.27028379809045
42
-0.4142135623730977
10
143.21895791289265
20
-200.27028379809047
10
143.21895791289265
20
-194.27028379809053
42
-0.41421356237310281
0
LWPOLYLINE
5
185
100
AcDbEntity
8
0
100
AcDbPolyline
90
8
70
1
43
0.0
10
205.21895791289268
20
-192.27028379809045
10
231.21895791289265
20
-192.27028379809045
42
-0.41421356237308982
10
233.21895791289265
20
-194.27028379809047
10
233.21895791289262
20
-200.27028379809047
42
-0.41421356237308982
10
231.21895791289265
20
-202.27028379809045
10
205.21895791289265
20
-202.27028379809045
42
-0.41421356237309509
10
203.21895791289265
20
-200.27028379809047
10
203.21895791289265
20
-194.27028379809047
42
-0.41421356237310542
0
LWPOLYLINE
5
186
100
AcDbEntity
8
0
100
AcDbPolyline
90
8
70
1
43
0.0
10
43.218957912892662
20
-37.27028379809046
10
33.218957912892662
20
-37.27028379809046
42
0.41421356237309603
10
28.218957912892666
20
-42.27028379809046
10
28.21895791289267
20
-52.270283798090475
42
0.41421356237309526
10
33.218957912892662
20
-57.27028379809046
10
43.218957912892662
20
-57.270283798090475
42
0.41421356237309553
10
48.218957912892662
20
-52.27028379809046
10
48.218957912892655
20
-42.27028379809046
42
0.41421356237309553
0
LWPOLYLINE
5
187
100
AcDbEntity
8
0
100
AcDbPolyline
90
8
70
1
43
0.0
10
73.218957912892648
20
-7.2702837980904622
10
63.218957912892648
20
-7.2702837980904622
42
0.41421356237309526
10
58.218957912892648
20
-12.270283798090462
10
58.218957912892655
20
-22.270283798090468
42
0.41421356237309448
10
63.218957912892648
20
-27.270283798090468
10
73.218957912892648
20
-27.270283798090471
42
0.41421356237309553
10
78.218957912892648
20
-22.27028379809046
10
78.218957912892648
20
-12.270283798090462
42
0.41421356237309526
0
LWPOLYLINE
5
188
100
AcDbEntity
8
0
100
AcDbPolyline
90
8
70
1
43
0.0
10
138.21895791289265
20
-22.27028379809046
42
-0.41421356237309553
10
133.21895791289265
20
-27.270283798090471
10
123.21895791289265
20
-27.270283798090468
42
-0.41421356237309509
10
118.21895791289265
20
-22.270283798090468
10
118.21895791289265
20
-12.270283798090462
42
-0.41421356237309526
10
123.21895791289265
20
-7.2702837980904622
10
133.21895791289265
20
-7.2702837980904578
42
-0.41421356237309526
10
138.21895791289265
20
-12.270283798090462
0
LWPOLYLINE
5
189
100
AcDbEntity
8
0
100
AcDbPolyline
90
8
70
1
43
0.0
10
198.21895791289265
20
-22.27028379809046
42
-0.41421356237309553
10
193.21895791289265
20
-27.270283798090471
10
183.21895791289265
20
-27.270283798090468
42
-0.41421356237309509
10
178.21895791289265
20
-22.270283798090468
10
178.21895791289265
20
-12.270283798090462
42
-0.41421356237309526
10
183.21895791289265
20
-7.2702837980904622
10
193.21895791289265
20
-7.2702837980904578
42
-0.41421356237309526
10
198.21895791289265
20
-12.270283798090462
0
LWPOLYLINE
5
190
100
AcDbEntity
8
0
100
AcDbPolyline
90
8
70
1
43
0.0
10
78.218957912892648
20
-82.270283798090446
42
-0.41421356237309603
10
73.218957912892648
20
-87.270283798090475
10
63.218957912892648
20
-87.270283798090475
42
-0.41421356237309448
10
58.218957912892655
20
-82.270283798090475
10
58.218957912892655
20
-72.27028379809046
42
-0.41421356237309553
10
63.218957912892648
20
-67.27028379809046
10
73.218957912892648
20
-67.270283798090446
42
-0.41421356237309553
10
78.218957912892648
20
-72.27028379809046
0
LWPOLYLINE
5
191
100
AcDbEntity
8
0
100
AcDbPolyline
90
8
70
1
43
0.0
10
138.21895791289265
20
-82.270283798090446
42
-0.41421356237309603
10
133.21895791289265
20
-87.270283798090475
10
123.21895791289265
20
-87.270283798090475
42
-0.41421356237309509
10
118.21895791289265
20
-82.270283798090475
10
118.21895791289265
20
-72.27028379809046
42
-0.41421356237309553
10
123.21895791289265
20
-67.27028379809046
10
133.21895791289265
20
-67.270283798090446
42
-0.41421356237309553
10
138.21895791289265
20
-72.27028379809046
0
LWPOLYLINE
5
192
100
AcDbEntity
8
0
100
AcDbPolyline
90
8
70
1
43
0.0
10
198.21895791289265
20
-82.270283798090446
42
-0.41421356237309603
10
193.21895791289265
20
-87.270283798090475
10
183.21895791289265
20
-87.270283798090475
42
-0.41421356237309509
10
178.21895791289265
20
-82.270283798090475
10
178.21895791289265
20
-72.27028379809046
42
-0.41421356237309553
10
183.21895791289265
20
-67.27028379809046
10
193.21895791289265
20
-67.270283798090446
42
-0.41421356237309553
10
198.21895791289265
20
-72.27028379809046
0
LWPOLYLINE
5
193
100
AcDbEntity
8
0
100
AcDbPolyline
90
8
70
1
43
0.0
10
78.218957912892648
20
-142.27028379809045
42
-0.41421356237309603
10
73.218957912892648
20
-147.27028379809047
10
63.218957912892648
20
-147.27028379809047
42
-0.41421356237309448
10
58.218957912892655
20
-142.27028379809047
10
58.218957912892648
20
-132.27028379809045
42
-0.41421356237309509
10
63.218957912892648
20
-127.27028379809045
10
73.218957912892648
20
-127.27028379809045
42
-0.41421356237309509
10
78.218957912892648
20
-132.27028379809045
0
LWPOLYLINE
5
194
100
AcDbEntity
8
0
100
AcDbPolyline
90
8
70
1
43
0.0
10
138.21895791289265
20
-142.27028379809045
42
-0.41421356237309603
10
133.21895791289265
20
-147.27028379809047
10
123.21895791289265
20
-147.27028379809047
42
-0.41421356237309509
10
118.21895791289265
20
-142.27028379809047
10
118.21895791289265
20
-132.27028379809045
42
-0.41421356237309509
10
123.21895791289265
20
-127.27028379809045
10
133.21895791289265
20
-127.27028379809045
42
-0.41421356237309509
10
138.21895791289265
20
-132.27028379809045
0
LWPOLYLINE
5
195
100
AcDbEntity
8
0
100
AcDbPolyline
90
8
70
1
43
0.0
10
198.21895791289265
20
-142.27028379809045
42
-0.41421356237309603
10
193.21895791289265
20
-147.27028379809047
10
183.21895791289265
20
-147.27028379809047
42
-0.41421356237309509
10
178.21895791289265
20
-142.27028379809047
10
178.21895791289265
20
-132.27028379809045
42
-0.41421356237309509
10
183.21895791289265
20
-127.27028379809045
10
193.21895791289265
20
-127.27028379809045
42
-0.41421356237309509
10
198.21895791289265
20
-132.27028379809045
0
LWPOLYLINE
5
196
100
AcDbEntity
8
0
100
AcDbPolyline
90
8
70
1
43
0.0
10
78.218957912892648
20
-202.27028379809045
42
-0.41421356237309709
10
73.218957912892648
20
-207.27028379809047
10
63.218957912892648
20
-207.27028379809045
42
-0.41421356237309448
10
58.218957912892655
20
-202.27028379809045
10
58.218957912892648
20
-192.27028379809045
42
-0.41421356237309509
10
63.218957912892648
20
-187.27028379809045
10
73.218957912892648
20
-187.27028379809045
42
-0.41421356237309509
10
78.218957912892648
20
-192.27028379809045
0
LWPOLYLINE
5
197
100
AcDbEntity
8
0
100
AcDbPolyline
90
8
70
1
43
0.0
10
138.21895791289265
20
-202.27028379809045
42
-0.41421356237309709
10
133.21895791289265
20
-207.27028379809047
10
123.21895791289265
20
-207.27028379809045
42
-0.41421356237309509
10
118.21895791289265
20
-202.27028379809045
10
118.21895791289265
20
-192.27028379809045
42
-0.41421356237309509
10
123.21895791289265
20
-187.27028379809045
10
133.21895791289265
20
-187.27028379809045
42
-0.41421356237309509
10
138.21895791289265
20
-192.27028379809045
0
LWPOLYLINE
5
198
100
AcDbEntity
8
0
100
AcDbPolyline
90
8
70
1
43
0.0
10
198.21895791289265
20
-202.27028379809045
42
-0.41421356237309709
10
193.21895791289265
20
-207.27028379809047
10
183.21895791289265
20
-207.27028379809045
42
-0.41421356237309509
10
178.21895791289265
20
-202.27028379809045
10
178.21895791289265
20
-192.27028379809045
42
-0.41421356237309509
10
183.21895791289265
20
-187.27028379809045
10
193.21895791289265
20
-187.27028379809045
42
-0.41421356237309509
10
198.21895791289265
20
-192.27028379809045
0
LWPOLYLINE
5
199
100
AcDbEntity
8
0
100
AcDbPolyline
90
8
70
1
43
0.0
10
103.21895791289266
20
-37.27028379809046
10
93.218957912892662
20
-37.27028379809046
42
0.41421356237309659
10
88.218957912892662
20
-42.27028379809046
10
88.218957912892662
20
-52.270283798090475
42
0.41421356237309509
10
93.218957912892662
20
-57.27028379809046
10
103.21895791289266
20
-57.270283798090475
42
0.41421356237309553
10
108.21895791289266
20
-52.27028379809046
10
108.21895791289265
20
-42.27028379809046
42
0.41421356237309553
0
LWPOLYLINE
5
200
100
AcDbEntity
8
0
100
AcDbPolyline
90
8
70
1
43
0.0
10
163.21895791289265
20
-37.27028379809046
10
153.21895791289268
20
-37.27028379809046
42
0.41421356237309659
10
148.21895791289268
20
-42.27028379809046
10
148.21895791289268
20
-52.270283798090475
42
0.41421356237309509
10
153.21895791289268
20
-57.27028379809046
10
163.21895791289265
20
-57.270283798090475
42
0.41421356237309553
10
168.21895791289265
20
-52.27028379809046
10
168.21895791289265
20
-42.27028379809046
42
0.41421356237309553
0
LWPOLYLINE
5
201
100
AcDbEntity
8
0
100
AcDbPolyline
90
8
70
1
43
0.0
10
223.21895791289265
20
-37.27028379809046
10
213.21895791289265
20
-37.27028379809046
42
0.41421356237309553
10
208.21895791289265
20
-42.27028379809046
10
208.21895791289268
20
-52.270283798090475
42
0.41421356237309509
10
213.21895791289265
20
-57.27028379809046
10
223.21895791289265
20
-57.270283798090475
42
0.41421356237309553
10
228.21895791289265
20
-52.27028379809046
10
228.21895791289265
20
-42.27028379809046
42
0.41421356237309553
0
LWPOLYLINE
5
202
100
AcDbEntity
8
0
100
AcDbPolyline
90
8
70
1
43
0.0
10
43.218957912892662
20
-97.270283798090446
10
33.218957912892662
20
-97.270283798090446
42
0.41421356237309553
10
28.218957912892666
20
-102.27028379809045
10
28.21895791289267
20
-112.27028379809047
42
0.41421356237309526
10
33.218957912892662
20
-117.27028379809045
10
43.218957912892662
20
-117.27028379809047
42
0.41421356237309603
10
48.218957912892662
20
-112.27028379809045
10
48.218957912892655
20
-102.27028379809045
42
0.41421356237309509
0
LWPOLYLINE
5
203
100
AcDbEntity
8
0
100
AcDbPolyline
90
8
70
1
43
0.0
10
103.21895791289266
20
-97.270283798090446
10
93.218957912892662
20
-97.270283798090446
42
0.41421356237309603
10
88.218957912892662
20
-102.27028379809045
10
88.218957912892662
20
-112.27028379809047
42
0.41421356237309509
10
93.218957912892662
20
-117.27028379809045
10
103.21895791289266
20
-117.27028379809047
42
0.41421356237309603
10
108.21895791289266
20
-112.27028379809045
10
108.21895791289265
20
-102.27028379809045
42
0.41421356237309509
0
LWPOLYLINE
5
204
100
AcDbEntity
8
0
100
AcDbPolyline
90
8
70
1
43
0.0
10
163.21895791289265
20
-97.270283798090446
10
153.21895791289268
20
-97.270283798090446
42
0.41421356237309603
10
148.21895791289268
20
-102.27028379809045
10
148.21895791289268
20
-112.27028379809047
42
0.41421356237309509
10
153.21895791289268
20
-117.27028379809045
10
163.21895791289265
20
-117.27028379809047
42
0.41421356237309603
10
168.21895791289265
20
-112.27028379809045
10
168.21895791289265
20
-102.27028379809045
42
0.41421356237309509
0
LWPOLYLINE
5
205
100
AcDbEntity
8
0
100
AcDbPolyline
90
8
70
1
43
0.0
10
223.21895791289265
20
-97.270283798090446
10
213.21895791289265
20
-97.270283798090446
42
0.41421356237309509
10
208.21895791289265
20
-102.27028379809045
10
208.21895791289268
20
-112.27028379809047
42
0.41421356237309509
10
213.21895791289265
20
-117.27028379809045
10
223.21895791289265
20
-117.27028379809047
42
0.41421356237309603
10
228.21895791289265
20
-112.27028379809045
10
228.21895791289265
20
-102.27028379809045
42
0.41421356237309509
0
LWPOLYLINE
5
206
100
AcDbEntity
8
0
100
AcDbPolyline
90
8
70
1
43
0.0
10
43.218957912892662
20
-157.27028379809045
10
33.218957912892662
20
-157.27028379809045
42
0.41421356237309553
10
28.218957912892666
20
-162.27028379809045
10
28.21895791289267
20
-172.27028379809047
42
0.41421356237309526
10
33.218957912892662
20
-177.27028379809045
10
43.218957912892662
20
-177.27028379809047
42
0.41421356237309709
10
48.218957912892662
20
-172.27028379809045
10
48.218957912892655
20
-162.27028379809045
42
0.41421356237309509
0
LWPOLYLINE
5
207
100
AcDbEntity
8
0
100
AcDbPolyline
90
8
70
1
43
0.0
10
103.21895791289266
20
-157.27028379809045
10
93.218957912892662
20
-157.27028379809045
42
0.41421356237309603
10
88.218957912892662
20
-162.27028379809045
10
88.218957912892662
20
-172.27028379809047
42
0.41421356237309509
10
93.218957912892662
20
-177.27028379809045
10
103.21895791289266
20
-177.27028379809047
42
0.41421356237309709
10
108.21895791289266
20
-172.27028379809045
10
108.21895791289265
20
-162.27028379809045
42
0.41421356237309509
0
LWPOLYLINE
5
208
100
AcDbEntity
8
0
100
AcDbPolyline
90
8
70
1
43
0.0
10
163.21895791289265
20
-157.27028379809045
10
153.21895791289268
20
-157.27028379809045
42
0.41421356237309603
10
148.21895791289268
20
-162.27028379809045
10
148.21895791289268
20
-172.27028379809047
42
0.41421356237309509
10
153.21895791289268
20
-177.27028379809045
10
163.21895791289265
20
-177.27028379809047
42
0.41421356237309709
10
168.21895791289265
20
-172.27028379809045
10
168.21895791289265
20
-162.27028379809045
42
0.41421356237309509
0
LWPOLYLINE
5
209
100
AcDbEntity
8
0
100
AcDbPolyline
90
8
70
1
43
0.0
10
223.21895791289265
20
-157.27028379809045
10
213.21895791289265
20
-157.27028379809045
42
0.41421356237309509
10
208.21895791289265
20
-162.27028379809045
10
208.21895791289268
20
-172.27028379809047
42
0.41421356237309509
10
213.21895791289265
20
-177.27028379809045
10
223.21895791289265
20
-177.27028379809047
42
0.41421356237309709
10
228.21895791289265
20
-172.27028379809045
10
228.21895791289265
20
-162.27028379809045
42
0.41421356237309509
0
LWPOLYLINE
5
210
100
AcDbEntity
8
0
100
AcDbPolyline
90
8
70
1
43
0.0
10
43.218957912892662
20
-217.27028379809045
10
33.218957912892662
20
-217.27028379809045
42
0.41421356237309553
10
28.218957912892666
20
-222.27028379809045
10
28.21895791289267
20
-232.27028379809047
42
0.41421356237309526
10
33.218957912892662
20
-237.27028379809045
10
43.218957912892662
20
-237.27028379809047
42
0.41421356237309709
10
48.218957912892662
20
-232.27028379809045
10
48.218957912892655
20
-222.27028379809045
42
0.41421356237309509
0
LWPOLYLINE
5
211
100
AcDbEntity
8
0
100
AcDbPolyline
90
8
70
1
43
0.0
10
103.21895791289266
20
-217.27028379809045
10
93.218957912892662
20
-217.27028379809045
42
0.41421356237309603
10
88.218957912892662
20
-222.27028379809045
10
88.218957912892662
20
-232.27028379809047
42
0.41421356237309509
10
93.218957912892662
20
-237.27028379809045
10
103.21895791289266
20
-237.27028379809047
42
0.41421356237309709
10
108.21895791289266
20
-232.27028379809045
10
108.21895791289265
20
-222.27028379809045
42
0.41421356237309509
0
LWPOLYLINE
5
212
100
AcDbEntity
8
0
100
AcDbPolyline
90
8
70
1
43
0.0
10
163.21895791289265
20
-217.27028379809045
10
153.21895791289268
20
-217.27028379809045
42
0.41421356237309603
10
148.21895791289268
20
-222.27028379809045
10
148.21895791289268
20
-232.27028379809047
42
0.41421356237309509
10
153.21895791289268
20
-237.27028379809045
10
163.21895791289265
20
-237.27028379809047
42
0.41421356237309709
10
168.21895791289265
20
-232.27028379809045
10
168.21895791289265
20
-222.27028379809045
42
0.41421356237309509
0
LWPOLYLINE
5
213
100
AcDbEntity
8
0
100
AcDbPolyline
90
8
70
1
43
0.0
10
223.21895791289265
20
-217.27028379809045
10
213.21895791289265
20
-217.27028379809045
42
0.41421356237309509
10
208.21895791289265
20
-222.27028379809045
10
208.21895791289268
20
-232.27028379809047
42
0.41421356237309509
10
213.21895791289265
20
-237.27028379809045
10
223.21895791289265
20
-237.27028379809047
42
0.41421356237309709
10
228.21895791289265
20
-232.27028379809045
10
228.21895791289265
20
-222.27028379809045
42
0.41421356237309509
0
LWPOLYLINE
5
214
100
AcDbEntity
8
0
100
AcDbPolyline
90
8
70
1
43
0.0
10
238.11895791289257
20
-225.17028379809048
10
18.318957912892692
20
-225.17028379809048
42
0.41421356237309509
10
8.3189579128926567
20
-235.17028379809051
10
8.3189579128926603
20
-260.17028379809051
42
0.41421356237309337
10
18.318957912892664
20
-270.17028379809051
10
238.1189579128926
20
-270.17028379809051
42
0.41421356237309298
10
248.1189579128926
20
-260.17028379809051
10
248.1189579128926
20
-235.17028379809051
42
0.41421356237309509
0
CIRCLE
5
215
100
AcDbEntity
8
0
100
AcDbCircle
10
5.3189579128926638
20
-270.17028379809051
30
0
40
1.5500000000000114
0
CIRCLE
5
216
100
AcDbEntity
8
0
100
AcDbCircle
10
251.11895791289257
20
-270.1702837980904
30
0
40
1.5500000000000114
0
ENDSEC
0
SECTION
2
OBJECTS
0
DICTIONARY
5
C
100
AcDbDictionary
3
ACAD_GROUP
350
D
3
ACAD_MLINESTYLE
350
17
0
DICTIONARY
5
D
100
AcDbDictionary
0
DICTIONARY
5
1A
330
C
100
AcDbDictionary
0
DICTIONARY
5
17
100
AcDbDictionary
0
ENDSEC
0
EOF
