0
SECTION
2
HEADER
9
$INSUNITS
70
4
9
$ACADVER
1
AC1014
9
$HANDSEED
5
FFFF
0
ENDSEC
0
SECTION
2
TABLES
0
TABLE
2
VPORT
5
8
100
AcDbSymbolTable
0
ENDTAB
0
TABLE
2
LTYPE
5
5
100
AcDbSymbolTable
0
LTYPE
5
14
100
AcDbSymbolTableRecord
100
AcDbLinetypeTableRecord
2
BYBLOCK
70
0
0
LTYPE
5
15
100
AcDbSymbolTableRecord
100
AcDbLinetypeTableRecord
2
BYLAYER
70
0
0
ENDTAB
0
TABLE
2
LAYER
5
2
100
AcDbSymbolTable
70
2
0
LAYER
5
50
100
AcDbSymbolTableRecord
100
AcDbLayerTableRecord
2
0
70
0
6
CONTINUOUS
0
ENDTAB
0
TABLE
2
STYLE
5
3
100
AcDbSymbolTable
70
1
0
STYLE
5
11
100
AcDbSymbolTableRecord
100
AcDbTextStyleTableRecord
2
STANDARD
70
0
0
ENDTAB
0
TABLE
2
VIEW
5
6
100
AcDbSymbolTable
70
0
0
ENDTAB
0
TABLE
2
UCS
5
7
100
AcDbSymbolTable
70
0
0
ENDTAB
0
TABLE
2
APPID
5
9
100
AcDbSymbolTable
70
2
0
APPID
5
12
100
AcDbSymbolTableRecord
100
AcDbRegAppTableRecord
2
ACAD
70
0
0
ENDTAB
0
TABLE
2
DIMSTYLE
5
A
100
AcDbSymbolTable
70
1
0
ENDTAB
0
TABLE
2
BLOCK_RECORD
5
1
100
AcDbSymbolTable
70
1
0
BLOCK_RECORD
5
1F
100
AcDbSymbolTableRecord
100
AcDbBlockTableRecord
2
*MODEL_SPACE
0
BLOCK_RECORD
5
1B
100
AcDbSymbolTableRecord
100
AcDbBlockTableRecord
2
*PAPER_SPACE
0
ENDTAB
0
ENDSEC
0
SECTION
2
BLOCKS
0
BLOCK
5
20
100
AcDbEntity
100
AcDbBlockBegin
2
*MODEL_SPACE
0
ENDBLK
5
21
100
AcDbEntity
100
AcDbBlockEnd
0
BLOCK
5
1C
100
AcDbEntity
100
AcDbBlockBegin
2
*PAPER_SPACE
0
ENDBLK
5
1D
100
AcDbEntity
100
AcDbBlockEnd
0
ENDSEC
0
SECTION
2
ENTITIES
0
LWPOLYLINE
5
100
100
AcDbEntity
8
0
100
AcDbPolyline
90
8
70
1
43
0.0
10
18.984827669477145
20
41.088996763754068
10
11.68482766947713
20
41.088996763754068
42
-0.41421356237309653
10
9.9348276694771407
20
42.838996763754061
10
9.9348276694771229
20
50.138996763754129
42
-0.41421356237309509
10
11.684827669477137
20
51.888996763754143
10
18.984827669477141
20
51.888996763754136
42
-0.41421356237309509
10
20.734827669477145
20
50.138996763754129
10
20.734827669477134
20
42.838996763754082
42
-0.41421356237309653
0
LWPOLYLINE
5
101
100
AcDbEntity
8
0
100
AcDbPolyline
90
8
70
1
43
0.0
10
250.73482766947711
20
61.88899676375415
10
4.9348276694771407
20
61.888996763754136
42
0.41421356237309509
10
-0.065172330522859701
20
56.888996763754136
10
-0.065172330522859645
20
-228.9110032362459
42
0.41421356237309509
10
4.9348276694771442
20
-233.9110032362459
10
250.73482766947703
20
-233.9110032362459
42
0.41421356237309509
10
255.73482766947711
20
-228.91100323624582
10
255.73482766947711
20
56.888996763754143
42
0.41421356237309553
0
LWPOLYLINE
5
102
100
AcDbEntity
8
0
100
AcDbPolyline
90
8
70
1
43
0.0
10
33.984827669477141
20
41.088996763754068
10
26.684827669477123
20
41.088996763754068
42
-0.41421356237309653
10
24.934827669477137
20
42.838996763754061
10
24.934827669477116
20
50.138996763754129
42
-0.41421356237309509
10
26.684827669477134
20
51.888996763754143
10
33.984827669477141
20
51.888996763754136
42
-0.41421356237309509
10
35.734827669477141
20
50.138996763754129
10
35.734827669477134
20
42.838996763754082
42
-0.41421356237309653
0
LWPOLYLINE
5
103
100
AcDbEntity
8
0
100
AcDbPolyline
90
8
70
1
43
0.0
10
48.984827669477141
20
41.088996763754068
10
41.684827669477123
20
41.088996763754068
42
-0.41421356237309653
10
39.934827669477137
20
42.838996763754061
10
39.934827669477116
20
50.138996763754129
42
-0.41421356237309509
10
41.68482766947713
20
51.888996763754143
10
48.984827669477141
20
51.888996763754136
42
-0.41421356237309509
10
50.734827669477141
20
50.138996763754129
10
50.734827669477127
20
42.838996763754082
42
-0.41421356237309653
0
LWPOLYLINE
5
104
100
AcDbEntity
8
0
100
AcDbPolyline
90
8
70
1
43
0.0
10
63.984827669477127
20
41.088996763754068
10
56.684827669477116
20
41.088996763754068
42
-0.41421356237309653
10
54.93482766947713
20
42.838996763754061
10
54.934827669477116
20
50.138996763754129
42
-0.41421356237309509
10
56.68482766947713
20
51.888996763754143
10
63.984827669477141
20
51.888996763754136
42
-0.41421356237309509
10
65.734827669477141
20
50.138996763754129
10
65.734827669477127
20
42.838996763754082
42
-0.41421356237309653
0
LWPOLYLINE
5
105
100
AcDbEntity
8
0
100
AcDbPolyline
90
8
70
1
43
0.0
10
18.984827669477145
20
26.088996763754064
10
11.68482766947713
20
26.088996763754064
42
-0.41421356237309653
10
9.9348276694771407
20
27.838996763754061
10
9.9348276694771229
20
35.138996763754129
42
-0.41421356237309509
10
11.684827669477137
20
36.888996763754143
10
18.984827669477141
20
36.888996763754129
42
-0.41421356237309509
10
20.734827669477145
20
35.138996763754129
10
20.734827669477134
20
27.838996763754082
42
-0.41421356237309653
0
LWPOLYLINE
5
106
100
AcDbEntity
8
0
100
AcDbPolyline
90
8
70
1
43
0.0
10
33.984827669477141
20
26.088996763754064
10
26.684827669477123
20
26.088996763754064
42
-0.41421356237309653
10
24.934827669477137
20
27.838996763754061
10
24.934827669477116
20
35.138996763754129
42
-0.41421356237309509
10
26.684827669477134
20
36.888996763754143
10
33.984827669477141
20
36.888996763754129
42
-0.41421356237309509
10
35.734827669477141
20
35.138996763754129
10
35.734827669477134
20
27.838996763754082
42
-0.41421356237309653
0
LWPOLYLINE
5
107
100
AcDbEntity
8
0
100
AcDbPolyline
90
8
70
1
43
0.0
10
48.984827669477141
20
26.088996763754064
10
41.684827669477123
20
26.088996763754064
42
-0.41421356237309653
10
39.934827669477137
20
27.838996763754061
10
39.934827669477116
20
35.138996763754129
42
-0.41421356237309509
10
41.68482766947713
20
36.888996763754143
10
48.984827669477141
20
36.888996763754129
42
-0.41421356237309509
10
50.734827669477141
20
35.138996763754129
10
50.734827669477127
20
27.838996763754082
42
-0.41421356237309653
0
LWPOLYLINE
5
108
100
AcDbEntity
8
0
100
AcDbPolyline
90
8
70
1
43
0.0
10
63.984827669477127
20
26.088996763754064
10
56.684827669477116
20
26.088996763754064
42
-0.41421356237309653
10
54.93482766947713
20
27.838996763754061
10
54.934827669477116
20
35.138996763754129
42
-0.41421356237309509
10
56.68482766947713
20
36.888996763754143
10
63.984827669477141
20
36.888996763754129
42
-0.41421356237309509
10
65.734827669477141
20
35.138996763754129
10
65.734827669477127
20
27.838996763754082
42
-0.41421356237309653
0
LWPOLYLINE
5
109
100
AcDbEntity
8
0
100
AcDbPolyline
90
8
70
1
43
0.0
10
18.984827669477145
20
11.088996763754064
10
11.68482766947713
20
11.088996763754064
42
-0.41421356237309653
10
9.9348276694771407
20
12.838996763754063
10
9.9348276694771229
20
20.138996763754129
42
-0.41421356237309509
10
11.684827669477137
20
21.888996763754143
10
18.984827669477141
20
21.888996763754133
42
-0.41421356237309509
10
20.734827669477145
20
20.138996763754129
10
20.734827669477134
20
12.83899676375408
42
-0.41421356237309653
0
LWPOLYLINE
5
110
100
AcDbEntity
8
0
100
AcDbPolyline
90
8
70
1
43
0.0
10
33.984827669477141
20
11.088996763754064
10
26.684827669477123
20
11.088996763754064
42
-0.41421356237309653
10
24.934827669477137
20
12.838996763754063
10
24.934827669477116
20
20.138996763754129
42
-0.41421356237309509
10
26.684827669477134
20
21.888996763754143
10
33.984827669477141
20
21.888996763754133
42
-0.41421356237309509
10
35.734827669477141
20
20.138996763754129
10
35.734827669477134
20
12.83899676375408
42
-0.41421356237309653
0
LWPOLYLINE
5
111
100
AcDbEntity
8
0
100
AcDbPolyline
90
8
70
1
43
0.0
10
48.984827669477141
20
11.088996763754064
10
41.684827669477123
20
11.088996763754064
42
-0.41421356237309653
10
39.934827669477137
20
12.838996763754063
10
39.934827669477116
20
20.138996763754129
42
-0.41421356237309509
10
41.68482766947713
20
21.888996763754143
10
48.984827669477141
20
21.888996763754133
42
-0.41421356237309509
10
50.734827669477141
20
20.138996763754129
10
50.734827669477127
20
12.83899676375408
42
-0.41421356237309653
0
LWPOLYLINE
5
112
100
AcDbEntity
8
0
100
AcDbPolyline
90
8
70
1
43
0.0
10
63.984827669477127
20
11.088996763754064
10
56.684827669477116
20
11.088996763754064
42
-0.41421356237309653
10
54.93482766947713
20
12.838996763754063
10
54.934827669477116
20
20.138996763754129
42
-0.41421356237309509
10
56.68482766947713
20
21.888996763754143
10
63.984827669477141
20
21.888996763754133
42
-0.41421356237309509
10
65.734827669477141
20
20.138996763754129
10
65.734827669477127
20
12.83899676375408
42
-0.41421356237309653
0
LWPOLYLINE
5
113
100
AcDbEntity
8
0
100
AcDbPolyline
90
8
70
1
43
0.0
10
18.984827669477145
20
-3.9110032362459357
10
11.68482766947713
20
-3.9110032362459357
42
-0.41421356237309653
10
9.9348276694771407
20
-2.1610032362459375
10
9.9348276694771229
20
5.1389967637541289
42
-0.41421356237309509
10
11.684827669477137
20
6.8889967637541449
10
18.984827669477141
20
6.8889967637541316
42
-0.41421356237309509
10
20.734827669477145
20
5.1389967637541289
10
20.734827669477134
20
-2.1610032362459193
42
-0.41421356237309653
0
LWPOLYLINE
5
114
100
AcDbEntity
8
0
100
AcDbPolyline
90
8
70
1
43
0.0
10
33.984827669477141
20
-3.9110032362459357
10
26.684827669477123
20
-3.9110032362459357
42
-0.41421356237309653
10
24.934827669477137
20
-2.1610032362459375
10
24.934827669477116
20
5.1389967637541289
42
-0.41421356237309509
10
26.684827669477134
20
6.8889967637541449
10
33.984827669477141
20
6.8889967637541316
42
-0.41421356237309509
10
35.734827669477141
20
5.1389967637541289
10
35.734827669477134
20
-2.1610032362459193
42
-0.41421356237309653
0
LWPOLYLINE
5
115
100
AcDbEntity
8
0
100
AcDbPolyline
90
8
70
1
43
0.0
10
48.984827669477141
20
-3.9110032362459357
10
41.684827669477123
20
-3.9110032362459357
42
-0.41421356237309653
10
39.934827669477137
20
-2.1610032362459375
10
39.934827669477116
20
5.1389967637541289
42
-0.41421356237309509
10
41.68482766947713
20
6.8889967637541449
10
48.984827669477141
20
6.8889967637541316
42
-0.41421356237309509
10
50.734827669477141
20
5.1389967637541289
10
50.734827669477127
20
-2.1610032362459193
42
-0.41421356237309653
0
LWPOLYLINE
5
116
100
AcDbEntity
8
0
100
AcDbPolyline
90
8
70
1
43
0.0
10
63.984827669477127
20
-3.9110032362459357
10
56.684827669477116
20
-3.9110032362459357
42
-0.41421356237309653
10
54.93482766947713
20
-2.1610032362459375
10
54.934827669477116
20
5.1389967637541289
42
-0.41421356237309509
10
56.68482766947713
20
6.8889967637541449
10
63.984827669477141
20
6.8889967637541316
42
-0.41421356237309509
10
65.734827669477141
20
5.1389967637541289
10
65.734827669477127
20
-2.1610032362459193
42
-0.41421356237309653
0
LWPOLYLINE
5
117
100
AcDbEntity
8
0
100
AcDbPolyline
90
8
70
1
43
0.0
10
78.984827669477127
20
41.088996763754068
10
71.684827669477116
20
41.088996763754068
42
-0.41421356237309653
10
69.93482766947713
20
42.838996763754061
10
69.934827669477116
20
50.138996763754129
42
-0.41421356237309509
10
71.68482766947713
20
51.888996763754143
10
78.984827669477141
20
51.888996763754136
42
-0.41421356237309509
10
80.734827669477127
20
50.138996763754129
10
80.734827669477127
20
42.838996763754082
42
-0.41421356237309653
0
LWPOLYLINE
5
118
100
AcDbEntity
8
0
100
AcDbPolyline
90
8
70
1
43
0.0
10
78.984827669477127
20
26.088996763754064
10
71.684827669477116
20
26.088996763754064
42
-0.41421356237309653
10
69.93482766947713
20
27.838996763754061
10
69.934827669477116
20
35.138996763754129
42
-0.41421356237309509
10
71.68482766947713
20
36.888996763754143
10
78.984827669477141
20
36.888996763754129
42
-0.41421356237309509
10
80.734827669477127
20
35.138996763754129
10
80.734827669477127
20
27.838996763754082
42
-0.41421356237309653
0
LWPOLYLINE
5
119
100
AcDbEntity
8
0
100
AcDbPolyline
90
8
70
1
43
0.0
10
78.984827669477127
20
11.088996763754064
10
71.684827669477116
20
11.088996763754064
42
-0.41421356237309653
10
69.93482766947713
20
12.838996763754063
10
69.934827669477116
20
20.138996763754129
42
-0.41421356237309509
10
71.68482766947713
20
21.888996763754143
10
78.984827669477141
20
21.888996763754133
42
-0.41421356237309509
10
80.734827669477127
20
20.138996763754129
10
80.734827669477127
20
12.83899676375408
42
-0.41421356237309653
0
LWPOLYLINE
5
120
100
AcDbEntity
8
0
100
AcDbPolyline
90
8
70
1
43
0.0
10
78.984827669477127
20
-3.9110032362459357
10
71.684827669477116
20
-3.9110032362459357
42
-0.41421356237309653
10
69.93482766947713
20
-2.1610032362459375
10
69.934827669477116
20
5.1389967637541289
42
-0.41421356237309509
10
71.68482766947713
20
6.8889967637541449
10
78.984827669477141
20
6.8889967637541316
42
-0.41421356237309509
10
80.734827669477127
20
5.1389967637541289
10
80.734827669477127
20
-2.1610032362459193
42
-0.41421356237309653
0
LWPOLYLINE
5
121
100
AcDbEntity
8
0
100
AcDbPolyline
90
8
70
1
43
0.0
10
18.984827669477145
20
-18.911003236245936
10
11.68482766947713
20
-18.911003236245936
42
-0.41421356237309653
10
9.9348276694771407
20
-17.161003236245939
10
9.9348276694771229
20
-9.8610032362458711
42
-0.41421356237309509
10
11.684827669477137
20
-8.1110032362458551
10
18.984827669477141
20
-8.1110032362458675
42
-0.41421356237309509
10
20.734827669477145
20
-9.8610032362458711
10
20.734827669477134
20
-17.161003236245918
42
-0.41421356237309653
0
LWPOLYLINE
5
122
100
AcDbEntity
8
0
100
AcDbPolyline
90
8
70
1
43
0.0
10
33.984827669477141
20
-18.911003236245936
10
26.684827669477123
20
-18.911003236245936
42
-0.41421356237309653
10
24.934827669477137
20
-17.161003236245939
10
24.934827669477116
20
-9.8610032362458711
42
-0.41421356237309509
10
26.684827669477134
20
-8.1110032362458551
10
33.984827669477141
20
-8.1110032362458675
42
-0.41421356237309509
10
35.734827669477141
20
-9.8610032362458711
10
35.734827669477134
20
-17.161003236245918
42
-0.41421356237309653
0
LWPOLYLINE
5
123
100
AcDbEntity
8
0
100
AcDbPolyline
90
8
70
1
43
0.0
10
48.984827669477141
20
-18.911003236245936
10
41.684827669477123
20
-18.911003236245936
42
-0.41421356237309653
10
39.934827669477137
20
-17.161003236245939
10
39.934827669477116
20
-9.8610032362458711
42
-0.41421356237309509
10
41.68482766947713
20
-8.1110032362458551
10
48.984827669477141
20
-8.1110032362458675
42
-0.41421356237309509
10
50.734827669477141
20
-9.8610032362458711
10
50.734827669477127
20
-17.161003236245918
42
-0.41421356237309653
0
LWPOLYLINE
5
124
100
AcDbEntity
8
0
100
AcDbPolyline
90
8
70
1
43
0.0
10
63.984827669477127
20
-18.911003236245936
10
56.684827669477116
20
-18.911003236245936
42
-0.41421356237309653
10
54.93482766947713
20
-17.161003236245939
10
54.934827669477116
20
-9.8610032362458711
42
-0.41421356237309509
10
56.68482766947713
20
-8.1110032362458551
10
63.984827669477141
20
-8.1110032362458675
42
-0.41421356237309509
10
65.734827669477141
20
-9.8610032362458711
10
65.734827669477127
20
-17.161003236245918
42
-0.41421356237309653
0
LWPOLYLINE
5
125
100
AcDbEntity
8
0
100
AcDbPolyline
90
8
70
1
43
0.0
10
78.984827669477127
20
-18.911003236245936
10
71.684827669477116
20
-18.911003236245936
42
-0.41421356237309653
10
69.93482766947713
20
-17.161003236245939
10
69.934827669477116
20
-9.8610032362458711
42
-0.41421356237309509
10
71.68482766947713
20
-8.1110032362458551
10
78.984827669477141
20
-8.1110032362458675
42
-0.41421356237309509
10
80.734827669477127
20
-9.8610032362458711
10
80.734827669477127
20
-17.161003236245918
42
-0.41421356237309653
0
CIRCLE
5
126
100
AcDbEntity
8
0
100
AcDbCircle
10
4.9348276694771407
20
56.888996763754136
30
0
40
1.5500000000000003
0
CIRCLE
5
127
100
AcDbEntity
8
0
100
AcDbCircle
10
250.73482766947711
20
56.88899676375415
30
0
40
1.549999999999998
0
CIRCLE
5
128
100
AcDbEntity
8
0
100
AcDbCircle
10
4.9348276694771336
20
-228.9110032362459
30
0
40
1.5500000000000025
0
CIRCLE
5
129
100
AcDbEntity
8
0
100
AcDbCircle
10
250.73482766947703
20
-228.91100323624582
30
0
40
1.5500000000000114
0
CIRCLE
5
130
100
AcDbEntity
8
0
100
AcDbCircle
10
52.834827669477143
20
-213.9110032362459
30
0
40
12.000000000000002
0
CIRCLE
5
131
100
AcDbEntity
8
0
100
AcDbCircle
10
202.83482766947714
20
-213.9110032362459
30
0
40
12.000000000000002
0
LWPOLYLINE
5
132
100
AcDbEntity
8
0
100
AcDbPolyline
90
4
70
1
43
0.0
10
160.33482766947714
20
-198.9110032362459
10
95.334827669477136
20
-198.9110032362459
10
95.334827669477136
20
-228.9110032362459
10
160.33482766947714
20
-228.9110032362459
0
CIRCLE
5
133
100
AcDbEntity
8
0
100
AcDbCircle
10
98.834827669477136
20
-202.41100323624593
30
0
40
1.3750000000000009
0
CIRCLE
5
134
100
AcDbEntity
8
0
100
AcDbCircle
10
156.83482766947714
20
-202.41100323624593
30
0
40
1.3750000000000044
0
CIRCLE
5
135
100
AcDbEntity
8
0
100
AcDbCircle
10
156.83482766947714
20
-225.4110032362459
30
0
40
1.3749999999999993
0
CIRCLE
5
136
100
AcDbEntity
8
0
100
AcDbCircle
10
98.834827669477136
20
-225.4110032362459
30
0
40
1.3750000000000013
0
CIRCLE
5
137
100
AcDbEntity
8
0
100
AcDbCircle
10
19.934827669477141
20
-213.9110032362459
30
0
40
10
0
CIRCLE
5
138
100
AcDbEntity
8
0
100
AcDbCircle
10
235.73482766947711
20
-213.9110032362459
30
0
40
10
0
CIRCLE
5
139
100
AcDbEntity
8
0
100
AcDbCircle
10
137.08482766947714
20
-225.66100323624593
30
0
40
1.0000000000000049
0
CIRCLE
5
140
100
AcDbEntity
8
0
100
AcDbCircle
10
137.08482766947714
20
-202.1610032362459
30
0
40
1.0000000000000142
0
CIRCLE
5
141
100
AcDbEntity
8
0
100
AcDbCircle
10
113.58482766947714
20
-225.6610032362459
30
0
40
0.999999999999998
0
CIRCLE
5
142
100
AcDbEntity
8
0
100
AcDbCircle
10
113.58482766947714
20
-202.16100323624588
30
0
40
0.999999999999998
0
LWPOLYLINE
5
143
100
AcDbEntity
8
0
100
AcDbPolyline
90
4
70
1
43
0.0
10
112.83482766947712
20
-221.4110032362459
10
137.83482766947711
20
-221.4110032362459
10
137.83482766947711
20
-206.4110032362459
10
112.83482766947712
20
-206.4110032362459
0
CIRCLE
5
144
100
AcDbEntity
8
0
100
AcDbCircle
10
4.9348276694771407
20
-188.91100323624588
30
0
40
1.5499999999999903
0
CIRCLE
5
145
100
AcDbEntity
8
0
100
AcDbCircle
10
250.73482766947711
20
-188.91100323624585
30
0
40
1.5500000000000045
0
LWPOLYLINE
5
146
100
AcDbEntity
8
0
100
AcDbPolyline
90
8
70
1
43
0.0
10
93.984827669477141
20
41.088996763754068
10
86.684827669477116
20
41.088996763754068
42
-0.41421356237309653
10
84.93482766947713
20
42.838996763754061
10
84.934827669477102
20
50.138996763754129
42
-0.41421356237309509
10
86.68482766947713
20
51.888996763754143
10
93.984827669477141
20
51.888996763754122
42
-0.41421356237309509
10
95.734827669477127
20
50.138996763754129
10
95.734827669477127
20
42.838996763754082
42
-0.41421356237309509
0
LWPOLYLINE
5
147
100
AcDbEntity
8
0
100
AcDbPolyline
90
8
70
1
43
0.0
10
108.98482766947711
20
41.088996763754068
10
101.68482766947712
20
41.088996763754068
42
-0.41421356237309653
10
99.93482766947713
20
42.838996763754061
10
99.934827669477102
20
50.138996763754129
42
-0.41421356237309509
10
101.68482766947712
20
51.888996763754143
10
108.98482766947711
20
51.888996763754136
42
-0.41421356237309509
10
110.73482766947713
20
50.138996763754129
10
110.73482766947713
20
42.838996763754082
42
-0.41421356237309803
0
LWPOLYLINE
5
148
100
AcDbEntity
8
0
100
AcDbPolyline
90
8
70
1
43
0.0
10
123.98482766947711
20
41.088996763754068
10
116.68482766947712
20
41.088996763754068
42
-0.41421356237309653
10
114.93482766947713
20
42.838996763754061
10
114.9348276694771
20
50.138996763754129
42
-0.41421356237309509
10
116.68482766947712
20
51.888996763754143
10
123.98482766947711
20
51.888996763754136
42
-0.41421356237309509
10
125.73482766947713
20
50.138996763754129
10
125.73482766947713
20
42.838996763754082
42
-0.41421356237309803
0
LWPOLYLINE
5
149
100
AcDbEntity
8
0
100
AcDbPolyline
90
8
70
1
43
0.0
10
138.98482766947711
20
41.088996763754068
10
131.6848276694771
20
41.088996763754068
42
-0.41421356237309653
10
129.93482766947713
20
42.838996763754061
10
129.9348276694771
20
50.138996763754129
42
-0.41421356237309509
10
131.6848276694771
20
51.888996763754143
10
138.98482766947711
20
51.888996763754136
42
-0.41421356237309509
10
140.73482766947711
20
50.138996763754129
10
140.73482766947711
20
42.838996763754082
42
-0.41421356237309803
0
LWPOLYLINE
5
150
100
AcDbEntity
8
0
100
AcDbPolyline
90
8
70
1
43
0.0
10
153.98482766947711
20
41.088996763754068
10
146.6848276694771
20
41.088996763754068
42
-0.41421356237309653
10
144.93482766947713
20
42.838996763754061
10
144.9348276694771
20
50.138996763754129
42
-0.41421356237309509
10
146.6848276694771
20
51.888996763754143
10
153.98482766947711
20
51.888996763754136
42
-0.41421356237309509
10
155.73482766947711
20
50.138996763754129
10
155.73482766947711
20
42.838996763754082
42
-0.41421356237309803
0
LWPOLYLINE
5
151
100
AcDbEntity
8
0
100
AcDbPolyline
90
8
70
1
43
0.0
10
168.98482766947711
20
41.088996763754068
10
161.6848276694771
20
41.088996763754068
42
-0.41421356237309653
10
159.93482766947713
20
42.838996763754061
10
159.9348276694771
20
50.138996763754129
42
-0.41421356237309509
10
161.6848276694771
20
51.888996763754143
10
168.98482766947711
20
51.888996763754136
42
-0.41421356237309509
10
170.73482766947711
20
50.138996763754129
10
170.73482766947711
20
42.838996763754082
42
-0.41421356237309803
0
LWPOLYLINE
5
152
100
AcDbEntity
8
0
100
AcDbPolyline
90
8
70
1
43
0.0
10
183.98482766947711
20
41.088996763754068
10
176.68482766947707
20
41.088996763754082
42
-0.41421356237309653
10
174.9348276694771
20
42.838996763754061
10
174.9348276694771
20
50.138996763754129
42
-0.41421356237309509
10
176.6848276694771
20
51.888996763754143
10
183.98482766947711
20
51.888996763754136
42
-0.41421356237309509
10
185.73482766947711
20
50.138996763754129
10
185.73482766947708
20
42.838996763754082
42
-0.41421356237309204
0
LWPOLYLINE
5
153
100
AcDbEntity
8
0
100
AcDbPolyline
90
8
70
1
43
0.0
10
198.98482766947711
20
41.088996763754068
10
191.68482766947707
20
41.088996763754082
42
-0.41421356237309653
10
189.9348276694771
20
42.838996763754061
10
189.9348276694771
20
50.138996763754129
42
-0.41421356237309509
10
191.6848276694771
20
51.888996763754143
10
198.98482766947711
20
51.888996763754136
42
-0.41421356237309509
10
200.73482766947711
20
50.138996763754129
10
200.73482766947708
20
42.838996763754082
42
-0.41421356237309204
0
LWPOLYLINE
5
154
100
AcDbEntity
8
0
100
AcDbPolyline
90
8
70
1
43
0.0
10
213.98482766947711
20
41.088996763754068
10
206.68482766947707
20
41.088996763754082
42
-0.41421356237309653
10
204.9348276694771
20
42.838996763754061
10
204.9348276694771
20
50.138996763754129
42
-0.41421356237309509
10
206.6848276694771
20
51.888996763754143
10
213.98482766947711
20
51.888996763754136
42
-0.41421356237309509
10
215.73482766947711
20
50.138996763754129
10
215.73482766947708
20
42.838996763754082
42
-0.41421356237309204
0
LWPOLYLINE
5
155
100
AcDbEntity
8
0
100
AcDbPolyline
90
8
70
1
43
0.0
10
228.98482766947711
20
41.088996763754068
10
221.68482766947707
20
41.088996763754082
42
-0.41421356237309653
10
219.9348276694771
20
42.838996763754061
10
219.9348276694771
20
50.138996763754129
42
-0.41421356237309509
10
221.6848276694771
20
51.888996763754143
10
228.98482766947711
20
51.888996763754136
42
-0.41421356237309509
10
230.73482766947711
20
50.138996763754129
10
230.73482766947708
20
42.838996763754082
42
-0.41421356237309204
0
LWPOLYLINE
5
156
100
AcDbEntity
8
0
100
AcDbPolyline
90
8
70
1
43
0.0
10
243.98482766947711
20
41.088996763754068
10
236.68482766947707
20
41.088996763754082
42
-0.41421356237309653
10
234.9348276694771
20
42.838996763754061
10
234.9348276694771
20
50.138996763754129
42
-0.41421356237309509
10
236.6848276694771
20
51.888996763754143
10
243.98482766947711
20
51.888996763754136
42
-0.41421356237309509
10
245.73482766947711
20
50.138996763754129
10
245.73482766947708
20
42.838996763754082
42
-0.41421356237309204
0
LWPOLYLINE
5
157
100
AcDbEntity
8
0
100
AcDbPolyline
90
8
70
1
43
0.0
10
93.984827669477141
20
26.088996763754064
10
86.684827669477116
20
26.088996763754064
42
-0.41421356237309653
10
84.93482766947713
20
27.838996763754061
10
84.934827669477102
20
35.138996763754129
42
-0.41421356237309509
10
86.68482766947713
20
36.888996763754143
10
93.984827669477141
20
36.888996763754122
42
-0.41421356237309509
10
95.734827669477127
20
35.138996763754129
10
95.734827669477127
20
27.838996763754082
42
-0.41421356237309509
0
LWPOLYLINE
5
158
100
AcDbEntity
8
0
100
AcDbPolyline
90
8
70
1
43
0.0
10
108.98482766947711
20
26.088996763754064
10
101.68482766947712
20
26.088996763754064
42
-0.41421356237309653
10
99.93482766947713
20
27.838996763754061
10
99.934827669477102
20
35.138996763754129
42
-0.41421356237309509
10
101.68482766947712
20
36.888996763754143
10
108.98482766947711
20
36.888996763754136
42
-0.41421356237309509
10
110.73482766947713
20
35.138996763754129
10
110.73482766947713
20
27.838996763754082
42
-0.41421356237309803
0
LWPOLYLINE
5
159
100
AcDbEntity
8
0
100
AcDbPolyline
90
8
70
1
43
0.0
10
123.98482766947711
20
26.088996763754064
10
116.68482766947712
20
26.088996763754064
42
-0.41421356237309653
10
114.93482766947713
20
27.838996763754061
10
114.9348276694771
20
35.138996763754129
42
-0.41421356237309509
10
116.68482766947712
20
36.888996763754143
10
123.98482766947711
20
36.888996763754136
42
-0.41421356237309509
10
125.73482766947713
20
35.138996763754129
10
125.73482766947713
20
27.838996763754082
42
-0.41421356237309803
0
LWPOLYLINE
5
160
100
AcDbEntity
8
0
100
AcDbPolyline
90
8
70
1
43
0.0
10
138.98482766947711
20
26.088996763754064
10
131.6848276694771
20
26.088996763754064
42
-0.41421356237309653
10
129.93482766947713
20
27.838996763754061
10
129.9348276694771
20
35.138996763754129
42
-0.41421356237309509
10
131.6848276694771
20
36.888996763754143
10
138.98482766947711
20
36.888996763754136
42
-0.41421356237309509
10
140.73482766947711
20
35.138996763754129
10
140.73482766947711
20
27.838996763754082
42
-0.41421356237309803
0
LWPOLYLINE
5
161
100
AcDbEntity
8
0
100
AcDbPolyline
90
8
70
1
43
0.0
10
153.98482766947711
20
26.088996763754064
10
146.6848276694771
20
26.088996763754064
42
-0.41421356237309653
10
144.93482766947713
20
27.838996763754061
10
144.9348276694771
20
35.138996763754129
42
-0.41421356237309509
10
146.6848276694771
20
36.888996763754143
10
153.98482766947711
20
36.888996763754136
42
-0.41421356237309509
10
155.73482766947711
20
35.138996763754129
10
155.73482766947711
20
27.838996763754082
42
-0.41421356237309803
0
LWPOLYLINE
5
162
100
AcDbEntity
8
0
100
AcDbPolyline
90
8
70
1
43
0.0
10
168.98482766947711
20
26.088996763754064
10
161.6848276694771
20
26.088996763754064
42
-0.41421356237309653
10
159.93482766947713
20
27.838996763754061
10
159.9348276694771
20
35.138996763754129
42
-0.41421356237309509
10
161.6848276694771
20
36.888996763754143
10
168.98482766947711
20
36.888996763754136
42
-0.41421356237309509
10
170.73482766947711
20
35.138996763754129
10
170.73482766947711
20
27.838996763754082
42
-0.41421356237309803
0
LWPOLYLINE
5
163
100
AcDbEntity
8
0
100
AcDbPolyline
90
8
70
1
43
0.0
10
183.98482766947711
20
26.088996763754064
10
176.68482766947707
20
26.088996763754082
42
-0.41421356237309653
10
174.9348276694771
20
27.838996763754061
10
174.9348276694771
20
35.138996763754129
42
-0.41421356237309509
10
176.6848276694771
20
36.888996763754143
10
183.98482766947711
20
36.888996763754136
42
-0.41421356237309509
10
185.73482766947711
20
35.138996763754129
10
185.73482766947708
20
27.838996763754082
42
-0.41421356237309204
0
LWPOLYLINE
5
164
100
AcDbEntity
8
0
100
AcDbPolyline
90
8
70
1
43
0.0
10
198.98482766947711
20
26.088996763754064
10
191.68482766947707
20
26.088996763754082
42
-0.41421356237309653
10
189.9348276694771
20
27.838996763754061
10
189.9348276694771
20
35.138996763754129
42
-0.41421356237309509
10
191.6848276694771
20
36.888996763754143
10
198.98482766947711
20
36.888996763754136
42
-0.41421356237309509
10
200.73482766947711
20
35.138996763754129
10
200.73482766947708
20
27.838996763754082
42
-0.41421356237309204
0
LWPOLYLINE
5
165
100
AcDbEntity
8
0
100
AcDbPolyline
90
8
70
1
43
0.0
10
213.98482766947711
20
26.088996763754064
10
206.68482766947707
20
26.088996763754082
42
-0.41421356237309653
10
204.9348276694771
20
27.838996763754061
10
204.9348276694771
20
35.138996763754129
42
-0.41421356237309509
10
206.6848276694771
20
36.888996763754143
10
213.98482766947711
20
36.888996763754136
42
-0.41421356237309509
10
215.73482766947711
20
35.138996763754129
10
215.73482766947708
20
27.838996763754082
42
-0.41421356237309204
0
LWPOLYLINE
5
166
100
AcDbEntity
8
0
100
AcDbPolyline
90
8
70
1
43
0.0
10
228.98482766947711
20
26.088996763754064
10
221.68482766947707
20
26.088996763754082
42
-0.41421356237309653
10
219.9348276694771
20
27.838996763754061
10
219.9348276694771
20
35.138996763754129
42
-0.41421356237309509
10
221.6848276694771
20
36.888996763754143
10
228.98482766947711
20
36.888996763754136
42
-0.41421356237309509
10
230.73482766947711
20
35.138996763754129
10
230.73482766947708
20
27.838996763754082
42
-0.41421356237309204
0
LWPOLYLINE
5
167
100
AcDbEntity
8
0
100
AcDbPolyline
90
8
70
1
43
0.0
10
243.98482766947711
20
26.088996763754064
10
236.68482766947707
20
26.088996763754082
42
-0.41421356237309653
10
234.9348276694771
20
27.838996763754061
10
234.9348276694771
20
35.138996763754129
42
-0.41421356237309509
10
236.6848276694771
20
36.888996763754143
10
243.98482766947711
20
36.888996763754136
42
-0.41421356237309509
10
245.73482766947711
20
35.138996763754129
10
245.73482766947708
20
27.838996763754082
42
-0.41421356237309204
0
LWPOLYLINE
5
168
100
AcDbEntity
8
0
100
AcDbPolyline
90
8
70
1
43
0.0
10
93.984827669477141
20
11.088996763754064
10
86.684827669477116
20
11.088996763754064
42
-0.41421356237309653
10
84.93482766947713
20
12.838996763754063
10
84.934827669477102
20
20.138996763754129
42
-0.41421356237309509
10
86.68482766947713
20
21.888996763754143
10
93.984827669477141
20
21.888996763754118
42
-0.41421356237309509
10
95.734827669477127
20
20.138996763754129
10
95.734827669477127
20
12.83899676375408
42
-0.41421356237309509
0
LWPOLYLINE
5
169
100
AcDbEntity
8
0
100
AcDbPolyline
90
8
70
1
43
0.0
10
108.98482766947711
20
11.088996763754064
10
101.68482766947712
20
11.088996763754064
42
-0.41421356237309653
10
99.93482766947713
20
12.838996763754063
10
99.934827669477102
20
20.138996763754129
42
-0.41421356237309509
10
101.68482766947712
20
21.888996763754143
10
108.98482766947711
20
21.888996763754136
42
-0.41421356237309509
10
110.73482766947713
20
20.138996763754129
10
110.73482766947713
20
12.83899676375408
42
-0.41421356237309803
0
LWPOLYLINE
5
170
100
AcDbEntity
8
0
100
AcDbPolyline
90
8
70
1
43
0.0
10
123.98482766947711
20
11.088996763754064
10
116.68482766947712
20
11.088996763754064
42
-0.41421356237309653
10
114.93482766947713
20
12.838996763754063
10
114.9348276694771
20
20.138996763754129
42
-0.41421356237309509
10
116.68482766947712
20
21.888996763754143
10
123.98482766947711
20
21.888996763754136
42
-0.41421356237309509
10
125.73482766947713
20
20.138996763754129
10
125.73482766947713
20
12.83899676375408
42
-0.41421356237309803
0
LWPOLYLINE
5
171
100
AcDbEntity
8
0
100
AcDbPolyline
90
8
70
1
43
0.0
10
138.98482766947711
20
11.088996763754064
10
131.6848276694771
20
11.088996763754064
42
-0.41421356237309653
10
129.93482766947713
20
12.838996763754063
10
129.9348276694771
20
20.138996763754129
42
-0.41421356237309509
10
131.6848276694771
20
21.888996763754143
10
138.98482766947711
20
21.888996763754136
42
-0.41421356237309509
10
140.73482766947711
20
20.138996763754129
10
140.73482766947711
20
12.83899676375408
42
-0.41421356237309803
0
LWPOLYLINE
5
172
100
AcDbEntity
8
0
100
AcDbPolyline
90
8
70
1
43
0.0
10
153.98482766947711
20
11.088996763754064
10
146.6848276694771
20
11.088996763754064
42
-0.41421356237309653
10
144.93482766947713
20
12.838996763754063
10
144.9348276694771
20
20.138996763754129
42
-0.41421356237309509
10
146.6848276694771
20
21.888996763754143
10
153.98482766947711
20
21.888996763754136
42
-0.41421356237309509
10
155.73482766947711
20
20.138996763754129
10
155.73482766947711
20
12.83899676375408
42
-0.41421356237309803
0
LWPOLYLINE
5
173
100
AcDbEntity
8
0
100
AcDbPolyline
90
8
70
1
43
0.0
10
168.98482766947711
20
11.088996763754064
10
161.6848276694771
20
11.088996763754064
42
-0.41421356237309653
10
159.93482766947713
20
12.838996763754063
10
159.9348276694771
20
20.138996763754129
42
-0.41421356237309509
10
161.6848276694771
20
21.888996763754143
10
168.98482766947711
20
21.888996763754136
42
-0.41421356237309509
10
170.73482766947711
20
20.138996763754129
10
170.73482766947711
20
12.83899676375408
42
-0.41421356237309803
0
LWPOLYLINE
5
174
100
AcDbEntity
8
0
100
AcDbPolyline
90
8
70
1
43
0.0
10
183.98482766947711
20
11.088996763754064
10
176.68482766947707
20
11.088996763754082
42
-0.41421356237309653
10
174.9348276694771
20
12.838996763754063
10
174.9348276694771
20
20.138996763754129
42
-0.41421356237309509
10
176.6848276694771
20
21.888996763754143
10
183.98482766947711
20
21.888996763754136
42
-0.41421356237309509
10
185.73482766947711
20
20.138996763754129
10
185.73482766947708
20
12.83899676375408
42
-0.41421356237309204
0
LWPOLYLINE
5
175
100
AcDbEntity
8
0
100
AcDbPolyline
90
8
70
1
43
0.0
10
198.98482766947711
20
11.088996763754064
10
191.68482766947707
20
11.088996763754082
42
-0.41421356237309653
10
189.9348276694771
20
12.838996763754063
10
189.9348276694771
20
20.138996763754129
42
-0.41421356237309509
10
191.6848276694771
20
21.888996763754143
10
198.98482766947711
20
21.888996763754136
42
-0.41421356237309509
10
200.73482766947711
20
20.138996763754129
10
200.73482766947708
20
12.83899676375408
42
-0.41421356237309204
0
LWPOLYLINE
5
176
100
AcDbEntity
8
0
100
AcDbPolyline
90
8
70
1
43
0.0
10
213.98482766947711
20
11.088996763754064
10
206.68482766947707
20
11.088996763754082
42
-0.41421356237309653
10
204.9348276694771
20
12.838996763754063
10
204.9348276694771
20
20.138996763754129
42
-0.41421356237309509
10
206.6848276694771
20
21.888996763754143
10
213.98482766947711
20
21.888996763754136
42
-0.41421356237309509
10
215.73482766947711
20
20.138996763754129
10
215.73482766947708
20
12.83899676375408
42
-0.41421356237309204
0
LWPOLYLINE
5
177
100
AcDbEntity
8
0
100
AcDbPolyline
90
8
70
1
43
0.0
10
228.98482766947711
20
11.088996763754064
10
221.68482766947707
20
11.088996763754082
42
-0.41421356237309653
10
219.9348276694771
20
12.838996763754063
10
219.9348276694771
20
20.138996763754129
42
-0.41421356237309509
10
221.6848276694771
20
21.888996763754143
10
228.98482766947711
20
21.888996763754136
42
-0.41421356237309509
10
230.73482766947711
20
20.138996763754129
10
230.73482766947708
20
12.83899676375408
42
-0.41421356237309204
0
LWPOLYLINE
5
178
100
AcDbEntity
8
0
100
AcDbPolyline
90
8
70
1
43
0.0
10
243.98482766947711
20
11.088996763754064
10
236.68482766947707
20
11.088996763754082
42
-0.41421356237309653
10
234.9348276694771
20
12.838996763754063
10
234.9348276694771
20
20.138996763754129
42
-0.41421356237309509
10
236.6848276694771
20
21.888996763754143
10
243.98482766947711
20
21.888996763754136
42
-0.41421356237309509
10
245.73482766947711
20
20.138996763754129
10
245.73482766947708
20
12.83899676375408
42
-0.41421356237309204
0
LWPOLYLINE
5
179
100
AcDbEntity
8
0
100
AcDbPolyline
90
8
70
1
43
0.0
10
93.984827669477141
20
-3.9110032362459357
10
86.684827669477116
20
-3.9110032362459357
42
-0.41421356237309653
10
84.93482766947713
20
-2.1610032362459375
10
84.934827669477102
20
5.1389967637541289
42
-0.41421356237309509
10
86.68482766947713
20
6.8889967637541449
10
93.984827669477141
20
6.8889967637541183
42
-0.41421356237309509
10
95.734827669477127
20
5.1389967637541289
10
95.734827669477127
20
-2.1610032362459197
42
-0.41421356237309509
0
LWPOLYLINE
5
180
100
AcDbEntity
8
0
100
AcDbPolyline
90
8
70
1
43
0.0
10
108.98482766947711
20
-3.9110032362459357
10
101.68482766947712
20
-3.9110032362459357
42
-0.41421356237309653
10
99.93482766947713
20
-2.1610032362459375
10
99.934827669477102
20
5.1389967637541289
42
-0.41421356237309509
10
101.68482766947712
20
6.8889967637541449
10
108.98482766947711
20
6.8889967637541361
42
-0.41421356237309509
10
110.73482766947713
20
5.1389967637541289
10
110.73482766947713
20
-2.1610032362459193
42
-0.41421356237309803
0
LWPOLYLINE
5
181
100
AcDbEntity
8
0
100
AcDbPolyline
90
8
70
1
43
0.0
10
123.98482766947711
20
-3.9110032362459357
10
116.68482766947712
20
-3.9110032362459357
42
-0.41421356237309653
10
114.93482766947713
20
-2.1610032362459375
10
114.9348276694771
20
5.1389967637541289
42
-0.41421356237309509
10
116.68482766947712
20
6.8889967637541449
10
123.98482766947711
20
6.8889967637541361
42
-0.41421356237309509
10
125.73482766947713
20
5.1389967637541289
10
125.73482766947713
20
-2.1610032362459193
42
-0.41421356237309803
0
LWPOLYLINE
5
182
100
AcDbEntity
8
0
100
AcDbPolyline
90
8
70
1
43
0.0
10
138.98482766947711
20
-3.9110032362459357
10
131.6848276694771
20
-3.9110032362459357
42
-0.41421356237309653
10
129.93482766947713
20
-2.1610032362459375
10
129.9348276694771
20
5.1389967637541289
42
-0.41421356237309509
10
131.6848276694771
20
6.8889967637541449
10
138.98482766947711
20
6.8889967637541361
42
-0.41421356237309509
10
140.73482766947711
20
5.1389967637541289
10
140.73482766947711
20
-2.1610032362459193
42
-0.41421356237309803
0
LWPOLYLINE
5
183
100
AcDbEntity
8
0
100
AcDbPolyline
90
8
70
1
43
0.0
10
153.98482766947711
20
-3.9110032362459357
10
146.6848276694771
20
-3.9110032362459357
42
-0.41421356237309653
10
144.93482766947713
20
-2.1610032362459375
10
144.9348276694771
20
5.1389967637541289
42
-0.41421356237309509
10
146.6848276694771
20
6.8889967637541449
10
153.98482766947711
20
6.8889967637541361
42
-0.41421356237309509
10
155.73482766947711
20
5.1389967637541289
10
155.73482766947711
20
-2.1610032362459193
42
-0.41421356237309803
0
LWPOLYLINE
5
184
100
AcDbEntity
8
0
100
AcDbPolyline
90
8
70
1
43
0.0
10
168.98482766947711
20
-3.9110032362459357
10
161.6848276694771
20
-3.9110032362459357
42
-0.41421356237309653
10
159.93482766947713
20
-2.1610032362459375
10
159.9348276694771
20
5.1389967637541289
42
-0.41421356237309509
10
161.6848276694771
20
6.8889967637541449
10
168.98482766947711
20
6.8889967637541361
42
-0.41421356237309509
10
170.73482766947711
20
5.1389967637541289
10
170.73482766947711
20
-2.1610032362459193
42
-0.41421356237309803
0
LWPOLYLINE
5
185
100
AcDbEntity
8
0
100
AcDbPolyline
90
8
70
1
43
0.0
10
183.98482766947711
20
-3.9110032362459357
10
176.68482766947707
20
-3.9110032362459179
42
-0.41421356237309653
10
174.9348276694771
20
-2.1610032362459375
10
174.9348276694771
20
5.1389967637541289
42
-0.41421356237309509
10
176.6848276694771
20
6.8889967637541449
10
183.98482766947711
20
6.8889967637541361
42
-0.41421356237309509
10
185.73482766947711
20
5.1389967637541289
10
185.73482766947708
20
-2.1610032362459197
42
-0.41421356237309204
0
LWPOLYLINE
5
186
100
AcDbEntity
8
0
100
AcDbPolyline
90
8
70
1
43
0.0
10
198.98482766947711
20
-3.9110032362459357
10
191.68482766947707
20
-3.9110032362459179
42
-0.41421356237309653
10
189.9348276694771
20
-2.1610032362459375
10
189.9348276694771
20
5.1389967637541289
42
-0.41421356237309509
10
191.6848276694771
20
6.8889967637541449
10
198.98482766947711
20
6.8889967637541361
42
-0.41421356237309509
10
200.73482766947711
20
5.1389967637541289
10
200.73482766947708
20
-2.1610032362459197
42
-0.41421356237309204
0
LWPOLYLINE
5
187
100
AcDbEntity
8
0
100
AcDbPolyline
90
8
70
1
43
0.0
10
213.98482766947711
20
-3.9110032362459357
10
206.68482766947707
20
-3.9110032362459179
42
-0.41421356237309653
10
204.9348276694771
20
-2.1610032362459375
10
204.9348276694771
20
5.1389967637541289
42
-0.41421356237309509
10
206.6848276694771
20
6.8889967637541449
10
213.98482766947711
20
6.8889967637541361
42
-0.41421356237309509
10
215.73482766947711
20
5.1389967637541289
10
215.73482766947708
20
-2.1610032362459197
42
-0.41421356237309204
0
LWPOLYLINE
5
188
100
AcDbEntity
8
0
100
AcDbPolyline
90
8
70
1
43
0.0
10
228.98482766947711
20
-3.9110032362459357
10
221.68482766947707
20
-3.9110032362459179
42
-0.41421356237309653
10
219.9348276694771
20
-2.1610032362459375
10
219.9348276694771
20
5.1389967637541289
42
-0.41421356237309509
10
221.6848276694771
20
6.8889967637541449
10
228.98482766947711
20
6.8889967637541361
42
-0.41421356237309509
10
230.73482766947711
20
5.1389967637541289
10
230.73482766947708
20
-2.1610032362459197
42
-0.41421356237309204
0
LWPOLYLINE
5
189
100
AcDbEntity
8
0
100
AcDbPolyline
90
8
70
1
43
0.0
10
243.98482766947711
20
-3.9110032362459357
10
236.68482766947707
20
-3.9110032362459179
42
-0.41421356237309653
10
234.9348276694771
20
-2.1610032362459375
10
234.9348276694771
20
5.1389967637541289
42
-0.41421356237309509
10
236.6848276694771
20
6.8889967637541449
10
243.98482766947711
20
6.8889967637541361
42
-0.41421356237309509
10
245.73482766947711
20
5.1389967637541289
10
245.73482766947708
20
-2.1610032362459197
42
-0.41421356237309204
0
LWPOLYLINE
5
190
100
AcDbEntity
8
0
100
AcDbPolyline
90
8
70
1
43
0.0
10
93.984827669477141
20
-18.911003236245936
10
86.684827669477116
20
-18.911003236245936
42
-0.41421356237309653
10
84.93482766947713
20
-17.161003236245939
10
84.934827669477102
20
-9.8610032362458711
42
-0.41421356237309509
10
86.68482766947713
20
-8.1110032362458551
10
93.984827669477141
20
-8.1110032362458817
42
-0.41421356237309509
10
95.734827669477127
20
-9.8610032362458711
10
95.734827669477127
20
-17.161003236245918
42
-0.41421356237309509
0
LWPOLYLINE
5
191
100
AcDbEntity
8
0
100
AcDbPolyline
90
8
70
1
43
0.0
10
108.98482766947711
20
-18.911003236245936
10
101.68482766947712
20
-18.911003236245936
42
-0.41421356237309653
10
99.93482766947713
20
-17.161003236245939
10
99.934827669477102
20
-9.8610032362458711
42
-0.41421356237309509
10
101.68482766947712
20
-8.1110032362458551
10
108.98482766947711
20
-8.1110032362458639
42
-0.41421356237309509
10
110.73482766947713
20
-9.8610032362458711
10
110.73482766947713
20
-17.161003236245918
42
-0.41421356237309803
0
LWPOLYLINE
5
192
100
AcDbEntity
8
0
100
AcDbPolyline
90
8
70
1
43
0.0
10
123.98482766947711
20
-18.911003236245936
10
116.68482766947712
20
-18.911003236245936
42
-0.41421356237309653
10
114.93482766947713
20
-17.161003236245939
10
114.9348276694771
20
-9.8610032362458711
42
-0.41421356237309509
10
116.68482766947712
20
-8.1110032362458551
10
123.98482766947711
20
-8.1110032362458639
42
-0.41421356237309509
10
125.73482766947713
20
-9.8610032362458711
10
125.73482766947713
20
-17.161003236245918
42
-0.41421356237309803
0
LWPOLYLINE
5
193
100
AcDbEntity
8
0
100
AcDbPolyline
90
8
70
1
43
0.0
10
138.98482766947711
20
-18.911003236245936
10
131.6848276694771
20
-18.911003236245936
42
-0.41421356237309653
10
129.93482766947713
20
-17.161003236245939
10
129.9348276694771
20
-9.8610032362458711
42
-0.41421356237309509
10
131.6848276694771
20
-8.1110032362458551
10
138.98482766947711
20
-8.1110032362458639
42
-0.41421356237309509
10
140.73482766947711
20
-9.8610032362458711
10
140.73482766947711
20
-17.161003236245918
42
-0.41421356237309803
0
LWPOLYLINE
5
194
100
AcDbEntity
8
0
100
AcDbPolyline
90
8
70
1
43
0.0
10
153.98482766947711
20
-18.911003236245936
10
146.6848276694771
20
-18.911003236245936
42
-0.41421356237309653
10
144.93482766947713
20
-17.161003236245939
10
144.9348276694771
20
-9.8610032362458711
42
-0.41421356237309509
10
146.6848276694771
20
-8.1110032362458551
10
153.98482766947711
20
-8.1110032362458639
42
-0.41421356237309509
10
155.73482766947711
20
-9.8610032362458711
10
155.73482766947711
20
-17.161003236245918
42
-0.41421356237309803
0
LWPOLYLINE
5
195
100
AcDbEntity
8
0
100
AcDbPolyline
90
8
70
1
43
0.0
10
168.98482766947711
20
-18.911003236245936
10
161.6848276694771
20
-18.911003236245936
42
-0.41421356237309653
10
159.93482766947713
20
-17.161003236245939
10
159.9348276694771
20
-9.8610032362458711
42
-0.41421356237309509
10
161.6848276694771
20
-8.1110032362458551
10
168.98482766947711
20
-8.1110032362458639
42
-0.41421356237309509
10
170.73482766947711
20
-9.8610032362458711
10
170.73482766947711
20
-17.161003236245918
42
-0.41421356237309803
0
LWPOLYLINE
5
196
100
AcDbEntity
8
0
100
AcDbPolyline
90
8
70
1
43
0.0
10
183.98482766947711
20
-18.911003236245936
10
176.68482766947707
20
-18.911003236245918
42
-0.41421356237309653
10
174.9348276694771
20
-17.161003236245939
10
174.9348276694771
20
-9.8610032362458711
42
-0.41421356237309509
10
176.6848276694771
20
-8.1110032362458551
10
183.98482766947711
20
-8.1110032362458639
42
-0.41421356237309509
10
185.73482766947711
20
-9.8610032362458711
10
185.73482766947708
20
-17.161003236245918
42
-0.41421356237309204
0
LWPOLYLINE
5
197
100
AcDbEntity
8
0
100
AcDbPolyline
90
8
70
1
43
0.0
10
198.98482766947711
20
-18.911003236245936
10
191.68482766947707
20
-18.911003236245918
42
-0.41421356237309653
10
189.9348276694771
20
-17.161003236245939
10
189.9348276694771
20
-9.8610032362458711
42
-0.41421356237309509
10
191.6848276694771
20
-8.1110032362458551
10
198.98482766947711
20
-8.1110032362458639
42
-0.41421356237309509
10
200.73482766947711
20
-9.8610032362458711
10
200.73482766947708
20
-17.161003236245918
42
-0.41421356237309204
0
LWPOLYLINE
5
198
100
AcDbEntity
8
0
100
AcDbPolyline
90
8
70
1
43
0.0
10
213.98482766947711
20
-18.911003236245936
10
206.68482766947707
20
-18.911003236245918
42
-0.41421356237309653
10
204.9348276694771
20
-17.161003236245939
10
204.9348276694771
20
-9.8610032362458711
42
-0.41421356237309509
10
206.6848276694771
20
-8.1110032362458551
10
213.98482766947711
20
-8.1110032362458639
42
-0.41421356237309509
10
215.73482766947711
20
-9.8610032362458711
10
215.73482766947708
20
-17.161003236245918
42
-0.41421356237309204
0
LWPOLYLINE
5
199
100
AcDbEntity
8
0
100
AcDbPolyline
90
8
70
1
43
0.0
10
228.98482766947711
20
-18.911003236245936
10
221.68482766947707
20
-18.911003236245918
42
-0.41421356237309653
10
219.9348276694771
20
-17.161003236245939
10
219.9348276694771
20
-9.8610032362458711
42
-0.41421356237309509
10
221.6848276694771
20
-8.1110032362458551
10
228.98482766947711
20
-8.1110032362458639
42
-0.41421356237309509
10
230.73482766947711
20
-9.8610032362458711
10
230.73482766947708
20
-17.161003236245918
42
-0.41421356237309204
0
LWPOLYLINE
5
200
100
AcDbEntity
8
0
100
AcDbPolyline
90
8
70
1
43
0.0
10
243.98482766947711
20
-18.911003236245936
10
236.68482766947707
20
-18.911003236245918
42
-0.41421356237309653
10
234.9348276694771
20
-17.161003236245939
10
234.9348276694771
20
-9.8610032362458711
42
-0.41421356237309509
10
236.6848276694771
20
-8.1110032362458551
10
243.98482766947711
20
-8.1110032362458639
42
-0.41421356237309509
10
245.73482766947711
20
-9.8610032362458711
10
245.73482766947708
20
-17.161003236245918
42
-0.41421356237309204
0
LWPOLYLINE
5
201
100
AcDbEntity
8
0
100
AcDbPolyline
90
8
70
1
43
0.0
10
18.984827669477145
20
-33.911003236245932
10
11.68482766947713
20
-33.911003236245932
42
-0.41421356237309653
10
9.9348276694771407
20
-32.161003236245939
10
9.9348276694771229
20
-24.861003236245871
42
-0.41421356237309509
10
11.684827669477137
20
-23.111003236245857
10
18.984827669477141
20
-23.111003236245867
42
-0.41421356237309509
10
20.734827669477145
20
-24.861003236245871
10
20.734827669477134
20
-32.161003236245918
42
-0.41421356237309653
0
LWPOLYLINE
5
202
100
AcDbEntity
8
0
100
AcDbPolyline
90
8
70
1
43
0.0
10
33.984827669477141
20
-33.911003236245932
10
26.684827669477123
20
-33.911003236245932
42
-0.41421356237309653
10
24.934827669477137
20
-32.161003236245939
10
24.934827669477116
20
-24.861003236245871
42
-0.41421356237309509
10
26.684827669477134
20
-23.111003236245857
10
33.984827669477141
20
-23.111003236245864
42
-0.41421356237309509
10
35.734827669477141
20
-24.861003236245871
10
35.734827669477134
20
-32.161003236245918
42
-0.41421356237309653
0
LWPOLYLINE
5
203
100
AcDbEntity
8
0
100
AcDbPolyline
90
8
70
1
43
0.0
10
48.984827669477141
20
-33.911003236245932
10
41.684827669477123
20
-33.911003236245932
42
-0.41421356237309653
10
39.934827669477137
20
-32.161003236245939
10
39.934827669477116
20
-24.861003236245871
42
-0.41421356237309509
10
41.68482766947713
20
-23.111003236245857
10
48.984827669477141
20
-23.111003236245864
42
-0.41421356237309509
10
50.734827669477141
20
-24.861003236245871
10
50.734827669477127
20
-32.161003236245918
42
-0.41421356237309653
0
LWPOLYLINE
5
204
100
AcDbEntity
8
0
100
AcDbPolyline
90
8
70
1
43
0.0
10
63.984827669477141
20
-33.911003236245932
10
56.684827669477116
20
-33.911003236245932
42
-0.41421356237309653
10
54.93482766947713
20
-32.161003236245939
10
54.934827669477116
20
-24.861003236245871
42
-0.41421356237309509
10
56.68482766947713
20
-23.111003236245857
10
63.984827669477141
20
-23.111003236245871
42
-0.41421356237309509
10
65.734827669477141
20
-24.861003236245871
10
65.734827669477127
20
-32.161003236245918
42
-0.41421356237309653
0
LWPOLYLINE
5
205
100
AcDbEntity
8
0
100
AcDbPolyline
90
8
70
1
43
0.0
10
78.984827669477141
20
-33.911003236245932
10
71.684827669477116
20
-33.911003236245932
42
-0.41421356237309653
10
69.93482766947713
20
-32.161003236245939
10
69.934827669477116
20
-24.861003236245871
42
-0.41421356237309509
10
71.68482766947713
20
-23.111003236245857
10
78.984827669477141
20
-23.111003236245882
42
-0.41421356237309509
10
80.734827669477127
20
-24.861003236245871
10
80.734827669477127
20
-32.161003236245918
42
-0.41421356237309653
0
LWPOLYLINE
5
206
100
AcDbEntity
8
0
100
AcDbPolyline
90
8
70
1
43
0.0
10
93.984827669477141
20
-33.911003236245932
10
86.684827669477116
20
-33.911003236245932
42
-0.41421356237309653
10
84.93482766947713
20
-32.161003236245939
10
84.934827669477102
20
-24.861003236245871
42
-0.41421356237309509
10
86.68482766947713
20
-23.111003236245857
10
93.984827669477141
20
-23.111003236245882
42
-0.41421356237309509
10
95.734827669477127
20
-24.861003236245871
10
95.734827669477127
20
-32.161003236245918
42
-0.41421356237309509
0
LWPOLYLINE
5
207
100
AcDbEntity
8
0
100
AcDbPolyline
90
8
70
1
43
0.0
10
108.98482766947711
20
-33.911003236245932
10
101.68482766947712
20
-33.911003236245932
42
-0.41421356237309653
10
99.93482766947713
20
-32.161003236245939
10
99.934827669477102
20
-24.861003236245871
42
-0.41421356237309509
10
101.68482766947712
20
-23.111003236245857
10
108.98482766947711
20
-23.111003236245864
42
-0.41421356237309509
10
110.73482766947713
20
-24.861003236245871
10
110.73482766947713
20
-32.161003236245918
42
-0.41421356237309803
0
LWPOLYLINE
5
208
100
AcDbEntity
8
0
100
AcDbPolyline
90
8
70
1
43
0.0
10
123.98482766947711
20
-33.911003236245932
10
116.68482766947712
20
-33.911003236245932
42
-0.41421356237309653
10
114.93482766947713
20
-32.161003236245939
10
114.9348276694771
20
-24.861003236245871
42
-0.41421356237309509
10
116.68482766947712
20
-23.111003236245857
10
123.98482766947711
20
-23.111003236245864
42
-0.41421356237309509
10
125.73482766947713
20
-24.861003236245871
10
125.73482766947713
20
-32.161003236245918
42
-0.41421356237309803
0
LWPOLYLINE
5
209
100
AcDbEntity
8
0
100
AcDbPolyline
90
8
70
1
43
0.0
10
138.98482766947711
20
-33.911003236245932
10
131.6848276694771
20
-33.911003236245932
42
-0.41421356237309653
10
129.93482766947713
20
-32.161003236245939
10
129.9348276694771
20
-24.861003236245871
42
-0.41421356237309509
10
131.6848276694771
20
-23.111003236245857
10
138.98482766947711
20
-23.111003236245864
42
-0.41421356237309509
10
140.73482766947711
20
-24.861003236245871
10
140.73482766947711
20
-32.161003236245918
42
-0.41421356237309803
0
LWPOLYLINE
5
210
100
AcDbEntity
8
0
100
AcDbPolyline
90
8
70
1
43
0.0
10
153.98482766947711
20
-33.911003236245932
10
146.6848276694771
20
-33.911003236245932
42
-0.41421356237309653
10
144.93482766947713
20
-32.161003236245939
10
144.9348276694771
20
-24.861003236245871
42
-0.41421356237309509
10
146.6848276694771
20
-23.111003236245857
10
153.98482766947711
20
-23.111003236245864
42
-0.41421356237309509
10
155.73482766947711
20
-24.861003236245871
10
155.73482766947711
20
-32.161003236245918
42
-0.41421356237309803
0
LWPOLYLINE
5
211
100
AcDbEntity
8
0
100
AcDbPolyline
90
8
70
1
43
0.0
10
168.98482766947711
20
-33.911003236245932
10
161.6848276694771
20
-33.911003236245932
42
-0.41421356237309653
10
159.93482766947713
20
-32.161003236245939
10
159.9348276694771
20
-24.861003236245871
42
-0.41421356237309509
10
161.6848276694771
20
-23.111003236245857
10
168.98482766947711
20
-23.111003236245864
42
-0.41421356237309509
10
170.73482766947711
20
-24.861003236245871
10
170.73482766947711
20
-32.161003236245918
42
-0.41421356237309803
0
LWPOLYLINE
5
212
100
AcDbEntity
8
0
100
AcDbPolyline
90
8
70
1
43
0.0
10
183.98482766947711
20
-33.911003236245932
10
176.68482766947707
20
-33.911003236245918
42
-0.41421356237309653
10
174.9348276694771
20
-32.161003236245939
10
174.9348276694771
20
-24.861003236245871
42
-0.41421356237309509
10
176.6848276694771
20
-23.111003236245857
10
183.98482766947711
20
-23.111003236245864
42
-0.41421356237309509
10
185.73482766947711
20
-24.861003236245871
10
185.73482766947708
20
-32.161003236245918
42
-0.41421356237309204
0
LWPOLYLINE
5
213
100
AcDbEntity
8
0
100
AcDbPolyline
90
8
70
1
43
0.0
10
198.98482766947711
20
-33.911003236245932
10
191.68482766947707
20
-33.911003236245918
42
-0.41421356237309653
10
189.9348276694771
20
-32.161003236245939
10
189.9348276694771
20
-24.861003236245871
42
-0.41421356237309509
10
191.6848276694771
20
-23.111003236245857
10
198.98482766947711
20
-23.111003236245864
42
-0.41421356237309509
10
200.73482766947711
20
-24.861003236245871
10
200.73482766947708
20
-32.161003236245918
42
-0.41421356237309204
0
LWPOLYLINE
5
214
100
AcDbEntity
8
0
100
AcDbPolyline
90
8
70
1
43
0.0
10
213.98482766947711
20
-33.911003236245932
10
206.68482766947707
20
-33.911003236245918
42
-0.41421356237309653
10
204.9348276694771
20
-32.161003236245939
10
204.9348276694771
20
-24.861003236245871
42
-0.41421356237309509
10
206.6848276694771
20
-23.111003236245857
10
213.98482766947711
20
-23.111003236245864
42
-0.41421356237309509
10
215.73482766947711
20
-24.861003236245871
10
215.73482766947708
20
-32.161003236245918
42
-0.41421356237309204
0
LWPOLYLINE
5
215
100
AcDbEntity
8
0
100
AcDbPolyline
90
8
70
1
43
0.0
10
228.98482766947711
20
-33.911003236245932
10
221.68482766947707
20
-33.911003236245918
42
-0.41421356237309653
10
219.9348276694771
20
-32.161003236245939
10
219.9348276694771
20
-24.861003236245871
42
-0.41421356237309509
10
221.6848276694771
20
-23.111003236245857
10
228.98482766947711
20
-23.111003236245864
42
-0.41421356237309509
10
230.73482766947711
20
-24.861003236245871
10
230.73482766947708
20
-32.161003236245918
42
-0.41421356237309204
0
LWPOLYLINE
5
216
100
AcDbEntity
8
0
100
AcDbPolyline
90
8
70
1
43
0.0
10
243.98482766947711
20
-33.911003236245932
10
236.68482766947707
20
-33.911003236245918
42
-0.41421356237309653
10
234.9348276694771
20
-32.161003236245939
10
234.9348276694771
20
-24.861003236245871
42
-0.41421356237309509
10
236.6848276694771
20
-23.111003236245857
10
243.98482766947711
20
-23.111003236245864
42
-0.41421356237309509
10
245.73482766947711
20
-24.861003236245871
10
245.73482766947708
20
-32.161003236245918
42
-0.41421356237309204
0
LWPOLYLINE
5
217
100
AcDbEntity
8
0
100
AcDbPolyline
90
8
70
1
43
0.0
10
18.984827669477145
20
-48.911003236245932
10
11.68482766947713
20
-48.911003236245932
42
-0.41421356237309653
10
9.9348276694771407
20
-47.161003236245939
10
9.9348276694771229
20
-39.861003236245871
42
-0.41421356237309509
10
11.684827669477137
20
-38.111003236245857
10
18.984827669477141
20
-38.111003236245871
42
-0.41421356237309509
10
20.734827669477145
20
-39.861003236245871
10
20.734827669477134
20
-47.161003236245918
42
-0.41421356237309653
0
LWPOLYLINE
5
218
100
AcDbEntity
8
0
100
AcDbPolyline
90
8
70
1
43
0.0
10
33.984827669477141
20
-48.911003236245932
10
26.684827669477123
20
-48.911003236245932
42
-0.41421356237309653
10
24.934827669477137
20
-47.161003236245939
10
24.934827669477116
20
-39.861003236245871
42
-0.41421356237309509
10
26.684827669477134
20
-38.111003236245857
10
33.984827669477141
20
-38.111003236245864
42
-0.41421356237309509
10
35.734827669477141
20
-39.861003236245871
10
35.734827669477134
20
-47.161003236245918
42
-0.41421356237309653
0
LWPOLYLINE
5
219
100
AcDbEntity
8
0
100
AcDbPolyline
90
8
70
1
43
0.0
10
48.984827669477141
20
-48.911003236245932
10
41.684827669477123
20
-48.911003236245932
42
-0.41421356237309653
10
39.934827669477137
20
-47.161003236245939
10
39.934827669477116
20
-39.861003236245871
42
-0.41421356237309509
10
41.68482766947713
20
-38.111003236245857
10
48.984827669477141
20
-38.111003236245864
42
-0.41421356237309509
10
50.734827669477141
20
-39.861003236245871
10
50.734827669477127
20
-47.161003236245918
42
-0.41421356237309653
0
LWPOLYLINE
5
220
100
AcDbEntity
8
0
100
AcDbPolyline
90
8
70
1
43
0.0
10
63.984827669477141
20
-48.911003236245932
10
56.684827669477116
20
-48.911003236245932
42
-0.41421356237309653
10
54.93482766947713
20
-47.161003236245939
10
54.934827669477116
20
-39.861003236245871
42
-0.41421356237309509
10
56.68482766947713
20
-38.111003236245857
10
63.984827669477141
20
-38.111003236245871
42
-0.41421356237309509
10
65.734827669477141
20
-39.861003236245871
10
65.734827669477127
20
-47.161003236245918
42
-0.41421356237309653
0
LWPOLYLINE
5
221
100
AcDbEntity
8
0
100
AcDbPolyline
90
8
70
1
43
0.0
10
78.984827669477141
20
-48.911003236245932
10
71.684827669477116
20
-48.911003236245932
42
-0.41421356237309653
10
69.93482766947713
20
-47.161003236245939
10
69.934827669477116
20
-39.861003236245871
42
-0.41421356237309509
10
71.68482766947713
20
-38.111003236245857
10
78.984827669477141
20
-38.111003236245878
42
-0.41421356237309509
10
80.734827669477127
20
-39.861003236245871
10
80.734827669477127
20
-47.161003236245918
42
-0.41421356237309653
0
LWPOLYLINE
5
222
100
AcDbEntity
8
0
100
AcDbPolyline
90
8
70
1
43
0.0
10
93.984827669477141
20
-48.911003236245932
10
86.684827669477116
20
-48.911003236245932
42
-0.41421356237309653
10
84.93482766947713
20
-47.161003236245939
10
84.934827669477102
20
-39.861003236245871
42
-0.41421356237309509
10
86.68482766947713
20
-38.111003236245857
10
93.984827669477141
20
-38.111003236245878
42
-0.41421356237309509
10
95.734827669477127
20
-39.861003236245871
10
95.734827669477127
20
-47.161003236245918
42
-0.41421356237309509
0
LWPOLYLINE
5
223
100
AcDbEntity
8
0
100
AcDbPolyline
90
8
70
1
43
0.0
10
108.98482766947711
20
-48.911003236245932
10
101.68482766947712
20
-48.911003236245932
42
-0.41421356237309653
10
99.93482766947713
20
-47.161003236245939
10
99.934827669477102
20
-39.861003236245871
42
-0.41421356237309509
10
101.68482766947712
20
-38.111003236245857
10
108.98482766947711
20
-38.111003236245864
42
-0.41421356237309509
10
110.73482766947713
20
-39.861003236245871
10
110.73482766947713
20
-47.161003236245918
42
-0.41421356237309803
0
LWPOLYLINE
5
224
100
AcDbEntity
8
0
100
AcDbPolyline
90
8
70
1
43
0.0
10
123.98482766947711
20
-48.911003236245932
10
116.68482766947712
20
-48.911003236245932
42
-0.41421356237309653
10
114.93482766947713
20
-47.161003236245939
10
114.9348276694771
20
-39.861003236245871
42
-0.41421356237309509
10
116.68482766947712
20
-38.111003236245857
10
123.98482766947711
20
-38.111003236245864
42
-0.41421356237309509
10
125.73482766947713
20
-39.861003236245871
10
125.73482766947713
20
-47.161003236245918
42
-0.41421356237309803
0
LWPOLYLINE
5
225
100
AcDbEntity
8
0
100
AcDbPolyline
90
8
70
1
43
0.0
10
138.98482766947711
20
-48.911003236245932
10
131.6848276694771
20
-48.911003236245932
42
-0.41421356237309653
10
129.93482766947713
20
-47.161003236245939
10
129.9348276694771
20
-39.861003236245871
42
-0.41421356237309509
10
131.6848276694771
20
-38.111003236245857
10
138.98482766947711
20
-38.111003236245864
42
-0.41421356237309509
10
140.73482766947711
20
-39.861003236245871
10
140.73482766947711
20
-47.161003236245918
42
-0.41421356237309803
0
LWPOLYLINE
5
226
100
AcDbEntity
8
0
100
AcDbPolyline
90
8
70
1
43
0.0
10
153.98482766947711
20
-48.911003236245932
10
146.6848276694771
20
-48.911003236245932
42
-0.41421356237309653
10
144.93482766947713
20
-47.161003236245939
10
144.9348276694771
20
-39.861003236245871
42
-0.41421356237309509
10
146.6848276694771
20
-38.111003236245857
10
153.98482766947711
20
-38.111003236245864
42
-0.41421356237309509
10
155.73482766947711
20
-39.861003236245871
10
155.73482766947711
20
-47.161003236245918
42
-0.41421356237309803
0
LWPOLYLINE
5
227
100
AcDbEntity
8
0
100
AcDbPolyline
90
8
70
1
43
0.0
10
168.98482766947711
20
-48.911003236245932
10
161.6848276694771
20
-48.911003236245932
42
-0.41421356237309653
10
159.93482766947713
20
-47.161003236245939
10
159.9348276694771
20
-39.861003236245871
42
-0.41421356237309509
10
161.6848276694771
20
-38.111003236245857
10
168.98482766947711
20
-38.111003236245864
42
-0.41421356237309509
10
170.73482766947711
20
-39.861003236245871
10
170.73482766947711
20
-47.161003236245918
42
-0.41421356237309803
0
LWPOLYLINE
5
228
100
AcDbEntity
8
0
100
AcDbPolyline
90
8
70
1
43
0.0
10
183.98482766947711
20
-48.911003236245932
10
176.68482766947707
20
-48.911003236245918
42
-0.41421356237309653
10
174.9348276694771
20
-47.161003236245939
10
174.9348276694771
20
-39.861003236245871
42
-0.41421356237309509
10
176.6848276694771
20
-38.111003236245857
10
183.98482766947711
20
-38.111003236245864
42
-0.41421356237309509
10
185.73482766947711
20
-39.861003236245871
10
185.73482766947708
20
-47.161003236245918
42
-0.41421356237309204
0
LWPOLYLINE
5
229
100
AcDbEntity
8
0
100
AcDbPolyline
90
8
70
1
43
0.0
10
198.98482766947711
20
-48.911003236245932
10
191.68482766947707
20
-48.911003236245918
42
-0.41421356237309653
10
189.9348276694771
20
-47.161003236245939
10
189.9348276694771
20
-39.861003236245871
42
-0.41421356237309509
10
191.6848276694771
20
-38.111003236245857
10
198.98482766947711
20
-38.111003236245864
42
-0.41421356237309509
10
200.73482766947711
20
-39.861003236245871
10
200.73482766947708
20
-47.161003236245918
42
-0.41421356237309204
0
LWPOLYLINE
5
230
100
AcDbEntity
8
0
100
AcDbPolyline
90
8
70
1
43
0.0
10
213.98482766947711
20
-48.911003236245932
10
206.68482766947707
20
-48.911003236245918
42
-0.41421356237309653
10
204.9348276694771
20
-47.161003236245939
10
204.9348276694771
20
-39.861003236245871
42
-0.41421356237309509
10
206.6848276694771
20
-38.111003236245857
10
213.98482766947711
20
-38.111003236245864
42
-0.41421356237309509
10
215.73482766947711
20
-39.861003236245871
10
215.73482766947708
20
-47.161003236245918
42
-0.41421356237309204
0
LWPOLYLINE
5
231
100
AcDbEntity
8
0
100
AcDbPolyline
90
8
70
1
43
0.0
10
228.98482766947711
20
-48.911003236245932
10
221.68482766947707
20
-48.911003236245918
42
-0.41421356237309653
10
219.9348276694771
20
-47.161003236245939
10
219.9348276694771
20
-39.861003236245871
42
-0.41421356237309509
10
221.6848276694771
20
-38.111003236245857
10
228.98482766947711
20
-38.111003236245864
42
-0.41421356237309509
10
230.73482766947711
20
-39.861003236245871
10
230.73482766947708
20
-47.161003236245918
42
-0.41421356237309204
0
LWPOLYLINE
5
232
100
AcDbEntity
8
0
100
AcDbPolyline
90
8
70
1
43
0.0
10
243.98482766947711
20
-48.911003236245932
10
236.68482766947707
20
-48.911003236245918
42
-0.41421356237309653
10
234.9348276694771
20
-47.161003236245939
10
234.9348276694771
20
-39.861003236245871
42
-0.41421356237309509
10
236.6848276694771
20
-38.111003236245857
10
243.98482766947711
20
-38.111003236245864
42
-0.41421356237309509
10
245.73482766947711
20
-39.861003236245871
10
245.73482766947708
20
-47.161003236245918
42
-0.41421356237309204
0
LWPOLYLINE
5
233
100
AcDbEntity
8
0
100
AcDbPolyline
90
8
70
1
43
0.0
10
18.984827669477145
20
-63.911003236245932
10
11.68482766947713
20
-63.911003236245932
42
-0.41421356237309653
10
9.9348276694771407
20
-62.161003236245939
10
9.9348276694771229
20
-54.861003236245871
42
-0.41421356237309509
10
11.684827669477137
20
-53.111003236245857
10
18.984827669477141
20
-53.111003236245864
42
-0.41421356237309509
10
20.734827669477145
20
-54.861003236245871
10
20.734827669477134
20
-62.161003236245918
42
-0.41421356237309653
0
LWPOLYLINE
5
234
100
AcDbEntity
8
0
100
AcDbPolyline
90
8
70
1
43
0.0
10
33.984827669477141
20
-63.911003236245932
10
26.684827669477123
20
-63.911003236245932
42
-0.41421356237309653
10
24.934827669477137
20
-62.161003236245939
10
24.934827669477116
20
-54.861003236245871
42
-0.41421356237309509
10
26.684827669477134
20
-53.111003236245857
10
33.984827669477141
20
-53.111003236245864
42
-0.41421356237309509
10
35.734827669477141
20
-54.861003236245871
10
35.734827669477134
20
-62.161003236245918
42
-0.41421356237309653
0
LWPOLYLINE
5
235
100
AcDbEntity
8
0
100
AcDbPolyline
90
8
70
1
43
0.0
10
48.984827669477141
20
-63.911003236245932
10
41.684827669477123
20
-63.911003236245932
42
-0.41421356237309653
10
39.934827669477137
20
-62.161003236245939
10
39.934827669477116
20
-54.861003236245871
42
-0.41421356237309509
10
41.68482766947713
20
-53.111003236245857
10
48.984827669477141
20
-53.111003236245864
42
-0.41421356237309509
10
50.734827669477141
20
-54.861003236245871
10
50.734827669477127
20
-62.161003236245918
42
-0.41421356237309653
0
LWPOLYLINE
5
236
100
AcDbEntity
8
0
100
AcDbPolyline
90
8
70
1
43
0.0
10
63.984827669477141
20
-63.911003236245932
10
56.684827669477116
20
-63.911003236245932
42
-0.41421356237309653
10
54.93482766947713
20
-62.161003236245939
10
54.934827669477116
20
-54.861003236245871
42
-0.41421356237309509
10
56.68482766947713
20
-53.111003236245857
10
63.984827669477141
20
-53.111003236245871
42
-0.41421356237309509
10
65.734827669477141
20
-54.861003236245871
10
65.734827669477127
20
-62.161003236245918
42
-0.41421356237309653
0
LWPOLYLINE
5
237
100
AcDbEntity
8
0
100
AcDbPolyline
90
8
70
1
43
0.0
10
78.984827669477141
20
-63.911003236245932
10
71.684827669477116
20
-63.911003236245932
42
-0.41421356237309653
10
69.93482766947713
20
-62.161003236245939
10
69.934827669477116
20
-54.861003236245871
42
-0.41421356237309509
10
71.68482766947713
20
-53.111003236245857
10
78.984827669477141
20
-53.111003236245878
42
-0.41421356237309509
10
80.734827669477127
20
-54.861003236245871
10
80.734827669477127
20
-62.161003236245918
42
-0.41421356237309653
0
LWPOLYLINE
5
238
100
AcDbEntity
8
0
100
AcDbPolyline
90
8
70
1
43
0.0
10
93.984827669477141
20
-63.911003236245932
10
86.684827669477116
20
-63.911003236245932
42
-0.41421356237309653
10
84.93482766947713
20
-62.161003236245939
10
84.934827669477102
20
-54.861003236245871
42
-0.41421356237309509
10
86.68482766947713
20
-53.111003236245857
10
93.984827669477141
20
-53.111003236245878
42
-0.41421356237309509
10
95.734827669477127
20
-54.861003236245871
10
95.734827669477127
20
-62.161003236245918
42
-0.41421356237309509
0
LWPOLYLINE
5
239
100
AcDbEntity
8
0
100
AcDbPolyline
90
8
70
1
43
0.0
10
108.98482766947711
20
-63.911003236245932
10
101.68482766947712
20
-63.911003236245932
42
-0.41421356237309653
10
99.93482766947713
20
-62.161003236245939
10
99.934827669477102
20
-54.861003236245871
42
-0.41421356237309509
10
101.68482766947712
20
-53.111003236245857
10
108.98482766947711
20
-53.111003236245864
42
-0.41421356237309509
10
110.73482766947713
20
-54.861003236245871
10
110.73482766947713
20
-62.161003236245918
42
-0.41421356237309803
0
LWPOLYLINE
5
240
100
AcDbEntity
8
0
100
AcDbPolyline
90
8
70
1
43
0.0
10
123.98482766947711
20
-63.911003236245932
10
116.68482766947712
20
-63.911003236245932
42
-0.41421356237309653
10
114.93482766947713
20
-62.161003236245939
10
114.9348276694771
20
-54.861003236245871
42
-0.41421356237309509
10
116.68482766947712
20
-53.111003236245857
10
123.98482766947711
20
-53.111003236245864
42
-0.41421356237309509
10
125.73482766947713
20
-54.861003236245871
10
125.73482766947713
20
-62.161003236245918
42
-0.41421356237309803
0
LWPOLYLINE
5
241
100
AcDbEntity
8
0
100
AcDbPolyline
90
8
70
1
43
0.0
10
138.98482766947711
20
-63.911003236245932
10
131.6848276694771
20
-63.911003236245932
42
-0.41421356237309653
10
129.93482766947713
20
-62.161003236245939
10
129.9348276694771
20
-54.861003236245871
42
-0.41421356237309509
10
131.6848276694771
20
-53.111003236245857
10
138.98482766947711
20
-53.111003236245864
42
-0.41421356237309509
10
140.73482766947711
20
-54.861003236245871
10
140.73482766947711
20
-62.161003236245918
42
-0.41421356237309803
0
LWPOLYLINE
5
242
100
AcDbEntity
8
0
100
AcDbPolyline
90
8
70
1
43
0.0
10
153.98482766947711
20
-63.911003236245932
10
146.6848276694771
20
-63.911003236245932
42
-0.41421356237309653
10
144.93482766947713
20
-62.161003236245939
10
144.9348276694771
20
-54.861003236245871
42
-0.41421356237309509
10
146.6848276694771
20
-53.111003236245857
10
153.98482766947711
20
-53.111003236245864
42
-0.41421356237309509
10
155.73482766947711
20
-54.861003236245871
10
155.73482766947711
20
-62.161003236245918
42
-0.41421356237309803
0
LWPOLYLINE
5
243
100
AcDbEntity
8
0
100
AcDbPolyline
90
8
70
1
43
0.0
10
168.98482766947711
20
-63.911003236245932
10
161.6848276694771
20
-63.911003236245932
42
-0.41421356237309653
10
159.93482766947713
20
-62.161003236245939
10
159.9348276694771
20
-54.861003236245871
42
-0.41421356237309509
10
161.6848276694771
20
-53.111003236245857
10
168.98482766947711
20
-53.111003236245864
42
-0.41421356237309509
10
170.73482766947711
20
-54.861003236245871
10
170.73482766947711
20
-62.161003236245918
42
-0.41421356237309803
0
LWPOLYLINE
5
244
100
AcDbEntity
8
0
100
AcDbPolyline
90
8
70
1
43
0.0
10
183.98482766947711
20
-63.911003236245932
10
176.68482766947707
20
-63.911003236245918
42
-0.41421356237309653
10
174.9348276694771
20
-62.161003236245939
10
174.9348276694771
20
-54.861003236245871
42
-0.41421356237309509
10
176.6848276694771
20
-53.111003236245857
10
183.98482766947711
20
-53.111003236245864
42
-0.41421356237309509
10
185.73482766947711
20
-54.861003236245871
10
185.73482766947708
20
-62.161003236245918
42
-0.41421356237309204
0
LWPOLYLINE
5
245
100
AcDbEntity
8
0
100
AcDbPolyline
90
8
70
1
43
0.0
10
198.98482766947711
20
-63.911003236245932
10
191.68482766947707
20
-63.911003236245918
42
-0.41421356237309653
10
189.9348276694771
20
-62.161003236245939
10
189.9348276694771
20
-54.861003236245871
42
-0.41421356237309509
10
191.6848276694771
20
-53.111003236245857
10
198.98482766947711
20
-53.111003236245864
42
-0.41421356237309509
10
200.73482766947711
20
-54.861003236245871
10
200.73482766947708
20
-62.161003236245918
42
-0.41421356237309204
0
LWPOLYLINE
5
246
100
AcDbEntity
8
0
100
AcDbPolyline
90
8
70
1
43
0.0
10
213.98482766947711
20
-63.911003236245932
10
206.68482766947707
20
-63.911003236245918
42
-0.41421356237309653
10
204.9348276694771
20
-62.161003236245939
10
204.9348276694771
20
-54.861003236245871
42
-0.41421356237309509
10
206.6848276694771
20
-53.111003236245857
10
213.98482766947711
20
-53.111003236245864
42
-0.41421356237309509
10
215.73482766947711
20
-54.861003236245871
10
215.73482766947708
20
-62.161003236245918
42
-0.41421356237309204
0
LWPOLYLINE
5
247
100
AcDbEntity
8
0
100
AcDbPolyline
90
8
70
1
43
0.0
10
228.98482766947711
20
-63.911003236245932
10
221.68482766947707
20
-63.911003236245918
42
-0.41421356237309653
10
219.9348276694771
20
-62.161003236245939
10
219.9348276694771
20
-54.861003236245871
42
-0.41421356237309509
10
221.6848276694771
20
-53.111003236245857
10
228.98482766947711
20
-53.111003236245864
42
-0.41421356237309509
10
230.73482766947711
20
-54.861003236245871
10
230.73482766947708
20
-62.161003236245918
42
-0.41421356237309204
0
LWPOLYLINE
5
248
100
AcDbEntity
8
0
100
AcDbPolyline
90
8
70
1
43
0.0
10
243.98482766947711
20
-63.911003236245932
10
236.68482766947707
20
-63.911003236245918
42
-0.41421356237309653
10
234.9348276694771
20
-62.161003236245939
10
234.9348276694771
20
-54.861003236245871
42
-0.41421356237309509
10
236.6848276694771
20
-53.111003236245857
10
243.98482766947711
20
-53.111003236245864
42
-0.41421356237309509
10
245.73482766947711
20
-54.861003236245871
10
245.73482766947708
20
-62.161003236245918
42
-0.41421356237309204
0
LWPOLYLINE
5
249
100
AcDbEntity
8
0
100
AcDbPolyline
90
8
70
1
43
0.0
10
18.984827669477145
20
-78.911003236245932
10
11.68482766947713
20
-78.911003236245932
42
-0.41421356237309653
10
9.9348276694771407
20
-77.161003236245932
10
9.9348276694771229
20
-69.861003236245864
42
-0.41421356237309509
10
11.684827669477137
20
-68.11100323624585
10
18.984827669477141
20
-68.111003236245864
42
-0.41421356237309509
10
20.734827669477145
20
-69.861003236245864
10
20.734827669477134
20
-77.161003236245918
42
-0.41421356237309653
0
LWPOLYLINE
5
250
100
AcDbEntity
8
0
100
AcDbPolyline
90
8
70
1
43
0.0
10
33.984827669477141
20
-78.911003236245932
10
26.684827669477123
20
-78.911003236245932
42
-0.41421356237309653
10
24.934827669477137
20
-77.161003236245932
10
24.934827669477116
20
-69.861003236245864
42
-0.41421356237309509
10
26.684827669477134
20
-68.11100323624585
10
33.984827669477141
20
-68.111003236245864
42
-0.41421356237309509
10
35.734827669477141
20
-69.861003236245864
10
35.734827669477134
20
-77.161003236245918
42
-0.41421356237309653
0
LWPOLYLINE
5
251
100
AcDbEntity
8
0
100
AcDbPolyline
90
8
70
1
43
0.0
10
48.984827669477141
20
-78.911003236245932
10
41.684827669477123
20
-78.911003236245932
42
-0.41421356237309653
10
39.934827669477137
20
-77.161003236245932
10
39.934827669477116
20
-69.861003236245864
42
-0.41421356237309509
10
41.68482766947713
20
-68.11100323624585
10
48.984827669477141
20
-68.111003236245864
42
-0.41421356237309509
10
50.734827669477141
20
-69.861003236245864
10
50.734827669477127
20
-77.161003236245918
42
-0.41421356237309653
0
LWPOLYLINE
5
252
100
AcDbEntity
8
0
100
AcDbPolyline
90
8
70
1
43
0.0
10
63.984827669477141
20
-78.911003236245932
10
56.684827669477116
20
-78.911003236245932
42
-0.41421356237309653
10
54.93482766947713
20
-77.161003236245932
10
54.934827669477116
20
-69.861003236245864
42
-0.41421356237309509
10
56.68482766947713
20
-68.11100323624585
10
63.984827669477141
20
-68.111003236245878
42
-0.41421356237309509
10
65.734827669477141
20
-69.861003236245864
10
65.734827669477127
20
-77.161003236245918
42
-0.41421356237309653
0
LWPOLYLINE
5
253
100
AcDbEntity
8
0
100
AcDbPolyline
90
8
70
1
43
0.0
10
78.984827669477141
20
-78.911003236245932
10
71.684827669477116
20
-78.911003236245932
42
-0.41421356237309653
10
69.93482766947713
20
-77.161003236245932
10
69.934827669477116
20
-69.861003236245864
42
-0.41421356237309509
10
71.68482766947713
20
-68.11100323624585
10
78.984827669477141
20
-68.111003236245878
42
-0.41421356237309509
10
80.734827669477127
20
-69.861003236245864
10
80.734827669477127
20
-77.161003236245918
42
-0.41421356237309653
0
LWPOLYLINE
5
254
100
AcDbEntity
8
0
100
AcDbPolyline
90
8
70
1
43
0.0
10
93.984827669477141
20
-78.911003236245932
10
86.684827669477116
20
-78.911003236245932
42
-0.41421356237309653
10
84.93482766947713
20
-77.161003236245932
10
84.934827669477102
20
-69.861003236245864
42
-0.41421356237309509
10
86.68482766947713
20
-68.11100323624585
10
93.984827669477141
20
-68.111003236245878
42
-0.41421356237309509
10
95.734827669477127
20
-69.861003236245864
10
95.734827669477127
20
-77.161003236245918
42
-0.41421356237309509
0
LWPOLYLINE
5
255
100
AcDbEntity
8
0
100
AcDbPolyline
90
8
70
1
43
0.0
10
108.98482766947711
20
-78.911003236245932
10
101.68482766947712
20
-78.911003236245932
42
-0.41421356237309653
10
99.93482766947713
20
-77.161003236245932
10
99.934827669477102
20
-69.861003236245864
42
-0.41421356237309509
10
101.68482766947712
20
-68.11100323624585
10
108.98482766947711
20
-68.111003236245864
42
-0.41421356237309509
10
110.73482766947713
20
-69.861003236245864
10
110.73482766947713
20
-77.161003236245918
42
-0.41421356237309803
0
LWPOLYLINE
5
256
100
AcDbEntity
8
0
100
AcDbPolyline
90
8
70
1
43
0.0
10
123.98482766947711
20
-78.911003236245932
10
116.68482766947712
20
-78.911003236245932
42
-0.41421356237309653
10
114.93482766947713
20
-77.161003236245932
10
114.9348276694771
20
-69.861003236245864
42
-0.41421356237309509
10
116.68482766947712
20
-68.11100323624585
10
123.98482766947711
20
-68.111003236245864
42
-0.41421356237309509
10
125.73482766947713
20
-69.861003236245864
10
125.73482766947713
20
-77.161003236245918
42
-0.41421356237309803
0
LWPOLYLINE
5
257
100
AcDbEntity
8
0
100
AcDbPolyline
90
8
70
1
43
0.0
10
138.98482766947711
20
-78.911003236245932
10
131.6848276694771
20
-78.911003236245932
42
-0.41421356237309653
10
129.93482766947713
20
-77.161003236245932
10
129.9348276694771
20
-69.861003236245864
42
-0.41421356237309509
10
131.6848276694771
20
-68.11100323624585
10
138.98482766947711
20
-68.111003236245864
42
-0.41421356237309509
10
140.73482766947711
20
-69.861003236245864
10
140.73482766947711
20
-77.161003236245918
42
-0.41421356237309803
0
LWPOLYLINE
5
258
100
AcDbEntity
8
0
100
AcDbPolyline
90
8
70
1
43
0.0
10
153.98482766947711
20
-78.911003236245932
10
146.6848276694771
20
-78.911003236245932
42
-0.41421356237309653
10
144.93482766947713
20
-77.161003236245932
10
144.9348276694771
20
-69.861003236245864
42
-0.41421356237309509
10
146.6848276694771
20
-68.11100323624585
10
153.98482766947711
20
-68.111003236245864
42
-0.41421356237309509
10
155.73482766947711
20
-69.861003236245864
10
155.73482766947711
20
-77.161003236245918
42
-0.41421356237309803
0
LWPOLYLINE
5
259
100
AcDbEntity
8
0
100
AcDbPolyline
90
8
70
1
43
0.0
10
168.98482766947711
20
-78.911003236245932
10
161.6848276694771
20
-78.911003236245932
42
-0.41421356237309653
10
159.93482766947713
20
-77.161003236245932
10
159.9348276694771
20
-69.861003236245864
42
-0.41421356237309509
10
161.6848276694771
20
-68.11100323624585
10
168.98482766947711
20
-68.111003236245864
42
-0.41421356237309509
10
170.73482766947711
20
-69.861003236245864
10
170.73482766947711
20
-77.161003236245918
42
-0.41421356237309803
0
LWPOLYLINE
5
260
100
AcDbEntity
8
0
100
AcDbPolyline
90
8
70
1
43
0.0
10
183.98482766947711
20
-78.911003236245932
10
176.68482766947707
20
-78.911003236245918
42
-0.41421356237309653
10
174.9348276694771
20
-77.161003236245932
10
174.9348276694771
20
-69.861003236245864
42
-0.41421356237309509
10
176.6848276694771
20
-68.11100323624585
10
183.98482766947711
20
-68.111003236245864
42
-0.41421356237309509
10
185.73482766947711
20
-69.861003236245864
10
185.73482766947708
20
-77.161003236245918
42
-0.41421356237309204
0
LWPOLYLINE
5
261
100
AcDbEntity
8
0
100
AcDbPolyline
90
8
70
1
43
0.0
10
198.98482766947711
20
-78.911003236245932
10
191.68482766947707
20
-78.911003236245918
42
-0.41421356237309653
10
189.9348276694771
20
-77.161003236245932
10
189.9348276694771
20
-69.861003236245864
42
-0.41421356237309509
10
191.6848276694771
20
-68.11100323624585
10
198.98482766947711
20
-68.111003236245864
42
-0.41421356237309509
10
200.73482766947711
20
-69.861003236245864
10
200.73482766947708
20
-77.161003236245918
42
-0.41421356237309204
0
LWPOLYLINE
5
262
100
AcDbEntity
8
0
100
AcDbPolyline
90
8
70
1
43
0.0
10
213.98482766947711
20
-78.911003236245932
10
206.68482766947707
20
-78.911003236245918
42
-0.41421356237309653
10
204.9348276694771
20
-77.161003236245932
10
204.9348276694771
20
-69.861003236245864
42
-0.41421356237309509
10
206.6848276694771
20
-68.11100323624585
10
213.98482766947711
20
-68.111003236245864
42
-0.41421356237309509
10
215.73482766947711
20
-69.861003236245864
10
215.73482766947708
20
-77.161003236245918
42
-0.41421356237309204
0
LWPOLYLINE
5
263
100
AcDbEntity
8
0
100
AcDbPolyline
90
8
70
1
43
0.0
10
228.98482766947711
20
-78.911003236245932
10
221.68482766947707
20
-78.911003236245918
42
-0.41421356237309653
10
219.9348276694771
20
-77.161003236245932
10
219.9348276694771
20
-69.861003236245864
42
-0.41421356237309509
10
221.6848276694771
20
-68.11100323624585
10
228.98482766947711
20
-68.111003236245864
42
-0.41421356237309509
10
230.73482766947711
20
-69.861003236245864
10
230.73482766947708
20
-77.161003236245918
42
-0.41421356237309204
0
LWPOLYLINE
5
264
100
AcDbEntity
8
0
100
AcDbPolyline
90
8
70
1
43
0.0
10
243.98482766947711
20
-78.911003236245932
10
236.68482766947707
20
-78.911003236245918
42
-0.41421356237309653
10
234.9348276694771
20
-77.161003236245932
10
234.9348276694771
20
-69.861003236245864
42
-0.41421356237309509
10
236.6848276694771
20
-68.11100323624585
10
243.98482766947711
20
-68.111003236245864
42
-0.41421356237309509
10
245.73482766947711
20
-69.861003236245864
10
245.73482766947708
20
-77.161003236245918
42
-0.41421356237309204
0
LWPOLYLINE
5
265
100
AcDbEntity
8
0
100
AcDbPolyline
90
8
70
1
43
0.0
10
18.984827669477145
20
-93.911003236245932
10
11.68482766947713
20
-93.911003236245932
42
-0.41421356237309509
10
9.9348276694771407
20
-92.161003236245946
10
9.93482766947713
20
-84.861003236245864
42
-0.41421356237309509
10
11.684827669477137
20
-83.111003236245864
10
18.984827669477141
20
-83.111003236245864
42
-0.41421356237309509
10
20.734827669477145
20
-84.861003236245864
10
20.734827669477127
20
-92.161003236245904
42
-0.41421356237309948
0
LWPOLYLINE
5
266
100
AcDbEntity
8
0
100
AcDbPolyline
90
8
70
1
43
0.0
10
33.984827669477141
20
-93.911003236245932
10
26.684827669477123
20
-93.911003236245932
42
-0.41421356237309509
10
24.934827669477137
20
-92.161003236245946
10
24.934827669477126
20
-84.861003236245864
42
-0.41421356237309509
10
26.684827669477134
20
-83.111003236245864
10
33.984827669477141
20
-83.111003236245864
42
-0.41421356237309509
10
35.734827669477141
20
-84.861003236245864
10
35.73482766947712
20
-92.161003236245904
42
-0.41421356237309948
0
LWPOLYLINE
5
267
100
AcDbEntity
8
0
100
AcDbPolyline
90
8
70
1
43
0.0
10
48.984827669477141
20
-93.911003236245932
10
41.684827669477123
20
-93.911003236245932
42
-0.41421356237309509
10
39.934827669477137
20
-92.161003236245946
10
39.93482766947713
20
-84.861003236245864
42
-0.41421356237309509
10
41.68482766947713
20
-83.111003236245864
10
48.984827669477141
20
-83.111003236245864
42
-0.41421356237309509
10
50.734827669477141
20
-84.861003236245864
10
50.73482766947712
20
-92.161003236245904
42
-0.41421356237309948
0
LWPOLYLINE
5
268
100
AcDbEntity
8
0
100
AcDbPolyline
90
8
70
1
43
0.0
10
63.984827669477141
20
-93.911003236245932
10
56.684827669477116
20
-93.911003236245932
42
-0.41421356237309509
10
54.93482766947713
20
-92.161003236245946
10
54.93482766947713
20
-84.861003236245864
42
-0.41421356237309509
10
56.68482766947713
20
-83.111003236245864
10
63.984827669477141
20
-83.111003236245864
42
-0.41421356237309509
10
65.734827669477141
20
-84.861003236245864
10
65.734827669477113
20
-92.161003236245904
42
-0.41421356237309948
0
LWPOLYLINE
5
269
100
AcDbEntity
8
0
100
AcDbPolyline
90
8
70
1
43
0.0
10
78.984827669477141
20
-93.911003236245932
10
71.684827669477116
20
-93.911003236245932
42
-0.41421356237309509
10
69.93482766947713
20
-92.161003236245946
10
69.93482766947713
20
-84.861003236245864
42
-0.41421356237309509
10
71.68482766947713
20
-83.111003236245864
10
78.984827669477141
20
-83.111003236245878
42
-0.41421356237309509
10
80.734827669477127
20
-84.861003236245864
10
80.734827669477127
20
-92.161003236245904
42
-0.41421356237309948
0
LWPOLYLINE
5
270
100
AcDbEntity
8
0
100
AcDbPolyline
90
8
70
1
43
0.0
10
93.984827669477141
20
-93.911003236245932
10
86.684827669477116
20
-93.911003236245932
42
-0.41421356237309509
10
84.93482766947713
20
-92.161003236245946
10
84.93482766947713
20
-84.861003236245864
42
-0.41421356237309509
10
86.68482766947713
20
-83.111003236245864
10
93.984827669477141
20
-83.111003236245878
42
-0.41421356237309509
10
95.734827669477127
20
-84.861003236245864
10
95.734827669477113
20
-92.161003236245904
42
-0.41421356237309803
0
LWPOLYLINE
5
271
100
AcDbEntity
8
0
100
AcDbPolyline
90
8
70
1
43
0.0
10
108.98482766947711
20
-93.911003236245932
10
101.68482766947712
20
-93.911003236245932
42
-0.41421356237309509
10
99.93482766947713
20
-92.161003236245946
10
99.934827669477102
20
-84.861003236245864
42
-0.41421356237309509
10
101.68482766947712
20
-83.111003236245864
10
108.98482766947711
20
-83.111003236245864
42
-0.41421356237309509
10
110.73482766947713
20
-84.861003236245864
10
110.73482766947711
20
-92.161003236245904
42
-0.41421356237310097
0
LWPOLYLINE
5
272
100
AcDbEntity
8
0
100
AcDbPolyline
90
8
70
1
43
0.0
10
123.98482766947711
20
-93.911003236245932
10
116.68482766947712
20
-93.911003236245932
42
-0.41421356237309509
10
114.93482766947713
20
-92.161003236245946
10
114.9348276694771
20
-84.861003236245864
42
-0.41421356237309509
10
116.68482766947712
20
-83.111003236245864
10
123.98482766947711
20
-83.111003236245864
42
-0.41421356237309509
10
125.73482766947713
20
-84.861003236245864
10
125.73482766947711
20
-92.161003236245904
42
-0.41421356237310097
0
LWPOLYLINE
5
273
100
AcDbEntity
8
0
100
AcDbPolyline
90
8
70
1
43
0.0
10
138.98482766947711
20
-93.911003236245932
10
131.6848276694771
20
-93.911003236245932
42
-0.41421356237309509
10
129.93482766947713
20
-92.161003236245946
10
129.9348276694771
20
-84.861003236245864
42
-0.41421356237309509
10
131.6848276694771
20
-83.111003236245864
10
138.98482766947711
20
-83.111003236245864
42
-0.41421356237309509
10
140.73482766947711
20
-84.861003236245864
10
140.73482766947711
20
-92.161003236245904
42
-0.41421356237310097
0
LWPOLYLINE
5
274
100
AcDbEntity
8
0
100
AcDbPolyline
90
8
70
1
43
0.0
10
153.98482766947711
20
-93.911003236245932
10
146.6848276694771
20
-93.911003236245932
42
-0.41421356237309509
10
144.93482766947713
20
-92.161003236245946
10
144.9348276694771
20
-84.861003236245864
42
-0.41421356237309509
10
146.6848276694771
20
-83.111003236245864
10
153.98482766947711
20
-83.111003236245864
42
-0.41421356237309509
10
155.73482766947711
20
-84.861003236245864
10
155.73482766947711
20
-92.161003236245904
42
-0.41421356237310097
0
LWPOLYLINE
5
275
100
AcDbEntity
8
0
100
AcDbPolyline
90
8
70
1
43
0.0
10
168.98482766947711
20
-93.911003236245932
10
161.6848276694771
20
-93.911003236245932
42
-0.41421356237309509
10
159.93482766947713
20
-92.161003236245946
10
159.9348276694771
20
-84.861003236245864
42
-0.41421356237309509
10
161.6848276694771
20
-83.111003236245864
10
168.98482766947711
20
-83.111003236245864
42
-0.41421356237309509
10
170.73482766947711
20
-84.861003236245864
10
170.73482766947711
20
-92.161003236245904
42
-0.41421356237310097
0
LWPOLYLINE
5
276
100
AcDbEntity
8
0
100
AcDbPolyline
90
8
70
1
43
0.0
10
183.98482766947711
20
-93.911003236245932
10
176.68482766947707
20
-93.911003236245918
42
-0.41421356237309509
10
174.9348276694771
20
-92.161003236245946
10
174.9348276694771
20
-84.861003236245864
42
-0.41421356237309509
10
176.6848276694771
20
-83.111003236245864
10
183.98482766947711
20
-83.111003236245864
42
-0.41421356237309509
10
185.73482766947711
20
-84.861003236245864
10
185.73482766947706
20
-92.161003236245904
42
-0.41421356237309509
0
LWPOLYLINE
5
277
100
AcDbEntity
8
0
100
AcDbPolyline
90
8
70
1
43
0.0
10
198.98482766947711
20
-93.911003236245932
10
191.68482766947707
20
-93.911003236245918
42
-0.41421356237309509
10
189.9348276694771
20
-92.161003236245946
10
189.9348276694771
20
-84.861003236245864
42
-0.41421356237309509
10
191.6848276694771
20
-83.111003236245864
10
198.98482766947711
20
-83.111003236245864
42
-0.41421356237309509
10
200.73482766947711
20
-84.861003236245864
10
200.73482766947706
20
-92.161003236245904
42
-0.41421356237309509
0
LWPOLYLINE
5
278
100
AcDbEntity
8
0
100
AcDbPolyline
90
8
70
1
43
0.0
10
213.98482766947711
20
-93.911003236245932
10
206.68482766947707
20
-93.911003236245918
42
-0.41421356237309509
10
204.9348276694771
20
-92.161003236245946
10
204.9348276694771
20
-84.861003236245864
42
-0.41421356237309509
10
206.6848276694771
20
-83.111003236245864
10
213.98482766947711
20
-83.111003236245864
42
-0.41421356237309509
10
215.73482766947711
20
-84.861003236245864
10
215.73482766947706
20
-92.161003236245904
42
-0.41421356237309509
0
LWPOLYLINE
5
279
100
AcDbEntity
8
0
100
AcDbPolyline
90
8
70
1
43
0.0
10
228.98482766947711
20
-93.911003236245932
10
221.68482766947707
20
-93.911003236245918
42
-0.41421356237309509
10
219.9348276694771
20
-92.161003236245946
10
219.9348276694771
20
-84.861003236245864
42
-0.41421356237309509
10
221.6848276694771
20
-83.111003236245864
10
228.98482766947711
20
-83.111003236245864
42
-0.41421356237309509
10
230.73482766947711
20
-84.861003236245864
10
230.73482766947706
20
-92.161003236245904
42
-0.41421356237309509
0
LWPOLYLINE
5
280
100
AcDbEntity
8
0
100
AcDbPolyline
90
8
70
1
43
0.0
10
243.98482766947711
20
-93.911003236245932
10
236.68482766947707
20
-93.911003236245918
42
-0.41421356237309509
10
234.9348276694771
20
-92.161003236245946
10
234.9348276694771
20
-84.861003236245864
42
-0.41421356237309509
10
236.6848276694771
20
-83.111003236245864
10
243.98482766947711
20
-83.111003236245864
42
-0.41421356237309509
10
245.73482766947711
20
-84.861003236245864
10
245.73482766947706
20
-92.161003236245904
42
-0.41421356237309509
0
LWPOLYLINE
5
281
100
AcDbEntity
8
0
100
AcDbPolyline
90
8
70
1
43
0.0
10
18.984827669477145
20
-108.91100323624593
10
11.68482766947713
20
-108.91100323624593
42
-0.41421356237309509
10
9.9348276694771407
20
-107.16100323624595
10
9.93482766947713
20
-99.861003236245864
42
-0.41421356237309509
10
11.684827669477137
20
-98.111003236245864
10
18.984827669477141
20
-98.111003236245864
42
-0.41421356237309509
10
20.734827669477145
20
-99.861003236245864
10
20.734827669477127
20
-107.1610032362459
42
-0.41421356237309948
0
LWPOLYLINE
5
282
100
AcDbEntity
8
0
100
AcDbPolyline
90
8
70
1
43
0.0
10
33.984827669477141
20
-108.91100323624593
10
26.684827669477123
20
-108.91100323624593
42
-0.41421356237309509
10
24.934827669477137
20
-107.16100323624595
10
24.934827669477126
20
-99.861003236245864
42
-0.41421356237309509
10
26.684827669477134
20
-98.111003236245864
10
33.984827669477141
20
-98.111003236245864
42
-0.41421356237309509
10
35.734827669477141
20
-99.861003236245864
10
35.73482766947712
20
-107.1610032362459
42
-0.41421356237309948
0
LWPOLYLINE
5
283
100
AcDbEntity
8
0
100
AcDbPolyline
90
8
70
1
43
0.0
10
48.984827669477141
20
-108.91100323624593
10
41.684827669477123
20
-108.91100323624593
42
-0.41421356237309509
10
39.934827669477137
20
-107.16100323624595
10
39.93482766947713
20
-99.861003236245864
42
-0.41421356237309509
10
41.68482766947713
20
-98.111003236245864
10
48.984827669477141
20
-98.111003236245864
42
-0.41421356237309509
10
50.734827669477141
20
-99.861003236245864
10
50.73482766947712
20
-107.1610032362459
42
-0.41421356237309948
0
LWPOLYLINE
5
284
100
AcDbEntity
8
0
100
AcDbPolyline
90
8
70
1
43
0.0
10
63.984827669477141
20
-108.91100323624593
10
56.684827669477116
20
-108.91100323624593
42
-0.41421356237309509
10
54.93482766947713
20
-107.16100323624595
10
54.93482766947713
20
-99.861003236245864
42
-0.41421356237309509
10
56.68482766947713
20
-98.111003236245864
10
63.984827669477141
20
-98.111003236245864
42
-0.41421356237309509
10
65.734827669477141
20
-99.861003236245864
10
65.734827669477113
20
-107.1610032362459
42
-0.41421356237309948
0
LWPOLYLINE
5
285
100
AcDbEntity
8
0
100
AcDbPolyline
90
8
70
1
43
0.0
10
78.984827669477141
20
-108.91100323624593
10
71.684827669477116
20
-108.91100323624593
42
-0.41421356237309509
10
69.93482766947713
20
-107.16100323624595
10
69.93482766947713
20
-99.861003236245864
42
-0.41421356237309509
10
71.68482766947713
20
-98.111003236245864
10
78.984827669477141
20
-98.111003236245878
42
-0.41421356237309509
10
80.734827669477127
20
-99.861003236245864
10
80.734827669477127
20
-107.1610032362459
42
-0.41421356237309948
0
LWPOLYLINE
5
286
100
AcDbEntity
8
0
100
AcDbPolyline
90
8
70
1
43
0.0
10
93.984827669477141
20
-108.91100323624593
10
86.684827669477116
20
-108.91100323624593
42
-0.41421356237309509
10
84.93482766947713
20
-107.16100323624595
10
84.93482766947713
20
-99.861003236245864
42
-0.41421356237309509
10
86.68482766947713
20
-98.111003236245864
10
93.984827669477141
20
-98.111003236245878
42
-0.41421356237309509
10
95.734827669477127
20
-99.861003236245864
10
95.734827669477113
20
-107.1610032362459
42
-0.41421356237309803
0
LWPOLYLINE
5
287
100
AcDbEntity
8
0
100
AcDbPolyline
90
8
70
1
43
0.0
10
108.98482766947711
20
-108.91100323624593
10
101.68482766947712
20
-108.91100323624593
42
-0.41421356237309509
10
99.93482766947713
20
-107.16100323624595
10
99.934827669477102
20
-99.861003236245864
42
-0.41421356237309509
10
101.68482766947712
20
-98.111003236245864
10
108.98482766947711
20
-98.111003236245864
42
-0.41421356237309509
10
110.73482766947713
20
-99.861003236245864
10
110.73482766947711
20
-107.1610032362459
42
-0.41421356237310097
0
LWPOLYLINE
5
288
100
AcDbEntity
8
0
100
AcDbPolyline
90
8
70
1
43
0.0
10
123.98482766947711
20
-108.91100323624593
10
116.68482766947712
20
-108.91100323624593
42
-0.41421356237309509
10
114.93482766947713
20
-107.16100323624595
10
114.9348276694771
20
-99.861003236245864
42
-0.41421356237309509
10
116.68482766947712
20
-98.111003236245864
10
123.98482766947711
20
-98.111003236245864
42
-0.41421356237309509
10
125.73482766947713
20
-99.861003236245864
10
125.73482766947711
20
-107.1610032362459
42
-0.41421356237310097
0
LWPOLYLINE
5
289
100
AcDbEntity
8
0
100
AcDbPolyline
90
8
70
1
43
0.0
10
138.98482766947711
20
-108.91100323624593
10
131.6848276694771
20
-108.91100323624593
42
-0.41421356237309509
10
129.93482766947713
20
-107.16100323624595
10
129.9348276694771
20
-99.861003236245864
42
-0.41421356237309509
10
131.6848276694771
20
-98.111003236245864
10
138.98482766947711
20
-98.111003236245864
42
-0.41421356237309509
10
140.73482766947711
20
-99.861003236245864
10
140.73482766947711
20
-107.1610032362459
42
-0.41421356237310097
0
LWPOLYLINE
5
290
100
AcDbEntity
8
0
100
AcDbPolyline
90
8
70
1
43
0.0
10
153.98482766947711
20
-108.91100323624593
10
146.6848276694771
20
-108.91100323624593
42
-0.41421356237309509
10
144.93482766947713
20
-107.16100323624595
10
144.9348276694771
20
-99.861003236245864
42
-0.41421356237309509
10
146.6848276694771
20
-98.111003236245864
10
153.98482766947711
20
-98.111003236245864
42
-0.41421356237309509
10
155.73482766947711
20
-99.861003236245864
10
155.73482766947711
20
-107.1610032362459
42
-0.41421356237310097
0
LWPOLYLINE
5
291
100
AcDbEntity
8
0
100
AcDbPolyline
90
8
70
1
43
0.0
10
168.98482766947711
20
-108.91100323624593
10
161.6848276694771
20
-108.91100323624593
42
-0.41421356237309509
10
159.93482766947713
20
-107.16100323624595
10
159.9348276694771
20
-99.861003236245864
42
-0.41421356237309509
10
161.6848276694771
20
-98.111003236245864
10
168.98482766947711
20
-98.111003236245864
42
-0.41421356237309509
10
170.73482766947711
20
-99.861003236245864
10
170.73482766947711
20
-107.1610032362459
42
-0.41421356237310097
0
LWPOLYLINE
5
292
100
AcDbEntity
8
0
100
AcDbPolyline
90
8
70
1
43
0.0
10
183.98482766947711
20
-108.91100323624593
10
176.68482766947707
20
-108.91100323624592
42
-0.41421356237309509
10
174.9348276694771
20
-107.16100323624595
10
174.9348276694771
20
-99.861003236245864
42
-0.41421356237309509
10
176.6848276694771
20
-98.111003236245864
10
183.98482766947711
20
-98.111003236245864
42
-0.41421356237309509
10
185.73482766947711
20
-99.861003236245864
10
185.73482766947706
20
-107.1610032362459
42
-0.41421356237309509
0
LWPOLYLINE
5
293
100
AcDbEntity
8
0
100
AcDbPolyline
90
8
70
1
43
0.0
10
198.98482766947711
20
-108.91100323624593
10
191.68482766947707
20
-108.91100323624592
42
-0.41421356237309509
10
189.9348276694771
20
-107.16100323624595
10
189.9348276694771
20
-99.861003236245864
42
-0.41421356237309509
10
191.6848276694771
20
-98.111003236245864
10
198.98482766947711
20
-98.111003236245864
42
-0.41421356237309509
10
200.73482766947711
20
-99.861003236245864
10
200.73482766947706
20
-107.1610032362459
42
-0.41421356237309509
0
LWPOLYLINE
5
294
100
AcDbEntity
8
0
100
AcDbPolyline
90
8
70
1
43
0.0
10
213.98482766947711
20
-108.91100323624593
10
206.68482766947707
20
-108.91100323624592
42
-0.41421356237309509
10
204.9348276694771
20
-107.16100323624595
10
204.9348276694771
20
-99.861003236245864
42
-0.41421356237309509
10
206.6848276694771
20
-98.111003236245864
10
213.98482766947711
20
-98.111003236245864
42
-0.41421356237309509
10
215.73482766947711
20
-99.861003236245864
10
215.73482766947706
20
-107.1610032362459
42
-0.41421356237309509
0
LWPOLYLINE
5
295
100
AcDbEntity
8
0
100
AcDbPolyline
90
8
70
1
43
0.0
10
228.98482766947711
20
-108.91100323624593
10
221.68482766947707
20
-108.91100323624592
42
-0.41421356237309509
10
219.9348276694771
20
-107.16100323624595
10
219.9348276694771
20
-99.861003236245864
42
-0.41421356237309509
10
221.6848276694771
20
-98.111003236245864
10
228.98482766947711
20
-98.111003236245864
42
-0.41421356237309509
10
230.73482766947711
20
-99.861003236245864
10
230.73482766947706
20
-107.1610032362459
42
-0.41421356237309509
0
LWPOLYLINE
5
296
100
AcDbEntity
8
0
100
AcDbPolyline
90
8
70
1
43
0.0
10
243.98482766947711
20
-108.91100323624593
10
236.68482766947707
20
-108.91100323624592
42
-0.41421356237309509
10
234.9348276694771
20
-107.16100323624595
10
234.9348276694771
20
-99.861003236245864
42
-0.41421356237309509
10
236.6848276694771
20
-98.111003236245864
10
243.98482766947711
20
-98.111003236245864
42
-0.41421356237309509
10
245.73482766947711
20
-99.861003236245864
10
245.73482766947706
20
-107.1610032362459
42
-0.41421356237309509
0
LWPOLYLINE
5
297
100
AcDbEntity
8
0
100
AcDbPolyline
90
8
70
1
43
0.0
10
18.984827669477145
20
-123.91100323624593
10
11.68482766947713
20
-123.91100323624593
42
-0.41421356237309509
10
9.9348276694771407
20
-122.16100323624595
10
9.93482766947713
20
-114.86100323624586
42
-0.41421356237309509
10
11.684827669477137
20
-113.11100323624586
10
18.984827669477141
20
-113.11100323624586
42
-0.41421356237309509
10
20.734827669477145
20
-114.86100323624586
10
20.734827669477127
20
-122.1610032362459
42
-0.41421356237309948
0
LWPOLYLINE
5
298
100
AcDbEntity
8
0
100
AcDbPolyline
90
8
70
1
43
0.0
10
33.984827669477141
20
-123.91100323624593
10
26.684827669477123
20
-123.91100323624593
42
-0.41421356237309509
10
24.934827669477137
20
-122.16100323624595
10
24.934827669477126
20
-114.86100323624586
42
-0.41421356237309509
10
26.684827669477134
20
-113.11100323624586
10
33.984827669477141
20
-113.11100323624586
42
-0.41421356237309509
10
35.734827669477141
20
-114.86100323624586
10
35.73482766947712
20
-122.1610032362459
42
-0.41421356237309948
0
LWPOLYLINE
5
299
100
AcDbEntity
8
0
100
AcDbPolyline
90
8
70
1
43
0.0
10
48.984827669477141
20
-123.91100323624593
10
41.684827669477123
20
-123.91100323624593
42
-0.41421356237309509
10
39.934827669477137
20
-122.16100323624595
10
39.93482766947713
20
-114.86100323624586
42
-0.41421356237309509
10
41.68482766947713
20
-113.11100323624586
10
48.984827669477141
20
-113.11100323624586
42
-0.41421356237309509
10
50.734827669477141
20
-114.86100323624586
10
50.73482766947712
20
-122.1610032362459
42
-0.41421356237309948
0
LWPOLYLINE
5
300
100
AcDbEntity
8
0
100
AcDbPolyline
90
8
70
1
43
0.0
10
63.984827669477141
20
-123.91100323624593
10
56.684827669477116
20
-123.91100323624593
42
-0.41421356237309509
10
54.93482766947713
20
-122.16100323624595
10
54.93482766947713
20
-114.86100323624586
42
-0.41421356237309509
10
56.68482766947713
20
-113.11100323624586
10
63.984827669477141
20
-113.11100323624586
42
-0.41421356237309509
10
65.734827669477141
20
-114.86100323624586
10
65.734827669477113
20
-122.1610032362459
42
-0.41421356237309948
0
LWPOLYLINE
5
301
100
AcDbEntity
8
0
100
AcDbPolyline
90
8
70
1
43
0.0
10
78.984827669477141
20
-123.91100323624593
10
71.684827669477116
20
-123.91100323624593
42
-0.41421356237309509
10
69.93482766947713
20
-122.16100323624595
10
69.93482766947713
20
-114.86100323624586
42
-0.41421356237309509
10
71.68482766947713
20
-113.11100323624586
10
78.984827669477141
20
-113.11100323624588
42
-0.41421356237309509
10
80.734827669477127
20
-114.86100323624586
10
80.734827669477127
20
-122.1610032362459
42
-0.41421356237309948
0
LWPOLYLINE
5
302
100
AcDbEntity
8
0
100
AcDbPolyline
90
8
70
1
43
0.0
10
93.984827669477141
20
-123.91100323624593
10
86.684827669477116
20
-123.91100323624593
42
-0.41421356237309509
10
84.93482766947713
20
-122.16100323624595
10
84.93482766947713
20
-114.86100323624586
42
-0.41421356237309509
10
86.68482766947713
20
-113.11100323624586
10
93.984827669477141
20
-113.11100323624588
42
-0.41421356237309509
10
95.734827669477127
20
-114.86100323624586
10
95.734827669477113
20
-122.1610032362459
42
-0.41421356237309803
0
LWPOLYLINE
5
303
100
AcDbEntity
8
0
100
AcDbPolyline
90
8
70
1
43
0.0
10
108.98482766947711
20
-123.91100323624593
10
101.68482766947712
20
-123.91100323624593
42
-0.41421356237309509
10
99.93482766947713
20
-122.16100323624595
10
99.934827669477102
20
-114.86100323624586
42
-0.41421356237309509
10
101.68482766947712
20
-113.11100323624586
10
108.98482766947711
20
-113.11100323624586
42
-0.41421356237309509
10
110.73482766947713
20
-114.86100323624586
10
110.73482766947711
20
-122.1610032362459
42
-0.41421356237310097
0
LWPOLYLINE
5
304
100
AcDbEntity
8
0
100
AcDbPolyline
90
8
70
1
43
0.0
10
123.98482766947711
20
-123.91100323624593
10
116.68482766947712
20
-123.91100323624593
42
-0.41421356237309509
10
114.93482766947713
20
-122.16100323624595
10
114.9348276694771
20
-114.86100323624586
42
-0.41421356237309509
10
116.68482766947712
20
-113.11100323624586
10
123.98482766947711
20
-113.11100323624586
42
-0.41421356237309509
10
125.73482766947713
20
-114.86100323624586
10
125.73482766947711
20
-122.1610032362459
42
-0.41421356237310097
0
LWPOLYLINE
5
305
100
AcDbEntity
8
0
100
AcDbPolyline
90
8
70
1
43
0.0
10
138.98482766947711
20
-123.91100323624593
10
131.6848276694771
20
-123.91100323624593
42
-0.41421356237309509
10
129.93482766947713
20
-122.16100323624595
10
129.9348276694771
20
-114.86100323624586
42
-0.41421356237309509
10
131.6848276694771
20
-113.11100323624586
10
138.98482766947711
20
-113.11100323624586
42
-0.41421356237309509
10
140.73482766947711
20
-114.86100323624586
10
140.73482766947711
20
-122.1610032362459
42
-0.41421356237310097
0
LWPOLYLINE
5
306
100
AcDbEntity
8
0
100
AcDbPolyline
90
8
70
1
43
0.0
10
153.98482766947711
20
-123.91100323624593
10
146.6848276694771
20
-123.91100323624593
42
-0.41421356237309509
10
144.93482766947713
20
-122.16100323624595
10
144.9348276694771
20
-114.86100323624586
42
-0.41421356237309509
10
146.6848276694771
20
-113.11100323624586
10
153.98482766947711
20
-113.11100323624586
42
-0.41421356237309509
10
155.73482766947711
20
-114.86100323624586
10
155.73482766947711
20
-122.1610032362459
42
-0.41421356237310097
0
LWPOLYLINE
5
307
100
AcDbEntity
8
0
100
AcDbPolyline
90
8
70
1
43
0.0
10
168.98482766947711
20
-123.91100323624593
10
161.6848276694771
20
-123.91100323624593
42
-0.41421356237309509
10
159.93482766947713
20
-122.16100323624595
10
159.9348276694771
20
-114.86100323624586
42
-0.41421356237309509
10
161.6848276694771
20
-113.11100323624586
10
168.98482766947711
20
-113.11100323624586
42
-0.41421356237309509
10
170.73482766947711
20
-114.86100323624586
10
170.73482766947711
20
-122.1610032362459
42
-0.41421356237310097
0
LWPOLYLINE
5
308
100
AcDbEntity
8
0
100
AcDbPolyline
90
8
70
1
43
0.0
10
183.98482766947711
20
-123.91100323624593
10
176.68482766947707
20
-123.91100323624592
42
-0.41421356237309509
10
174.9348276694771
20
-122.16100323624595
10
174.9348276694771
20
-114.86100323624586
42
-0.41421356237309509
10
176.6848276694771
20
-113.11100323624586
10
183.98482766947711
20
-113.11100323624586
42
-0.41421356237309509
10
185.73482766947711
20
-114.86100323624586
10
185.73482766947706
20
-122.1610032362459
42
-0.41421356237309509
0
LWPOLYLINE
5
309
100
AcDbEntity
8
0
100
AcDbPolyline
90
8
70
1
43
0.0
10
198.98482766947711
20
-123.91100323624593
10
191.68482766947707
20
-123.91100323624592
42
-0.41421356237309509
10
189.9348276694771
20
-122.16100323624595
10
189.9348276694771
20
-114.86100323624586
42
-0.41421356237309509
10
191.6848276694771
20
-113.11100323624586
10
198.98482766947711
20
-113.11100323624586
42
-0.41421356237309509
10
200.73482766947711
20
-114.86100323624586
10
200.73482766947706
20
-122.1610032362459
42
-0.41421356237309509
0
LWPOLYLINE
5
310
100
AcDbEntity
8
0
100
AcDbPolyline
90
8
70
1
43
0.0
10
213.98482766947711
20
-123.91100323624593
10
206.68482766947707
20
-123.91100323624592
42
-0.41421356237309509
10
204.9348276694771
20
-122.16100323624595
10
204.9348276694771
20
-114.86100323624586
42
-0.41421356237309509
10
206.6848276694771
20
-113.11100323624586
10
213.98482766947711
20
-113.11100323624586
42
-0.41421356237309509
10
215.73482766947711
20
-114.86100323624586
10
215.73482766947706
20
-122.1610032362459
42
-0.41421356237309509
0
LWPOLYLINE
5
311
100
AcDbEntity
8
0
100
AcDbPolyline
90
8
70
1
43
0.0
10
228.98482766947711
20
-123.91100323624593
10
221.68482766947707
20
-123.91100323624592
42
-0.41421356237309509
10
219.9348276694771
20
-122.16100323624595
10
219.9348276694771
20
-114.86100323624586
42
-0.41421356237309509
10
221.6848276694771
20
-113.11100323624586
10
228.98482766947711
20
-113.11100323624586
42
-0.41421356237309509
10
230.73482766947711
20
-114.86100323624586
10
230.73482766947706
20
-122.1610032362459
42
-0.41421356237309509
0
LWPOLYLINE
5
312
100
AcDbEntity
8
0
100
AcDbPolyline
90
8
70
1
43
0.0
10
243.98482766947711
20
-123.91100323624593
10
236.68482766947707
20
-123.91100323624592
42
-0.41421356237309509
10
234.9348276694771
20
-122.16100323624595
10
234.9348276694771
20
-114.86100323624586
42
-0.41421356237309509
10
236.6848276694771
20
-113.11100323624586
10
243.98482766947711
20
-113.11100323624586
42
-0.41421356237309509
10
245.73482766947711
20
-114.86100323624586
10
245.73482766947706
20
-122.1610032362459
42
-0.41421356237309509
0
LWPOLYLINE
5
313
100
AcDbEntity
8
0
100
AcDbPolyline
90
8
70
1
43
0.0
10
18.984827669477145
20
-138.91100323624593
10
11.68482766947713
20
-138.91100323624593
42
-0.41421356237309509
10
9.9348276694771407
20
-137.16100323624596
10
9.93482766947713
20
-129.86100323624586
42
-0.41421356237309509
10
11.684827669477137
20
-128.11100323624586
10
18.984827669477141
20
-128.11100323624586
42
-0.41421356237309509
10
20.734827669477145
20
-129.86100323624586
10
20.734827669477127
20
-137.1610032362459
42
-0.41421356237309948
0
LWPOLYLINE
5
314
100
AcDbEntity
8
0
100
AcDbPolyline
90
8
70
1
43
0.0
10
33.984827669477141
20
-138.91100323624593
10
26.684827669477123
20
-138.91100323624593
42
-0.41421356237309509
10
24.934827669477137
20
-137.16100323624596
10
24.934827669477126
20
-129.86100323624586
42
-0.41421356237309509
10
26.684827669477134
20
-128.11100323624586
10
33.984827669477141
20
-128.11100323624586
42
-0.41421356237309509
10
35.734827669477141
20
-129.86100323624586
10
35.73482766947712
20
-137.1610032362459
42
-0.41421356237309948
0
LWPOLYLINE
5
315
100
AcDbEntity
8
0
100
AcDbPolyline
90
8
70
1
43
0.0
10
48.984827669477141
20
-138.91100323624593
10
41.684827669477123
20
-138.91100323624593
42
-0.41421356237309509
10
39.934827669477137
20
-137.16100323624596
10
39.93482766947713
20
-129.86100323624586
42
-0.41421356237309509
10
41.68482766947713
20
-128.11100323624586
10
48.984827669477141
20
-128.11100323624586
42
-0.41421356237309509
10
50.734827669477141
20
-129.86100323624586
10
50.73482766947712
20
-137.1610032362459
42
-0.41421356237309948
0
LWPOLYLINE
5
316
100
AcDbEntity
8
0
100
AcDbPolyline
90
8
70
1
43
0.0
10
63.984827669477141
20
-138.91100323624593
10
56.684827669477116
20
-138.91100323624593
42
-0.41421356237309509
10
54.93482766947713
20
-137.16100323624596
10
54.93482766947713
20
-129.86100323624586
42
-0.41421356237309509
10
56.68482766947713
20
-128.11100323624586
10
63.984827669477141
20
-128.11100323624586
42
-0.41421356237309509
10
65.734827669477141
20
-129.86100323624586
10
65.734827669477113
20
-137.1610032362459
42
-0.41421356237309948
0
LWPOLYLINE
5
317
100
AcDbEntity
8
0
100
AcDbPolyline
90
8
70
1
43
0.0
10
78.984827669477141
20
-138.91100323624593
10
71.684827669477116
20
-138.91100323624593
42
-0.41421356237309509
10
69.93482766947713
20
-137.16100323624596
10
69.93482766947713
20
-129.86100323624586
42
-0.41421356237309509
10
71.68482766947713
20
-128.11100323624586
10
78.984827669477141
20
-128.11100323624589
42
-0.41421356237309509
10
80.734827669477127
20
-129.86100323624586
10
80.734827669477127
20
-137.1610032362459
42
-0.41421356237309948
0
LWPOLYLINE
5
318
100
AcDbEntity
8
0
100
AcDbPolyline
90
8
70
1
43
0.0
10
93.984827669477141
20
-138.91100323624593
10
86.684827669477116
20
-138.91100323624593
42
-0.41421356237309509
10
84.93482766947713
20
-137.16100323624596
10
84.93482766947713
20
-129.86100323624586
42
-0.41421356237309509
10
86.68482766947713
20
-128.11100323624586
10
93.984827669477141
20
-128.11100323624589
42
-0.41421356237309509
10
95.734827669477127
20
-129.86100323624586
10
95.734827669477113
20
-137.1610032362459
42
-0.41421356237309803
0
LWPOLYLINE
5
319
100
AcDbEntity
8
0
100
AcDbPolyline
90
8
70
1
43
0.0
10
108.98482766947711
20
-138.91100323624593
10
101.68482766947712
20
-138.91100323624593
42
-0.41421356237309509
10
99.93482766947713
20
-137.16100323624596
10
99.934827669477102
20
-129.86100323624586
42
-0.41421356237309509
10
101.68482766947712
20
-128.11100323624586
10
108.98482766947711
20
-128.11100323624586
42
-0.41421356237309509
10
110.73482766947713
20
-129.86100323624586
10
110.73482766947711
20
-137.1610032362459
42
-0.41421356237310097
0
LWPOLYLINE
5
320
100
AcDbEntity
8
0
100
AcDbPolyline
90
8
70
1
43
0.0
10
123.98482766947711
20
-138.91100323624593
10
116.68482766947712
20
-138.91100323624593
42
-0.41421356237309509
10
114.93482766947713
20
-137.16100323624596
10
114.9348276694771
20
-129.86100323624586
42
-0.41421356237309509
10
116.68482766947712
20
-128.11100323624586
10
123.98482766947711
20
-128.11100323624586
42
-0.41421356237309509
10
125.73482766947713
20
-129.86100323624586
10
125.73482766947711
20
-137.1610032362459
42
-0.41421356237310097
0
LWPOLYLINE
5
321
100
AcDbEntity
8
0
100
AcDbPolyline
90
8
70
1
43
0.0
10
138.98482766947711
20
-138.91100323624593
10
131.6848276694771
20
-138.91100323624593
42
-0.41421356237309509
10
129.93482766947713
20
-137.16100323624596
10
129.9348276694771
20
-129.86100323624586
42
-0.41421356237309509
10
131.6848276694771
20
-128.11100323624586
10
138.98482766947711
20
-128.11100323624586
42
-0.41421356237309509
10
140.73482766947711
20
-129.86100323624586
10
140.73482766947711
20
-137.1610032362459
42
-0.41421356237310097
0
LWPOLYLINE
5
322
100
AcDbEntity
8
0
100
AcDbPolyline
90
8
70
1
43
0.0
10
153.98482766947711
20
-138.91100323624593
10
146.6848276694771
20
-138.91100323624593
42
-0.41421356237309509
10
144.93482766947713
20
-137.16100323624596
10
144.9348276694771
20
-129.86100323624586
42
-0.41421356237309509
10
146.6848276694771
20
-128.11100323624586
10
153.98482766947711
20
-128.11100323624586
42
-0.41421356237309509
10
155.73482766947711
20
-129.86100323624586
10
155.73482766947711
20
-137.1610032362459
42
-0.41421356237310097
0
LWPOLYLINE
5
323
100
AcDbEntity
8
0
100
AcDbPolyline
90
8
70
1
43
0.0
10
168.98482766947711
20
-138.91100323624593
10
161.6848276694771
20
-138.91100323624593
42
-0.41421356237309509
10
159.93482766947713
20
-137.16100323624596
10
159.9348276694771
20
-129.86100323624586
42
-0.41421356237309509
10
161.6848276694771
20
-128.11100323624586
10
168.98482766947711
20
-128.11100323624586
42
-0.41421356237309509
10
170.73482766947711
20
-129.86100323624586
10
170.73482766947711
20
-137.1610032362459
42
-0.41421356237310097
0
LWPOLYLINE
5
324
100
AcDbEntity
8
0
100
AcDbPolyline
90
8
70
1
43
0.0
10
183.98482766947711
20
-138.91100323624593
10
176.68482766947707
20
-138.9110032362459
42
-0.41421356237309509
10
174.9348276694771
20
-137.16100323624596
10
174.9348276694771
20
-129.86100323624586
42
-0.41421356237309509
10
176.6848276694771
20
-128.11100323624586
10
183.98482766947711
20
-128.11100323624586
42
-0.41421356237309509
10
185.73482766947711
20
-129.86100323624586
10
185.73482766947706
20
-137.1610032362459
42
-0.41421356237309509
0
LWPOLYLINE
5
325
100
AcDbEntity
8
0
100
AcDbPolyline
90
8
70
1
43
0.0
10
198.98482766947711
20
-138.91100323624593
10
191.68482766947707
20
-138.9110032362459
42
-0.41421356237309509
10
189.9348276694771
20
-137.16100323624596
10
189.9348276694771
20
-129.86100323624586
42
-0.41421356237309509
10
191.6848276694771
20
-128.11100323624586
10
198.98482766947711
20
-128.11100323624586
42
-0.41421356237309509
10
200.73482766947711
20
-129.86100323624586
10
200.73482766947706
20
-137.1610032362459
42
-0.41421356237309509
0
LWPOLYLINE
5
326
100
AcDbEntity
8
0
100
AcDbPolyline
90
8
70
1
43
0.0
10
213.98482766947711
20
-138.91100323624593
10
206.68482766947707
20
-138.9110032362459
42
-0.41421356237309509
10
204.9348276694771
20
-137.16100323624596
10
204.9348276694771
20
-129.86100323624586
42
-0.41421356237309509
10
206.6848276694771
20
-128.11100323624586
10
213.98482766947711
20
-128.11100323624586
42
-0.41421356237309509
10
215.73482766947711
20
-129.86100323624586
10
215.73482766947706
20
-137.1610032362459
42
-0.41421356237309509
0
LWPOLYLINE
5
327
100
AcDbEntity
8
0
100
AcDbPolyline
90
8
70
1
43
0.0
10
228.98482766947711
20
-138.91100323624593
10
221.68482766947707
20
-138.9110032362459
42
-0.41421356237309509
10
219.9348276694771
20
-137.16100323624596
10
219.9348276694771
20
-129.86100323624586
42
-0.41421356237309509
10
221.6848276694771
20
-128.11100323624586
10
228.98482766947711
20
-128.11100323624586
42
-0.41421356237309509
10
230.73482766947711
20
-129.86100323624586
10
230.73482766947706
20
-137.1610032362459
42
-0.41421356237309509
0
LWPOLYLINE
5
328
100
AcDbEntity
8
0
100
AcDbPolyline
90
8
70
1
43
0.0
10
243.98482766947711
20
-138.91100323624593
10
236.68482766947707
20
-138.9110032362459
42
-0.41421356237309509
10
234.9348276694771
20
-137.16100323624596
10
234.9348276694771
20
-129.86100323624586
42
-0.41421356237309509
10
236.6848276694771
20
-128.11100323624586
10
243.98482766947711
20
-128.11100323624586
42
-0.41421356237309509
10
245.73482766947711
20
-129.86100323624586
10
245.73482766947706
20
-137.1610032362459
42
-0.41421356237309509
0
LWPOLYLINE
5
329
100
AcDbEntity
8
0
100
AcDbPolyline
90
8
70
1
43
0.0
10
18.984827669477145
20
-153.91100323624593
10
11.68482766947713
20
-153.91100323624593
42
-0.41421356237309509
10
9.9348276694771407
20
-152.16100323624596
10
9.93482766947713
20
-144.86100323624586
42
-0.41421356237309509
10
11.684827669477137
20
-143.11100323624586
10
18.984827669477141
20
-143.11100323624586
42
-0.41421356237309509
10
20.734827669477145
20
-144.86100323624586
10
20.734827669477127
20
-152.1610032362459
42
-0.41421356237309948
0
LWPOLYLINE
5
330
100
AcDbEntity
8
0
100
AcDbPolyline
90
8
70
1
43
0.0
10
33.984827669477141
20
-153.91100323624593
10
26.684827669477123
20
-153.91100323624593
42
-0.41421356237309509
10
24.934827669477137
20
-152.16100323624596
10
24.934827669477126
20
-144.86100323624586
42
-0.41421356237309509
10
26.684827669477134
20
-143.11100323624586
10
33.984827669477141
20
-143.11100323624586
42
-0.41421356237309509
10
35.734827669477141
20
-144.86100323624586
10
35.73482766947712
20
-152.1610032362459
42
-0.41421356237309948
0
LWPOLYLINE
5
331
100
AcDbEntity
8
0
100
AcDbPolyline
90
8
70
1
43
0.0
10
48.984827669477141
20
-153.91100323624593
10
41.684827669477123
20
-153.91100323624593
42
-0.41421356237309509
10
39.934827669477137
20
-152.16100323624596
10
39.93482766947713
20
-144.86100323624586
42
-0.41421356237309509
10
41.68482766947713
20
-143.11100323624586
10
48.984827669477141
20
-143.11100323624586
42
-0.41421356237309509
10
50.734827669477141
20
-144.86100323624586
10
50.73482766947712
20
-152.1610032362459
42
-0.41421356237309948
0
LWPOLYLINE
5
332
100
AcDbEntity
8
0
100
AcDbPolyline
90
8
70
1
43
0.0
10
63.984827669477141
20
-153.91100323624593
10
56.684827669477116
20
-153.91100323624593
42
-0.41421356237309509
10
54.93482766947713
20
-152.16100323624596
10
54.93482766947713
20
-144.86100323624586
42
-0.41421356237309509
10
56.68482766947713
20
-143.11100323624586
10
63.984827669477141
20
-143.11100323624586
42
-0.41421356237309509
10
65.734827669477141
20
-144.86100323624586
10
65.734827669477113
20
-152.1610032362459
42
-0.41421356237309948
0
LWPOLYLINE
5
333
100
AcDbEntity
8
0
100
AcDbPolyline
90
8
70
1
43
0.0
10
78.984827669477141
20
-153.91100323624593
10
71.684827669477116
20
-153.91100323624593
42
-0.41421356237309509
10
69.93482766947713
20
-152.16100323624596
10
69.93482766947713
20
-144.86100323624586
42
-0.41421356237309509
10
71.68482766947713
20
-143.11100323624586
10
78.984827669477141
20
-143.11100323624589
42
-0.41421356237309509
10
80.734827669477127
20
-144.86100323624586
10
80.734827669477127
20
-152.1610032362459
42
-0.41421356237309948
0
LWPOLYLINE
5
334
100
AcDbEntity
8
0
100
AcDbPolyline
90
8
70
1
43
0.0
10
93.984827669477141
20
-153.91100323624593
10
86.684827669477116
20
-153.91100323624593
42
-0.41421356237309509
10
84.93482766947713
20
-152.16100323624596
10
84.93482766947713
20
-144.86100323624586
42
-0.41421356237309509
10
86.68482766947713
20
-143.11100323624586
10
93.984827669477141
20
-143.11100323624589
42
-0.41421356237309509
10
95.734827669477127
20
-144.86100323624586
10
95.734827669477113
20
-152.1610032362459
42
-0.41421356237309803
0
LWPOLYLINE
5
335
100
AcDbEntity
8
0
100
AcDbPolyline
90
8
70
1
43
0.0
10
108.98482766947711
20
-153.91100323624593
10
101.68482766947712
20
-153.91100323624593
42
-0.41421356237309509
10
99.93482766947713
20
-152.16100323624596
10
99.934827669477102
20
-144.86100323624586
42
-0.41421356237309509
10
101.68482766947712
20
-143.11100323624586
10
108.98482766947711
20
-143.11100323624586
42
-0.41421356237309509
10
110.73482766947713
20
-144.86100323624586
10
110.73482766947711
20
-152.1610032362459
42
-0.41421356237310097
0
LWPOLYLINE
5
336
100
AcDbEntity
8
0
100
AcDbPolyline
90
8
70
1
43
0.0
10
123.98482766947711
20
-153.91100323624593
10
116.68482766947712
20
-153.91100323624593
42
-0.41421356237309509
10
114.93482766947713
20
-152.16100323624596
10
114.9348276694771
20
-144.86100323624586
42
-0.41421356237309509
10
116.68482766947712
20
-143.11100323624586
10
123.98482766947711
20
-143.11100323624586
42
-0.41421356237309509
10
125.73482766947713
20
-144.86100323624586
10
125.73482766947711
20
-152.1610032362459
42
-0.41421356237310097
0
LWPOLYLINE
5
337
100
AcDbEntity
8
0
100
AcDbPolyline
90
8
70
1
43
0.0
10
138.98482766947711
20
-153.91100323624593
10
131.6848276694771
20
-153.91100323624593
42
-0.41421356237309509
10
129.93482766947713
20
-152.16100323624596
10
129.9348276694771
20
-144.86100323624586
42
-0.41421356237309509
10
131.6848276694771
20
-143.11100323624586
10
138.98482766947711
20
-143.11100323624586
42
-0.41421356237309509
10
140.73482766947711
20
-144.86100323624586
10
140.73482766947711
20
-152.1610032362459
42
-0.41421356237310097
0
LWPOLYLINE
5
338
100
AcDbEntity
8
0
100
AcDbPolyline
90
8
70
1
43
0.0
10
153.98482766947711
20
-153.91100323624593
10
146.6848276694771
20
-153.91100323624593
42
-0.41421356237309509
10
144.93482766947713
20
-152.16100323624596
10
144.9348276694771
20
-144.86100323624586
42
-0.41421356237309509
10
146.6848276694771
20
-143.11100323624586
10
153.98482766947711
20
-143.11100323624586
42
-0.41421356237309509
10
155.73482766947711
20
-144.86100323624586
10
155.73482766947711
20
-152.1610032362459
42
-0.41421356237310097
0
LWPOLYLINE
5
339
100
AcDbEntity
8
0
100
AcDbPolyline
90
8
70
1
43
0.0
10
168.98482766947711
20
-153.91100323624593
10
161.6848276694771
20
-153.91100323624593
42
-0.41421356237309509
10
159.93482766947713
20
-152.16100323624596
10
159.9348276694771
20
-144.86100323624586
42
-0.41421356237309509
10
161.6848276694771
20
-143.11100323624586
10
168.98482766947711
20
-143.11100323624586
42
-0.41421356237309509
10
170.73482766947711
20
-144.86100323624586
10
170.73482766947711
20
-152.1610032362459
42
-0.41421356237310097
0
LWPOLYLINE
5
340
100
AcDbEntity
8
0
100
AcDbPolyline
90
8
70
1
43
0.0
10
183.98482766947711
20
-153.91100323624593
10
176.68482766947707
20
-153.9110032362459
42
-0.41421356237309509
10
174.9348276694771
20
-152.16100323624596
10
174.9348276694771
20
-144.86100323624586
42
-0.41421356237309509
10
176.6848276694771
20
-143.11100323624586
10
183.98482766947711
20
-143.11100323624586
42
-0.41421356237309509
10
185.73482766947711
20
-144.86100323624586
10
185.73482766947706
20
-152.1610032362459
42
-0.41421356237309509
0
LWPOLYLINE
5
341
100
AcDbEntity
8
0
100
AcDbPolyline
90
8
70
1
43
0.0
10
198.98482766947711
20
-153.91100323624593
10
191.68482766947707
20
-153.9110032362459
42
-0.41421356237309509
10
189.9348276694771
20
-152.16100323624596
10
189.9348276694771
20
-144.86100323624586
42
-0.41421356237309509
10
191.6848276694771
20
-143.11100323624586
10
198.98482766947711
20
-143.11100323624586
42
-0.41421356237309509
10
200.73482766947711
20
-144.86100323624586
10
200.73482766947706
20
-152.1610032362459
42
-0.41421356237309509
0
LWPOLYLINE
5
342
100
AcDbEntity
8
0
100
AcDbPolyline
90
8
70
1
43
0.0
10
213.98482766947711
20
-153.91100323624593
10
206.68482766947707
20
-153.9110032362459
42
-0.41421356237309509
10
204.9348276694771
20
-152.16100323624596
10
204.9348276694771
20
-144.86100323624586
42
-0.41421356237309509
10
206.6848276694771
20
-143.11100323624586
10
213.98482766947711
20
-143.11100323624586
42
-0.41421356237309509
10
215.73482766947711
20
-144.86100323624586
10
215.73482766947706
20
-152.1610032362459
42
-0.41421356237309509
0
LWPOLYLINE
5
343
100
AcDbEntity
8
0
100
AcDbPolyline
90
8
70
1
43
0.0
10
228.98482766947711
20
-153.91100323624593
10
221.68482766947707
20
-153.9110032362459
42
-0.41421356237309509
10
219.9348276694771
20
-152.16100323624596
10
219.9348276694771
20
-144.86100323624586
42
-0.41421356237309509
10
221.6848276694771
20
-143.11100323624586
10
228.98482766947711
20
-143.11100323624586
42
-0.41421356237309509
10
230.73482766947711
20
-144.86100323624586
10
230.73482766947706
20
-152.1610032362459
42
-0.41421356237309509
0
LWPOLYLINE
5
344
100
AcDbEntity
8
0
100
AcDbPolyline
90
8
70
1
43
0.0
10
243.98482766947711
20
-153.91100323624593
10
236.68482766947707
20
-153.9110032362459
42
-0.41421356237309509
10
234.9348276694771
20
-152.16100323624596
10
234.9348276694771
20
-144.86100323624586
42
-0.41421356237309509
10
236.6848276694771
20
-143.11100323624586
10
243.98482766947711
20
-143.11100323624586
42
-0.41421356237309509
10
245.73482766947711
20
-144.86100323624586
10
245.73482766947706
20
-152.1610032362459
42
-0.41421356237309509
0
LWPOLYLINE
5
345
100
AcDbEntity
8
0
100
AcDbPolyline
90
8
70
1
43
0.0
10
18.984827669477145
20
-168.9110032362459
10
11.68482766947713
20
-168.9110032362459
42
-0.41421356237309509
10
9.9348276694771407
20
-167.16100323624596
10
9.93482766947713
20
-159.86100323624586
42
-0.41421356237309509
10
11.684827669477137
20
-158.11100323624586
10
18.984827669477141
20
-158.11100323624586
42
-0.41421356237309509
10
20.734827669477145
20
-159.86100323624586
10
20.734827669477109
20
-167.1610032362459
42
-0.41421356237309948
0
LWPOLYLINE
5
346
100
AcDbEntity
8
0
100
AcDbPolyline
90
8
70
1
43
0.0
10
33.984827669477141
20
-168.9110032362459
10
26.684827669477123
20
-168.9110032362459
42
-0.41421356237309509
10
24.934827669477137
20
-167.16100323624596
10
24.934827669477126
20
-159.86100323624586
42
-0.41421356237309509
10
26.684827669477134
20
-158.11100323624586
10
33.984827669477141
20
-158.11100323624586
42
-0.41421356237309509
10
35.734827669477141
20
-159.86100323624586
10
35.734827669477106
20
-167.1610032362459
42
-0.41421356237309948
0
LWPOLYLINE
5
347
100
AcDbEntity
8
0
100
AcDbPolyline
90
8
70
1
43
0.0
10
48.984827669477141
20
-168.9110032362459
10
41.684827669477123
20
-168.9110032362459
42
-0.41421356237309509
10
39.934827669477137
20
-167.16100323624596
10
39.93482766947713
20
-159.86100323624586
42
-0.41421356237309509
10
41.68482766947713
20
-158.11100323624586
10
48.984827669477141
20
-158.11100323624586
42
-0.41421356237309509
10
50.734827669477141
20
-159.86100323624586
10
50.734827669477099
20
-167.1610032362459
42
-0.41421356237309948
0
LWPOLYLINE
5
348
100
AcDbEntity
8
0
100
AcDbPolyline
90
8
70
1
43
0.0
10
63.984827669477141
20
-168.9110032362459
10
56.684827669477116
20
-168.9110032362459
42
-0.41421356237309509
10
54.93482766947713
20
-167.16100323624596
10
54.93482766947713
20
-159.86100323624586
42
-0.41421356237309509
10
56.68482766947713
20
-158.11100323624586
10
63.984827669477141
20
-158.11100323624586
42
-0.41421356237309509
10
65.734827669477141
20
-159.86100323624586
10
65.734827669477099
20
-167.1610032362459
42
-0.41421356237309948
0
LWPOLYLINE
5
349
100
AcDbEntity
8
0
100
AcDbPolyline
90
8
70
1
43
0.0
10
78.984827669477141
20
-168.9110032362459
10
71.684827669477116
20
-168.9110032362459
42
-0.41421356237309509
10
69.93482766947713
20
-167.16100323624596
10
69.93482766947713
20
-159.86100323624586
42
-0.41421356237309509
10
71.68482766947713
20
-158.11100323624586
10
78.984827669477141
20
-158.11100323624589
42
-0.41421356237309509
10
80.734827669477127
20
-159.86100323624586
10
80.734827669477085
20
-167.1610032362459
42
-0.41421356237309948
0
LWPOLYLINE
5
350
100
AcDbEntity
8
0
100
AcDbPolyline
90
8
70
1
43
0.0
10
93.984827669477141
20
-168.9110032362459
10
86.684827669477116
20
-168.9110032362459
42
-0.41421356237309509
10
84.93482766947713
20
-167.16100323624596
10
84.93482766947713
20
-159.86100323624586
42
-0.41421356237309509
10
86.68482766947713
20
-158.11100323624586
10
93.984827669477141
20
-158.11100323624589
42
-0.41421356237309509
10
95.734827669477127
20
-159.86100323624586
10
95.734827669477085
20
-167.16100323624588
42
-0.41421356237309803
0
LWPOLYLINE
5
351
100
AcDbEntity
8
0
100
AcDbPolyline
90
8
70
1
43
0.0
10
108.98482766947711
20
-168.9110032362459
10
101.68482766947712
20
-168.9110032362459
42
-0.41421356237309509
10
99.93482766947713
20
-167.16100323624596
10
99.934827669477102
20
-159.86100323624586
42
-0.41421356237309509
10
101.68482766947712
20
-158.11100323624586
10
108.98482766947711
20
-158.11100323624586
42
-0.41421356237309509
10
110.73482766947713
20
-159.86100323624586
10
110.73482766947708
20
-167.1610032362459
42
-0.41421356237310097
0
LWPOLYLINE
5
352
100
AcDbEntity
8
0
100
AcDbPolyline
90
8
70
1
43
0.0
10
123.98482766947711
20
-168.9110032362459
10
116.68482766947712
20
-168.9110032362459
42
-0.41421356237309509
10
114.93482766947713
20
-167.16100323624596
10
114.9348276694771
20
-159.86100323624586
42
-0.41421356237309509
10
116.68482766947712
20
-158.11100323624586
10
123.98482766947711
20
-158.11100323624586
42
-0.41421356237309509
10
125.73482766947713
20
-159.86100323624586
10
125.73482766947708
20
-167.1610032362459
42
-0.41421356237310097
0
LWPOLYLINE
5
353
100
AcDbEntity
8
0
100
AcDbPolyline
90
8
70
1
43
0.0
10
138.98482766947711
20
-168.9110032362459
10
131.6848276694771
20
-168.9110032362459
42
-0.41421356237309509
10
129.93482766947713
20
-167.16100323624596
10
129.9348276694771
20
-159.86100323624586
42
-0.41421356237309509
10
131.6848276694771
20
-158.11100323624586
10
138.98482766947711
20
-158.11100323624586
42
-0.41421356237309509
10
140.73482766947711
20
-159.86100323624586
10
140.73482766947708
20
-167.1610032362459
42
-0.41421356237310097
0
LWPOLYLINE
5
354
100
AcDbEntity
8
0
100
AcDbPolyline
90
8
70
1
43
0.0
10
153.98482766947711
20
-168.9110032362459
10
146.6848276694771
20
-168.9110032362459
42
-0.41421356237309509
10
144.93482766947713
20
-167.16100323624596
10
144.9348276694771
20
-159.86100323624586
42
-0.41421356237309509
10
146.6848276694771
20
-158.11100323624586
10
153.98482766947711
20
-158.11100323624586
42
-0.41421356237309509
10
155.73482766947711
20
-159.86100323624586
10
155.73482766947708
20
-167.1610032362459
42
-0.41421356237310097
0
LWPOLYLINE
5
355
100
AcDbEntity
8
0
100
AcDbPolyline
90
8
70
1
43
0.0
10
168.98482766947711
20
-168.9110032362459
10
161.6848276694771
20
-168.9110032362459
42
-0.41421356237309509
10
159.93482766947713
20
-167.16100323624596
10
159.9348276694771
20
-159.86100323624586
42
-0.41421356237309509
10
161.6848276694771
20
-158.11100323624586
10
168.98482766947711
20
-158.11100323624586
42
-0.41421356237309509
10
170.73482766947711
20
-159.86100323624586
10
170.73482766947708
20
-167.1610032362459
42
-0.41421356237310097
0
LWPOLYLINE
5
356
100
AcDbEntity
8
0
100
AcDbPolyline
90
8
70
1
43
0.0
10
183.98482766947711
20
-168.9110032362459
10
176.68482766947707
20
-168.9110032362459
42
-0.41421356237309509
10
174.9348276694771
20
-167.16100323624596
10
174.9348276694771
20
-159.86100323624586
42
-0.41421356237309509
10
176.6848276694771
20
-158.11100323624586
10
183.98482766947711
20
-158.11100323624586
42
-0.41421356237309509
10
185.73482766947711
20
-159.86100323624586
10
185.73482766947706
20
-167.1610032362459
42
-0.41421356237309509
0
LWPOLYLINE
5
357
100
AcDbEntity
8
0
100
AcDbPolyline
90
8
70
1
43
0.0
10
198.98482766947711
20
-168.9110032362459
10
191.68482766947707
20
-168.9110032362459
42
-0.41421356237309509
10
189.9348276694771
20
-167.16100323624596
10
189.9348276694771
20
-159.86100323624586
42
-0.41421356237309509
10
191.6848276694771
20
-158.11100323624586
10
198.98482766947711
20
-158.11100323624586
42
-0.41421356237309509
10
200.73482766947711
20
-159.86100323624586
10
200.73482766947706
20
-167.1610032362459
42
-0.41421356237309509
0
LWPOLYLINE
5
358
100
AcDbEntity
8
0
100
AcDbPolyline
90
8
70
1
43
0.0
10
213.98482766947711
20
-168.9110032362459
10
206.68482766947707
20
-168.9110032362459
42
-0.41421356237309509
10
204.9348276694771
20
-167.16100323624596
10
204.9348276694771
20
-159.86100323624586
42
-0.41421356237309509
10
206.6848276694771
20
-158.11100323624586
10
213.98482766947711
20
-158.11100323624586
42
-0.41421356237309509
10
215.73482766947711
20
-159.86100323624586
10
215.73482766947706
20
-167.1610032362459
42
-0.41421356237309509
0
LWPOLYLINE
5
359
100
AcDbEntity
8
0
100
AcDbPolyline
90
8
70
1
43
0.0
10
228.98482766947711
20
-168.9110032362459
10
221.68482766947707
20
-168.9110032362459
42
-0.41421356237309509
10
219.9348276694771
20
-167.16100323624596
10
219.9348276694771
20
-159.86100323624586
42
-0.41421356237309509
10
221.6848276694771
20
-158.11100323624586
10
228.98482766947711
20
-158.11100323624586
42
-0.41421356237309509
10
230.73482766947711
20
-159.86100323624586
10
230.73482766947706
20
-167.1610032362459
42
-0.41421356237309509
0
LWPOLYLINE
5
360
100
AcDbEntity
8
0
100
AcDbPolyline
90
8
70
1
43
0.0
10
243.98482766947711
20
-168.9110032362459
10
236.68482766947707
20
-168.9110032362459
42
-0.41421356237309509
10
234.9348276694771
20
-167.16100323624596
10
234.9348276694771
20
-159.86100323624586
42
-0.41421356237309509
10
236.6848276694771
20
-158.11100323624586
10
243.98482766947711
20
-158.11100323624586
42
-0.41421356237309509
10
245.73482766947711
20
-159.86100323624586
10
245.73482766947706
20
-167.1610032362459
42
-0.41421356237309509
0
LWPOLYLINE
5
361
100
AcDbEntity
8
0
100
AcDbPolyline
90
8
70
1
43
0.0
10
18.984827669477145
20
-183.9110032362459
10
11.68482766947713
20
-183.9110032362459
42
-0.41421356237309509
10
9.9348276694771407
20
-182.16100323624596
10
9.93482766947713
20
-174.86100323624586
42
-0.41421356237309509
10
11.684827669477137
20
-173.11100323624586
10
18.984827669477141
20
-173.11100323624586
42
-0.41421356237309509
10
20.734827669477145
20
-174.86100323624586
10
20.734827669477109
20
-182.1610032362459
42
-0.41421356237309948
0
LWPOLYLINE
5
362
100
AcDbEntity
8
0
100
AcDbPolyline
90
8
70
1
43
0.0
10
33.984827669477141
20
-183.9110032362459
10
26.684827669477123
20
-183.9110032362459
42
-0.41421356237309509
10
24.934827669477137
20
-182.16100323624596
10
24.934827669477126
20
-174.86100323624586
42
-0.41421356237309509
10
26.684827669477134
20
-173.11100323624586
10
33.984827669477141
20
-173.11100323624586
42
-0.41421356237309509
10
35.734827669477141
20
-174.86100323624586
10
35.734827669477106
20
-182.1610032362459
42
-0.41421356237309948
0
LWPOLYLINE
5
363
100
AcDbEntity
8
0
100
AcDbPolyline
90
8
70
1
43
0.0
10
48.984827669477141
20
-183.9110032362459
10
41.684827669477123
20
-183.9110032362459
42
-0.41421356237309509
10
39.934827669477137
20
-182.16100323624596
10
39.93482766947713
20
-174.86100323624586
42
-0.41421356237309509
10
41.68482766947713
20
-173.11100323624586
10
48.984827669477141
20
-173.11100323624586
42
-0.41421356237309509
10
50.734827669477141
20
-174.86100323624586
10
50.734827669477099
20
-182.1610032362459
42
-0.41421356237309948
0
LWPOLYLINE
5
364
100
AcDbEntity
8
0
100
AcDbPolyline
90
8
70
1
43
0.0
10
63.984827669477141
20
-183.9110032362459
10
56.684827669477116
20
-183.9110032362459
42
-0.41421356237309509
10
54.93482766947713
20
-182.16100323624596
10
54.93482766947713
20
-174.86100323624586
42
-0.41421356237309509
10
56.68482766947713
20
-173.11100323624586
10
63.984827669477141
20
-173.11100323624586
42
-0.41421356237309509
10
65.734827669477141
20
-174.86100323624586
10
65.734827669477099
20
-182.1610032362459
42
-0.41421356237309948
0
LWPOLYLINE
5
365
100
AcDbEntity
8
0
100
AcDbPolyline
90
8
70
1
43
0.0
10
78.984827669477141
20
-183.9110032362459
10
71.684827669477116
20
-183.9110032362459
42
-0.41421356237309509
10
69.93482766947713
20
-182.16100323624596
10
69.93482766947713
20
-174.86100323624586
42
-0.41421356237309509
10
71.68482766947713
20
-173.11100323624586
10
78.984827669477141
20
-173.11100323624586
42
-0.41421356237309509
10
80.734827669477127
20
-174.86100323624586
10
80.734827669477085
20
-182.1610032362459
42
-0.41421356237309948
0
LWPOLYLINE
5
366
100
AcDbEntity
8
0
100
AcDbPolyline
90
8
70
1
43
0.0
10
93.984827669477141
20
-183.9110032362459
10
86.684827669477116
20
-183.9110032362459
42
-0.41421356237309509
10
84.93482766947713
20
-182.16100323624596
10
84.93482766947713
20
-174.86100323624586
42
-0.41421356237309509
10
86.68482766947713
20
-173.11100323624586
10
93.984827669477141
20
-173.11100323624586
42
-0.41421356237309509
10
95.734827669477127
20
-174.86100323624586
10
95.734827669477085
20
-182.16100323624588
42
-0.41421356237309803
0
LWPOLYLINE
5
367
100
AcDbEntity
8
0
100
AcDbPolyline
90
8
70
1
43
0.0
10
108.98482766947711
20
-183.9110032362459
10
101.68482766947712
20
-183.9110032362459
42
-0.41421356237309509
10
99.93482766947713
20
-182.16100323624596
10
99.934827669477102
20
-174.86100323624586
42
-0.41421356237309509
10
101.68482766947712
20
-173.11100323624586
10
108.98482766947711
20
-173.11100323624586
42
-0.41421356237309509
10
110.73482766947713
20
-174.86100323624586
10
110.73482766947708
20
-182.1610032362459
42
-0.41421356237310097
0
LWPOLYLINE
5
368
100
AcDbEntity
8
0
100
AcDbPolyline
90
8
70
1
43
0.0
10
123.98482766947711
20
-183.9110032362459
10
116.68482766947712
20
-183.9110032362459
42
-0.41421356237309509
10
114.93482766947713
20
-182.16100323624596
10
114.9348276694771
20
-174.86100323624586
42
-0.41421356237309509
10
116.68482766947712
20
-173.11100323624586
10
123.98482766947711
20
-173.11100323624586
42
-0.41421356237309509
10
125.73482766947713
20
-174.86100323624586
10
125.73482766947708
20
-182.1610032362459
42
-0.41421356237310097
0
LWPOLYLINE
5
369
100
AcDbEntity
8
0
100
AcDbPolyline
90
8
70
1
43
0.0
10
138.98482766947711
20
-183.9110032362459
10
131.6848276694771
20
-183.9110032362459
42
-0.41421356237309509
10
129.93482766947713
20
-182.16100323624596
10
129.9348276694771
20
-174.86100323624586
42
-0.41421356237309509
10
131.6848276694771
20
-173.11100323624586
10
138.98482766947711
20
-173.11100323624586
42
-0.41421356237309509
10
140.73482766947711
20
-174.86100323624586
10
140.73482766947708
20
-182.1610032362459
42
-0.41421356237310097
0
LWPOLYLINE
5
370
100
AcDbEntity
8
0
100
AcDbPolyline
90
8
70
1
43
0.0
10
153.98482766947711
20
-183.9110032362459
10
146.6848276694771
20
-183.9110032362459
42
-0.41421356237309509
10
144.93482766947713
20
-182.16100323624596
10
144.9348276694771
20
-174.86100323624586
42
-0.41421356237309509
10
146.6848276694771
20
-173.11100323624586
10
153.98482766947711
20
-173.11100323624586
42
-0.41421356237309509
10
155.73482766947711
20
-174.86100323624586
10
155.73482766947708
20
-182.1610032362459
42
-0.41421356237310097
0
LWPOLYLINE
5
371
100
AcDbEntity
8
0
100
AcDbPolyline
90
8
70
1
43
0.0
10
168.98482766947711
20
-183.9110032362459
10
161.6848276694771
20
-183.9110032362459
42
-0.41421356237309509
10
159.93482766947713
20
-182.16100323624596
10
159.9348276694771
20
-174.86100323624586
42
-0.41421356237309509
10
161.6848276694771
20
-173.11100323624586
10
168.98482766947711
20
-173.11100323624586
42
-0.41421356237309509
10
170.73482766947711
20
-174.86100323624586
10
170.73482766947708
20
-182.1610032362459
42
-0.41421356237310097
0
LWPOLYLINE
5
372
100
AcDbEntity
8
0
100
AcDbPolyline
90
8
70
1
43
0.0
10
183.98482766947711
20
-183.9110032362459
10
176.68482766947707
20
-183.9110032362459
42
-0.41421356237309509
10
174.9348276694771
20
-182.16100323624596
10
174.9348276694771
20
-174.86100323624586
42
-0.41421356237309509
10
176.6848276694771
20
-173.11100323624586
10
183.98482766947711
20
-173.11100323624586
42
-0.41421356237309509
10
185.73482766947711
20
-174.86100323624586
10
185.73482766947706
20
-182.1610032362459
42
-0.41421356237309509
0
LWPOLYLINE
5
373
100
AcDbEntity
8
0
100
AcDbPolyline
90
8
70
1
43
0.0
10
198.98482766947711
20
-183.9110032362459
10
191.68482766947707
20
-183.9110032362459
42
-0.41421356237309509
10
189.9348276694771
20
-182.16100323624596
10
189.9348276694771
20
-174.86100323624586
42
-0.41421356237309509
10
191.6848276694771
20
-173.11100323624586
10
198.98482766947711
20
-173.11100323624586
42
-0.41421356237309509
10
200.73482766947711
20
-174.86100323624586
10
200.73482766947706
20
-182.1610032362459
42
-0.41421356237309509
0
LWPOLYLINE
5
374
100
AcDbEntity
8
0
100
AcDbPolyline
90
8
70
1
43
0.0
10
213.98482766947711
20
-183.9110032362459
10
206.68482766947707
20
-183.9110032362459
42
-0.41421356237309509
10
204.9348276694771
20
-182.16100323624596
10
204.9348276694771
20
-174.86100323624586
42
-0.41421356237309509
10
206.6848276694771
20
-173.11100323624586
10
213.98482766947711
20
-173.11100323624586
42
-0.41421356237309509
10
215.73482766947711
20
-174.86100323624586
10
215.73482766947706
20
-182.1610032362459
42
-0.41421356237309509
0
LWPOLYLINE
5
375
100
AcDbEntity
8
0
100
AcDbPolyline
90
8
70
1
43
0.0
10
228.98482766947711
20
-183.9110032362459
10
221.68482766947707
20
-183.9110032362459
42
-0.41421356237309509
10
219.9348276694771
20
-182.16100323624596
10
219.9348276694771
20
-174.86100323624586
42
-0.41421356237309509
10
221.6848276694771
20
-173.11100323624586
10
228.98482766947711
20
-173.11100323624586
42
-0.41421356237309509
10
230.73482766947711
20
-174.86100323624586
10
230.73482766947706
20
-182.1610032362459
42
-0.41421356237309509
0
LWPOLYLINE
5
376
100
AcDbEntity
8
0
100
AcDbPolyline
90
8
70
1
43
0.0
10
243.98482766947711
20
-183.9110032362459
10
236.68482766947707
20
-183.9110032362459
42
-0.41421356237309509
10
234.9348276694771
20
-182.16100323624596
10
234.9348276694771
20
-174.86100323624586
42
-0.41421356237309509
10
236.6848276694771
20
-173.11100323624586
10
243.98482766947711
20
-173.11100323624586
42
-0.41421356237309509
10
245.73482766947711
20
-174.86100323624586
10
245.73482766947706
20
-182.1610032362459
42
-0.41421356237309509
0
ENDSEC
0
SECTION
2
OBJECTS
0
DICTIONARY
5
C
100
AcDbDictionary
3
ACAD_GROUP
350
D
3
ACAD_MLINESTYLE
350
17
0
DICTIONARY
5
D
100
AcDbDictionary
0
DICTIONARY
5
1A
330
C
100
AcDbDictionary
0
DICTIONARY
5
17
100
AcDbDictionary
0
ENDSEC
0
EOF
